<svg width="225" height="60" viewBox="0 0 225 60" fill="none" xmlns="http://www.w3.org/2000/svg">
<g clip-path="url(#clip0_1557_798)">
<path d="M77.8211 17.4183C76.8554 17.4209 75.8947 17.5563 74.9665 17.8207L83.0886 25.8949L84.9549 24.0397C85.0249 23.947 85.124 23.88 85.2364 23.8494C85.3489 23.8187 85.4684 23.8261 85.5762 23.8704C85.684 23.9147 85.7739 23.9934 85.8318 24.094C85.8897 24.1947 85.9122 24.3116 85.8959 24.4264V29.9817C85.8966 30.0542 85.8829 30.1261 85.8554 30.1933C85.828 30.2605 85.7875 30.3216 85.7361 30.3731C85.6848 30.4246 85.6237 30.4655 85.5564 30.4934C85.4891 30.5213 85.4169 30.5357 85.3439 30.5357H79.7557C79.6458 30.5362 79.5382 30.5041 79.4468 30.4435C79.3554 30.383 79.2842 30.2966 79.2424 30.1956C79.2006 30.0946 79.1901 29.9834 79.2123 29.8764C79.2344 29.7694 79.2881 29.6714 79.3666 29.595L81.2329 27.7397L72.3957 18.9548C70.2597 20.2527 68.6705 22.2776 67.9236 24.6529C67.1767 27.0282 67.3229 29.5924 68.3351 31.8686C69.3472 34.1448 71.1564 35.9781 73.4263 37.0278C75.6962 38.0774 78.2723 38.2719 80.6756 37.5751L72.5692 29.5114L70.6872 31.3561C70.6172 31.4489 70.5181 31.5158 70.4057 31.5465C70.2932 31.5771 70.1736 31.5697 70.0659 31.5254C69.9581 31.4811 69.8682 31.4024 69.8103 31.3018C69.7524 31.2011 69.7299 31.0842 69.7462 30.9694V25.4142C69.7462 25.2681 69.8041 25.128 69.9075 25.0243C70.0109 24.9205 70.1513 24.8616 70.2982 24.8602H75.8917C76.0016 24.8597 76.1091 24.8917 76.2006 24.9523C76.292 25.0129 76.3632 25.0992 76.4049 25.2003C76.4467 25.3013 76.4572 25.4124 76.4351 25.5194C76.413 25.6264 76.3592 25.7244 76.2807 25.8009L74.4302 27.6457L83.2621 36.4254C85.1759 35.2508 86.6518 33.4874 87.4656 31.403C88.2793 29.3186 88.3866 27.0272 87.771 24.8767C87.1554 22.7262 85.8505 20.8343 84.0547 19.4881C82.2589 18.142 80.0702 17.4153 77.8211 17.4183Z" fill="#E98135"/>
<path d="M7.99603 23.5746V43.4753H0V25.1842C0 16.3 4.50007 11.8788 13.4424 11.8788C17.4693 11.8788 20.55 12.762 22.8 14.5284C25.0553 12.8194 28.1307 11.9937 32.1576 11.9937C41.0947 11.9937 45.5474 16.4097 45.4843 25.2992V43.5903H41.3996C38.771 43.4126 37.4883 42.1793 37.4883 39.7021V23.6948C37.3148 20.4547 35.5379 18.866 32.042 18.866C28.546 18.866 26.7849 20.4338 26.7113 23.6948V43.4753H18.7731V23.5746C18.5996 20.3397 16.8227 18.751 13.3267 18.751C9.83075 18.751 8.05386 20.3292 7.99603 23.5746Z" fill="#2E2C70"/>
<path d="M53.864 12.3334H57.9435V39.7909C57.9435 40.7681 57.553 41.7052 56.8579 42.3962C56.1629 43.0871 55.2202 43.4753 54.2372 43.4753H50.0684V16.1066C50.0684 15.1059 50.4683 14.1462 51.1801 13.4386C51.8919 12.7309 52.8573 12.3334 53.864 12.3334Z" fill="#2E2C70"/>
<path d="M120.908 43.4753C118.306 43.3029 117.002 42.0643 117.002 39.5924V23.5746C116.823 20.3397 115.046 18.751 111.55 18.751C108.054 18.751 106.293 20.3188 106.22 23.5746V43.4753H98.2236V25.1842C98.2236 16.3 102.729 11.8788 111.671 11.8788C120.614 11.8788 124.998 16.2948 124.935 25.1842V43.4753H120.908Z" fill="#2E2C70"/>
<path d="M179.24 37.826C182.552 37.826 184.213 36.8853 184.213 34.8837C184.213 33.2898 181.49 31.9989 176.097 31.053C169.168 29.8197 165.614 26.7573 165.556 21.8709C165.556 15.1607 170.887 11.978 178.052 11.8631C182.079 11.8631 185.277 12.7463 187.646 14.5127C189.959 16.3383 191.204 18.8694 191.379 22.1061H186.406C184.571 22.0486 183.383 21.4006 182.91 20.162C182.384 18.8085 180.781 18.0455 178.178 18.0455C175.098 18.0455 173.557 18.8659 173.557 20.4547C173.557 22.0434 175.571 23.2819 179.656 24.0502C184.986 25.0954 188.482 26.4646 190.201 28.0533C190.916 28.7867 191.477 29.6531 191.853 30.6029C192.229 31.5527 192.413 32.5671 192.393 33.5877C192.393 41.2386 186.348 44.0659 178.057 44.0659C173.678 44.0659 170.361 43.1252 168.227 41.3013C165.856 39.5349 164.673 36.8226 164.673 33.2323H172.727C172.9 36.6501 175.387 37.826 179.24 37.826Z" fill="#2E2C70"/>
<path d="M210.394 18.866C205.715 18.866 203.702 22.7541 203.702 27.5203V43.4753H195.806V3.44395H199.775C202.403 3.44395 203.686 4.7975 203.686 7.38438V16.671C207.713 12.0826 212.623 10.7865 218.49 12.8456C222.874 14.4343 224.947 18.6151 224.709 25.388V43.4596H216.908V27.5203C216.908 22.2838 214.894 18.866 210.394 18.866Z" fill="#2E2C70"/>
<path d="M53.9538 7.90175C56.1488 7.90175 57.9282 6.13288 57.9282 3.95088C57.9282 1.76887 56.1488 0 53.9538 0C51.7589 0 49.9795 1.76887 49.9795 3.95088C49.9795 6.13288 51.7589 7.90175 53.9538 7.90175Z" fill="#2E2C70"/>
<path d="M103.123 55.4899V56.7076H105.315L105.242 56.8905C105.051 57.266 104.754 57.5774 104.386 57.7856C104.019 57.9938 103.598 58.0897 103.176 58.0611C101.814 58.0611 100.899 57.0943 100.899 55.6572C100.899 54.22 101.814 53.2428 103.176 53.2428C103.592 53.2292 104.004 53.3329 104.364 53.5418C104.724 53.7508 105.017 54.0565 105.21 54.4238H107.439C107.024 52.5843 105.284 51.2882 103.155 51.2882C101.996 51.2882 100.885 51.7458 100.066 52.5602C99.2464 53.3746 98.7861 54.4792 98.7861 55.631C98.7861 56.7828 99.2464 57.8874 100.066 58.7019C100.885 59.5163 101.996 59.9739 103.155 59.9739C105.694 59.9739 107.481 58.1291 107.539 55.469L103.123 55.4899Z" fill="#777780"/>
<path d="M110.903 51.5234V59.7805H116.082V57.8939H113.032V51.5234H110.903Z" fill="#777780"/>
<path d="M123.184 51.3091C120.529 51.3091 118.595 53.1382 118.595 55.6519C118.595 58.1657 120.529 59.9948 123.184 59.9948C125.839 59.9948 127.758 58.2127 127.758 55.6519C127.758 53.0912 125.886 51.3091 123.184 51.3091ZM123.184 58.1029C122.699 58.1144 122.222 57.9819 121.814 57.7225C121.405 57.4631 121.083 57.0885 120.89 56.6466C120.696 56.2046 120.64 55.7153 120.727 55.2412C120.815 54.7671 121.042 54.3297 121.381 53.9848C121.72 53.6399 122.154 53.4032 122.629 53.3049C123.103 53.2065 123.597 53.2511 124.046 53.4328C124.495 53.6145 124.879 53.9252 125.15 54.3251C125.421 54.725 125.565 55.1961 125.566 55.6781C125.576 55.9933 125.522 56.3074 125.407 56.6012C125.292 56.8951 125.117 57.1624 124.894 57.3869C124.671 57.6114 124.405 57.7883 124.111 57.907C123.817 58.0256 123.501 58.0834 123.184 58.0768V58.1029Z" fill="#777780"/>
<path d="M136.348 55.5317L136.127 55.4272L136.332 55.3018C136.639 55.1265 136.894 54.8747 137.073 54.5714C137.252 54.268 137.348 53.9236 137.352 53.572C137.352 52.3857 136.301 51.5234 134.855 51.5234H131.144V59.7805H134.96C136.474 59.7805 137.589 58.7928 137.589 57.4863C137.595 57.076 137.481 56.6728 137.26 56.3258C137.04 55.9788 136.723 55.7029 136.348 55.5317ZM133.12 53.0912H134.445C134.678 53.0912 134.901 53.1832 135.066 53.3468C135.23 53.5105 135.323 53.7325 135.323 53.9639C135.323 54.1954 135.23 54.4174 135.066 54.5811C134.901 54.7447 134.678 54.8367 134.445 54.8367H133.12V53.0912ZM134.534 58.1134H133.12V56.3052H134.534C134.654 56.3052 134.772 56.3286 134.882 56.374C134.993 56.4195 135.093 56.4861 135.177 56.57C135.262 56.654 135.329 56.7536 135.375 56.8633C135.42 56.973 135.444 57.0906 135.444 57.2093C135.444 57.328 135.42 57.4456 135.375 57.5553C135.329 57.665 135.262 57.7647 135.177 57.8486C135.093 57.9326 134.993 57.9991 134.882 58.0446C134.772 58.09 134.654 58.1134 134.534 58.1134Z" fill="#777780"/>
<path d="M145.9 58.3956L146.373 59.7805H148.686L145.337 51.5234H143.234L139.97 59.7805H142.183L142.656 58.3956H145.9ZM144.286 53.6608L145.416 56.8226H143.161L144.286 53.6608Z" fill="#777780"/>
<path d="M151.725 51.5234V59.7805H156.903V57.8939H153.854V51.5234H151.725Z" fill="#777780"/>
<path d="M164.326 51.5234V59.7805H169.504V57.8939H166.455V51.5234H164.326Z" fill="#777780"/>
<path d="M174.84 51.5286H172.711V59.7857H174.84V51.5286Z" fill="#777780"/>
<path d="M187.105 59.7805H189.223L187.978 51.5234H185.817L183.704 56.3575L181.595 51.5234H179.44L178.184 59.7805H180.307L181.012 54.544L183.435 59.7962H183.966L186.395 54.544L187.105 59.7805Z" fill="#777780"/>
<path d="M194.686 51.5286H192.557V59.7857H194.686V51.5286Z" fill="#777780"/>
<path d="M204.658 51.5234H197.897V53.3786H200.226V59.7805H202.334V53.3786H204.658V51.5234Z" fill="#777780"/>
<path d="M212.765 56.4724V54.8105H209.952V53.295H213.086V51.5234H207.865V59.7805H213.185V58.0089H209.952V56.4724H212.765Z" fill="#777780"/>
<path d="M220.03 51.5234H216.691V59.7805H220.03C222.553 59.7805 224.319 58.082 224.319 55.6467C224.319 53.2114 222.553 51.5234 220.03 51.5234ZM219.919 57.8939H218.799V53.41H219.919C220.517 53.41 221.091 53.6462 221.514 54.0666C221.937 54.4871 222.175 55.0573 222.175 55.6519C222.175 56.2466 221.937 56.8168 221.514 57.2373C221.091 57.6577 220.517 57.8939 219.919 57.8939Z" fill="#777780"/>
<path d="M156.903 30.6193H161.003C161.748 26.6408 160.929 22.5299 158.714 19.1344C156.499 15.7389 153.058 13.3177 149.101 12.3701C145.143 11.4225 140.971 12.0208 137.444 14.0415C133.917 16.0623 131.304 19.3515 130.145 23.2308C128.986 27.1101 129.369 31.2836 131.214 34.8907C133.059 38.4978 136.227 41.2634 140.063 42.6172C143.899 43.9709 148.112 43.8096 151.832 42.1665C155.552 40.5234 158.496 37.5238 160.057 33.7863H151.967C150.908 34.9259 149.57 35.7729 148.084 36.2446C146.598 36.7163 145.014 36.7965 143.487 36.4774C141.96 36.1582 140.543 35.4506 139.373 34.4238C138.204 33.397 137.323 32.0861 136.816 30.6193H156.903ZM136.637 25.3619C137.151 23.4552 138.284 21.7703 139.859 20.5687C141.434 19.367 143.365 18.7157 145.35 18.7157C147.336 18.7157 149.267 19.367 150.842 20.5687C152.417 21.7703 153.55 23.4552 154.064 25.3619H136.637Z" fill="#2E2C70"/>
<path d="M93.7337 27.1231C93.6056 23.6136 92.3067 20.2461 90.0417 17.5511C87.7767 14.856 84.6742 12.9866 81.2229 12.2371C77.7716 11.4876 74.1675 11.9007 70.9783 13.4114C67.7892 14.922 65.1961 17.4443 63.6075 20.581C62.0189 23.7178 61.5251 27.2907 62.2038 30.7371C62.8825 34.1836 64.6952 37.3076 67.3563 39.6173C70.0175 41.927 73.3759 43.2911 76.9027 43.4947C80.4294 43.6984 83.9241 42.73 86.8364 40.7421C86.8364 40.9877 86.8364 41.2334 86.8364 41.4842C86.7434 43.8446 85.727 46.0755 84.0036 47.7018C82.2803 49.3281 79.9862 50.2212 77.6102 50.1908C76.0874 50.1572 74.5979 49.7409 73.2806 48.9806C71.9633 48.2203 70.8611 47.1408 70.0768 45.8427C69.7385 45.2947 69.2636 44.8427 68.6982 44.5305C68.1327 44.2183 67.4958 44.0565 66.849 44.0606H62.1439C62.8635 47.8432 64.9446 51.2356 67.998 53.6034C71.0513 55.9711 74.8678 57.1521 78.7336 56.9254C82.5993 56.6986 86.2496 55.0797 89.0017 52.3715C91.7538 49.6632 93.4192 46.051 93.6864 42.2106C93.6864 41.8761 93.7127 41.5469 93.7127 41.2124V27.1231H93.7337ZM77.8205 37.9671C75.7753 37.9671 73.776 37.3642 72.0755 36.2347C70.375 35.1051 69.0496 33.4997 68.2669 31.6213C67.4843 29.743 67.2795 27.6761 67.6785 25.682C68.0775 23.688 69.0623 21.8563 70.5085 20.4187C71.9547 18.9811 73.7972 18.0021 75.8031 17.6054C77.809 17.2088 79.8882 17.4123 81.7777 18.1904C83.6672 18.9684 85.2822 20.286 86.4185 21.9765C87.5547 23.6669 88.1612 25.6544 88.1612 27.6875C88.1619 29.0379 87.8949 30.3751 87.3756 31.6229C86.8562 32.8707 86.0946 34.0045 85.1343 34.9596C84.174 35.9147 83.0339 36.6724 81.7789 37.1893C80.524 37.7062 79.1789 37.9723 77.8205 37.9723V37.9671Z" fill="#2E2C70"/>
</g>
<defs>
<clipPath id="clip0_1557_798">
<rect width="224.746" height="60" fill="white"/>
</clipPath>
</defs>
</svg>
