<svg width="92" height="92" viewBox="0 0 92 92" fill="none" xmlns="http://www.w3.org/2000/svg">
<g clip-path="url(#clip0_26_4556)">
<path d="M46 92C71.4051 92 92 71.4051 92 46C92 20.5949 71.4051 0 46 0C20.5949 0 0 20.5949 0 46C0 71.4051 20.5949 92 46 92Z" fill="white"/>
<path d="M67.9093 51.7945H24.0574C22.3852 51.7945 21.0295 50.4388 21.0295 48.7666V24.0574C21.0295 22.3852 22.3852 21.0295 24.0574 21.0295H67.9093C69.5815 21.0295 70.9371 22.3852 70.9371 24.0574V48.7665C70.9371 50.4388 69.5815 51.7945 67.9093 51.7945Z" fill="white"/>
<path d="M70.8501 56.989L53.8219 50.6715C52.1548 50.053 50.5308 51.6765 51.1489 53.3438L57.4503 70.344C57.7509 71.1548 58.8859 71.1865 59.2312 70.3938L61.5777 65.0067L66.4251 69.8556C67.1004 70.5311 68.1956 70.5313 68.8711 69.8559L70.3289 68.3984C71.0044 67.7231 71.0046 66.628 70.3292 65.9525L65.5402 61.1621L70.9076 58.7662C71.6931 58.4155 71.6567 57.2882 70.8501 56.989Z" fill="#A7B0C1"/>
<path d="M34.1704 50.7649H24.0798C22.9656 50.7649 22.0591 49.8585 22.0591 48.7443V24.0797C22.0591 22.9655 22.9656 22.059 24.0798 22.059H67.887C69.0012 22.059 69.9077 22.9655 69.9077 24.0797V48.7443C69.9077 49.8585 69.0012 50.7649 67.887 50.7649H64.7953C64.2267 50.7649 63.7658 51.2259 63.7658 51.7944C63.7658 52.363 64.2268 52.8239 64.7953 52.8239H67.887C70.1366 52.8239 71.9667 50.9938 71.9667 48.7443V24.0797C71.9667 21.8301 70.1366 20 67.887 20H24.0798C21.8302 20 20 21.8301 20 24.0797V48.7443C20 50.9938 21.8302 52.8239 24.0798 52.8239H34.1705C34.7391 52.8239 35.2 52.363 35.2 51.7944C35.2 51.2259 34.739 50.7649 34.1704 50.7649Z" fill="#2E2D6F"/>
<path d="M72.505 57.8251C72.4932 57.4298 72.3635 57.047 72.1324 56.7259C71.9013 56.4049 71.5795 56.1604 71.2083 56.0237V56.0236L54.18 49.7062C53.0268 49.2785 51.7702 49.553 50.9006 50.4224C50.0309 51.2918 49.7561 52.5484 50.1836 53.7014L56.485 70.7018C56.7688 71.4672 57.4793 71.9765 58.2953 71.9993C58.3144 71.9999 58.3333 72.0001 58.3522 72.0001C59.1454 72.0001 59.8568 71.5358 60.1751 70.8049L61.9182 66.8032L65.6972 70.5833C66.7727 71.6592 68.5231 71.6596 69.5991 70.584L71.0569 69.1265C71.578 68.6055 71.8652 67.9126 71.8653 67.1756C71.8654 66.4387 71.5784 65.7457 71.0575 65.2246L67.3262 61.4924L71.3273 59.7063C71.6889 59.546 71.9942 59.2812 72.2041 58.946C72.4139 58.6107 72.5187 58.2204 72.505 57.8251ZM65.1206 60.2219C64.9682 60.29 64.8346 60.3941 64.7313 60.5252C64.628 60.6564 64.5582 60.8107 64.5279 60.9749C64.4975 61.139 64.5075 61.3081 64.5571 61.4675C64.6066 61.627 64.6941 61.772 64.8121 61.89L69.6013 66.6805C69.7323 66.8119 69.8059 66.9899 69.8059 67.1755C69.8059 67.361 69.7323 67.539 69.6012 67.6704L68.1434 69.1278C68.0785 69.193 68.0014 69.2447 67.9165 69.2799C67.8315 69.315 67.7404 69.333 67.6485 69.3327H67.6484C67.5564 69.333 67.4653 69.315 67.3803 69.2798C67.2953 69.2446 67.2182 69.1929 67.1534 69.1276L62.3059 64.2788C62.1873 64.1602 62.0415 64.0723 61.8812 64.0228C61.7209 63.9734 61.551 63.9639 61.3861 63.9951C61.2213 64.0263 61.0666 64.0974 60.9355 64.202C60.8044 64.3067 60.7009 64.4418 60.6339 64.5956L58.3561 69.8251L52.1143 52.9859C51.8972 52.4002 52.2447 51.9903 52.3564 51.8786C52.4425 51.7927 52.7054 51.5668 53.0895 51.5668C53.204 51.5668 53.3294 51.5868 53.4639 51.6368L70.3332 57.8952L65.1206 60.2219ZM70.4928 57.9545C70.4926 57.9543 70.4924 57.9542 70.4921 57.9541L70.8502 56.9889L70.4928 57.9545ZM46.4128 44.4731C46.0107 44.0712 45.3589 44.0712 44.9568 44.4731C44.5547 44.8752 44.5547 45.527 44.9567 45.9291L47.8659 48.8385C47.9614 48.9342 48.0749 49.0101 48.1999 49.0619C48.3248 49.1136 48.4587 49.1402 48.5939 49.14C48.8574 49.14 49.1209 49.0395 49.3219 48.8385C49.724 48.4364 49.724 47.7846 49.3219 47.3825L46.4128 44.4731ZM47.4976 51.8034C47.4976 51.2349 47.0366 50.7739 46.4681 50.7739H42.3537C41.7851 50.7739 41.3242 51.2349 41.3242 51.8034C41.3242 52.372 41.7852 52.8329 42.3537 52.8329H46.4681C47.0366 52.8329 47.4976 52.372 47.4976 51.8034ZM51.3462 41.7815V45.8958C51.3462 46.4643 51.8072 46.9253 52.3757 46.9253C52.9442 46.9253 53.4052 46.4643 53.4052 45.8958V41.7815C53.4052 41.2129 52.9442 40.752 52.3757 40.752C51.8072 40.752 51.3462 41.2129 51.3462 41.7815ZM57.3817 47.3313C57.6452 47.3313 57.9087 47.2308 58.1097 47.0298L61.019 44.1205C61.4211 43.7184 61.4211 43.0666 61.019 42.6645C60.6169 42.2626 59.9651 42.2625 59.563 42.6645L56.6537 45.5738C56.2516 45.9759 56.2516 46.6277 56.6536 47.0298C56.7491 47.1255 56.8626 47.2015 56.9876 47.2532C57.1125 47.3049 57.2465 47.3315 57.3817 47.3313ZM46.672 55.5554L43.7628 58.4647C43.3607 58.8668 43.3608 59.5186 43.7628 59.9207C43.9638 60.1217 44.2272 60.2222 44.4908 60.2222C44.7543 60.2222 45.0178 60.1217 45.2188 59.9207L48.1281 57.0114C48.5302 56.6093 48.53 55.9575 48.1281 55.5554C47.7259 55.1535 47.074 55.1535 46.672 55.5554Z" fill="#2E2D6F"/>
<path d="M38.2551 52.8268C38.8254 52.8268 39.2878 52.3645 39.2878 51.7942C39.2878 51.2238 38.8254 50.7615 38.2551 50.7615C37.6848 50.7615 37.2224 51.2238 37.2224 51.7942C37.2224 52.3645 37.6848 52.8268 38.2551 52.8268Z" fill="#2E2D6F"/>
<path d="M31.8455 30.1877C31.8455 29.7281 32.3221 29.4897 32.8158 29.4897H36.1013C37.8718 29.4897 39.523 30.0685 39.523 32.4859C39.523 33.8818 38.9783 34.8011 38.076 35.1927C39.1145 35.6013 39.8294 36.2651 39.8294 37.9675V38.325C39.8294 40.9807 38.3484 41.934 36.4248 41.934H32.8158C32.22 41.934 31.8455 41.6105 31.8455 41.2529V30.1877ZM34.0415 34.3243H35.9481C36.8674 34.3243 37.31 33.7285 37.31 32.8604C37.31 31.9751 36.7993 31.4304 35.9311 31.4304H34.0415V34.3243ZM35.9652 39.9933C37.0037 39.9933 37.6165 39.4314 37.6165 38.1376V37.8653C37.6165 36.5374 37.0037 36.0608 35.9652 36.0608H34.0416V39.9933H35.9652ZM47.3198 30.1707C47.3198 29.694 47.8645 29.4897 48.4263 29.4897C48.971 29.4897 49.5328 29.6939 49.5328 30.1707V38.1376C49.5328 40.9806 47.7283 42.0361 45.4472 42.0361C43.149 42.0361 41.3616 40.9806 41.3616 38.1376V30.1707C41.3616 29.694 41.9063 29.4897 42.4681 29.4897C43.0128 29.4897 43.5746 29.6939 43.5746 30.1707V38.1376C43.5746 39.4655 44.2726 40.0953 45.4472 40.0953C46.6218 40.0953 47.3198 39.4655 47.3198 38.1376V30.1707ZM54.2822 36.946C54.2822 36.8609 54.2652 36.7758 54.2312 36.7247L50.7073 30.6303C50.6733 30.5452 50.6562 30.4601 50.6562 30.409C50.6562 29.8642 51.5244 29.4897 52.1203 29.4897C52.4778 29.4897 52.648 29.6259 52.8012 29.9323L55.3888 34.8521L57.9933 29.9323C58.1466 29.643 58.2998 29.4897 58.6573 29.4897C59.2531 29.4897 60.1213 29.8642 60.1213 30.409C60.1213 30.4601 60.1213 30.5452 60.0702 30.6303L56.5634 36.7247C56.5293 36.7758 56.4953 36.8609 56.4953 36.946V41.2359C56.4953 41.6955 55.9505 41.934 55.3888 41.934C54.844 41.934 54.2822 41.6956 54.2822 41.2359V36.946Z" fill="#E98135"/>
</g>
<defs>
<clipPath id="clip0_26_4556">
<rect width="92" height="92" fill="white"/>
</clipPath>
</defs>
</svg>
