<svg width="92" height="92" viewBox="0 0 92 92" fill="none" xmlns="http://www.w3.org/2000/svg">
<g clip-path="url(#clip0_26_4675)">
<path d="M46 92C71.4051 92 92 71.4051 92 46C92 20.5949 71.4051 0 46 0C20.5949 0 0 20.5949 0 46C0 71.4051 20.5949 92 46 92Z" fill="white"/>
<path d="M48.62 47.2V48.56C48.6309 48.6841 48.6165 48.8091 48.5777 48.9275C48.5389 49.0458 48.4765 49.155 48.3942 49.2485C48.3119 49.3421 48.2115 49.4179 48.099 49.4714C47.9866 49.525 47.8644 49.5551 47.74 49.56H46.54C46.4155 49.5551 46.2934 49.525 46.1809 49.4714C46.0685 49.4179 45.968 49.3421 45.8858 49.2485C45.8035 49.155 45.741 49.0458 45.7022 48.9275C45.6634 48.8091 45.649 48.6841 45.66 48.56V46.26H42.66C42.2876 46.2394 41.9386 46.072 41.6894 45.7947C41.4401 45.5173 41.3109 45.1525 41.33 44.7801C41.334 44.4104 41.4727 44.0549 41.72 43.7801C41.8365 43.645 41.9808 43.5366 42.143 43.4624C42.3053 43.3882 42.4816 43.3499 42.66 43.35H47.59C47.8908 43.335 48.1852 43.2569 48.4539 43.1208C48.7227 42.9847 48.9598 42.7937 49.15 42.56C49.5727 42.0794 49.804 41.4601 49.8 40.82C49.8271 40.2234 49.6279 39.6384 49.2422 39.1823C48.8565 38.7262 48.3129 38.4325 47.72 38.36H46.15C45.2509 38.2885 44.389 37.9706 43.6587 37.4414C42.9284 36.9122 42.358 36.1921 42.01 35.36C41.6585 34.5877 41.4777 33.7486 41.48 32.9C41.4686 31.4908 41.9778 30.127 42.91 29.07C43.6224 28.275 44.5795 27.7402 45.63 27.55V25.3C45.619 25.176 45.6334 25.051 45.6722 24.9326C45.711 24.8143 45.7735 24.7051 45.8558 24.6115C45.9381 24.518 46.0385 24.4422 46.1509 24.3887C46.2634 24.3351 46.3855 24.305 46.51 24.3H47.71C47.8344 24.305 47.9566 24.3351 48.069 24.3887C48.1815 24.4422 48.2819 24.518 48.3642 24.6115C48.4465 24.7051 48.5089 24.8143 48.5477 24.9326C48.5865 25.051 48.6009 25.176 48.59 25.3V27.56H51.28C51.4639 27.569 51.6443 27.6142 51.8107 27.693C51.9771 27.7717 52.1264 27.8826 52.25 28.0191C52.3735 28.1557 52.4689 28.3152 52.5307 28.4887C52.5925 28.6622 52.6194 28.8461 52.61 29.03C52.6126 29.4159 52.4738 29.7894 52.22 30.08C52.1018 30.2131 51.9572 30.3201 51.7953 30.3942C51.6335 30.4682 51.4579 30.5077 51.28 30.51H46.88C46.5825 30.5138 46.2891 30.5798 46.0187 30.7038C45.7483 30.8278 45.5069 31.0071 45.31 31.23C44.8873 31.7107 44.6559 32.33 44.66 32.97C44.6357 33.5692 44.8385 34.1555 45.2279 34.6116C45.6172 35.0677 46.1644 35.36 46.76 35.43H48.28C49.1852 35.4929 50.055 35.807 50.7917 36.3369C51.5283 36.8669 52.1026 37.5917 52.45 38.43C52.8027 39.202 52.9835 40.0413 52.98 40.8901C52.9899 42.296 52.4807 43.6562 51.55 44.7101C50.7798 45.5879 49.7103 46.1476 48.55 46.2801C48.589 46.5853 48.6124 46.8924 48.62 47.2Z" fill="#E98135"/>
<path d="M14.9999 53.54H21.9399V69.89C21.9399 70.2693 21.7892 70.633 21.5211 70.9012C21.2529 71.1694 20.8892 71.32 20.5099 71.32H14.9999C14.6206 71.32 14.2569 71.1694 13.9887 70.9012C13.7206 70.633 13.5699 70.2693 13.5699 69.89V55C13.5659 54.8097 13.5999 54.6206 13.67 54.4436C13.7401 54.2666 13.8448 54.1054 13.978 53.9694C14.1112 53.8334 14.2702 53.7254 14.4456 53.6517C14.6211 53.578 14.8096 53.54 14.9999 53.54Z" fill="#4B5EAA"/>
<path d="M21.72 69.4301L27.5 71.3201H41.45C42.1007 71.3174 42.7238 71.0571 43.183 70.596C43.6422 70.135 43.9 69.5108 43.9 68.8601C43.9 68.5383 43.8366 68.2198 43.7135 67.9225C43.5904 67.6253 43.4099 67.3552 43.1824 67.1277C42.9549 66.9002 42.6848 66.7197 42.3875 66.5966C42.0903 66.4734 41.7717 66.4101 41.45 66.4101H42.2C42.8524 66.4101 43.4781 66.1509 43.9395 65.6896C44.4008 65.2282 44.66 64.6025 44.66 63.9501C44.6573 63.2994 44.397 62.6762 43.9359 62.2171C43.4749 61.7579 42.8507 61.5001 42.2 61.5001H38.78H42.97C43.6207 61.5001 44.2449 61.2423 44.7059 60.7831C45.167 60.3239 45.4273 59.7008 45.43 59.0501C45.43 58.3976 45.1708 57.7719 44.7095 57.3106C44.2481 56.8493 43.6224 56.5901 42.97 56.5901H43.81C44.4607 56.5901 45.0849 56.3323 45.5459 55.8731C46.007 55.4139 46.2673 54.7908 46.27 54.1401C46.27 53.4876 46.0108 52.8619 45.5495 52.4006C45.0881 51.9393 44.4624 51.6801 43.81 51.6801H32.41L33.41 45.3301C33.41 45.3301 34.18 40.0801 29.12 40.0801L26.39 50.1701C26.39 50.1701 25.15 54.5601 21.91 54.9901" fill="#A7B0C1"/>
<path d="M25.02 33.8501C24.8396 33.8501 24.6667 33.7784 24.5391 33.6509C24.4116 33.5234 24.34 33.3504 24.34 33.1701V29.6301C24.3282 29.5332 24.3372 29.4349 24.3663 29.3417C24.3953 29.2485 24.4438 29.1626 24.5086 29.0895C24.5733 29.0165 24.6528 28.958 24.7418 28.9179C24.8308 28.8779 24.9273 28.8572 25.025 28.8572C25.1226 28.8572 25.2191 28.8779 25.3081 28.9179C25.3971 28.958 25.4766 29.0165 25.5413 29.0895C25.6061 29.1626 25.6546 29.2485 25.6837 29.3417C25.7127 29.4349 25.7217 29.5332 25.71 29.6301V33.1701C25.71 33.2602 25.6921 33.3495 25.6573 33.4326C25.6225 33.5158 25.5715 33.5912 25.5073 33.6545C25.4431 33.7178 25.3669 33.7677 25.2833 33.8012C25.1996 33.8348 25.1101 33.8514 25.02 33.8501Z" fill="#2E2D6F"/>
<path d="M26.8001 32.08H23.2501C23.0697 32.08 22.8968 32.0083 22.7692 31.8808C22.6417 31.7533 22.5701 31.5803 22.5701 31.4C22.5701 31.2196 22.6417 31.0467 22.7692 30.9191C22.8968 30.7916 23.0697 30.72 23.2501 30.72H26.8001C26.9804 30.72 27.1534 30.7916 27.2809 30.9191C27.4084 31.0467 27.4801 31.2196 27.4801 31.4C27.4801 31.5803 27.4084 31.7533 27.2809 31.8808C27.1534 32.0083 26.9804 32.08 26.8001 32.08Z" fill="#2E2D6F"/>
<path d="M55.35 63.95C55.2603 63.9514 55.1713 63.9347 55.0882 63.901C55.0051 63.8673 54.9296 63.8173 54.8662 63.7539C54.8027 63.6905 54.7527 63.615 54.719 63.5319C54.6853 63.4487 54.6686 63.3597 54.67 63.27V59.73C54.67 59.5497 54.7416 59.3767 54.8692 59.2492C54.9967 59.1217 55.1697 59.05 55.35 59.05C55.5303 59.05 55.7033 59.1217 55.8308 59.2492C55.9584 59.3767 56.03 59.5497 56.03 59.73V63.27C56.0313 63.3597 56.0147 63.4487 55.981 63.5319C55.9473 63.615 55.8972 63.6905 55.8338 63.7539C55.7704 63.8173 55.6949 63.8673 55.6118 63.901C55.5287 63.9347 55.4397 63.9514 55.35 63.95Z" fill="#2E2D6F"/>
<path d="M57.1499 62.1801H53.5799C53.3996 62.1801 53.2266 62.1084 53.0991 61.9809C52.9715 61.8534 52.8999 61.6804 52.8999 61.5001C52.8999 61.3197 52.9715 61.1468 53.0991 61.0192C53.2266 60.8917 53.3996 60.8201 53.5799 60.8201H57.1499C57.3302 60.8201 57.5032 60.8917 57.6307 61.0192C57.7583 61.1468 57.8299 61.3197 57.8299 61.5001C57.8299 61.6804 57.7583 61.8534 57.6307 61.9809C57.5032 62.1084 57.3302 62.1801 57.1499 62.1801Z" fill="#2E2D6F"/>
<path d="M50.8 55.34C50.6422 55.3387 50.4897 55.2834 50.3678 55.1833C50.2459 55.0832 50.1619 54.9444 50.13 54.79C50.111 54.7025 50.1098 54.6122 50.1263 54.5243C50.1429 54.4364 50.1768 54.3528 50.2262 54.2782C50.2756 54.2036 50.3395 54.1397 50.4139 54.0902C50.4884 54.0407 50.5721 54.0066 50.66 53.99C53.7131 53.3565 56.524 51.8704 58.7667 49.704C61.0094 47.5376 62.5919 44.7797 63.3306 41.7503C64.0692 38.7209 63.9339 35.5442 62.9401 32.5886C61.9464 29.633 60.135 27.0198 57.7162 25.052C55.2973 23.0843 52.3701 21.8427 49.2742 21.4712C46.1782 21.0998 43.0404 21.6138 40.2248 22.9536C37.4091 24.2933 35.031 26.404 33.3664 29.0406C31.7017 31.6772 30.8188 34.7318 30.82 37.85C30.7997 38.0174 30.7188 38.1716 30.5926 38.2834C30.4664 38.3953 30.3036 38.457 30.135 38.457C29.9663 38.457 29.8035 38.3953 29.6773 38.2834C29.5511 38.1716 29.4702 38.0174 29.45 37.85C29.4513 34.4782 30.4082 31.176 32.2096 28.3258C34.0111 25.4757 36.5833 23.1944 39.6283 21.7463C42.6732 20.2983 46.0662 19.7428 49.4139 20.1442C52.7616 20.5457 55.9271 21.8876 58.5434 24.0144C61.1596 26.1413 63.1196 28.966 64.1962 32.1613C65.2727 35.3565 65.4217 38.7914 64.626 42.0679C63.8302 45.3443 62.1222 48.3282 59.6999 50.6737C57.2777 53.0191 54.2403 54.6301 50.94 55.32L50.8 55.34Z" fill="#2E2D6F"/>
<path d="M41.45 72H27.5C27.427 72.0104 27.3529 72.0104 27.28 72L21.51 70.1C21.4194 70.0774 21.3345 70.0364 21.2605 69.9795C21.1865 69.9227 21.125 69.8513 21.0798 69.7696C21.0345 69.688 21.0066 69.5979 20.9977 69.505C20.9888 69.4121 20.9991 69.3184 21.028 69.2297C21.0569 69.1409 21.1038 69.0591 21.1657 68.9893C21.2275 68.9194 21.3031 68.863 21.3877 68.8237C21.4723 68.7843 21.5641 68.7628 21.6574 68.7604C21.7507 68.7581 21.8435 68.7749 21.93 68.81L27.6 70.67H41.45C41.8977 70.6363 42.3162 70.4347 42.6216 70.1056C42.927 69.7764 43.0967 69.344 43.0967 68.895C43.0967 68.4459 42.927 68.0135 42.6216 67.6844C42.3162 67.3552 41.8977 67.1536 41.45 67.12H37.87C37.6896 67.12 37.5167 67.0483 37.3891 66.9208C37.2616 66.7933 37.19 66.6203 37.19 66.44C37.19 66.2596 37.2616 66.0867 37.3891 65.9591C37.5167 65.8316 37.6896 65.76 37.87 65.76H42.2C42.6365 65.7517 43.0548 65.5832 43.3753 65.2866C43.6957 64.9901 43.896 64.586 43.938 64.1514C43.98 63.7168 43.8607 63.2819 43.603 62.9295C43.3452 62.577 42.9669 62.3316 42.54 62.24H38.78C38.5996 62.24 38.4267 62.1683 38.2991 62.0408C38.1716 61.9133 38.1 61.7403 38.1 61.56C38.1 61.3796 38.1716 61.2067 38.2991 61.0791C38.4267 60.9516 38.5996 60.88 38.78 60.88H42.2C42.3498 60.8694 42.5002 60.8694 42.65 60.88H42.98C43.4277 60.8463 43.8462 60.6447 44.1516 60.3156C44.457 59.9864 44.6267 59.554 44.6267 59.105C44.6267 58.6559 44.457 58.2235 44.1516 57.8944C43.8462 57.5652 43.4277 57.3636 42.98 57.33H39.68C39.4996 57.33 39.3267 57.2583 39.1992 57.1308C39.0716 57.0033 39 56.8303 39 56.65C39 56.4696 39.0716 56.2967 39.1992 56.1691C39.3267 56.0416 39.4996 55.97 39.68 55.97H43.82C44.0643 55.9883 44.3097 55.956 44.541 55.8751C44.7722 55.7943 44.9843 55.6665 45.1639 55.4999C45.3435 55.3333 45.4868 55.1314 45.5848 54.9068C45.6827 54.6823 45.7333 54.4399 45.7333 54.195C45.7333 53.95 45.6827 53.7076 45.5848 53.4831C45.4868 53.2585 45.3435 53.0566 45.1639 52.89C44.9843 52.7234 44.7722 52.5957 44.541 52.5148C44.3097 52.4339 44.0643 52.4016 43.82 52.42H32.41C32.3116 52.421 32.2142 52.4007 32.1244 52.3605C32.0346 52.3202 31.9547 52.261 31.89 52.1868C31.8254 52.1127 31.7776 52.0254 31.75 51.931C31.7223 51.8366 31.7155 51.7373 31.73 51.64L32.73 45.29C32.8943 44.0861 32.5978 42.8646 31.9 41.87C31.6077 41.5627 31.2576 41.3161 30.8697 41.1445C30.4819 40.9729 30.064 40.8796 29.64 40.87L27.05 50.35C26.99 50.56 25.63 55.17 22.05 55.66C21.871 55.6838 21.6898 55.6356 21.5463 55.5259C21.4029 55.4162 21.3089 55.254 21.285 55.075C21.2611 54.8959 21.3093 54.7148 21.419 54.5713C21.5288 54.4278 21.691 54.3338 21.87 54.31C24.61 53.94 25.77 50.02 25.78 49.98L28.48 39.98C28.5173 39.8354 28.6012 39.7071 28.7186 39.6149C28.8361 39.5227 28.9807 39.4718 29.13 39.47C29.8395 39.4253 30.55 39.5384 31.2106 39.8013C31.8711 40.0641 32.4651 40.4701 32.95 40.99C33.9 42.2888 34.3087 43.9057 34.09 45.5L33.25 51.07H43.81C44.5133 51.065 45.1977 51.2971 45.7529 51.7287C46.3082 52.1604 46.7019 52.7665 46.8706 53.4492C47.0392 54.132 46.973 54.8517 46.6827 55.4922C46.3923 56.1327 45.8946 56.6568 45.27 56.98C45.5954 57.3283 45.837 57.7464 45.9763 58.2023C46.1155 58.6583 46.1488 59.14 46.0736 59.6107C45.9983 60.0815 45.8166 60.5288 45.5421 60.9186C45.2677 61.3084 44.9078 61.6304 44.49 61.86C45.0361 62.4346 45.3404 63.1972 45.34 63.99C45.3383 64.5509 45.1874 65.1012 44.9027 65.5845C44.618 66.0678 44.2098 66.4666 43.72 66.74C44.1417 67.1849 44.424 67.7437 44.5319 68.3472C44.6399 68.9507 44.5687 69.5726 44.3274 70.1362C44.086 70.6998 43.6849 71.1804 43.1736 71.5187C42.6622 71.857 42.0631 72.0382 41.45 72.04V72Z" fill="#2E2D6F"/>
<path d="M47.7401 50.1999H46.5401C46.1175 50.1843 45.7177 50.004 45.4262 49.6975C45.1347 49.3911 44.9746 48.9828 44.9801 48.5599V46.9199H42.6701C42.1201 46.8939 41.6024 46.653 41.2283 46.249C40.8542 45.845 40.6538 45.3102 40.6701 44.7599C40.6674 44.2065 40.8706 43.6719 41.2401 43.2599C41.4178 43.0515 41.6365 42.8819 41.8825 42.7615C42.1284 42.6411 42.3965 42.5725 42.6701 42.5599H47.6001C47.803 42.5588 48.0034 42.5146 48.1879 42.4301C48.3723 42.3456 48.5367 42.2228 48.6701 42.0699C48.9712 41.726 49.1412 41.2869 49.1501 40.8299C49.1749 40.4072 49.041 39.9904 48.7747 39.6611C48.5084 39.3319 48.1287 39.1139 47.7101 39.0499H46.1501C45.1323 38.9765 44.154 38.6254 43.3218 38.0347C42.4896 37.4441 41.8353 36.6365 41.4301 35.6999C41.0371 34.8401 40.8358 33.9052 40.8401 32.9599C40.8228 31.3821 41.3972 29.8551 42.4501 28.6799C43.1262 27.9123 44.0074 27.3537 44.9901 27.0699V25.2999C44.9793 24.8746 45.1374 24.4622 45.4297 24.1531C45.722 23.8439 46.1248 23.663 46.5501 23.6499H47.7501C48.1754 23.663 48.5782 23.8439 48.8705 24.1531C49.1628 24.4622 49.3209 24.8746 49.3101 25.2999V26.8699H51.3101C51.8592 26.8933 52.377 27.1321 52.7513 27.5345C53.1256 27.9369 53.3264 28.4706 53.3101 29.0199C53.3119 29.5731 53.1088 30.1074 52.7401 30.5199C52.5597 30.7273 52.337 30.8935 52.0868 31.0074C51.8366 31.1213 51.565 31.1801 51.2901 31.1799H46.8901C46.6883 31.1843 46.4896 31.231 46.3069 31.3172C46.1243 31.4033 45.9619 31.5269 45.8301 31.6799C45.5152 32.0312 45.3438 32.4881 45.3501 32.9599C45.3259 33.3856 45.4625 33.8049 45.733 34.1347C46.0034 34.4644 46.3879 34.6804 46.8101 34.7399H48.3201C49.3575 34.7924 50.3595 35.1339 51.213 35.7259C52.0665 36.3179 52.7375 37.1367 53.1501 38.0899C53.5431 38.9497 53.7444 39.8846 53.7401 40.8299C53.7536 42.407 53.1797 43.9327 52.1301 45.1099C51.395 45.9415 50.4204 46.5249 49.3401 46.7799C49.3401 46.9199 49.3401 47.0599 49.3401 47.1999V48.5599C49.3428 48.7726 49.3035 48.9838 49.2245 49.1814C49.1455 49.3789 49.0284 49.559 48.8798 49.7113C48.7312 49.8636 48.5541 49.9851 48.3586 50.069C48.163 50.1528 47.9529 50.1973 47.7401 50.1999ZM42.6701 43.9699C42.5859 43.9709 42.503 43.9902 42.427 44.0264C42.351 44.0627 42.2838 44.1151 42.2301 44.1799C42.0891 44.3396 42.014 44.5469 42.0201 44.7599C42.0032 44.9516 42.0616 45.1423 42.1829 45.2917C42.3043 45.441 42.479 45.5372 42.6701 45.5599H45.6701C45.7603 45.5586 45.8498 45.5752 45.9334 45.6088C46.0171 45.6423 46.0932 45.6922 46.1574 45.7555C46.2216 45.8188 46.2726 45.8942 46.3074 45.9773C46.3422 46.0605 46.3601 46.1498 46.3601 46.2399C46.3601 46.2399 46.3601 46.7099 46.3601 47.2399V48.5599C46.3601 48.7299 46.4601 48.8499 46.5601 48.8499H47.7601C47.8601 48.8499 47.9601 48.7299 47.9601 48.5599V47.1999C47.9571 46.899 47.937 46.5985 47.9001 46.2999C47.8876 46.2095 47.8936 46.1175 47.9179 46.0296C47.9421 45.9416 47.9841 45.8595 48.0412 45.7884C48.0984 45.7172 48.1694 45.6585 48.25 45.6157C48.3307 45.573 48.4192 45.5472 48.5101 45.5399C49.5063 45.4279 50.4256 44.9505 51.0901 44.1999C51.9101 43.2703 52.3556 42.0693 52.3401 40.8299C52.3472 40.0816 52.1902 39.3409 51.8801 38.6599C51.5782 37.948 51.0865 37.3327 50.4587 36.8812C49.8309 36.4298 49.0911 36.1595 48.3201 36.0999H46.7401C45.973 36.0171 45.2655 35.6476 44.7593 35.0653C44.2531 34.4831 43.9855 33.7311 44.0101 32.9599C44.0006 32.1483 44.2969 31.3629 44.8401 30.7599C45.099 30.4657 45.4174 30.2298 45.7742 30.0678C46.1311 29.9057 46.5182 29.8212 46.9101 29.8199H51.3101C51.3942 29.8183 51.4769 29.7987 51.5528 29.7625C51.6287 29.7263 51.696 29.6742 51.7501 29.6099C51.8927 29.4471 51.9678 29.2361 51.9601 29.0199C51.9769 28.8293 51.9182 28.6397 51.7966 28.492C51.6751 28.3442 51.5004 28.2501 51.3101 28.2299H48.6201C48.4398 28.2299 48.2668 28.1583 48.1393 28.0307C48.0118 27.9032 47.9401 27.7302 47.9401 27.5499V25.2999C47.9401 25.1299 47.8401 25.0099 47.7401 25.0099H46.5401C46.4401 25.0099 46.3401 25.1299 46.3401 25.2999V27.6099C46.3399 27.771 46.2824 27.9268 46.178 28.0495C46.0737 28.1722 45.9291 28.2538 45.7701 28.2799C44.8738 28.4306 44.0556 28.8821 43.4501 29.5599C42.605 30.4896 42.1409 31.7035 42.1501 32.9599C42.1465 33.7089 42.3069 34.4496 42.6201 35.1299C42.9192 35.837 43.4065 36.4486 44.0288 36.8981C44.6512 37.3477 45.3849 37.6181 46.1501 37.6799H47.7601C48.5245 37.7652 49.2285 38.1361 49.731 38.7183C50.2336 39.3006 50.4976 40.0512 50.4701 40.8199C50.4724 41.6272 50.1769 42.4069 49.6401 43.0099C49.3802 43.3062 49.0604 43.544 48.7019 43.7078C48.3434 43.8715 47.9543 43.9575 47.5601 43.9599L42.6701 43.9699Z" fill="#2E2D6F"/>
<path d="M20.5201 72.0001H14.9301C14.3802 71.9974 13.8537 71.7771 13.4658 71.3873C13.0779 70.9976 12.8601 70.47 12.8601 69.9201V54.9201C12.8601 54.3702 13.0779 53.8426 13.4658 53.4528C13.8537 53.063 14.3802 52.8427 14.9301 52.8401H20.5201C21.07 52.8427 21.5965 53.063 21.9844 53.4528C22.3723 53.8426 22.5901 54.3702 22.5901 54.9201V69.9201C22.5901 70.47 22.3723 70.9976 21.9844 71.3873C21.5965 71.7771 21.07 71.9974 20.5201 72.0001ZM14.9301 54.2201C14.836 54.2201 14.7429 54.2388 14.6561 54.2751C14.5693 54.3114 14.4906 54.3646 14.4245 54.4316C14.3584 54.4986 14.3063 54.578 14.2713 54.6653C14.2362 54.7526 14.2188 54.846 14.2201 54.9401V69.9401C14.2188 70.0342 14.2362 70.1276 14.2713 70.2149C14.3063 70.3022 14.3584 70.3816 14.4245 70.4486C14.4906 70.5156 14.5693 70.5688 14.6561 70.6051C14.7429 70.6414 14.836 70.6601 14.9301 70.6601H20.5201C20.6142 70.6601 20.7073 70.6414 20.7941 70.6051C20.8809 70.5688 20.9597 70.5156 21.0257 70.4486C21.0918 70.3816 21.1439 70.3022 21.179 70.2149C21.214 70.1276 21.2314 70.0342 21.2301 69.9401V54.9401C21.2314 54.846 21.214 54.7526 21.179 54.6653C21.1439 54.578 21.0918 54.4986 21.0257 54.4316C20.9597 54.3646 20.8809 54.3114 20.7941 54.2751C20.7073 54.2388 20.6142 54.2201 20.5201 54.2201H14.9301Z" fill="#2E2D6F"/>
</g>
<defs>
<clipPath id="clip0_26_4675">
<rect width="92" height="92" fill="white"/>
</clipPath>
</defs>
</svg>
