<svg width="92" height="92" viewBox="0 0 92 92" fill="none" xmlns="http://www.w3.org/2000/svg">
<g clip-path="url(#clip0_26_4637)">
<path d="M46 92C71.4051 92 92 71.4051 92 46C92 20.5949 71.4051 0 46 0C20.5949 0 0 20.5949 0 46C0 71.4051 20.5949 92 46 92Z" fill="white"/>
<path d="M71.015 43.475C71.015 42.9161 70.5501 42.5507 69.9989 42.4589L66.9688 41.9538C66.4249 39.1327 65.3141 36.4513 63.7036 34.072L65.4894 31.5719C65.8141 31.1172 65.8846 30.5301 65.4894 30.1349L61.8965 26.5419C61.5012 26.1467 60.9141 26.2171 60.4593 26.5419L57.9593 28.3276C55.5801 26.717 52.8987 25.6062 50.0775 25.0626L49.5724 22.0324C49.4805 21.4811 49.1151 21.0162 48.5563 21.0162H43.475C42.9161 21.0162 42.5506 21.4811 42.4588 22.0324L41.9537 25.0626C39.1325 25.6062 36.4511 26.717 34.072 28.3276L31.5718 26.5419C31.1172 26.2171 30.53 26.1467 30.1349 26.5419L26.5419 30.1349C26.1466 30.5301 26.217 31.1172 26.5419 31.5719L28.3275 34.072C26.7172 36.4513 25.6064 39.1327 25.0625 41.9538L22.0324 42.4589C21.481 42.5507 21.0162 42.9161 21.0162 43.475V48.5563C21.0162 49.1151 21.481 49.4805 22.0324 49.5724L25.0625 50.0775C25.6064 52.8986 26.7171 55.5799 28.3275 57.9593L26.5419 60.4593C26.217 60.9142 26.1466 61.5012 26.5419 61.8964L30.1349 65.4894C30.53 65.8847 31.1172 65.8142 31.5718 65.4894L34.072 63.7036C36.4511 65.3143 39.1325 66.4251 41.9537 66.9688L42.4588 69.9989C42.5506 70.5502 42.9161 71.015 43.475 71.015H48.5563C49.1151 71.015 49.4805 70.5502 49.5724 69.9989L50.0775 66.9688C52.8987 66.4251 55.5801 65.3143 57.9593 63.7036L60.4593 65.4894C60.9141 65.8142 61.5012 65.8847 61.8965 65.4894L65.4894 61.8964C65.8846 61.5012 65.8141 60.9142 65.4894 60.4593L63.7036 57.9593C65.3141 55.58 66.4249 52.8986 66.9688 50.0775L69.9989 49.5724C70.5501 49.4805 71.015 49.1151 71.015 48.5563V43.475Z" fill="#4B5EAA"/>
<path d="M61.0246 46.0157C61.0246 54.3049 54.3048 61.0247 46.0156 61.0247C37.7263 61.0247 31.0066 54.3049 31.0066 46.0157C31.0066 37.7264 37.7263 31.0067 46.0156 31.0067C54.3048 31.0067 61.0246 37.7264 61.0246 46.0157Z" fill="white"/>
<path fill-rule="evenodd" clip-rule="evenodd" d="M35.6148 50.0804C35.6148 50.633 36.0628 51.081 36.6154 51.081H40.1722C40.7248 51.081 41.1728 50.633 41.1728 50.0804C41.1728 49.5277 40.7248 49.0798 40.1722 49.0798H37.616V42.9511H40.1722C40.7248 42.9511 41.1728 42.5031 41.1728 41.9505C41.1728 41.3979 40.7248 40.9499 40.1722 40.9499H36.6154C36.0628 40.9499 35.6148 41.3979 35.6148 41.9505V50.0804Z" fill="#E98135"/>
<path fill-rule="evenodd" clip-rule="evenodd" d="M36.1737 46.0154C36.1737 46.568 36.6217 47.016 37.1743 47.016H39.1178C39.6704 47.016 40.1184 46.568 40.1184 46.0154C40.1184 45.4628 39.6704 45.0148 39.1178 45.0148H37.1743C36.6217 45.0148 36.1737 45.4628 36.1737 46.0154Z" fill="#E98135"/>
<path fill-rule="evenodd" clip-rule="evenodd" d="M51.3508 51.0812C51.9034 51.0812 52.3514 50.6332 52.3514 50.0806V47.0162H53.3833C55.0537 47.0162 56.4163 45.6536 56.4163 43.9831C56.4163 42.3126 55.0537 40.95 53.3833 40.95H51.3508C50.7982 40.95 50.3502 41.398 50.3502 41.9506V50.0806C50.3502 50.6332 50.7982 51.0812 51.3508 51.0812ZM52.3514 45.015V42.9512H53.3833C53.9485 42.9512 54.4151 43.4179 54.4151 43.9831C54.4151 44.5483 53.9485 45.015 53.3833 45.015H52.3514Z" fill="#E98135"/>
<path fill-rule="evenodd" clip-rule="evenodd" d="M43.6274 51.0812C44.18 51.0812 44.628 50.6332 44.628 50.0806V47.0162H45.6599C47.3304 47.0162 48.6929 45.6535 48.6929 43.9831C48.6929 42.3127 47.3304 40.95 45.6599 40.95H43.6274C43.0748 40.95 42.6268 41.398 42.6268 41.9506V50.0806C42.6268 50.6332 43.0748 51.0812 43.6274 51.0812ZM44.628 45.015V42.9512H45.6599C46.2251 42.9512 46.6917 43.4178 46.6917 43.9831C46.6917 44.5484 46.2251 45.015 45.6599 45.015H44.628Z" fill="#E98135"/>
<path fill-rule="evenodd" clip-rule="evenodd" d="M48.1397 50.9756C48.634 50.7285 48.8343 50.1275 48.5872 49.6332L46.5548 45.5681C46.3077 45.0739 45.7067 44.8735 45.2124 45.1206C44.7181 45.3677 44.5178 45.9688 44.7649 46.4631L46.7973 50.5281C47.0444 51.0224 47.6454 51.2227 48.1397 50.9756Z" fill="#E98135"/>
<path fill-rule="evenodd" clip-rule="evenodd" d="M29.7715 46.0157C29.7715 54.9871 37.0443 62.2598 46.0156 62.2598C54.987 62.2598 62.2597 54.9871 62.2597 46.0157C62.2597 37.0444 54.987 29.7716 46.0156 29.7716C43.2861 29.7716 40.7118 30.4466 38.4519 31.6378C37.9631 31.8955 37.7757 32.5007 38.0333 32.9895C38.291 33.4784 38.8962 33.6658 39.3851 33.4081C41.3647 32.3646 43.6196 31.7728 46.0156 31.7728C53.8817 31.7728 60.2585 38.1496 60.2585 46.0157C60.2585 53.8818 53.8817 60.2586 46.0156 60.2586C38.1495 60.2586 31.7727 53.8818 31.7727 46.0157C31.7727 43.6194 32.3645 41.3642 33.4082 39.3847C33.666 38.8958 33.4786 38.2906 32.9898 38.0329C32.501 37.7751 31.8958 37.9625 31.638 38.4513C30.4465 40.7113 29.7715 43.2859 29.7715 46.0157Z" fill="#2E2D6F"/>
<path fill-rule="evenodd" clip-rule="evenodd" d="M43.4862 69.9708C43.4699 69.9357 43.4549 69.8896 43.4457 69.8344L42.9407 66.8043C42.8719 66.3917 42.5537 66.0654 42.143 65.9863C39.4549 65.4682 36.8999 64.4098 34.6329 62.8751C34.2865 62.6405 33.8308 62.6463 33.4904 62.8894L30.9903 64.6751C30.9448 64.7076 30.9014 64.7297 30.8651 64.7431C30.8453 64.7504 30.8293 64.7545 30.8174 64.7568L27.2745 61.2139C27.2767 61.202 27.2808 61.1859 27.2882 61.1661C27.3015 61.1297 27.3235 61.0865 27.3561 61.0409L29.1418 58.5408C29.3849 58.2005 29.3906 57.7448 29.1562 57.3984C27.6217 55.1312 26.5633 52.5762 26.045 49.888C25.9658 49.4774 25.6395 49.1592 25.227 49.0905L22.1969 48.5854C22.1416 48.5762 22.0955 48.5612 22.0604 48.545C22.0411 48.5361 22.0269 48.5276 22.0168 48.5208V43.5104C22.0269 43.5036 22.0411 43.4952 22.0604 43.4863C22.0955 43.4701 22.1416 43.4551 22.1968 43.4458L25.227 42.9408C25.6395 42.872 25.9658 42.5539 26.045 42.1432C26.5633 39.4551 27.6217 36.9 29.1562 34.6328C29.3906 34.2864 29.3849 33.8308 29.1418 33.4904L27.3561 30.9904C27.3236 30.9448 27.3015 30.9015 27.2881 30.8652C27.2808 30.8453 27.2767 30.8293 27.2745 30.8174L30.8173 27.2745C30.8293 27.2768 30.8453 27.2809 30.8652 27.2882C30.9015 27.3016 30.9447 27.3236 30.9902 27.3561L33.4904 29.1419C33.8308 29.385 34.2865 29.3907 34.6329 29.1562C36.8999 27.6215 39.4549 26.5631 42.143 26.0451C42.5537 25.9659 42.8719 25.6397 42.9407 25.2271L43.4457 22.1969C43.4549 22.1417 43.4699 22.0956 43.4861 22.0605C43.4951 22.0411 43.5035 22.0269 43.5104 22.0168H48.5208C48.5276 22.0269 48.5361 22.0411 48.545 22.0605C48.5612 22.0956 48.5762 22.1417 48.5854 22.1969L49.0905 25.2271C49.1592 25.6397 49.4774 25.9659 49.8881 26.0451C52.5763 26.5631 55.1313 27.6215 57.3983 29.1562C57.7447 29.3907 58.2005 29.385 58.5409 29.1418L61.0408 27.3562C61.0408 27.3562 61.0409 27.3561 61.0408 27.3562C61.0864 27.3236 61.1296 27.3016 61.1659 27.2882C61.1859 27.2809 61.202 27.2768 61.214 27.2745L64.7567 30.8173C64.7545 30.8293 64.7504 30.8453 64.743 30.8653C64.7296 30.9016 64.7077 30.9448 64.6751 30.9904C64.6751 30.9904 64.6751 30.9903 64.6751 30.9904L62.8894 33.4904C62.6463 33.8308 62.6405 34.2864 62.875 34.6328C64.4095 36.9 65.468 39.455 65.9863 42.1432C66.0655 42.5539 66.3917 42.872 66.8043 42.9408L69.8344 43.4458C69.8896 43.455 69.9357 43.4701 69.9708 43.4863C69.9901 43.4952 70.0044 43.5036 70.0144 43.5105V48.5208C70.0044 48.5276 69.9901 48.5361 69.9708 48.545C69.9357 48.5612 69.8896 48.5762 69.8344 48.5854L66.8043 49.0905C66.3917 49.1592 66.0655 49.4774 65.9863 49.888C65.468 52.5762 64.4095 55.1312 62.875 57.3984C62.6405 57.7448 62.6463 58.2005 62.8894 58.5409L64.675 61.0408C64.675 61.0407 64.6751 61.0408 64.675 61.0408C64.7076 61.0863 64.7296 61.1297 64.743 61.166C64.7504 61.1859 64.7545 61.202 64.7567 61.2139L61.2139 64.7568C61.202 64.7545 61.186 64.7504 61.166 64.7431C61.1297 64.7297 61.0865 64.7077 61.041 64.6752L58.5408 62.8894C58.2004 62.6463 57.7447 62.6405 57.3983 62.875C55.1313 64.4098 52.5763 65.4682 49.8881 65.9863C49.4774 66.0654 49.1592 66.3917 49.0905 66.8043L48.5854 69.8344C48.5762 69.8896 48.5612 69.9357 48.545 69.9708C48.5361 69.9901 48.5276 70.0044 48.5208 70.0144H43.5104C43.5035 70.0044 43.4951 69.9901 43.4862 69.9708ZM30.8425 27.2493C30.8425 27.2493 30.8426 27.2493 30.8425 27.2493V27.2493ZM41.4718 70.1634C41.6081 70.9815 42.2366 72.0156 43.475 72.0156H48.5563C49.7946 72.0156 50.423 70.9814 50.5594 70.1634C50.5594 70.1634 50.5594 70.1634 50.5594 70.1634L50.952 67.808C53.4275 67.2496 55.7892 66.2713 57.9344 64.9155L59.8776 66.3035C59.8776 66.3035 59.8777 66.3035 59.8776 66.3035C60.5523 66.7855 61.7283 67.0728 62.6041 66.1968L66.1968 62.604C67.0728 61.7282 66.7853 60.5524 66.3037 59.8779L64.9155 57.9343C66.271 55.789 67.2494 53.4274 67.808 50.952L70.1634 50.5594C70.9812 50.4231 72.0156 49.7947 72.0156 48.5563V43.475C72.0156 42.2364 70.9811 41.6082 70.1634 41.4719L67.808 41.0793C67.2494 38.6038 66.271 36.2422 64.9155 34.0969L66.3036 32.1535C66.7854 31.4789 67.0727 30.3032 66.1969 29.4274L62.604 25.8344C61.7282 24.9586 60.5524 25.2458 59.8778 25.7276L57.9344 27.1158C55.7892 25.76 53.4275 24.7817 50.952 24.2233L50.5594 21.8678C50.4231 21.05 49.7947 20.0156 48.5563 20.0156H43.475C42.2365 20.0156 41.6081 21.05 41.4718 21.8678L41.0792 24.2233C38.6037 24.7817 36.242 25.76 34.0969 27.1158L32.1535 25.7277C32.1534 25.7277 32.1535 25.7277 32.1535 25.7277C31.479 25.2459 30.3031 24.9585 29.4274 25.8344C29.4273 25.8344 29.4274 25.8343 29.4274 25.8344L25.8345 29.4273C24.9584 30.3031 25.2457 31.479 25.7277 32.1536L27.1157 34.0969C25.7602 36.2422 24.7819 38.6038 24.2233 41.0793L21.8679 41.4719C21.8679 41.4719 21.8679 41.4719 21.8679 41.4719C21.0499 41.6082 20.0156 42.2365 20.0156 43.475V48.5563C20.0156 49.7946 21.0498 50.423 21.8678 50.5594C21.8678 50.5594 21.8679 50.5594 21.8678 50.5594L24.2233 50.952C24.7819 53.4274 25.7602 55.789 27.1157 57.9343L25.7277 59.8777C25.7277 59.8777 25.7277 59.8777 25.7277 59.8777C25.2459 60.5523 24.9583 61.7281 25.8344 62.6039M25.8344 62.6039L29.4272 66.1967C29.4271 66.1966 29.4272 66.1968 29.4272 66.1967C30.3028 67.0726 31.4789 66.7855 32.1534 66.3036C32.1534 66.3036 32.1535 66.3035 32.1534 66.3036L34.0969 64.9155C36.242 66.2713 38.6037 67.2496 41.0792 67.808L41.4718 70.1634C41.4718 70.1634 41.4718 70.1634 41.4718 70.1634" fill="#2E2D6F"/>
<path fill-rule="evenodd" clip-rule="evenodd" d="M34.5294 35.9443C34.9201 36.335 35.5537 36.335 35.9444 35.9443C36.3352 35.5535 36.3357 34.9195 35.9449 34.5287C35.5542 34.138 34.9206 34.138 34.5299 34.5287C34.1391 34.9195 34.1386 35.5535 34.5294 35.9443Z" fill="#2E2D6F"/>
</g>
<defs>
<clipPath id="clip0_26_4637">
<rect width="92" height="92" fill="white"/>
</clipPath>
</defs>
</svg>
