<svg width="92" height="92" viewBox="0 0 92 92" fill="none" xmlns="http://www.w3.org/2000/svg">
<g clip-path="url(#clip0_26_4589)">
<path d="M46 92C71.4051 92 92 71.4051 92 46C92 20.5949 71.4051 0 46 0C20.5949 0 0 20.5949 0 46C0 71.4051 20.5949 92 46 92Z" fill="white"/>
<path d="M56.3625 28.2293H33.6125L34.0459 24.4376L36.2667 22.9751H53.925L55.7667 24.8168L56.3625 28.2293Z" fill="#4B5EAA"/>
<path d="M56.3625 57.2082H33.6125L34.0459 60.9999L36.2667 62.4624H54.9542L55.7667 60.6207L56.3625 57.2082Z" fill="#4B5EAA"/>
<path d="M68.2792 53.5793V73.2418H52.5167V67.1209L50.4583 65.5501L48.1292 62.4626H55.225V56.6126L54.0333 55.5834L50.4583 51.6834L49.9167 49.2459L50.8917 46.8626L52.1917 44.9126L55.9292 48.6501V39.6584L66.7083 50.4376L68.2792 53.5793Z" fill="#A7B0C1"/>
<path d="M55.6489 57.7032C55.4189 57.7033 55.1983 57.6123 55.0353 57.4502L50.9966 53.4115C49.8145 52.2294 49.2321 50.8947 49.2685 49.4439C49.3343 46.7364 51.579 44.6703 51.6743 44.5836C51.8372 44.4352 52.0506 44.3545 52.2709 44.358C52.4912 44.3616 52.7019 44.4491 52.8599 44.6027L62.8699 54.3128C63.0329 54.4733 63.1258 54.6916 63.1285 54.9203C63.1312 55.149 63.0434 55.3694 62.8842 55.5336C62.725 55.6978 62.5074 55.7925 62.2787 55.7969C62.0501 55.8014 61.829 55.7153 61.6635 55.5574L52.2914 46.4678C51.7593 47.123 51.0278 48.2462 51.0001 49.4959C50.9793 50.4648 51.3779 51.3436 52.2221 52.1878L56.2607 56.2264C56.3809 56.3477 56.4627 56.5018 56.4956 56.6694C56.5286 56.837 56.5113 57.0105 56.4459 57.1683C56.3805 57.3261 56.27 57.461 56.1282 57.5562C55.9864 57.6514 55.8196 57.7025 55.6489 57.7032Z" fill="#2E2D6F"/>
<path d="M56.3803 64.8324C56.2586 64.8325 56.1383 64.8069 56.0272 64.7573C55.9161 64.7077 55.8167 64.6353 55.7355 64.5447C54.7546 63.4583 54.143 62.0892 53.9885 60.6336C53.8341 59.1781 54.1447 57.7111 54.8758 56.4431C54.9328 56.3446 55.0087 56.2584 55.099 56.1892C55.1894 56.1201 55.2924 56.0694 55.4024 56.0401C55.5123 56.0109 55.6269 56.0035 55.7397 56.0185C55.8525 56.0335 55.9612 56.0706 56.0597 56.1276C56.1581 56.1846 56.2444 56.2605 56.3135 56.3508C56.3826 56.4412 56.4333 56.5443 56.4626 56.6542C56.4919 56.7641 56.4992 56.8788 56.4842 56.9915C56.4692 57.1043 56.4321 57.213 56.3751 57.3115C55.8273 58.2624 55.595 59.3625 55.7115 60.4537C55.8279 61.5449 56.2872 62.5712 57.0234 63.3851C57.1357 63.5095 57.2095 63.6638 57.2359 63.8293C57.2622 63.9948 57.2401 64.1645 57.172 64.3176C57.104 64.4708 56.9929 64.601 56.8524 64.6923C56.7119 64.7837 56.5479 64.8323 56.3803 64.8324ZM51.8667 63.6H37.1334C35.9845 63.5986 34.8831 63.1416 34.0708 62.3293C33.2584 61.5169 32.8014 60.4155 32.8 59.2667V57.5333C32.8 57.3035 32.8914 57.083 33.0539 56.9205C33.2164 56.758 33.4369 56.6667 33.6667 56.6667C33.8966 56.6667 34.117 56.758 34.2795 56.9205C34.4421 57.083 34.5334 57.3035 34.5334 57.5333V59.2667C34.5334 60.7001 35.6999 61.8667 37.1334 61.8667H51.8667C52.0966 61.8667 52.317 61.958 52.4795 62.1205C52.6421 62.283 52.7334 62.5035 52.7334 62.7333C52.7334 62.9632 52.6421 63.1836 52.4795 63.3462C52.317 63.5087 52.0966 63.6 51.8667 63.6ZM56.2 46.2667C55.9702 46.2667 55.7498 46.1754 55.5872 46.0128C55.4247 45.8503 55.3334 45.6299 55.3334 45.4V26.3333C55.3334 24.8999 54.1668 23.7333 52.7334 23.7333H37.1334C35.6999 23.7333 34.5334 24.8999 34.5334 26.3333V28.0667C34.5334 28.2965 34.4421 28.517 34.2795 28.6795C34.117 28.842 33.8966 28.9333 33.6667 28.9333C33.4369 28.9333 33.2164 28.842 33.0539 28.6795C32.8914 28.517 32.8 28.2965 32.8 28.0667V26.3333C32.8 23.9448 34.7448 22 37.1334 22H52.7334C55.1219 22 57.0667 23.9448 57.0667 26.3333V45.4C57.0667 45.6299 56.9754 45.8503 56.8129 46.0128C56.6503 46.1754 56.4299 46.2667 56.2 46.2667ZM52.7334 74C52.5035 74 52.2831 73.9087 52.1206 73.7462C51.958 73.5836 51.8667 73.3632 51.8667 73.1333V67.6127C51.0584 67.1909 50.3191 66.6485 49.674 66.0041C49.5153 65.8414 49.4269 65.6228 49.4279 65.3955C49.4288 65.1681 49.5191 64.9503 49.6791 64.7889C49.8392 64.6274 50.0563 64.5354 50.2836 64.5325C50.5109 64.5296 50.7302 64.6161 50.8943 64.7735C51.5443 65.42 52.281 65.9227 53.08 66.2711C53.3955 66.4097 53.6 66.7217 53.6 67.0649V73.1316C53.6003 73.2456 53.578 73.3584 53.5346 73.4638C53.4911 73.5691 53.4273 73.6649 53.3468 73.7455C53.2663 73.8262 53.1707 73.8902 53.0654 73.9339C52.9602 73.9775 52.8473 74 52.7334 74Z" fill="#2E2D6F"/>
<path d="M68.3333 73.9999C68.1035 73.9999 67.883 73.9086 67.7205 73.746C67.558 73.5835 67.4667 73.3631 67.4667 73.1332V53.9591C67.4667 53.2242 67.016 52.1183 66.5012 51.5966L55.7667 40.8118C55.6841 40.7316 55.6184 40.6357 55.5733 40.5299C55.5282 40.424 55.5047 40.3103 55.504 40.1952C55.5033 40.0801 55.5256 39.9661 55.5695 39.8597C55.6134 39.7534 55.678 39.6568 55.7596 39.5757C55.8412 39.4945 55.9381 39.4305 56.0447 39.3872C56.1513 39.3439 56.2655 39.3223 56.3805 39.3236C56.4956 39.3249 56.6092 39.3491 56.7148 39.3948C56.8204 39.4405 56.9159 39.5068 56.9956 39.5898L67.7336 50.378C68.5708 51.2291 69.2 52.7666 69.2 53.9591V73.1332C69.2 73.3631 69.1087 73.5835 68.9462 73.746C68.7836 73.9086 68.5632 73.9999 68.3333 73.9999ZM45.8 60.1332H44.0667C43.8368 60.1332 43.6164 60.0419 43.4538 59.8794C43.2913 59.7168 43.2 59.4964 43.2 59.2666C43.2 59.0367 43.2913 58.8163 43.4538 58.6537C43.6164 58.4912 43.8368 58.3999 44.0667 58.3999H45.8C46.0299 58.3999 46.2503 58.4912 46.4128 58.6537C46.5754 58.8163 46.6667 59.0367 46.6667 59.2666C46.6667 59.4964 46.5754 59.7168 46.4128 59.8794C46.2503 60.0419 46.0299 60.1332 45.8 60.1332ZM47.5333 27.1999H42.3333C42.1035 27.1999 41.883 27.1086 41.7205 26.946C41.558 26.7835 41.4667 26.5631 41.4667 26.3332C41.4667 26.1034 41.558 25.8829 41.7205 25.7204C41.883 25.5579 42.1035 25.4666 42.3333 25.4666H47.5333C47.7632 25.4666 47.9836 25.5579 48.1462 25.7204C48.3087 25.8829 48.4 26.1034 48.4 26.3332C48.4 26.5631 48.3087 26.7835 48.1462 26.946C47.9836 27.1086 47.7632 27.1999 47.5333 27.1999ZM33.6667 54.9332C33.545 54.9333 33.4247 54.9077 33.3136 54.8581C33.2025 54.8086 33.1031 54.7361 33.0219 54.6455C32.6943 54.2832 25 45.6564 25 39.0351C25 34.421 28.8879 30.6666 33.6667 30.6666C38.4455 30.6666 42.3333 34.421 42.3333 39.0351C42.3333 45.6564 34.6391 54.2815 34.3115 54.6455C34.2303 54.7361 34.1309 54.8086 34.0198 54.8581C33.9087 54.9077 33.7883 54.9333 33.6667 54.9332ZM33.6667 32.3999C29.8429 32.3999 26.7333 35.376 26.7333 39.0351C26.7333 43.9526 31.8345 50.5306 33.6667 52.7319C35.4971 50.5288 40.6 43.9474 40.6 39.0351C40.6 35.376 37.4904 32.3999 33.6667 32.3999Z" fill="#2E2D6F"/>
<path d="M33.6667 32.3999C29.843 32.3999 26.7334 35.376 26.7334 39.0351C26.7334 43.9526 31.8346 50.5306 33.6667 52.7319C35.4971 50.5288 40.6001 43.9474 40.6001 39.0351C40.6001 35.376 37.4905 32.3999 33.6667 32.3999Z" fill="#E98135"/>
<circle cx="33.6667" cy="39.3334" r="3.35833" fill="white"/>
<path d="M33.6666 43.6667C31.2781 43.6667 29.3333 41.7219 29.3333 39.3333C29.3333 36.9448 31.2781 35 33.6666 35C36.0551 35 37.9999 36.9448 37.9999 39.3333C37.9999 41.7219 36.0551 43.6667 33.6666 43.6667ZM33.6666 36.7333C32.2331 36.7333 31.0666 37.8999 31.0666 39.3333C31.0666 40.7668 32.2331 41.9333 33.6666 41.9333C35.1001 41.9333 36.2666 40.7668 36.2666 39.3333C36.2666 37.8999 35.1001 36.7333 33.6666 36.7333Z" fill="#2E2D6F"/>
</g>
<defs>
<clipPath id="clip0_26_4589">
<rect width="92" height="92" fill="white"/>
</clipPath>
</defs>
</svg>
