<svg width="92" height="92" viewBox="0 0 92 92" fill="none" xmlns="http://www.w3.org/2000/svg">
<g clip-path="url(#clip0_26_4688)">
<path d="M46 92C71.4051 92 92 71.4051 92 46C92 20.5949 71.4051 0 46 0C20.5949 0 0 20.5949 0 46C0 71.4051 20.5949 92 46 92Z" fill="white"/>
<path d="M29.26 58.2C27.9736 58.198 26.7155 58.5778 25.645 59.2912C24.5746 60.0047 23.7399 61.0198 23.2467 62.2079C22.7535 63.396 22.6239 64.7038 22.8744 65.9656C23.1249 67.2274 23.7442 68.3865 24.6538 69.2961C25.5635 70.2058 26.7226 70.8251 27.9844 71.0755C29.2462 71.326 30.5539 71.1965 31.7421 70.7033C32.9302 70.21 33.9452 69.3754 34.6587 68.3049C35.3722 67.2345 35.752 65.9764 35.75 64.69C35.75 62.9687 35.0662 61.3179 33.8491 60.1008C32.632 58.8837 30.9813 58.2 29.26 58.2ZM29.26 67.2C28.7715 67.2 28.2939 67.0551 27.8877 66.7837C27.4815 66.5123 27.165 66.1265 26.978 65.6752C26.7911 65.2239 26.7421 64.7272 26.8375 64.2481C26.9328 63.769 27.168 63.3288 27.5134 62.9834C27.8589 62.638 28.299 62.4027 28.7781 62.3074C29.2573 62.2121 29.7539 62.261 30.2052 62.448C30.6566 62.6349 31.0423 62.9515 31.3137 63.3577C31.5851 63.7639 31.73 64.2414 31.73 64.73C31.7221 65.3789 31.458 65.9985 30.9954 66.4536C30.5328 66.9088 29.909 67.1626 29.26 67.16V67.2Z" fill="#A7B0C1"/>
<path d="M63.6099 58.2001C62.3256 58.208 61.0725 58.5962 60.0086 59.3156C58.9448 60.0351 58.1179 61.0536 57.6323 62.2425C57.1468 63.4315 57.0243 64.7377 57.2805 65.9962C57.5366 67.2547 58.1598 68.4091 59.0714 69.3138C59.983 70.2184 61.1422 70.8327 62.4026 71.0792C63.663 71.3256 64.9682 71.1931 66.1534 70.6985C67.3386 70.2038 68.3507 69.3692 69.062 68.2998C69.7733 67.2305 70.1518 65.9744 70.1499 64.6901C70.1486 63.8339 69.9782 62.9865 69.6484 62.1964C69.3187 61.4064 68.8361 60.6892 68.2284 60.0862C67.6207 59.4831 66.8999 59.0061 66.1073 58.6824C65.3147 58.3587 64.466 58.1948 63.6099 58.2001ZM63.6099 67.2001C63.1214 67.2001 62.6438 67.0552 62.2376 66.7838C61.8315 66.5124 61.5149 66.1266 61.3279 65.6753C61.141 65.224 61.0921 64.7273 61.1874 64.2482C61.2827 63.7691 61.5179 63.329 61.8633 62.9835C62.2088 62.6381 62.6489 62.4028 63.128 62.3075C63.6072 62.2122 64.1038 62.2611 64.5551 62.4481C65.0065 62.635 65.3922 62.9516 65.6636 63.3578C65.935 63.764 66.0799 64.2416 66.0799 64.7301C66.0694 65.3782 65.8045 65.9962 65.3425 66.4508C64.8804 66.9054 64.2581 67.1602 63.6099 67.1601V67.2001Z" fill="#A7B0C1"/>
<path d="M51.57 43.3501H36.77V46.9201H51.57V43.3501Z" fill="#4B5EAA"/>
<path d="M45.8 40.9599H36.77V33.1899H51.59V40.9899L45.8 40.9599Z" fill="#4B5EAA"/>
<path d="M39.8701 33.1899V36.6899C39.8701 36.7911 39.89 36.8912 39.9287 36.9846C39.9674 37.078 40.0241 37.1629 40.0956 37.2344C40.1671 37.3059 40.252 37.3626 40.3455 37.4013C40.4389 37.44 40.539 37.4599 40.6401 37.4599C40.7421 37.4613 40.8433 37.4423 40.9379 37.4042C41.0324 37.3661 41.1185 37.3096 41.1911 37.238C41.2636 37.1663 41.3212 37.081 41.3606 36.9869C41.3999 36.8929 41.4201 36.7919 41.4201 36.6899V35.8599C41.4201 35.6557 41.5012 35.4599 41.6456 35.3155C41.79 35.1711 41.9859 35.0899 42.1901 35.0899C42.3943 35.0899 42.5902 35.1711 42.7346 35.3155C42.879 35.4599 42.9601 35.6557 42.9601 35.8599V38.3299C42.9627 38.5351 43.0461 38.7309 43.1921 38.875C43.3381 39.0192 43.535 39.1 43.7401 39.0999C43.9435 39.0973 44.1379 39.0154 44.2817 38.8715C44.4256 38.7277 44.5075 38.5334 44.5101 38.3299V33.1899H39.8701Z" fill="#E98135"/>
<path d="M46.65 44.1699H36.77C36.2396 44.1699 35.7309 43.9592 35.3558 43.5841C34.9807 43.2091 34.77 42.7004 34.77 42.1699C34.77 41.6395 34.9807 41.1308 35.3558 40.7557C35.7309 40.3806 36.2396 40.1699 36.77 40.1699H45.77V41.7999H36.77C36.6789 41.8025 36.5925 41.8405 36.529 41.9059C36.4655 41.9713 36.43 42.0588 36.43 42.1499C36.43 42.241 36.4655 42.3286 36.529 42.3939C36.5925 42.4593 36.6789 42.4973 36.77 42.4999H46.65V44.1699Z" fill="#2E2D6F"/>
<path d="M37.5699 43.3601H35.9399V46.9201H37.5699V43.3601Z" fill="#2E2D6F"/>
<path d="M37.59 33.1799H35.96V40.9799H37.59V33.1799Z" fill="#2E2D6F"/>
<path d="M52.4 33.1799H50.77V40.9799H52.4V33.1799Z" fill="#2E2D6F"/>
<path d="M51.65 34H36.72C36.2108 34 35.7225 33.7977 35.3624 33.4376C35.0023 33.0776 34.8 32.5892 34.8 32.08V31.92C34.8 31.4108 35.0023 30.9224 35.3624 30.5624C35.7225 30.2023 36.2108 30 36.72 30H51.65C52.1575 30.0026 52.6433 30.2061 53.0012 30.5659C53.3591 30.9257 53.5601 31.4125 53.56 31.92V32.08C53.5601 32.5875 53.3591 33.0743 53.0012 33.4341C52.6433 33.7939 52.1575 33.9974 51.65 34ZM36.72 31.63C36.6431 31.63 36.5694 31.6606 36.515 31.7149C36.4606 31.7693 36.43 31.8431 36.43 31.92V32.08C36.43 32.1569 36.4606 32.2307 36.515 32.2851C36.5694 32.3394 36.6431 32.37 36.72 32.37H51.65C51.727 32.37 51.8007 32.3394 51.8551 32.2851C51.9095 32.2307 51.94 32.1569 51.94 32.08V31.92C51.94 31.8431 51.9095 31.7693 51.8551 31.7149C51.8007 31.6606 51.727 31.63 51.65 31.63H36.72Z" fill="#2E2D6F"/>
<path d="M51.59 44.1699H41.72V42.5599H51.59C51.6828 42.5599 51.7718 42.523 51.8375 42.4574C51.9031 42.3918 51.94 42.3027 51.94 42.2099C51.94 42.1171 51.9031 42.0281 51.8375 41.9624C51.7718 41.8968 51.6828 41.8599 51.59 41.8599H42.59V40.1699H51.59C52.1204 40.1699 52.6291 40.3806 53.0042 40.7557C53.3793 41.1308 53.59 41.6395 53.59 42.1699C53.59 42.7004 53.3793 43.2091 53.0042 43.5841C52.6291 43.9592 52.1204 44.1699 51.59 44.1699Z" fill="#2E2D6F"/>
<path d="M52.4 43.3601H50.77V46.9201H52.4V43.3601Z" fill="#2E2D6F"/>
<path d="M32.53 43.3501H17.73V46.9201H32.53V43.3501Z" fill="#4B5EAA"/>
<path d="M26.75 40.9599H17.73V33.1899H32.54V40.9899L26.75 40.9599Z" fill="#4B5EAA"/>
<path d="M20.8201 33.1899V36.6899C20.8201 36.7919 20.8403 36.8929 20.8796 36.9869C20.9189 37.081 20.9766 37.1663 21.0491 37.238C21.1217 37.3096 21.2078 37.3661 21.3023 37.4042C21.3969 37.4423 21.4981 37.4613 21.6001 37.4599C21.8043 37.4599 22.0001 37.3788 22.1445 37.2344C22.2889 37.09 22.3701 36.8942 22.3701 36.6899V35.8599C22.3701 35.6557 22.4512 35.4599 22.5956 35.3155C22.74 35.1711 22.9359 35.0899 23.1401 35.0899C23.3443 35.0899 23.5401 35.1711 23.6845 35.3155C23.8289 35.4599 23.9101 35.6557 23.9101 35.8599V38.3299C23.9127 38.5351 23.996 38.7309 24.142 38.875C24.288 39.0192 24.4849 39.1 24.6901 39.0999C24.8935 39.0973 25.0878 39.0154 25.2317 38.8715C25.3755 38.7277 25.4575 38.5334 25.4601 38.3299V33.1899H20.8201Z" fill="#E98135"/>
<path d="M27.6 44.1699H17.73C17.1995 44.1699 16.6908 43.9592 16.3158 43.5841C15.9407 43.2091 15.73 42.7004 15.73 42.1699C15.73 41.6395 15.9407 41.1308 16.3158 40.7557C16.6908 40.3806 17.1995 40.1699 17.73 40.1699H26.73V41.7999H17.73C17.6372 41.7999 17.5481 41.8368 17.4825 41.9024C17.4169 41.9681 17.38 42.0571 17.38 42.1499C17.38 42.2427 17.4169 42.3318 17.4825 42.3974C17.5481 42.463 17.6372 42.4999 17.73 42.4999H27.6V44.1699Z" fill="#2E2D6F"/>
<path d="M18.5199 43.3601H16.8899V46.9201H18.5199V43.3601Z" fill="#2E2D6F"/>
<path d="M18.5399 33.1799H16.9099V40.9799H18.5399V33.1799Z" fill="#2E2D6F"/>
<path d="M33.35 33.1799H31.72V40.9799H33.35V33.1799Z" fill="#2E2D6F"/>
<path d="M32.6 34H17.67C17.1608 34 16.6724 33.7977 16.3124 33.4376C15.9523 33.0776 15.75 32.5892 15.75 32.08V31.92C15.75 31.4108 15.9523 30.9224 16.3124 30.5624C16.6724 30.2023 17.1608 30 17.67 30H32.6C33.1075 30.0026 33.5933 30.2061 33.9512 30.5659C34.3091 30.9257 34.51 31.4125 34.51 31.92V32.08C34.51 32.5875 34.3091 33.0743 33.9512 33.4341C33.5933 33.7939 33.1075 33.9974 32.6 34ZM17.67 31.63C17.5931 31.63 17.5193 31.6606 17.4649 31.7149C17.4106 31.7693 17.38 31.8431 17.38 31.92V32.08C17.38 32.1569 17.4106 32.2307 17.4649 32.2851C17.5193 32.3394 17.5931 32.37 17.67 32.37H32.6C32.6769 32.37 32.7507 32.3394 32.8051 32.2851C32.8594 32.2307 32.89 32.1569 32.89 32.08V31.92C32.89 31.8431 32.8594 31.7693 32.8051 31.7149C32.7507 31.6606 32.6769 31.63 32.6 31.63H17.67Z" fill="#2E2D6F"/>
<path d="M32.5399 44.1699H22.6699V42.5599H32.5399C32.6327 42.5599 32.7218 42.523 32.7874 42.4574C32.853 42.3918 32.8899 42.3027 32.8899 42.2099C32.8899 42.1171 32.853 42.0281 32.7874 41.9624C32.7218 41.8968 32.6327 41.8599 32.5399 41.8599H23.5399V40.1699H32.5399C33.0704 40.1699 33.5791 40.3806 33.9541 40.7557C34.3292 41.1308 34.5399 41.6395 34.5399 42.1699C34.5399 42.7004 34.3292 43.2091 33.9541 43.5841C33.5791 43.9592 33.0704 44.1699 32.5399 44.1699Z" fill="#2E2D6F"/>
<path d="M33.35 43.3601H31.72V46.9201H33.35V43.3601Z" fill="#2E2D6F"/>
<path d="M78.4799 65.56H70.15C69.9342 65.5574 69.7282 65.4698 69.5766 65.3163C69.425 65.1628 69.3399 64.9557 69.34 64.74C69.34 64.5252 69.4253 64.3191 69.5772 64.1672C69.7291 64.0153 69.9351 63.93 70.15 63.93H77.66V60.73H77.02C76.8051 60.73 76.5991 60.6446 76.4472 60.4927C76.2953 60.3408 76.2099 60.1348 76.2099 59.92V48.02L70.15 34.86H56.15V46.61C56.15 46.8257 56.0649 47.0328 55.9133 47.1863C55.7617 47.3398 55.5557 47.4274 55.34 47.43H14.34V59.05H15.59C15.8074 59.05 16.016 59.1364 16.1698 59.2902C16.3236 59.4439 16.41 59.6525 16.41 59.87V63.87H22.68C22.8948 63.87 23.1008 63.9553 23.2527 64.1072C23.4046 64.2591 23.49 64.4652 23.49 64.68C23.49 64.8957 23.4049 65.1028 23.2533 65.2563C23.1017 65.4098 22.8957 65.4974 22.68 65.5H15.58C15.3642 65.4974 15.1582 65.4098 15.0066 65.2563C14.855 65.1028 14.7699 64.8957 14.77 64.68V60.68H13.51C13.2951 60.68 13.0891 60.5946 12.9372 60.4427C12.7853 60.2908 12.7 60.0848 12.7 59.87V46.61C12.7 46.3952 12.7853 46.1891 12.9372 46.0372C13.0891 45.8853 13.2951 45.8 13.51 45.8H54.51V34.05C54.51 33.8325 54.5963 33.6239 54.7501 33.4702C54.9039 33.3164 55.1125 33.23 55.33 33.23H70.6699C70.8265 33.2299 70.9797 33.2752 71.111 33.3604C71.2423 33.4456 71.3462 33.567 71.41 33.71L77.77 47.5C77.8189 47.6065 77.8428 47.7228 77.84 47.84V59.05H78.4799C78.6974 59.05 78.906 59.1364 79.0598 59.2902C79.2136 59.4439 79.2999 59.6525 79.2999 59.87V64.69C79.3068 64.8018 79.2906 64.9138 79.2525 65.0192C79.2143 65.1245 79.155 65.2209 79.0782 65.3024C79.0014 65.3839 78.9086 65.4488 78.8057 65.4931C78.7029 65.5374 78.592 65.5602 78.4799 65.56ZM57.15 65.56H35.75C35.5342 65.5574 35.3282 65.4698 35.1766 65.3163C35.025 65.1628 34.9399 64.9557 34.94 64.74C34.94 64.5252 35.0253 64.3191 35.1772 64.1672C35.3291 64.0153 35.5351 63.93 35.75 63.93H57.15C57.3648 63.93 57.5708 64.0153 57.7227 64.1672C57.8746 64.3191 57.96 64.5252 57.96 64.74C57.96 64.9557 57.875 65.1628 57.7233 65.3163C57.5717 65.4698 57.3657 65.5574 57.15 65.56Z" fill="#2E2D6F"/>
<path d="M19.09 60.68H14.55C14.3342 60.6801 14.1272 60.595 13.9737 60.4434C13.8202 60.2918 13.7326 60.0858 13.73 59.87C13.73 59.6526 13.8164 59.444 13.9702 59.2902C14.1239 59.1364 14.3325 59.05 14.55 59.05H19.09C19.3057 59.0527 19.5117 59.1402 19.6634 59.2937C19.815 59.4472 19.9 59.6543 19.9 59.87C19.9 60.0849 19.8146 60.2909 19.6627 60.4428C19.5108 60.5947 19.3048 60.68 19.09 60.68Z" fill="#2E2D6F"/>
<path d="M77.64 60.68H74.54C74.4336 60.68 74.3283 60.6591 74.23 60.6184C74.1317 60.5777 74.0424 60.518 73.9672 60.4428C73.892 60.3676 73.8323 60.2783 73.7916 60.18C73.7509 60.0817 73.73 59.9764 73.73 59.87C73.73 59.6543 73.815 59.4472 73.9666 59.2937C74.1182 59.1402 74.3242 59.0527 74.54 59.05H77.64C77.8575 59.05 78.066 59.1364 78.2198 59.2902C78.3736 59.444 78.46 59.6526 78.46 59.87C78.4573 60.0858 78.3698 60.2918 78.2163 60.4434C78.0628 60.595 77.8557 60.6801 77.64 60.68Z" fill="#2E2D6F"/>
<path d="M77.0299 55.5599H75.4599C75.2424 55.5599 75.0338 55.4735 74.8801 55.3198C74.7263 55.166 74.6399 54.9574 74.6399 54.7399C74.6425 54.5242 74.7301 54.3182 74.8836 54.1666C75.0371 54.0149 75.2441 53.9299 75.4599 53.9299H77.0299C77.2447 53.9299 77.4507 54.0153 77.6027 54.1672C77.7546 54.3191 77.8399 54.5251 77.8399 54.7399C77.8399 54.9557 77.7549 55.1628 77.6033 55.3163C77.4516 55.4697 77.2456 55.5573 77.0299 55.5599Z" fill="#2E2D6F"/>
<path d="M55.35 53.0399C55.1326 53.0399 54.924 52.9535 54.7702 52.7997C54.6164 52.646 54.53 52.4374 54.53 52.2199V45.2199C54.5327 45.0042 54.6202 44.7982 54.7737 44.6465C54.9272 44.4949 55.1343 44.4099 55.35 44.4099C55.5649 44.4099 55.7709 44.4953 55.9228 44.6472C56.0747 44.7991 56.16 45.0051 56.16 45.2199V52.2199C56.16 52.4357 56.075 52.6427 55.9234 52.7962C55.7718 52.9497 55.5658 53.0373 55.35 53.0399Z" fill="#2E2D6F"/>
<path d="M77.0301 48.61H66.5501C65.5305 48.6871 64.5064 48.5369 63.5519 48.1703C62.5973 47.8037 61.736 47.2298 61.0301 46.49C59.8811 44.9999 59.3639 43.1179 59.5901 41.25V34.05C59.5901 33.8342 59.6751 33.6272 59.8267 33.4737C59.9783 33.3202 60.1843 33.2326 60.4001 33.23C60.6176 33.23 60.8261 33.3164 60.9799 33.4702C61.1337 33.6239 61.2201 33.8325 61.2201 34.05V41.31C61.2201 41.31 61.2201 41.39 61.2201 41.43C61.0487 42.8498 61.4281 44.2813 62.2801 45.43C62.8372 45.9849 63.5091 46.4112 64.2484 46.679C64.9878 46.9467 65.7768 47.0495 66.5601 46.98H77.0301C77.2458 46.9826 77.4518 47.0702 77.6035 47.2237C77.7551 47.3772 77.8401 47.5842 77.8401 47.8C77.8401 47.9064 77.8191 48.0117 77.7784 48.11C77.7377 48.2082 77.6781 48.2975 77.6028 48.3727C77.5276 48.448 77.4383 48.5076 77.3401 48.5483C77.2418 48.589 77.1365 48.61 77.0301 48.61Z" fill="#2E2D6F"/>
<path d="M29.26 67.9799C28.6088 67.9819 27.9718 67.7906 27.4294 67.4303C26.8871 67.07 26.4638 66.5569 26.2133 65.9559C25.9627 65.3549 25.8962 64.6931 26.022 64.0542C26.1478 63.4153 26.4603 62.8282 26.92 62.3671C27.3798 61.9059 27.966 61.5916 28.6044 61.4639C29.2429 61.3361 29.9049 61.4007 30.5067 61.6494C31.1084 61.8981 31.6228 62.3198 31.9848 62.861C32.3467 63.4023 32.54 64.0388 32.54 64.6899C32.5373 65.5599 32.1912 66.3937 31.577 67.0098C30.9627 67.626 30.13 67.9746 29.26 67.9799ZM29.26 63.0399C28.9312 63.0399 28.6099 63.1375 28.3367 63.3204C28.0635 63.5032 27.8507 63.7631 27.7254 64.067C27.6 64.3709 27.5678 64.7052 27.6326 65.0274C27.6975 65.3497 27.8566 65.6455 28.0897 65.8772C28.3229 66.109 28.6196 66.2663 28.9423 66.3292C29.265 66.3921 29.599 66.3578 29.9022 66.2306C30.2053 66.1035 30.4639 65.8891 30.6451 65.6148C30.8263 65.3405 30.9219 65.0186 30.92 64.6899C30.9173 64.2514 30.7413 63.8317 30.4302 63.5225C30.1192 63.2134 29.6985 63.0399 29.26 63.0399Z" fill="#2E2D6F"/>
<path d="M29.26 71.9999C27.8142 71.9999 26.4009 71.5712 25.1987 70.7679C23.9966 69.9647 23.0597 68.823 22.5064 67.4873C21.9531 66.1516 21.8084 64.6818 22.0904 63.2638C22.3725 61.8458 23.0687 60.5433 24.091 59.5209C25.1133 58.4986 26.4158 57.8024 27.8338 57.5203C29.2518 57.2383 30.7216 57.3831 32.0574 57.9363C33.3931 58.4896 34.5348 59.4265 35.338 60.6287C36.1412 61.8308 36.57 63.2441 36.57 64.6899C36.5673 66.6278 35.7963 68.4856 34.426 69.8559C33.0557 71.2262 31.1979 71.9972 29.26 71.9999ZM29.26 58.9999C28.1366 58.9999 27.0384 59.333 26.1043 59.9571C25.1702 60.5813 24.4422 61.4684 24.0123 62.5062C23.5824 63.5441 23.4699 64.6862 23.6891 65.788C23.9083 66.8898 24.4492 67.9019 25.2436 68.6963C26.0379 69.4906 27.05 70.0316 28.1518 70.2507C29.2537 70.4699 30.3957 70.3574 31.4336 69.9275C32.4715 69.4976 33.3586 68.7696 33.9827 67.8355C34.6068 66.9015 34.94 65.8033 34.94 64.6799C34.9347 63.176 34.3342 61.7354 33.2699 60.6729C32.2055 59.6104 30.7638 59.0125 29.26 59.0099V58.9999Z" fill="#2E2D6F"/>
<path d="M63.6701 67.9799C63.019 67.9819 62.3819 67.7906 61.8396 67.4303C61.2972 67.07 60.874 66.5569 60.6234 65.9559C60.3729 65.3549 60.3063 64.6931 60.4321 64.0542C60.5579 63.4153 60.8705 62.8282 61.3302 62.3671C61.7899 61.9059 62.3761 61.5916 63.0146 61.4639C63.6531 61.3361 64.3151 61.4007 64.9168 61.6494C65.5186 61.8981 66.033 62.3198 66.395 62.861C66.7569 63.4023 66.9501 64.0388 66.9501 64.6899C66.9475 65.5599 66.6014 66.3937 65.9871 67.0098C65.3729 67.626 64.5401 67.9746 63.6701 67.9799ZM63.6701 63.0399C63.341 63.0379 63.0186 63.1338 62.7441 63.3155C62.4696 63.4971 62.2553 63.7563 62.1284 64.06C62.0015 64.3637 61.9678 64.6983 62.0316 65.0213C62.0953 65.3442 62.2536 65.6409 62.4864 65.8737C62.7191 66.1064 63.0158 66.2647 63.3387 66.3284C63.6617 66.3922 63.9963 66.3585 64.3 66.2316C64.6037 66.1047 64.8629 65.8904 65.0445 65.6159C65.2262 65.3414 65.3221 65.019 65.3201 64.6899C65.3201 64.4732 65.2774 64.2586 65.1945 64.0585C65.1116 63.8583 64.9901 63.6764 64.8368 63.5232C64.6836 63.3699 64.5017 63.2484 64.3015 63.1655C64.1014 63.0826 63.8868 63.0399 63.6701 63.0399Z" fill="#2E2D6F"/>
<path d="M63.6701 71.9999C62.2243 71.9999 60.811 71.5712 59.6089 70.7679C58.4068 69.9647 57.4698 68.823 56.9166 67.4873C56.3633 66.1516 56.2185 64.6818 56.5006 63.2638C56.7826 61.8458 57.4788 60.5433 58.5012 59.5209C59.5235 58.4986 60.826 57.8024 62.244 57.5203C63.662 57.2383 65.1318 57.3831 66.4675 57.9363C67.8033 58.4896 68.9449 59.4265 69.7482 60.6287C70.5514 61.8308 70.9801 63.2441 70.9801 64.6899C70.9775 66.6278 70.2065 68.4856 68.8361 69.8559C67.4658 71.2262 65.608 71.9972 63.6701 71.9999ZM63.6701 58.9999C62.5467 58.9999 61.4485 59.333 60.5145 59.9571C59.5804 60.5813 58.8524 61.4684 58.4225 62.5062C57.9926 63.5441 57.8801 64.6862 58.0992 65.788C58.3184 66.8898 58.8594 67.9019 59.6537 68.6963C60.4481 69.4906 61.4602 70.0316 62.562 70.2507C63.6638 70.4699 64.8059 70.3574 65.8438 69.9275C66.8816 69.4976 67.7687 68.7696 68.3929 67.8355C69.017 66.9015 69.3501 65.8033 69.3501 64.6799C69.3448 63.176 68.7444 61.7354 67.68 60.6729C66.6157 59.6104 65.174 59.0125 63.6701 59.0099V58.9999Z" fill="#2E2D6F"/>
</g>
<defs>
<clipPath id="clip0_26_4688">
<rect width="92" height="92" fill="white"/>
</clipPath>
</defs>
</svg>
