<svg width="92" height="92" viewBox="0 0 92 92" fill="none" xmlns="http://www.w3.org/2000/svg">
<g clip-path="url(#clip0_26_4502)">
<path d="M46 92C71.4051 92 92 71.4051 92 46C92 20.5949 71.4051 0 46 0C20.5949 0 0 20.5949 0 46C0 71.4051 20.5949 92 46 92Z" fill="white"/>
<path d="M69.44 45.1599H45.2V54.7099H69.44V45.1599Z" fill="#A7B0C1"/>
<path d="M69.44 58.3301H45.2V67.6601H69.44V58.3301Z" fill="#A7B0C1"/>
<path d="M45.26 66.0099H23.29V48.6699H45.26V54.3299L43.4 56.5199L45.26 58.5599V66.0099Z" fill="#4B5EAA"/>
<path d="M44.45 41.55L43.4 43.35H23.29V26.02H56.31V41.55H44.45Z" fill="#4B5EAA"/>
<path d="M61.25 58.6599C61.2769 59.1947 61.1948 59.7294 61.0087 60.2314C60.8226 60.7335 60.5364 61.1925 60.1674 61.5805C59.7985 61.9686 59.3544 62.2775 58.8624 62.4886C58.3703 62.6998 57.8404 62.8086 57.305 62.8086C56.7695 62.8086 56.2397 62.6998 55.7476 62.4886C55.2555 62.2775 54.8115 61.9686 54.4425 61.5805C54.0736 61.1925 53.7873 60.7335 53.6012 60.2314C53.4151 59.7294 53.333 59.1947 53.36 58.6599C53.36 56.4799 57.31 49.9399 57.31 49.9399C57.31 49.9399 61.25 56.4799 61.25 58.6599Z" fill="#E98135"/>
<path d="M30.1899 26.02V33.83C30.1899 34.0593 30.2357 34.2863 30.3246 34.4976C30.4135 34.709 30.5438 34.9004 30.7078 35.0606C30.8718 35.2209 31.0661 35.3467 31.2794 35.4308C31.4928 35.5148 31.7207 35.5554 31.95 35.55C32.4061 35.55 32.8436 35.3688 33.1662 35.0463C33.4887 34.7237 33.67 34.2862 33.67 33.83V31.99C33.6686 31.7633 33.7122 31.5386 33.798 31.3287C33.8839 31.1189 34.0103 30.9281 34.1702 30.7673C34.33 30.6066 34.5201 30.479 34.7294 30.3919C34.9388 30.3048 35.1632 30.26 35.39 30.26C35.6167 30.26 35.8411 30.3048 36.0505 30.3919C36.2598 30.479 36.4499 30.6066 36.6097 30.7673C36.7696 30.9281 36.8961 31.1189 36.9819 31.3287C37.0678 31.5386 37.1113 31.7633 37.11 31.99V37.48C37.1126 37.9371 37.296 38.3746 37.6202 38.6969C37.9443 39.0191 38.3829 39.2001 38.84 39.2C39.2961 39.2 39.7336 39.0188 40.0562 38.6963C40.3787 38.3737 40.5599 37.9362 40.5599 37.48V26.02H30.1899Z" fill="#E98135"/>
<path d="M45.29 49.42H23.29C22.4112 49.42 21.5683 49.0715 20.9459 48.4511C20.3236 47.8306 19.9726 46.9887 19.97 46.1099V45.9999C19.97 45.1194 20.3198 44.275 20.9424 43.6523C21.565 43.0297 22.4095 42.6799 23.29 42.6799H43.4V44.1299H23.29C22.794 44.1299 22.3184 44.3269 21.9677 44.6776C21.617 45.0283 21.42 45.504 21.42 45.9999V46.1099C21.4226 46.6041 21.6208 47.0772 21.9712 47.4258C22.3216 47.7743 22.7958 47.9699 23.29 47.9699H45.29V49.42Z" fill="#2E2D6F"/>
<path d="M56.27 72H23.27C22.3912 72 21.5482 71.6516 20.9259 71.0311C20.3035 70.4107 19.9526 69.5688 19.95 68.69V68.58C19.95 67.6995 20.2997 66.855 20.9224 66.2324C21.545 65.6098 22.3894 65.26 23.27 65.26H45.27V66.75H23.27C23.0244 66.75 22.7812 66.7984 22.5543 66.8923C22.3274 66.9863 22.1213 67.1241 21.9477 67.2977C21.774 67.4713 21.6363 67.6775 21.5423 67.9044C21.4483 68.1313 21.4 68.3744 21.4 68.62V68.73C21.4026 69.2242 21.6008 69.6973 21.9512 70.0458C22.3016 70.3944 22.7757 70.59 23.27 70.59H56.27V72Z" fill="#2E2D6F"/>
<path d="M23.97 48.6899H22.52V65.9799H23.97V48.6899Z" fill="#2E2D6F"/>
<path d="M24.0101 26.01H22.5601V43.41H24.0101V26.01Z" fill="#2E2D6F"/>
<path d="M57.0301 26.01H55.5801V41.55H57.0301V26.01Z" fill="#2E2D6F"/>
<path d="M38.8101 39.92C38.162 39.92 37.5404 39.6633 37.0812 39.206C36.622 38.7487 36.3627 38.1281 36.3601 37.48V31.99C36.3601 31.7248 36.2547 31.4705 36.0672 31.2829C35.8797 31.0954 35.6253 30.99 35.3601 30.99C35.0949 30.99 34.8405 31.0954 34.653 31.2829C34.4654 31.4705 34.3601 31.7248 34.3601 31.99V33.83C34.3815 34.1643 34.3341 34.4993 34.2209 34.8145C34.1077 35.1298 33.9311 35.4184 33.702 35.6627C33.4728 35.9069 33.196 36.1016 32.8887 36.2347C32.5814 36.3678 32.25 36.4365 31.9151 36.4365C31.5802 36.4365 31.2488 36.3678 30.9415 36.2347C30.6342 36.1016 30.3574 35.9069 30.1282 35.6627C29.8991 35.4184 29.7225 35.1298 29.6093 34.8145C29.4961 34.4993 29.4487 34.1643 29.4701 33.83V26.02H30.9501V33.83C30.9501 34.0952 31.0555 34.3496 31.243 34.5371C31.4305 34.7247 31.6849 34.83 31.9501 34.83C32.2153 34.83 32.4697 34.7247 32.6572 34.5371C32.8447 34.3496 32.9501 34.0952 32.9501 33.83V31.99C32.9501 31.3402 33.2082 30.7171 33.6677 30.2576C34.1272 29.7982 34.7503 29.54 35.4001 29.54C36.0499 29.54 36.673 29.7982 37.1325 30.2576C37.592 30.7171 37.8501 31.3402 37.8501 31.99V37.48C37.8501 37.7453 37.9555 37.9996 38.143 38.1871C38.3305 38.3747 38.5849 38.48 38.8501 38.48C39.1153 38.48 39.3697 38.3747 39.5572 38.1871C39.7448 37.9996 39.8501 37.7453 39.8501 37.48V26.02H41.3101V37.48C41.3088 37.8052 41.2429 38.1268 41.1161 38.4262C40.9892 38.7256 40.8041 38.9968 40.5714 39.2239C40.3387 39.451 40.0631 39.6295 39.7607 39.749C39.4583 39.8685 39.1352 39.9267 38.8101 39.92Z" fill="#2E2D6F"/>
<path d="M53.08 59.06H45.2101C44.5652 59.0195 43.9601 58.7348 43.5178 58.2638C43.0755 57.7929 42.8293 57.1711 42.8293 56.525C42.8293 55.8789 43.0755 55.2571 43.5178 54.7862C43.9601 54.3152 44.5652 54.0305 45.2101 53.99H54.4901V55.44H45.2101C44.9403 55.4659 44.6898 55.5914 44.5075 55.7921C44.3253 55.9927 44.2243 56.254 44.2243 56.525C44.2243 56.796 44.3253 57.0574 44.5075 57.258C44.6898 57.4586 44.9403 57.5841 45.2101 57.61H53.08V59.06Z" fill="#2E2D6F"/>
<path d="M69.5401 59.06H61.7301V57.61H69.5401C69.8099 57.5841 70.0603 57.4586 70.2426 57.258C70.4248 57.0574 70.5258 56.796 70.5258 56.525C70.5258 56.254 70.4248 55.9927 70.2426 55.7921C70.0603 55.5914 69.8099 55.4659 69.5401 55.44H60.1001V53.99H69.5401C70.1849 54.0305 70.79 54.3152 71.2323 54.7862C71.6746 55.2571 71.9208 55.8789 71.9208 56.525C71.9208 57.1711 71.6746 57.7929 71.2323 58.2638C70.79 58.7348 70.1849 59.0195 69.5401 59.06Z" fill="#2E2D6F"/>
<path d="M69.5099 71.9999H45.1799C44.5089 71.9999 43.8654 71.7334 43.3909 71.2589C42.9164 70.7844 42.6499 70.1409 42.6499 69.4699C42.6499 68.7989 42.9164 68.1554 43.3909 67.681C43.8654 67.2065 44.5089 66.9399 45.1799 66.9399H69.5099C70.1809 66.9399 70.8244 67.2065 71.2989 67.681C71.7733 68.1554 72.0399 68.7989 72.0399 69.4699C72.0399 70.1409 71.7733 70.7844 71.2989 71.2589C70.8244 71.7334 70.1809 71.9999 69.5099 71.9999ZM45.1799 68.39C44.8935 68.39 44.6188 68.5037 44.4162 68.7063C44.2137 68.9088 44.0999 69.1835 44.0999 69.4699C44.0999 69.7564 44.2137 70.0311 44.4162 70.2336C44.6188 70.4362 44.8935 70.5499 45.1799 70.5499H69.5099C69.7963 70.5499 70.071 70.4362 70.2736 70.2336C70.4761 70.0311 70.5899 69.7564 70.5899 69.4699C70.5899 69.1835 70.4761 68.9088 70.2736 68.7063C70.071 68.5037 69.7963 68.39 69.5099 68.39H45.1799Z" fill="#2E2D6F"/>
<path d="M45.99 58.3301H44.54V67.6601H45.99V58.3301Z" fill="#2E2D6F"/>
<path d="M46.0201 45.1599H44.5701V54.7199H46.0201V45.1599Z" fill="#2E2D6F"/>
<path d="M70.17 45.1599H68.72V54.7199H70.17V45.1599Z" fill="#2E2D6F"/>
<path d="M69.54 45.8901H45.2101C44.5652 45.8496 43.9601 45.5648 43.5178 45.0939C43.0755 44.6229 42.8293 44.0011 42.8293 43.3551C42.8293 42.709 43.0755 42.0872 43.5178 41.6162C43.9601 41.1453 44.5652 40.8606 45.2101 40.8201H69.54C70.1848 40.8606 70.79 41.1453 71.2323 41.6162C71.6746 42.0872 71.9207 42.709 71.9207 43.3551C71.9207 44.0011 71.6746 44.6229 71.2323 45.0939C70.79 45.5648 70.1848 45.8496 69.54 45.8901ZM45.2101 42.2801C44.9236 42.2801 44.6489 42.3938 44.4464 42.5964C44.2438 42.7989 44.13 43.0736 44.13 43.36C44.13 43.6465 44.2438 43.9212 44.4464 44.1237C44.6489 44.3263 44.9236 44.4401 45.2101 44.4401H69.54C69.8265 44.4401 70.1012 44.3263 70.3037 44.1237C70.5063 43.9212 70.6201 43.6465 70.6201 43.36C70.6201 43.0736 70.5063 42.7989 70.3037 42.5964C70.1012 42.3938 69.8265 42.2801 69.54 42.2801H45.2101Z" fill="#2E2D6F"/>
<path d="M70.17 58.22H68.72V67.78H70.17V58.22Z" fill="#2E2D6F"/>
<path d="M57.3099 63.33C56.0713 63.33 54.8835 62.838 54.0077 61.9622C53.1319 61.0865 52.6399 59.8986 52.6399 58.6601C52.6399 56.3501 56.2699 50.2501 56.6899 49.5601L57.3099 48.5601L57.9299 49.5601C58.3399 50.2501 61.9299 56.3501 61.9299 58.6601C61.9274 59.8892 61.4414 61.068 60.5769 61.9418C59.7125 62.8156 58.5389 63.3143 57.3099 63.33ZM57.3099 51.33C55.8699 53.85 54.0899 57.3301 54.0899 58.6201C54.0899 59.4741 54.4292 60.2931 55.033 60.8969C55.6369 61.5008 56.4559 61.8401 57.3099 61.8401C58.1639 61.8401 58.9829 61.5008 59.5868 60.8969C60.1906 60.2931 60.5299 59.4741 60.5299 58.6201C60.5299 57.4101 58.7499 53.8901 57.3099 51.3701V51.33Z" fill="#2E2D6F"/>
<path d="M56.31 26.75H23.31C22.4312 26.75 21.5882 26.4016 20.9659 25.7811C20.3436 25.1607 19.9926 24.3188 19.99 23.44V23.33C19.99 22.4495 20.3398 21.605 20.9624 20.9824C21.585 20.3598 22.4294 20.01 23.31 20.01H56.31C57.1905 20.01 58.0349 20.3598 58.6576 20.9824C59.2802 21.605 59.63 22.4495 59.63 23.33V23.44C59.6273 24.3188 59.2764 25.1607 58.6541 25.7811C58.0317 26.4016 57.1888 26.75 56.31 26.75ZM23.31 21.46C22.814 21.46 22.3384 21.657 21.9877 22.0077C21.637 22.3584 21.44 22.834 21.44 23.33V23.44C21.4426 23.9342 21.6408 24.4073 21.9912 24.7558C22.3416 25.1044 22.8157 25.3 23.31 25.3H56.31C56.8042 25.3 57.2783 25.1044 57.6288 24.7558C57.9792 24.4073 58.1773 23.9342 58.18 23.44V23.33C58.18 22.834 57.983 22.3584 57.6323 22.0077C57.2816 21.657 56.8059 21.46 56.31 21.46H23.31Z" fill="#2E2D6F"/>
</g>
<defs>
<clipPath id="clip0_26_4502">
<rect width="92" height="92" fill="white"/>
</clipPath>
</defs>
</svg>
