<svg width="72" height="72" viewBox="0 0 72 72" fill="none" xmlns="http://www.w3.org/2000/svg">
<path fill-rule="evenodd" clip-rule="evenodd" d="M47.9125 3.91805C48.2238 2.97642 47.7136 1.96139 46.7726 1.64977L46.7726 1.64991C39.7589 -0.550171 32.2398 -0.549973 25.2263 1.65047C6.26063 7.6006 -4.29018 27.7984 1.66008 46.7641C7.61021 65.7293 27.8086 76.2806 46.7737 70.3303C65.7394 64.3802 76.2902 44.1818 70.3399 25.2167C70.0379 24.2877 69.0497 23.7708 68.1147 24.0526C67.1654 24.3389 66.6283 25.3403 66.9144 26.2895C68.8997 32.6118 68.8997 39.3905 66.9144 45.7128C61.5509 62.7921 43.3569 72.2903 26.2771 66.9262C9.19716 61.5628 -0.300369 43.3688 5.06307 26.2895C10.4266 9.20963 28.6204 -0.288041 45.7004 5.07539C46.6293 5.34962 47.6082 4.8376 47.9125 3.91805ZM48.6744 34.0765C47.6838 34.0765 46.8808 34.8791 46.8808 35.8701C46.8808 41.813 42.0633 46.6311 36.1198 46.6311C30.1767 46.6311 25.3586 41.813 25.3586 35.8701C25.3586 29.9264 30.1767 25.1089 36.1198 25.1089C37.1106 25.1089 37.9132 24.3058 37.9132 23.3153C37.9132 22.3249 37.1106 21.5218 36.1198 21.5218C28.1958 21.5218 21.7721 27.9456 21.7721 35.8701C21.7721 43.7939 28.1958 50.2177 36.1198 50.2177C44.0441 50.2177 50.4679 43.7939 50.4679 35.8701C50.4679 34.8791 49.6648 34.0765 48.6744 34.0765ZM59.1867 32.4543C60.2079 32.4451 61.0615 33.2295 61.1379 34.2479C61.1834 34.7835 61.229 35.3196 61.229 35.8696C61.229 49.737 49.9873 60.9788 36.1198 60.9788C22.2528 60.9788 11.011 49.737 11.011 35.8696C11.011 22.0025 22.2528 10.7608 36.1197 10.7608C36.7685 10.7608 37.4167 10.8003 38.0604 10.8799C39.0448 11.0233 39.7266 11.9374 39.5831 12.9218C39.4404 13.9061 38.5256 14.5879 37.5412 14.445C37.504 14.4395 37.4673 14.4329 37.4299 14.4253C36.9953 14.3862 36.5647 14.3479 36.1208 14.3479C24.2342 14.3473 14.5987 23.9828 14.5975 35.869C14.597 47.7556 24.2332 57.3913 36.1192 57.3917C48.0053 57.3923 57.6415 47.7573 57.6419 35.8705L57.6419 35.8701C57.6419 35.4276 57.604 34.9989 57.5658 34.5679L57.5652 34.5605L57.537 34.2244C57.497 33.2871 58.2243 32.4951 59.1614 32.4555C59.1703 32.4549 59.1784 32.4549 59.1867 32.4543ZM49.4172 25.109L55.8487 25.109C56.0842 25.1091 56.3174 25.0626 56.5349 24.9724C56.7524 24.8822 56.95 24.75 57.1164 24.5834L67.8776 13.8222C68.2137 13.4861 68.4026 13.0303 68.4027 12.555C68.4033 11.5639 67.6002 10.7609 66.6097 10.7609L61.2291 10.7609L61.2291 5.38029C61.2292 5.14482 61.1828 4.91166 61.0927 4.69411C61.0026 4.47657 60.8705 4.27891 60.704 4.11241C60.0036 3.41209 58.8682 3.41209 58.1679 4.11241L47.4067 14.8731C47.07 15.2098 46.881 15.6658 46.881 16.1415L46.881 22.5727L34.8521 34.6018C34.8372 34.6161 34.8224 34.6309 34.808 34.6458C34.1198 35.3581 34.1397 36.4936 34.8521 37.182C35.5645 37.8702 36.7 37.8505 37.3882 37.1381L49.4172 25.109ZM62.28 14.348L55.1059 21.522L50.4681 21.522L50.4681 16.8841L57.6421 9.71L57.6421 12.5544C57.6421 13.5448 58.4452 14.348 59.4356 14.348L62.28 14.348Z" fill="url(#paint0_linear_17_3733)"/>
<defs>
<linearGradient id="paint0_linear_17_3733" x1="57.9375" y1="58.928" x2="9.66599" y2="11.1178" gradientUnits="userSpaceOnUse">
<stop stop-color="#48389C"/>
<stop offset="1" stop-color="#E98135"/>
</linearGradient>
</defs>
</svg>
