<svg width="73" height="72" viewBox="0 0 73 72" fill="none" xmlns="http://www.w3.org/2000/svg">
<path d="M36.1377 58.1246C40.533 58.1246 44.8297 56.8213 48.4843 54.3793C52.139 51.9374 54.9874 48.4666 56.6694 44.4058C58.3515 40.345 58.7916 35.8766 57.9341 31.5657C57.0766 27.2547 54.96 23.2949 51.852 20.1869C48.744 17.0789 44.7842 14.9623 40.4732 14.1048C36.1623 13.2473 31.6939 13.6874 27.6331 15.3695C23.5723 17.0515 20.1015 19.8999 17.6596 23.5546C15.2176 27.2092 13.9142 31.5058 13.9142 35.9012C13.9206 41.7933 16.2641 47.4422 20.4304 51.6085C24.5967 55.7748 30.2456 58.1183 36.1377 58.1246ZM25.3016 51.8924C25.2665 51.5377 25.2486 51.1814 25.2479 50.825C25.2412 49.3906 25.5179 47.969 26.0621 46.6418C26.6064 45.3147 27.4074 44.1081 28.4193 43.0915C29.4312 42.0748 30.634 41.2681 31.9585 40.7176C33.2831 40.1671 34.7034 39.8837 36.1378 39.8837C37.5722 39.8837 38.9925 40.1671 40.317 40.7176C41.6416 41.2681 42.8444 42.0748 43.8563 43.0915C44.8681 44.1081 45.6692 45.3147 46.2135 46.6418C46.7577 47.969 47.0344 49.3906 47.0276 50.825C47.0276 51.1813 47.0083 51.5381 46.974 51.8924C43.7774 54.0639 40.0022 55.225 36.1378 55.225C32.2734 55.225 28.4981 54.0639 25.3016 51.8924ZM36.1377 36.8945C35.0197 36.8945 33.9269 36.563 32.9973 35.9419C32.0678 35.3208 31.3433 34.438 30.9155 33.4051C30.4876 32.3723 30.3757 31.2358 30.5938 30.1393C30.8119 29.0428 31.3502 28.0356 32.1408 27.2451C32.9313 26.4546 33.9384 25.9163 35.0349 25.6982C36.1314 25.4801 37.2679 25.592 38.3008 26.0198C39.3336 26.4477 40.2164 27.1721 40.8375 28.1017C41.4586 29.0312 41.7901 30.1241 41.7901 31.242C41.7884 32.7407 41.1924 34.1776 40.1327 35.2374C39.0731 36.2972 37.6364 36.8935 36.1377 36.8955V36.8945ZM36.1377 16.5756C39.9521 16.5731 43.6818 17.7003 46.8564 19.8148C50.0311 21.9293 52.5086 24.9365 53.9764 28.4571C55.4442 31.9778 55.8367 35.8543 55.1043 39.5977C54.372 43.3411 52.5475 46.7839 49.8611 49.4918C49.6138 46.9862 48.6865 44.5957 47.1794 42.5787C45.6723 40.5617 43.6427 38.9949 41.3099 38.0475C42.7358 36.9647 43.7858 35.4617 44.312 33.7504C44.8381 32.0391 44.8139 30.2058 44.2426 28.509C43.6714 26.8122 42.582 25.3375 41.128 24.2928C39.674 23.2481 37.9288 22.6862 36.1384 22.6862C34.348 22.6862 32.6028 23.2481 31.1488 24.2928C29.6948 25.3375 28.6054 26.8122 28.0341 28.509C27.4629 30.2058 27.4386 32.0391 27.9648 33.7504C28.491 35.4617 29.541 36.9647 30.9669 38.0475C28.6341 38.995 26.6047 40.5619 25.0976 42.5789C23.5905 44.5958 22.6632 46.9862 22.4157 49.4918C19.7295 46.784 17.9053 43.3414 17.173 39.5983C16.4407 35.8551 16.8331 31.9789 18.3008 28.4584C19.7684 24.938 22.2456 21.9309 25.4199 19.8163C28.5942 17.7018 32.3235 16.5745 36.1377 16.5765V16.5756ZM36.1379 69.7383C29.8521 69.7596 23.6873 68.0113 18.3485 64.6934L20.06 70.1142C20.1173 70.2957 20.1383 70.4867 20.1218 70.6763C20.1052 70.866 20.0515 71.0505 19.9637 71.2194C19.8759 71.3882 19.7557 71.5381 19.6099 71.6605C19.4641 71.783 19.2957 71.8755 19.1142 71.9328C18.9326 71.9901 18.7416 72.011 18.552 71.9945C18.3624 71.978 18.1779 71.9243 18.009 71.8365C17.8401 71.7486 17.6902 71.6284 17.5678 71.4827C17.4454 71.3369 17.3529 71.1684 17.2956 70.9869L14.2795 61.4313C14.2147 61.2262 14.1964 61.0092 14.2259 60.7962C14.2554 60.5831 14.332 60.3792 14.45 60.1994C14.5681 60.0196 14.7247 59.8683 14.9085 59.7566C15.0923 59.6448 15.2987 59.5753 15.5126 59.5532L25.4789 58.5223C25.6697 58.4997 25.863 58.5153 26.0477 58.5681C26.2324 58.621 26.4048 58.71 26.5547 58.8301C26.7047 58.9501 26.8293 59.0988 26.9213 59.2674C27.0134 59.4361 27.0709 59.6213 27.0907 59.8124C27.1105 60.0035 27.0921 60.1966 27.0365 60.3805C26.981 60.5644 26.8895 60.7355 26.7672 60.8837C26.645 61.0319 26.4946 61.1543 26.3246 61.2439C26.1546 61.3334 25.9686 61.3883 25.7772 61.4053L19.5933 62.0451C24.5357 65.1936 30.2779 66.8573 36.1379 66.8386C43.2647 66.8342 50.1723 64.3741 55.6974 59.8726C55.9953 59.6309 56.3767 59.5172 56.7583 59.5563C57.1398 59.5954 57.4903 59.7841 57.7329 60.0811C57.9756 60.3782 58.0906 60.7592 58.0528 61.1409C58.015 61.5226 57.8275 61.8737 57.5313 62.1174C51.4883 67.0413 43.933 69.7323 36.1379 69.7374V69.7383ZM14.7445 9.68677C20.7873 4.76223 28.3426 2.07057 36.1379 2.06511C42.2862 2.05011 48.3204 3.7253 53.5811 6.90764L51.6996 1.95568C51.5659 1.59699 51.5795 1.19997 51.7374 0.851271C51.8954 0.502577 52.1849 0.230538 52.5428 0.0945435C52.9006 -0.0414514 53.2977 -0.0303568 53.6474 0.125405C53.9971 0.281167 54.2709 0.568946 54.4092 0.925916L57.9683 10.2919C58.0447 10.4929 58.0754 10.7084 58.0582 10.9228C58.0409 11.1372 57.9762 11.345 57.8687 11.5313C57.7612 11.7175 57.6136 11.8775 57.4366 11.9997C57.2596 12.1218 57.0576 12.203 56.8453 12.2374L46.9551 13.8392C46.7663 13.8719 46.5728 13.8668 46.3859 13.8242C46.1991 13.7817 46.0225 13.7025 45.8664 13.5912C45.7104 13.4799 45.5779 13.3388 45.4768 13.176C45.3756 13.0132 45.3078 12.8319 45.2771 12.6427C45.2465 12.4535 45.2537 12.2601 45.2983 12.0737C45.3429 11.8873 45.424 11.7116 45.537 11.5568C45.65 11.402 45.7925 11.2711 45.9564 11.1717C46.1203 11.0723 46.3023 11.0065 46.4918 10.9779L52.9509 9.93244C47.9497 6.67539 42.1067 4.9486 36.1384 4.96381C29.0114 4.96811 22.1036 7.42833 16.5784 11.9301C16.4311 12.0513 16.2613 12.1422 16.0788 12.1977C15.8963 12.2531 15.7046 12.272 15.5148 12.2532C15.325 12.2344 15.1407 12.1783 14.9726 12.0881C14.8045 11.998 14.6559 11.8756 14.5352 11.7278C14.4145 11.5801 14.3242 11.41 14.2694 11.2273C14.2146 11.0446 14.1963 10.8529 14.2158 10.6631C14.2352 10.4734 14.2919 10.2893 14.3827 10.1215C14.4734 9.95373 14.5963 9.8055 14.7445 9.68532V9.68677ZM62.3338 52.3623C65.4491 47.4386 67.0941 41.7279 67.0753 35.9015C67.071 28.7747 64.6108 21.8671 60.109 16.3422C59.9878 16.1949 59.8969 16.0251 59.8415 15.8426C59.786 15.6601 59.7672 15.4684 59.786 15.2786C59.8048 15.0888 59.8608 14.9045 59.951 14.7364C60.0411 14.5683 60.1636 14.4197 60.3113 14.299C60.459 14.1783 60.6291 14.088 60.8118 14.0332C60.9945 13.9784 61.1862 13.9602 61.376 13.9796C61.5658 13.999 61.7498 14.0558 61.9176 14.1465C62.0854 14.2372 62.2336 14.3602 62.3538 14.5083C67.2778 20.5512 69.969 28.1064 69.974 35.9015C69.9967 42.2216 68.2296 48.419 64.8771 53.7768L70.4178 52.1207C70.7861 52.0106 71.1832 52.0514 71.5215 52.2341C71.8598 52.4167 72.1117 52.7263 72.2217 53.0947C72.3318 53.463 72.291 53.8601 72.1084 54.1984C71.9257 54.5367 71.6161 54.7886 71.2478 54.8986L61.6475 57.7667C61.4414 57.8282 61.2242 57.8431 61.0117 57.8103C60.7991 57.7775 60.5965 57.6978 60.4186 57.577C60.2407 57.4562 60.0918 57.2973 59.9829 57.1118C59.874 56.9264 59.8078 56.719 59.7889 56.5048L58.9121 46.5238C58.893 46.3329 58.9119 46.1402 58.9678 45.9567C59.0238 45.7732 59.1156 45.6027 59.2379 45.4549C59.3602 45.3072 59.5107 45.1852 59.6805 45.0961C59.8503 45.0069 60.0362 44.9523 60.2273 44.9355C60.4183 44.9187 60.6108 44.94 60.7936 44.9982C60.9764 45.0563 61.1458 45.1502 61.2921 45.2743C61.4383 45.3984 61.5585 45.5504 61.6456 45.7212C61.7326 45.8922 61.7849 46.0786 61.7994 46.2699L62.3338 52.3623ZM9.94833 19.4288C6.82974 24.3556 5.18257 30.0704 5.20049 35.9012C5.20482 43.0281 7.66504 49.9357 12.1668 55.4607C12.288 55.608 12.3789 55.7778 12.4343 55.9603C12.4898 56.1429 12.5086 56.3345 12.4898 56.5243C12.471 56.7142 12.415 56.8984 12.3248 57.0665C12.2347 57.2346 12.1122 57.3833 11.9645 57.5039C11.8168 57.6246 11.6467 57.715 11.464 57.7698C11.2813 57.8246 11.0896 57.8428 10.8998 57.8233C10.71 57.8039 10.526 57.7472 10.3582 57.6565C10.1904 57.5657 10.0422 57.4428 9.922 57.2946C4.99785 51.2517 2.30669 43.6964 2.30178 35.9012C2.28132 29.5853 4.04698 23.3923 7.39505 18.0367L1.86697 19.6987C1.49885 19.8094 1.10182 19.7694 0.76322 19.5874C0.424617 19.4054 0.172181 19.0963 0.061444 18.7282C-0.0492931 18.3601 -0.00926117 17.9631 0.172736 17.6244C0.354733 17.2858 0.663786 17.0334 1.03191 16.9227L10.6269 14.0368C10.8328 13.975 11.0499 13.9598 11.2624 13.9923C11.4749 14.0248 11.6775 14.1041 11.8555 14.2246C12.0336 14.3451 12.1826 14.5037 12.2918 14.6888C12.401 14.874 12.4676 15.0812 12.4869 15.2953L13.3821 25.2748C13.4164 25.6576 13.2973 26.0384 13.0509 26.3334C12.8045 26.6284 12.4511 26.8134 12.0682 26.8478C12.0241 26.8517 11.9804 26.8536 11.9371 26.8536C11.5754 26.8532 11.2269 26.7176 10.9601 26.4734C10.6934 26.2291 10.5275 25.894 10.4952 25.5338L9.94833 19.4288Z" fill="url(#paint0_linear_22_3817)"/>
<defs>
<linearGradient id="paint0_linear_22_3817" x1="13.1153" y1="14.0625" x2="60.9233" y2="62.5276" gradientUnits="userSpaceOnUse">
<stop stop-color="#E98135"/>
<stop offset="1" stop-color="#48389C"/>
</linearGradient>
</defs>
</svg>
