<svg width="73" height="71" viewBox="0 0 73 71" fill="none" xmlns="http://www.w3.org/2000/svg">
<path fill-rule="evenodd" clip-rule="evenodd" d="M1.15336 40.093C0.558047 39.4977 0.260394 38.7535 0.11156 38.0094C-0.0372667 37.2652 -0.0372666 36.6699 0.11156 35.777C0.11156 35.4793 0.11156 35.0328 0.260387 34.7352C0.409221 34.4375 0.558048 34.1399 0.855708 33.8422C1.15336 33.5445 1.45101 33.3957 1.74868 33.2469C2.04633 33.0981 2.49282 33.0981 2.79048 33.0981L12.3155 33.0981C13.8038 33.0981 15.1432 34.2887 15.1432 35.777C15.7386 46.9391 24.9659 55.72 36.128 55.72C47.2902 55.72 56.5175 46.9391 57.1129 35.777C57.1129 34.2887 58.3035 33.0981 59.7918 33.0981L69.3168 33.0981C69.7633 33.0981 70.0609 33.0981 70.5074 33.3957C70.8051 33.5445 71.1027 33.6934 71.4004 33.991C71.8469 34.5863 72.1445 35.1817 72.1445 35.9258L72.1445 36.0746C72.1445 36.8188 72.1445 37.4141 71.9957 38.1582C71.8469 38.9024 71.5492 39.6465 70.9539 40.2418C70.3586 40.8371 69.6144 41.1348 68.8703 41.2836L65.2984 41.8789C64.7031 44.7067 63.5125 47.5344 61.8754 50.2133L63.959 53.1899C64.4055 53.7852 64.7031 54.6782 64.7031 55.4223C64.7031 56.1665 64.4055 57.0594 63.959 57.6548C63.4921 58.1216 63.066 58.5884 62.6593 59.034C62.288 59.4407 61.9328 59.8297 61.5777 60.1848C60.8336 60.929 59.9406 61.6731 59.0476 62.4173C57.7082 63.3102 55.9222 63.4591 54.5828 62.4173L51.6062 60.3337C48.9273 61.822 46.0996 63.0126 43.123 63.7567L42.5277 67.3286C42.5277 68.0296 41.9994 68.7305 41.565 69.3071C41.5382 69.3426 41.5118 69.3777 41.4859 69.4122C41.0394 70.0075 40.1464 70.3052 39.4023 70.454C37.021 70.7517 34.7886 70.7517 32.5562 70.454C31.812 70.3052 31.0679 70.0075 30.4726 69.4122C29.8773 68.8169 29.5796 68.0727 29.4308 67.3286L28.8355 63.7567C25.8589 63.1614 23.0311 61.9708 20.3522 60.3337L17.3757 62.4173C16.7803 62.8637 15.8874 63.1614 15.1432 63.1614C14.3991 63.1614 13.6549 62.8637 12.9108 62.4173C12.0178 61.6731 11.1249 60.7801 10.3807 60.036C9.6366 59.2919 8.89248 58.3989 8.14836 57.506C7.70187 56.9107 7.40415 56.0176 7.40415 55.2735C7.40415 54.5294 7.70181 53.6364 8.14829 53.0411L10.2319 50.0645C8.74361 47.5344 7.55299 44.7067 6.80884 41.7301L3.23696 41.1348C2.49282 40.986 1.74868 40.6883 1.15336 40.093ZM62.4707 40.093C62.4707 39.7953 62.6195 39.4977 62.9172 39.3489C63.066 39.0512 63.3637 38.9024 63.6613 38.9024L68.275 38.1582C68.3382 38.1582 68.3746 38.1582 68.4069 38.1468C68.4507 38.1314 68.4871 38.095 68.5727 38.0094C68.5727 38.0094 68.7215 37.8606 68.7215 37.7117C68.8703 37.2653 68.8703 36.6699 68.8703 36.2235L60.0894 36.2235C59.3453 48.8739 48.7785 58.8454 35.9792 58.8454C23.18 58.8454 12.6132 48.8739 11.7202 36.2235L2.9393 36.2235C2.9393 36.4467 2.97651 36.7071 3.01372 36.9676C3.05093 37.228 3.08813 37.4885 3.08813 37.7117C3.08813 37.775 3.08813 37.8114 3.09955 37.8437C3.11501 37.8874 3.15138 37.9238 3.23696 38.0094C3.23696 38.1582 3.38579 38.1582 3.53462 38.1582L8.1483 38.9024C8.44596 39.0016 8.61132 39.1008 8.77669 39.2C8.85937 39.2496 8.94205 39.2992 9.04127 39.3489C9.33893 39.4977 9.48775 39.7953 9.48775 40.093C10.2319 43.3672 11.4225 46.4926 13.3573 49.3204C13.5061 49.618 13.655 49.9157 13.655 50.2133C13.655 50.6598 13.5061 50.9575 13.3573 51.2551L10.6784 54.9758C10.5296 54.9758 10.5296 55.2735 10.5296 55.2735C10.5296 55.2735 10.5295 55.4223 10.6784 55.5712C11.0505 55.9432 11.3853 56.3153 11.7202 56.6874C12.055 57.0594 12.3899 57.4315 12.762 57.8036C13.5061 58.5477 14.2503 59.2919 14.9944 59.8872C14.9944 60.036 15.1432 60.036 15.2921 60.036C15.3665 60.036 15.4037 59.9988 15.4409 59.9616C15.4781 59.9244 15.5153 59.8872 15.5897 59.8872L19.4593 57.0594C19.7569 56.9106 20.0546 56.7618 20.3522 56.7618C20.6499 56.7618 20.9475 56.9106 21.2452 57.0594C24.0729 58.9942 27.1983 60.1848 30.4726 60.929C30.7702 60.929 31.0679 61.0778 31.2167 61.3755C31.5144 61.6731 31.6632 61.9708 31.6632 62.2684L32.4073 66.8821C32.4073 66.9454 32.4073 66.9817 32.4188 67.0141C32.4342 67.0578 32.4706 67.0942 32.5562 67.1798C32.5562 67.3286 32.705 67.3286 32.8538 67.3286C34.9374 67.4774 36.8722 67.4774 38.9558 67.3286L39.5511 67.3286C39.5511 67.3286 39.6999 67.1798 39.6999 67.0309L40.4441 62.4173C40.5433 62.1196 40.6425 61.9542 40.7417 61.7889C40.7913 61.7062 40.8409 61.6235 40.8906 61.5243C41.0394 61.2266 41.337 61.0778 41.6347 61.0778C44.9089 60.3337 48.0343 59.143 50.8621 57.2083C51.1597 57.0594 51.4574 56.9106 51.755 56.9106C52.0527 56.9106 52.3503 57.0594 52.4992 57.2083L56.2199 59.8872C56.5175 60.036 56.8152 60.036 56.964 59.8872C57.3361 59.5151 57.7082 59.1802 58.0802 58.8454C58.4523 58.5105 58.8244 58.1757 59.1965 57.8036C59.8777 57.2586 60.4342 56.5889 61.0944 55.7944C61.1553 55.721 61.2172 55.6466 61.2801 55.5712C61.4289 55.5712 61.4289 55.4223 61.4289 55.2735C61.4289 55.1991 61.3917 55.1619 61.3545 55.1247C61.3173 55.0875 61.2801 55.0503 61.2801 54.9758L58.6011 51.1063C58.4523 50.8086 58.3035 50.511 58.3035 50.2133C58.3035 49.9157 58.4523 49.618 58.6011 49.3204C60.5359 46.4926 61.7265 43.3672 62.4707 40.093Z" fill="url(#paint0_linear_22_3816)"/>
<path fill-rule="evenodd" clip-rule="evenodd" d="M7.7573 26.8403C7.67075 26.9143 7.43 26.8081 6.64448 26.6772C5.50644 26.4875 5.53358 26.3101 5.62603 25.7057C5.67867 25.3616 5.75247 24.8791 5.64448 24.1772C5.64448 22.9844 5.09912 22.6933 5.13426 22.5757C5.15612 22.5025 5.40255 22.4965 6.14448 22.3824C6.93014 22.2514 7.2676 21.9189 7.4625 21.7268C7.71064 21.4823 7.7277 21.4654 8.14448 22.3824L16.6314 22.3824C18.8638 22.3824 20.6497 24.1683 20.6497 26.4007L20.6497 33.098L22.2869 33.098L22.2869 20.4476C22.2869 19.5546 23.031 18.8105 23.924 18.8105C24.8169 18.8105 25.5611 19.5546 25.5611 20.4476L25.5611 33.098L28.3888 33.098L28.3888 14.3456C28.3888 13.8992 28.0912 13.6015 27.6447 13.6015L18.1445 13.6015C17.797 14.4355 17.9958 15.0747 18.1246 15.4889C18.2716 15.9618 18.3275 16.1414 17.3755 15.9827C15.4408 15.6851 14.1013 14.048 14.1013 12.1132C14.1013 10.1784 15.4408 8.54132 17.3755 8.24366C18.339 8.08308 18.2701 8.31235 18.1192 8.81464C17.9904 9.24338 17.8018 9.87103 18.1445 10.6249L27.6447 10.6249C29.7283 10.6249 31.5142 12.262 31.5142 14.4945L31.5142 33.098L34.342 33.098L34.342 6.16008C33.7466 5.86242 33.1513 5.41593 32.7049 4.82061C32.4952 4.54105 32.6896 4.54627 32.9549 4.55339C33.2545 4.56142 33.6445 4.57189 33.6445 4.1772C33.6445 2.98938 33.6691 2.99531 34.1358 3.10807C34.4292 3.17897 34.8975 3.29211 35.6445 3.1772C36.081 3.11483 36.4468 3.03756 36.7563 2.97217C37.924 2.72547 38.2915 2.6478 38.6445 4.1772C38.8587 5.03412 39.0075 5.35389 38.9071 5.53691C38.7982 5.73532 38.3964 5.77298 37.4674 6.16008L37.4674 33.098L40.2951 33.098L40.2951 14.4945C40.2951 12.4109 41.9322 10.6249 44.1646 10.6249L53.1178 10.6249C53.4271 9.8825 53.5209 9.62852 53.6531 9.60658C53.839 9.57574 54.101 10.0033 55.1445 10.1772C55.9831 10.3062 56.2826 10.3236 56.3528 10.4595C56.4445 10.6371 56.1445 11.0171 56.1445 12.1132C56.1445 13.2256 56.4535 13.6428 56.3484 13.853C56.2708 14.0084 55.9668 14.0507 55.1445 14.1772C54.1394 14.3447 53.8594 14.6599 53.674 14.6116C53.53 14.5741 53.4431 14.3173 53.1178 13.6015L44.1646 13.6015C43.7182 13.6015 43.4205 14.048 43.4205 14.4945L43.4205 33.098L46.2482 33.098L46.2482 20.4476C46.2482 19.5546 46.8436 18.8105 47.7365 18.8105C48.6295 18.8105 49.3736 19.5546 49.3736 20.4476L49.3736 33.098L51.0107 33.098L51.0107 26.4007C51.0108 24.1683 52.7967 22.3824 55.0291 22.3824L63.6445 22.3824C63.6445 22.3824 61.703 19.7035 63.4889 20.0011C65.4237 20.2988 67.7631 21.9359 67.7631 23.8707C67.7631 25.8054 65.4237 27.4425 63.4889 27.7402C61.703 28.0379 63.4889 25.3589 63.4889 25.3589L55.0291 25.3589C54.4338 25.3589 54.1361 25.8054 54.1361 26.2519L54.1361 33.5445C54.4338 33.8422 54.7315 34.1398 54.8803 34.4375C55.0291 34.884 55.1779 35.3305 55.1779 35.7769L55.1779 35.9258C54.5826 46.0461 46.0994 54.0828 35.8302 54.0828C25.5611 54.0828 17.0779 46.1949 16.4826 35.9258C16.4826 35.3304 16.4825 34.884 16.7802 34.4375L17.6732 33.5445L17.6732 26.2519C17.6732 25.6566 17.3755 25.3589 16.929 25.3589L8.14448 25.3589C7.72764 26.3594 7.86752 26.746 7.7573 26.8403ZM35.9791 50.9574C44.4623 50.9574 51.4572 44.5578 52.2014 36.2234L19.7568 36.2234C20.5009 44.5578 27.4959 50.9574 35.9791 50.9574Z" fill="url(#paint1_linear_22_3816)"/>
<path d="M68.5776 23.0226C68.903 23.3984 68.903 23.9561 68.5776 24.3319L64.1505 29.4439C63.5443 30.1438 62.3945 29.7151 62.3945 28.7892L62.3945 18.5652C62.3945 17.6394 63.5443 17.2107 64.1505 17.9106L68.5776 23.0226Z" fill="url(#paint2_linear_22_3816)"/>
<path d="M2.71148 23.0226C2.38605 23.3984 2.38605 23.9561 2.71148 24.3319L7.13861 29.4439C7.74474 30.1438 8.89453 29.7151 8.89453 28.7892L8.89454 18.5652C8.89454 17.6393 7.74474 17.2107 7.13861 17.9106L2.71148 23.0226Z" fill="url(#paint3_linear_22_3816)"/>
<path d="M58.5776 11.0226C58.903 11.3984 58.903 11.9561 58.5776 12.3319L54.1505 17.4439C53.5443 18.1438 52.3945 17.7151 52.3945 16.7892L52.3945 6.56524C52.3945 5.63935 53.5443 5.21068 54.1505 5.91059L58.5776 11.0226Z" fill="url(#paint4_linear_22_3816)"/>
<path d="M12.7115 11.0226C12.3861 11.3984 12.3861 11.9561 12.7115 12.3319L17.1386 17.4439C17.7447 18.1438 18.8945 17.7151 18.8945 16.7892L18.8945 6.56523C18.8945 5.63935 17.7447 5.21068 17.1386 5.91059L12.7115 11.0226Z" fill="url(#paint5_linear_22_3816)"/>
<path d="M35.4899 0.244191C35.8657 -0.081241 36.4234 -0.0812409 36.7992 0.244191L41.9112 4.67132C42.6111 5.27745 42.1824 6.42724 41.2565 6.42724L31.0325 6.42724C30.1066 6.42724 29.678 5.27745 30.3779 4.67131L35.4899 0.244191Z" fill="url(#paint6_linear_22_3816)"/>
<defs>
<linearGradient id="paint0_linear_22_3816" x1="59.0542" y1="56.8731" x2="12.1417" y2="8.51813" gradientUnits="userSpaceOnUse">
<stop stop-color="#48389C"/>
<stop offset="1" stop-color="#E98135"/>
</linearGradient>
<linearGradient id="paint1_linear_22_3816" x1="59.0542" y1="56.8731" x2="12.1417" y2="8.51813" gradientUnits="userSpaceOnUse">
<stop stop-color="#48389C"/>
<stop offset="1" stop-color="#E98135"/>
</linearGradient>
<linearGradient id="paint2_linear_22_3816" x1="59.0542" y1="56.8731" x2="12.1417" y2="8.51813" gradientUnits="userSpaceOnUse">
<stop stop-color="#48389C"/>
<stop offset="1" stop-color="#E98135"/>
</linearGradient>
<linearGradient id="paint3_linear_22_3816" x1="59.0542" y1="56.8731" x2="12.1417" y2="8.51813" gradientUnits="userSpaceOnUse">
<stop stop-color="#48389C"/>
<stop offset="1" stop-color="#E98135"/>
</linearGradient>
<linearGradient id="paint4_linear_22_3816" x1="59.0542" y1="56.8731" x2="12.1417" y2="8.51813" gradientUnits="userSpaceOnUse">
<stop stop-color="#48389C"/>
<stop offset="1" stop-color="#E98135"/>
</linearGradient>
<linearGradient id="paint5_linear_22_3816" x1="59.0542" y1="56.8731" x2="12.1417" y2="8.51813" gradientUnits="userSpaceOnUse">
<stop stop-color="#48389C"/>
<stop offset="1" stop-color="#E98135"/>
</linearGradient>
<linearGradient id="paint6_linear_22_3816" x1="59.0542" y1="56.8731" x2="12.1417" y2="8.51813" gradientUnits="userSpaceOnUse">
<stop stop-color="#48389C"/>
<stop offset="1" stop-color="#E98135"/>
</linearGradient>
</defs>
</svg>
