<svg width="369" height="19" viewBox="0 0 369 19" fill="none" xmlns="http://www.w3.org/2000/svg">
<path d="M359.807 6.74325L359.807 12.1093L-2.02566e-05 12.1044L-0.000244141 6.73834L359.807 6.74325Z" fill="#E4E7EC"/>
<path d="M359.815 18.2918L367.882 10.2253C368.092 10.0106 368.21 9.72176 368.21 9.4209C368.21 9.12005 368.092 8.83119 367.882 8.61647L359.814 0.549327C359.655 0.395095 359.453 0.291006 359.235 0.249893C359.017 0.20878 358.791 0.232429 358.586 0.317949C358.381 0.403469 358.206 0.547116 358.082 0.731156C357.957 0.915196 357.89 1.13158 357.887 1.35364L357.888 17.4873C357.89 17.7093 357.958 17.9258 358.082 18.1098C358.207 18.2939 358.382 18.4375 358.587 18.523C358.792 18.6086 359.018 18.6323 359.236 18.5912C359.454 18.5501 359.655 18.446 359.815 18.2918Z" fill="#E4E7EC"/>
</svg>
