<svg width="72" height="68" viewBox="0 0 72 68" fill="none" xmlns="http://www.w3.org/2000/svg">
<path d="M55.1986 49.1731C54.5347 49.1731 53.9731 48.6624 53.9731 47.9986C53.9731 47.6923 54.0752 47.488 54.2284 47.2327C57.19 43.3009 58.824 38.501 58.824 33.5479C58.824 32.0161 58.6197 30.4331 58.3134 28.9013C58.1602 28.2885 58.5687 27.6247 59.2325 27.4715C59.8963 27.3183 60.5091 27.7268 60.6622 28.3906C60.6622 28.3906 60.6622 28.3906 60.6622 28.4417C61.0197 30.1268 61.2239 31.8629 61.2239 33.5479C61.2239 39.0627 59.4367 44.3221 56.1687 48.7135C55.9134 49.0199 55.556 49.1731 55.1986 49.1731ZM12.5103 39.7776C11.9486 39.7776 11.4891 39.3691 11.3359 38.8074C10.9784 37.0713 10.8252 35.3351 10.8252 33.5479C10.8252 28.0843 12.5614 22.8759 15.8294 18.4845C16.2379 17.9739 16.9527 17.8718 17.5144 18.2292C18.0251 18.6377 18.1272 19.4036 17.7187 19.9143C14.8081 23.8461 13.1741 28.6459 13.2252 33.5479C13.2252 35.1819 13.3784 36.7649 13.6847 38.2967C13.8379 38.9606 13.4294 39.6244 12.7656 39.7265C12.7146 39.7776 12.6124 39.7776 12.5103 39.7776ZM39.6245 45.5476H32.4247C31.7609 45.5476 31.1992 45.037 31.1992 44.3732V38.3478H25.2249C24.5611 38.3478 23.9994 37.8372 23.9994 37.1734V29.9736C23.9994 29.3098 24.5611 28.7481 25.2249 28.7481H31.1992V22.7738C31.1992 22.1099 31.7609 21.5483 32.4247 21.5483H39.6245C40.2883 21.5483 40.7989 22.1099 40.7989 22.7738V28.7481H46.8243C47.4881 28.7481 47.9987 29.3098 47.9987 29.9736V37.1734C47.9987 37.8372 47.4881 38.3478 46.8243 38.3478H40.7989V44.3732C40.7989 45.037 40.2883 45.5476 39.6245 45.5476ZM33.5991 43.1477H38.399V37.1734C38.399 36.5096 38.9607 35.9479 39.6245 35.9479H45.5988V31.148H39.6245C38.9607 31.148 38.399 30.6374 38.399 29.9736V23.9482H33.5991V29.9736C33.5991 30.6374 33.0885 31.148 32.4247 31.148H26.3993V35.9479H32.4247C33.0885 35.9479 33.5991 36.5096 33.5991 37.1734V43.1477ZM41.1564 67.1471H28.5439C26.1951 67.1471 23.8972 66.6364 21.7526 65.6152L13.3784 61.5302C11.2337 60.5089 8.88487 59.9473 6.536 59.9473H1.2255C0.561687 59.9473 0 59.4366 0 58.7728C0 58.109 0.561687 57.5473 1.2255 57.5473H6.536C9.29337 57.5473 11.8976 58.1601 14.3996 59.3345L22.8249 63.4195C24.6121 64.2876 26.5525 64.7471 28.5439 64.7471H40.9011L51.3689 60.4579C51.3689 60.3558 51.5221 59.3856 51.0625 58.6196C50.3476 57.3941 48.7136 57.3431 47.4881 57.5473C45.7009 57.8026 44.2201 58.3132 42.9436 58.7728L42.4329 58.926C41.8202 59.1302 41.1564 58.7728 40.9521 58.1601C40.7479 57.5473 41.0542 56.8835 41.667 56.6282L42.1776 56.475C43.5563 56.0154 45.1392 55.5048 47.1307 55.1984C52.0837 54.4325 53.3092 57.5473 53.6156 58.5175C54.0241 60.1004 53.6667 62.0919 52.288 62.6536L41.6159 67.096C41.4627 67.1471 41.3096 67.1471 41.1564 67.1471ZM25.5312 50.0922C25.0717 50.0922 24.6632 49.7858 24.4589 49.3773C22.1101 44.3221 15.9826 43.6073 11.438 45.4966C11.2848 45.5476 11.1316 45.5476 10.9784 45.5476H1.2255C0.561687 45.5476 0 45.037 0 44.3732C0 43.7094 0.561687 43.1477 1.2255 43.1477H10.7231C17.2591 40.5946 24.0504 42.7903 26.6036 48.3561C26.9099 48.9688 26.6546 49.6837 26.0419 49.939C25.8887 50.0411 25.6844 50.0411 25.5312 50.0922Z" fill="url(#paint0_linear_106_582)"/>
<path d="M36.9201 61.4792C36.7669 61.4792 36.6137 61.4282 36.4605 61.3771L22.7247 55.6581C22.1119 55.4028 21.8056 54.6879 22.0609 54.0752C22.3162 53.4624 23.0311 53.2071 23.6438 53.4624L36.1541 58.6197C36.6648 56.1687 35.3371 54.2284 32.1202 52.9007L25.0736 49.9902C24.4608 49.7349 24.1544 49.02 24.4098 48.4072C24.6651 47.7945 25.3799 47.4881 25.9927 47.7434L33.0393 50.7051C37.9924 52.7476 39.7796 56.373 37.9924 60.7133C37.8903 61.0197 37.6349 61.2239 37.3796 61.3771C37.2264 61.4282 37.0733 61.4792 36.9201 61.4792ZM23.4396 12.0507C19.712 12.0507 18.6397 9.49762 18.4354 8.62956C17.9759 7.04662 18.3333 5.05519 19.712 4.4935L30.4351 0.0510625C30.5373 0 30.6904 0 30.8947 0H43.4561C45.8049 0 48.0517 0.510625 50.2474 1.53187L58.6727 5.61687C60.8173 6.63812 63.1151 7.14875 65.464 7.14875H70.7745C71.4383 7.14875 72 7.71044 72 8.37425C72 9.03806 71.4383 9.54869 70.7745 9.54869H65.464C62.7577 9.59975 60.0514 8.93594 57.6004 7.7615L49.2261 3.6765C47.3879 2.80844 45.4475 2.39994 43.4561 2.39994H31.0989L20.6311 6.68919C20.6311 6.79131 20.4779 7.71044 20.9375 8.52744C21.6524 9.70187 23.2864 9.75294 24.5119 9.59975C26.2991 9.29337 27.7799 8.83381 29.0564 8.37425L29.5671 8.22106C30.1798 7.96575 30.8947 8.32319 31.0989 8.93594C31.3032 9.59975 30.9968 10.2636 30.333 10.4678L29.8224 10.621C28.4437 11.1316 26.8608 11.6422 24.8693 11.9486C24.4098 12.0507 23.9502 12.0507 23.4396 12.0507ZM55.8132 25.0206C51.2686 25.0206 47.2347 22.7739 45.3964 18.791C45.1411 18.1782 45.4475 17.4634 46.0603 17.2081C46.6219 16.9527 47.2858 17.2081 47.5921 17.7697C49.941 22.8249 56.0174 23.5398 60.562 21.6505C60.7152 21.5994 60.8684 21.5484 61.0216 21.5484H70.7745C71.4383 21.5484 72 22.1101 72 22.7739C72 23.4377 71.4383 23.9483 70.7745 23.9483H61.2769C59.4386 24.7142 57.6004 25.0206 55.8132 25.0206Z" fill="url(#paint1_linear_106_582)"/>
<path d="M46.5196 19.4547C46.3153 19.4547 46.1622 19.4037 46.06 19.3526L38.9623 16.4421C34.0093 14.3996 32.2221 10.7231 34.0093 6.4338C34.2646 5.82105 34.9284 5.51468 35.5412 5.76999C35.5412 5.76999 35.5412 5.76999 35.5922 5.76999L49.328 11.489C49.9408 11.7443 50.1961 12.4592 49.9408 13.0719C49.6855 13.6847 49.0217 13.94 48.4089 13.6847L35.8475 8.4763C35.3369 10.9784 36.6645 12.8677 39.8815 14.2464L46.9792 17.1569C47.5919 17.4122 47.8472 18.1271 47.5919 18.7399C47.4387 19.1484 46.9792 19.4547 46.5196 19.4547ZM51.6259 52.8496C50.962 52.8496 50.4514 52.2879 50.4514 51.6241C50.4514 51.3177 50.5535 51.0114 50.8088 50.8071C51.2684 50.3475 52.0854 50.2454 52.545 50.705C53.0556 51.1646 53.1067 51.8794 52.6471 52.339L52.4939 52.4922C52.2386 52.6964 51.9322 52.8496 51.6259 52.8496ZM20.4267 16.8506C19.7629 16.8506 19.2522 16.3399 19.2522 15.6761C19.2522 15.3187 19.3544 15.0123 19.6097 14.8081L19.7629 14.6549C20.2224 14.1442 20.9884 14.1442 21.4479 14.6038C21.9585 15.0634 21.9585 15.8293 21.499 16.3399H21.4479L21.2947 16.4931C21.0905 16.7484 20.7841 16.8506 20.4267 16.8506Z" fill="url(#paint2_linear_106_582)"/>
<defs>
<linearGradient id="paint0_linear_106_582" x1="-0.0540368" y1="-0.280269" x2="65.7368" y2="71.9643" gradientUnits="userSpaceOnUse">
<stop stop-color="#E98135"/>
<stop offset="1" stop-color="#48389C"/>
</linearGradient>
<linearGradient id="paint1_linear_106_582" x1="-0.0540368" y1="-0.280269" x2="65.7368" y2="71.9643" gradientUnits="userSpaceOnUse">
<stop stop-color="#E98135"/>
<stop offset="1" stop-color="#48389C"/>
</linearGradient>
<linearGradient id="paint2_linear_106_582" x1="-0.0540368" y1="-0.280269" x2="65.7368" y2="71.9643" gradientUnits="userSpaceOnUse">
<stop stop-color="#E98135"/>
<stop offset="1" stop-color="#48389C"/>
</linearGradient>
</defs>
</svg>
