<svg width="73" height="72" viewBox="0 0 73 72" fill="none" xmlns="http://www.w3.org/2000/svg">
<path d="M1.28373 58.6526H71.2158C71.515 58.6526 71.8018 58.5337 72.0134 58.3222C72.2249 58.1107 72.3437 57.8238 72.3437 57.5246C72.3437 57.2255 72.2249 56.9386 72.0134 56.7271C71.8018 56.5155 71.515 56.3967 71.2158 56.3967H1.28373C0.984585 56.3967 0.69769 56.5155 0.486161 56.7271C0.274632 56.9386 0.155796 57.2255 0.155796 57.5246C0.155796 57.8238 0.274632 58.1107 0.486161 58.3222C0.69769 58.5337 0.984585 58.6526 1.28373 58.6526ZM36.2498 22.5587C40.6035 22.5587 44.1453 19.0167 44.1453 14.6632C44.1453 10.3096 40.6035 6.76762 36.2498 6.76762C31.8961 6.76762 28.3542 10.3096 28.3542 14.6632C28.3542 19.0167 31.8961 22.5587 36.2498 22.5587ZM36.2498 9.02349C39.3595 9.02349 41.8895 11.5535 41.8895 14.6632C41.8895 17.7729 39.3595 20.3029 36.2498 20.3029C33.14 20.3029 30.6101 17.7729 30.6101 14.6632C30.6101 11.5535 33.14 9.02349 36.2498 9.02349ZM36.2498 4.85788C36.5489 4.85788 36.8358 4.73905 37.0473 4.52752C37.2589 4.31599 37.3777 4.02909 37.3777 3.72995V1.12794C37.3777 0.828789 37.2589 0.541894 37.0473 0.330365C36.8358 0.118836 36.5489 0 36.2498 0C35.9506 0 35.6637 0.118836 35.4522 0.330365C35.2407 0.541894 35.1218 0.828789 35.1218 1.12794V3.72995C35.1218 4.02909 35.2407 4.31599 35.4522 4.52752C35.6637 4.73905 35.9506 4.85788 36.2498 4.85788ZM35.1218 25.5963V28.1984C35.1218 28.4976 35.2407 28.7845 35.4522 28.996C35.6637 29.2075 35.9506 29.3264 36.2498 29.3264C36.5489 29.3264 36.8358 29.2075 37.0473 28.996C37.2589 28.7845 37.3777 28.4976 37.3777 28.1984V25.5963C37.3777 25.2971 37.2589 25.0102 37.0473 24.7987C36.8358 24.5872 36.5489 24.4683 36.2498 24.4683C35.9506 24.4683 35.6637 24.5872 35.4522 24.7987C35.2407 25.0102 35.1218 25.2971 35.1218 25.5963ZM29.8063 5.75868C29.8803 5.88698 29.9789 5.99944 30.0965 6.08963C30.214 6.17982 30.3481 6.24597 30.4912 6.28431C30.6343 6.32265 30.7836 6.33242 30.9304 6.31306C31.0773 6.2937 31.2189 6.2456 31.3472 6.1715C31.4755 6.09745 31.5879 5.99886 31.6781 5.88135C31.7683 5.76384 31.8344 5.62973 31.8728 5.48665C31.9111 5.34358 31.9209 5.19435 31.9016 5.0475C31.8823 4.90064 31.8342 4.75903 31.7602 4.63074L30.4591 2.37727C30.1475 1.83797 29.4579 1.65257 28.9182 1.96444C28.7899 2.03849 28.6775 2.13709 28.5873 2.2546C28.4971 2.3721 28.4309 2.50622 28.3926 2.6493C28.3542 2.79237 28.3445 2.94159 28.3638 3.08845C28.3831 3.23531 28.4312 3.37692 28.5052 3.5052L29.8063 5.75868ZM41.1523 23.1547C41.0241 23.2288 40.9116 23.3274 40.8214 23.4449C40.7313 23.5624 40.6651 23.6965 40.6268 23.8396C40.5884 23.9826 40.5786 24.1319 40.5979 24.2787C40.6173 24.4256 40.6653 24.5672 40.7394 24.6955L42.0405 26.9489C42.1145 27.0772 42.2131 27.1897 42.3306 27.2799C42.4482 27.3701 42.5823 27.4362 42.7254 27.4746C42.8685 27.5129 43.0177 27.5227 43.1646 27.5033C43.3115 27.484 43.4531 27.4359 43.5814 27.3618C43.7096 27.2877 43.8221 27.1891 43.9123 27.0716C44.0024 26.9541 44.0686 26.82 44.1069 26.6769C44.1453 26.5338 44.1551 26.3846 44.1358 26.2378C44.1164 26.0909 44.0684 25.9493 43.9943 25.821L42.6932 23.5675C42.6192 23.4392 42.5206 23.3268 42.4031 23.2366C42.2855 23.1464 42.1514 23.0803 42.0083 23.042C41.8652 23.0036 41.716 22.9938 41.5691 23.0132C41.4222 23.0325 41.2806 23.0806 41.1523 23.1547ZM23.9639 8.87235L26.2173 10.1734C26.3456 10.2475 26.4872 10.2956 26.6341 10.315C26.7809 10.3343 26.9302 10.3246 27.0732 10.2862C27.2163 10.2479 27.3505 10.1817 27.468 10.0915C27.5855 10.0014 27.6841 9.8889 27.7581 9.7606C27.9077 9.50154 27.9482 9.19367 27.8708 8.90472C27.7934 8.61578 27.6043 8.36942 27.3453 8.21984L25.0918 6.91876C24.8327 6.7692 24.5249 6.72866 24.2359 6.80608C23.947 6.8835 23.7006 7.07253 23.551 7.33159C23.4015 7.59065 23.3609 7.89852 23.4384 8.18746C23.5158 8.47641 23.7048 8.72277 23.9639 8.87235ZM45.1541 21.1065L47.4076 22.4076C47.5359 22.4817 47.6775 22.5298 47.8243 22.5491C47.9712 22.5685 48.1204 22.5587 48.2635 22.5204C48.4066 22.482 48.5407 22.4159 48.6582 22.3257C48.7757 22.2355 48.8743 22.1231 48.9484 21.9948C49.0979 21.7357 49.1385 21.4278 49.061 21.1389C48.9836 20.8499 48.7946 20.6036 48.5355 20.454L46.2821 19.1529C46.023 19.0034 45.7151 18.9628 45.4262 19.0402C45.1372 19.1177 44.8909 19.3067 44.7413 19.5658C44.5917 19.8248 44.5512 20.1327 44.6286 20.4216C44.706 20.7106 44.8951 20.9569 45.1541 21.1065ZM22.7145 15.7911H25.3167C25.6158 15.7911 25.9027 15.6723 26.1142 15.4607C26.3258 15.2492 26.4446 14.9623 26.4446 14.6632C26.4446 14.364 26.3258 14.0771 26.1142 13.8656C25.9027 13.6541 25.6158 13.5352 25.3167 13.5352H22.7145C22.4154 13.5352 22.1285 13.6541 21.917 13.8656C21.7054 14.0771 21.5866 14.364 21.5866 14.6632C21.5866 14.9623 21.7054 15.2492 21.917 15.4607C22.1285 15.6723 22.4154 15.7911 22.7145 15.7911ZM46.0549 14.6632C46.0549 14.9623 46.1738 15.2492 46.3853 15.4607C46.5968 15.6723 46.8837 15.7911 47.1829 15.7911H49.785C50.0842 15.7911 50.3711 15.6723 50.5826 15.4607C50.7941 15.2492 50.9129 14.9623 50.9129 14.6632C50.9129 14.364 50.7941 14.0771 50.5826 13.8656C50.3711 13.6541 50.0842 13.5352 49.785 13.5352H47.1829C46.8837 13.5352 46.5968 13.6541 46.3853 13.8656C46.1738 14.0771 46.0549 14.364 46.0549 14.6632ZM26.2175 19.1528L23.964 20.4539C23.7488 20.578 23.5807 20.7698 23.4856 20.9993C23.3906 21.2288 23.374 21.4833 23.4384 21.7233C23.5028 21.9632 23.6447 22.1751 23.8419 22.3262C24.0391 22.4773 24.2807 22.559 24.5291 22.5587C24.7267 22.5587 24.9209 22.5065 25.0919 22.4074L27.3454 21.1064C27.6045 20.9568 27.7935 20.7104 27.8709 20.4215C27.9483 20.1325 27.9078 19.8247 27.7582 19.5656C27.6087 19.3066 27.3623 19.1175 27.0734 19.0401C26.7844 18.9627 26.4765 19.0032 26.2175 19.1528ZM45.7192 10.3247C45.9169 10.3247 46.111 10.2725 46.2821 10.1734L48.5355 8.87235C48.6648 8.79883 48.7783 8.70045 48.8695 8.58289C48.9606 8.46533 49.0276 8.3309 49.0666 8.18734C49.1056 8.04379 49.1157 7.89394 49.0966 7.74643C49.0774 7.59892 49.0292 7.45666 48.9549 7.32783C48.8805 7.19901 48.7814 7.08617 48.6632 6.99582C48.545 6.90546 48.4102 6.83937 48.2663 6.80135C48.1225 6.76332 47.9726 6.75413 47.8252 6.77428C47.6779 6.79443 47.5359 6.84353 47.4076 6.91876L45.1541 8.21984C44.939 8.34401 44.7708 8.53575 44.6758 8.76528C44.5807 8.99481 44.5641 9.2493 44.6285 9.48923C44.693 9.72917 44.8348 9.94112 45.032 10.0922C45.2292 10.2433 45.4708 10.325 45.7192 10.3247ZM29.8063 23.5675L28.5052 25.821C28.3556 26.0801 28.3151 26.388 28.3926 26.677C28.47 26.966 28.6591 27.2123 28.9182 27.3619C29.1773 27.5115 29.4852 27.552 29.7742 27.4746C30.0631 27.3971 30.3095 27.208 30.4591 26.9489L31.7602 24.6955C31.9066 24.4365 31.9449 24.1303 31.8666 23.8433C31.7883 23.5563 31.5999 23.3118 31.3422 23.1631C31.0846 23.0144 30.7787 22.9735 30.491 23.0492C30.2034 23.1249 29.9573 23.3112 29.8063 23.5675ZM41.1523 6.1715C41.2806 6.24558 41.4222 6.29367 41.5691 6.31302C41.716 6.33236 41.8652 6.32259 42.0083 6.28425C42.1514 6.24592 42.2855 6.17977 42.4031 6.08959C42.5206 5.99942 42.6192 5.88697 42.6932 5.75868L43.9943 3.5052C44.1439 3.2461 44.1844 2.9382 44.107 2.64922C44.0295 2.36025 43.8405 2.11388 43.5814 1.9643C43.3223 1.81473 43.0144 1.77421 42.7254 1.85165C42.4364 1.9291 42.19 2.11817 42.0405 2.37727L40.7394 4.63074C40.6653 4.75903 40.6173 4.90064 40.5979 5.0475C40.5786 5.19435 40.5884 5.34358 40.6268 5.48665C40.6651 5.62973 40.7313 5.76384 40.8214 5.88135C40.9116 5.99886 41.0241 6.09745 41.1523 6.1715ZM3.68821 69.7441H1.12794C0.828789 69.7441 0.541894 69.863 0.330365 70.0745C0.118836 70.286 0 70.5729 0 70.8721C0 71.1712 0.118836 71.4581 0.330365 71.6696C0.541894 71.8812 0.828789 72 1.12794 72H3.68821C3.98736 72 4.27425 71.8812 4.48578 71.6696C4.69731 71.4581 4.81615 71.1712 4.81615 70.8721C4.81615 70.5729 4.69731 70.286 4.48578 70.0745C4.27425 69.863 3.98736 69.7441 3.68821 69.7441ZM13.3126 69.7441H10.7523C10.4532 69.7441 10.1663 69.863 9.95477 70.0745C9.74324 70.286 9.6244 70.5729 9.6244 70.8721C9.6244 71.1712 9.74324 71.4581 9.95477 71.6696C10.1663 71.8812 10.4532 72 10.7523 72H13.3126C13.6118 72 13.8987 71.8812 14.1102 71.6696C14.3217 71.4581 14.4405 71.1712 14.4405 70.8721C14.4405 70.5729 14.3217 70.286 14.1102 70.0745C13.8987 69.863 13.6118 69.7441 13.3126 69.7441ZM22.9373 69.7441H20.377C20.0779 69.7441 19.791 69.863 19.5794 70.0745C19.3679 70.286 19.2491 70.5729 19.2491 70.8721C19.2491 71.1712 19.3679 71.4581 19.5794 71.6696C19.791 71.8812 20.0779 72 20.377 72H22.9373C23.2364 72 23.5233 71.8812 23.7349 71.6696C23.9464 71.4581 24.0652 71.1712 24.0652 70.8721C24.0652 70.5729 23.9464 70.286 23.7349 70.0745C23.5233 69.863 23.2364 69.7441 22.9373 69.7441ZM32.5618 69.7441H30.0016C29.7024 69.7441 29.4155 69.863 29.204 70.0745C28.9925 70.286 28.8736 70.5729 28.8736 70.8721C28.8736 71.1712 28.9925 71.4581 29.204 71.6696C29.4155 71.8812 29.7024 72 30.0016 72H32.5618C32.861 72 33.1479 71.8812 33.3594 71.6696C33.5709 71.4581 33.6898 71.1712 33.6898 70.8721C33.6898 70.5729 33.5709 70.286 33.3594 70.0745C33.1479 69.863 32.861 69.7441 32.5618 69.7441ZM42.1862 69.7441H39.626C39.3268 69.7441 39.0399 69.863 38.8284 70.0745C38.6169 70.286 38.498 70.5729 38.498 70.8721C38.498 71.1712 38.6169 71.4581 38.8284 71.6696C39.0399 71.8812 39.3268 72 39.626 72H42.1862C42.4854 72 42.7723 71.8812 42.9838 71.6696C43.1953 71.4581 43.3142 71.1712 43.3142 70.8721C43.3142 70.5729 43.1953 70.286 42.9838 70.0745C42.7723 69.863 42.4854 69.7441 42.1862 69.7441ZM51.8109 69.7441H49.2506C48.9515 69.7441 48.6646 69.863 48.4531 70.0745C48.2415 70.286 48.1227 70.5729 48.1227 70.8721C48.1227 71.1712 48.2415 71.4581 48.4531 71.6696C48.6646 71.8812 48.9515 72 49.2506 72H51.8109C52.1101 72 52.397 71.8812 52.6085 71.6696C52.82 71.4581 52.9389 71.1712 52.9389 70.8721C52.9389 70.5729 52.82 70.286 52.6085 70.0745C52.397 69.863 52.1101 69.7441 51.8109 69.7441ZM61.4355 69.7441H58.8752C58.576 69.7441 58.2891 69.863 58.0776 70.0745C57.8661 70.286 57.7473 70.5729 57.7473 70.8721C57.7473 71.1712 57.8661 71.4581 58.0776 71.6696C58.2891 71.8812 58.576 72 58.8752 72H61.4355C61.7346 72 62.0215 71.8812 62.233 71.6696C62.4446 71.4581 62.5634 71.1712 62.5634 70.8721C62.5634 70.5729 62.4446 70.286 62.233 70.0745C62.0215 69.863 61.7346 69.7441 61.4355 69.7441ZM71.06 69.7441H68.4997C68.2006 69.7441 67.9137 69.863 67.7022 70.0745C67.4906 70.286 67.3718 70.5729 67.3718 70.8721C67.3718 71.1712 67.4906 71.4581 67.7022 71.6696C67.9137 71.8812 68.2006 72 68.4997 72H71.06C71.3592 72 71.646 71.8812 71.8576 71.6696C72.0691 71.4581 72.1879 71.1712 72.1879 70.8721C72.1879 70.5729 72.0691 70.286 71.8576 70.0745C71.646 69.863 71.3592 69.7441 71.06 69.7441ZM71.0703 65.0953C69.679 65.0953 68.3741 64.3501 67.6638 63.1482C66.5488 61.2714 64.5046 60.1053 62.3288 60.1053C60.153 60.1053 58.1088 61.2714 56.9925 63.1505C56.2835 64.3502 54.9787 65.0953 53.5873 65.0953C52.1958 65.0953 50.8911 64.3501 50.1808 63.1482C49.0658 61.2714 47.0216 60.1053 44.8458 60.1053C42.67 60.1053 40.6257 61.2714 39.5095 63.1505C38.8005 64.3502 37.4957 65.0953 36.1043 65.0953C34.7128 65.0953 33.4081 64.3501 32.6978 63.1482C31.5828 61.2714 29.5385 60.1053 27.3628 60.1053C25.187 60.1053 23.1427 61.2714 22.0265 63.1505C21.3174 64.3502 20.0127 65.0953 18.6212 65.0953C17.2298 65.0953 15.9251 64.3501 15.2147 63.1482C14.0998 61.2714 12.0555 60.1053 9.87974 60.1053C7.70395 60.1053 5.6597 61.2714 4.54347 63.1505C3.83442 64.3502 2.52968 65.0953 1.13823 65.0953C0.839082 65.0953 0.552187 65.2142 0.340657 65.4257C0.129128 65.6372 0.0102924 65.9241 0.0102924 66.2233C0.0102924 66.5224 0.129128 66.8093 0.340657 67.0208C0.552187 67.2324 0.839082 67.3512 1.13823 67.3512C3.32361 67.3512 5.3725 66.1814 6.48423 64.3004C7.20554 63.0862 8.47489 62.3612 9.87974 62.3612C11.2846 62.3612 12.5539 63.0862 13.274 64.2982C14.3871 66.1813 16.436 67.3511 18.6212 67.3511C20.8065 67.3511 22.8555 66.1813 23.9672 64.3003C24.6886 63.0861 25.9579 62.3611 27.3628 62.3611C28.7676 62.3611 30.037 63.0861 30.757 64.298C31.8701 66.1811 33.919 67.3509 36.1043 67.3509C38.2895 67.3509 40.3385 66.1811 41.4503 64.3001C42.1716 63.0859 43.4409 62.3609 44.8458 62.3609C46.2506 62.3609 47.52 63.0859 48.24 64.2979C49.3531 66.181 51.402 67.3508 53.5873 67.3508C55.7725 67.3508 57.8216 66.181 58.9333 64.3C59.6546 63.0858 60.9239 62.3608 62.3288 62.3608C63.7336 62.3608 65.003 63.0858 65.723 64.2977C66.8362 66.1808 68.8851 67.3506 71.0703 67.3506C71.3694 67.3506 71.6563 67.2318 71.8679 67.0203C72.0794 66.8088 72.1982 66.5219 72.1982 66.2227C72.1982 65.9236 72.0794 65.6367 71.8679 65.4251C71.6563 65.2136 71.3694 65.0948 71.0703 65.0948V65.0953ZM32.2567 42.73C32.477 42.9503 32.7656 43.0604 33.0543 43.0604C33.3431 43.0604 33.6317 42.9503 33.8519 42.73C33.9567 42.6253 34.0397 42.501 34.0964 42.3641C34.1531 42.2273 34.1823 42.0806 34.1823 41.9325C34.1823 41.7843 34.1531 41.6376 34.0964 41.5008C34.0397 41.3639 33.9567 41.2396 33.8519 41.1349L21.6225 28.9056C21.4106 28.6962 21.1244 28.5792 20.8264 28.5801C20.5285 28.581 20.243 28.6997 20.0323 28.9104C19.8216 29.1211 19.7028 29.4066 19.7019 29.7045C19.7009 30.0025 19.818 30.2887 20.0274 30.5007L32.2567 42.73ZM67.2545 28.5753H61.4816C61.1824 28.5753 60.8955 28.6941 60.684 28.9057C60.4725 29.1172 60.3536 29.4041 60.3536 29.7032C60.3536 30.0024 60.4725 30.2893 60.684 30.5008C60.8955 30.7123 61.1824 30.8312 61.4816 30.8312H64.5314L44.0397 51.3229L40.2389 47.5219C40.0273 47.3104 39.7404 47.1916 39.4413 47.1916C39.1421 47.1916 38.8552 47.3104 38.6437 47.5219C38.4321 47.7335 38.3133 48.0204 38.3133 48.3195C38.3133 48.6187 38.4321 48.9056 38.6437 49.1171L43.2421 53.7156C43.4624 53.9358 43.751 54.0459 44.0397 54.0459C44.3285 54.0459 44.6171 53.9358 44.8373 53.7156L66.1265 32.4262V35.476C66.1265 35.7752 66.2454 36.062 66.4569 36.2736C66.6684 36.4851 66.9553 36.6039 67.2545 36.6039C67.5536 36.6039 67.8405 36.4851 68.0521 36.2736C68.2636 36.062 68.3824 35.7752 68.3824 35.476V29.7031C68.3824 29.4039 68.2636 29.117 68.0521 28.9055C67.8405 28.694 67.5536 28.5753 67.2545 28.5753Z" fill="url(#paint0_linear_757_1470)"/>
<path d="M50.5466 35.4761C50.5466 35.7753 50.6655 36.0622 50.877 36.2737C51.0885 36.4852 51.3754 36.6041 51.6746 36.6041C51.9737 36.6041 52.2606 36.4852 52.4722 36.2737C52.6837 36.0622 52.8025 35.7753 52.8025 35.4761V29.7032C52.8025 29.4041 52.6837 29.1172 52.4722 28.9056C52.2606 28.6941 51.9737 28.5753 51.6746 28.5753H45.9017C45.6025 28.5753 45.3156 28.6941 45.1041 28.9056C44.8926 29.1172 44.7737 29.4041 44.7737 29.7032C44.7737 30.0024 44.8926 30.2893 45.1041 30.5008C45.3156 30.7123 45.6025 30.8312 45.9017 30.8312H48.9515L28.4598 51.3229L6.04264 28.9056C5.83068 28.6962 5.54448 28.5792 5.24652 28.5801C4.94856 28.581 4.66305 28.6997 4.45235 28.9104C4.24165 29.1211 4.12288 29.4066 4.12196 29.7045C4.12104 30.0025 4.23806 30.2887 4.44746 30.5007L27.6622 53.7156C27.8825 53.9358 28.1711 54.0459 28.4598 54.0459C28.7486 54.0459 29.0372 53.9358 29.2574 53.7156L50.5466 32.4262V35.4761Z" fill="url(#paint1_linear_757_1470)"/>
<defs>
<linearGradient id="paint0_linear_757_1470" x1="-0.0933192" y1="-0.372857" x2="86.414" y2="24.7477" gradientUnits="userSpaceOnUse">
<stop stop-color="#E98135"/>
<stop offset="1" stop-color="#48389C"/>
</linearGradient>
<linearGradient id="paint1_linear_757_1470" x1="-0.0933192" y1="-0.372857" x2="86.414" y2="24.7477" gradientUnits="userSpaceOnUse">
<stop stop-color="#E98135"/>
<stop offset="1" stop-color="#48389C"/>
</linearGradient>
</defs>
</svg>
