<svg width="72" height="72" viewBox="0 0 72 72" fill="none" xmlns="http://www.w3.org/2000/svg">
<path d="M34.32 21.9372C36.2107 21.8262 38.0901 21.5706 39.9418 21.1726C41.1692 20.2765 42.1608 19.0959 42.8313 17.7321C43.6072 20.6666 45.6985 22.4881 48.3519 22.4881C53.2204 22.4881 58.4711 20.0257 58.4711 14.6176C58.6151 11.6693 58.991 8.73689 59.5955 5.84762C59.6511 5.57865 59.6063 5.29865 59.4696 5.06044C59.3329 4.82224 59.1137 4.64231 58.8534 4.55461C58.4599 4.43093 54.8282 3.43025 47.8685 6.87078C45.972 7.79661 44.4459 9.33861 43.5397 11.2445C42.4153 6.99446 38.0978 3.37403 33.7353 3.37403C30.9919 3.37403 24.167 0.9904 21.7722 0.0796717C21.6139 0.0167035 21.4434 -0.0094937 21.2736 0.00305767C21.1037 0.015609 20.939 0.066581 20.7917 0.152126C20.6444 0.23767 20.5185 0.355552 20.4235 0.496873C20.3284 0.638194 20.2667 0.79926 20.243 0.967913C20.1756 1.44014 18.6465 12.7287 24.8979 18.5866C27.4807 20.8907 30.8623 22.0932 34.32 21.9372ZM48.8579 8.87214C51.3236 7.5208 54.0658 6.7516 56.8746 6.62342H57.1444C56.6259 9.25954 56.3176 11.9327 56.2224 14.6176C56.2224 18.4854 52.141 20.2394 48.3519 20.2394C48.0825 20.2419 47.8139 20.2079 47.5536 20.1382L52.6357 13.021C52.7791 12.7789 52.8265 12.4919 52.7686 12.2166C52.7107 11.9413 52.5516 11.6977 52.3229 11.5339C52.0942 11.3701 51.8123 11.298 51.533 11.3319C51.2537 11.3657 50.9973 11.5031 50.8143 11.7168L45.7547 18.789C45.3952 18.2666 45.1324 17.6839 44.9789 17.0687C44.6183 15.4655 44.8043 13.7879 45.5072 12.3026C46.2101 10.8173 47.3896 9.60979 48.8579 8.87214ZM22.3568 2.68818C25.0328 3.65512 30.8682 5.62275 33.7353 5.62275C35.7727 5.7735 37.6882 6.65112 39.1328 8.09573C40.5774 9.54034 41.455 11.4558 41.6058 13.4932C41.6094 14.4564 41.4214 15.4107 41.0527 16.3006C40.684 17.1905 40.142 17.9981 39.4583 18.6765L30.0699 8.2425C29.9739 8.123 29.8546 8.02439 29.7191 7.95271C29.5837 7.88103 29.435 7.8378 29.2822 7.82567C29.1294 7.81355 28.9758 7.83278 28.8307 7.8822C28.6856 7.93161 28.5522 8.01016 28.4386 8.11302C28.325 8.21588 28.2336 8.34088 28.1701 8.48035C28.1065 8.61981 28.0722 8.77079 28.0691 8.92401C28.066 9.07724 28.0943 9.22947 28.1522 9.37136C28.2102 9.51326 28.2965 9.64181 28.4059 9.74913L37.1084 19.4748C32.476 20.1045 28.8781 19.2612 26.4045 16.945C22.2331 13.0098 22.1769 5.73518 22.3568 2.68818Z" fill="url(#paint0_linear_106_577)"/>
<path d="M43.8545 33.7317V22.4881C43.8545 22.1899 43.736 21.9039 43.5252 21.6931C43.3143 21.4822 43.0283 21.3638 42.7301 21.3638C42.4319 21.3638 42.1459 21.4822 41.9351 21.6931C41.7242 21.9039 41.6058 22.1899 41.6058 22.4881V33.7317C41.6058 34.0299 41.7242 34.3159 41.9351 34.5267C42.1459 34.7376 42.4319 34.856 42.7301 34.856C43.0283 34.856 43.3143 34.7376 43.5252 34.5267C43.736 34.3159 43.8545 34.0299 43.8545 33.7317ZM70.839 44.9752H69.3324C69.552 44.2443 69.6804 43.489 69.7147 42.7265C69.7147 42.4283 69.5962 42.1423 69.3854 41.9315C69.1745 41.7206 68.8885 41.6022 68.5903 41.6022H66.7014C67.1415 40.528 67.3999 39.3881 67.466 38.2291C67.466 37.9309 67.3475 37.6449 67.1366 37.4341C66.9258 37.2232 66.6398 37.1048 66.3416 37.1048H61.8442C61.6424 37.1048 61.4443 37.1592 61.2708 37.2622L55.649 40.6352C55.4239 40.7989 55.2675 41.0403 55.2101 41.3127C55.1527 41.5851 55.1984 41.869 55.3383 42.1097C55.4782 42.3503 55.7024 42.5305 55.9674 42.6154C56.2325 42.7002 56.5197 42.6838 56.7733 42.5691L62.159 39.3535H65.0486C64.9474 39.8369 64.374 41.6022 64.374 41.6022H64.0929C63.8911 41.6022 63.693 41.6566 63.5195 41.7596L57.8977 45.1327C57.6726 45.2964 57.5162 45.5378 57.4588 45.8101C57.4014 46.0825 57.4471 46.3665 57.587 46.6071C57.7269 46.8477 57.9511 47.0279 58.2162 47.1128C58.4813 47.1977 58.7684 47.1812 59.022 47.0665L64.4077 43.8509H67.2973L66.9712 44.9752H66.3416C66.1398 44.9753 65.9417 45.0297 65.7682 45.1327L47.0252 56.1513L26.9891 52.1374C26.6703 52.0666 26.388 51.8827 26.1945 51.6196C26.001 51.3565 25.9095 51.0322 25.937 50.7067C25.9645 50.3813 26.109 50.0769 26.3438 49.85C26.5787 49.6231 26.8879 49.489 27.214 49.4727H43.8545C45.0473 49.4727 46.1912 48.9988 47.0346 48.1554C47.8781 47.312 48.3519 46.168 48.3519 44.9752C48.3519 43.7825 47.8781 42.6385 47.0346 41.7951C46.1912 40.9517 45.0473 40.4778 43.8545 40.4778H18.5452C16.4658 40.4627 14.4649 41.2712 12.9797 42.7265L0.330664 55.4205C0.118943 55.6322 -7.72784e-09 55.9194 0 56.2188C7.72785e-09 56.5182 0.118943 56.8054 0.330664 57.0171C0.542384 57.2288 0.829538 57.3478 1.12896 57.3478C1.42837 57.3478 1.71553 57.2288 1.92725 57.0171L14.6212 44.3681C15.6638 43.3281 17.0727 42.7387 18.5452 42.7265H43.8545C44.4509 42.7265 45.0229 42.9634 45.4446 43.3852C45.8663 43.8069 46.1032 44.3788 46.1032 44.9752C46.1032 45.5716 45.8663 46.1436 45.4446 46.5653C45.0229 46.987 44.4509 47.224 43.8545 47.224H27.214C26.3283 47.2336 25.4772 47.5696 24.8238 48.1677C24.1704 48.7658 23.7606 49.5839 23.6729 50.4654C23.5851 51.3468 23.8256 52.2296 24.3483 52.9448C24.871 53.6599 25.6392 54.1571 26.5057 54.3411L47.0027 58.4675C47.2763 58.5232 47.5609 58.4751 47.801 58.3326L66.6452 47.224H69.5573C69.1862 48.9442 67.8932 52.3285 63.4857 55.2743L46.5642 66.2705C44.9738 67.2987 43.1694 67.9498 41.2889 68.1739C39.4084 68.398 37.5016 68.1892 35.7141 67.5636L22.8628 63.0661C22.6695 63.0036 22.4629 62.9947 22.2649 63.0402C22.0669 63.0858 21.885 63.1841 21.7384 63.3247L14.9923 70.0709C14.8869 70.1754 14.8032 70.2997 14.7462 70.4368C14.6891 70.5738 14.6597 70.7207 14.6597 70.8692C14.6597 71.0176 14.6891 71.1646 14.7462 71.3016C14.8032 71.4386 14.8869 71.5629 14.9923 71.6675C15.0968 71.7728 15.2211 71.8565 15.3582 71.9136C15.4952 71.9706 15.6421 72 15.7906 72C15.939 72 16.0859 71.9706 16.223 71.9136C16.36 71.8565 16.4843 71.7728 16.5889 71.6675L22.829 65.416L34.9608 69.7111C37.0766 70.4438 39.3315 70.6849 41.5544 70.416C43.7772 70.1472 45.9096 69.3755 47.7897 68.1595L64.6551 57.152C71.8847 52.3735 71.9634 46.3582 71.9634 46.0996C71.9634 45.8014 71.8449 45.5154 71.6341 45.3046C71.4232 45.0937 71.1372 44.9752 70.839 44.9752Z" fill="url(#paint1_linear_106_577)"/>
<path d="M34.8596 33.7317C33.3645 33.7276 31.8896 34.0768 30.5551 34.7509C29.2206 35.425 28.0642 36.4049 27.1803 37.6107C27.0165 37.8572 26.9565 38.1584 27.0133 38.4489C27.0701 38.7394 27.2392 38.9957 27.4839 39.1623C27.6064 39.2452 27.744 39.3031 27.8889 39.3327C28.0338 39.3623 28.1831 39.363 28.3283 39.3348C28.4735 39.3066 28.6116 39.25 28.7349 39.1683C28.8582 39.0866 28.9642 38.9814 29.0467 38.8587C29.73 37.9658 30.6098 37.2423 31.6179 36.7443C32.626 36.2463 33.7353 35.9873 34.8596 35.9873C35.984 35.9873 37.0933 36.2463 38.1014 36.7443C39.1095 37.2423 39.9893 37.9658 40.6726 38.8587C40.7757 39.0113 40.9147 39.1362 41.0775 39.2225C41.2402 39.3088 41.4216 39.3537 41.6058 39.3535C41.8268 39.356 42.0431 39.2891 42.2242 39.1623C42.4706 38.9975 42.642 38.7419 42.701 38.4513C42.7599 38.1607 42.7017 37.8586 42.539 37.6107C41.655 36.4049 40.4987 35.425 39.1642 34.7509C37.8297 34.0768 36.3547 33.7276 34.8596 33.7317ZM44.9789 38.2291C48.7117 38.2291 50.7018 42.0744 50.7243 42.1081C50.8177 42.2935 50.9607 42.4495 51.1373 42.5586C51.3139 42.6678 51.5174 42.7259 51.725 42.7265C51.9014 42.7286 52.0754 42.6861 52.2309 42.6028C52.4958 42.4681 52.6964 42.2339 52.7892 41.9516C52.8819 41.6693 52.859 41.3617 52.7257 41.0962C52.6245 40.8938 50.1172 35.9804 44.9789 35.9804C44.6807 35.9804 44.3947 36.0988 44.1838 36.3097C43.9729 36.5206 43.8545 36.8065 43.8545 37.1047C43.8545 37.4029 43.9729 37.6889 44.1838 37.8998C44.3947 38.1106 44.6807 38.2291 44.9789 38.2291ZM51.1628 45.5374C51.7592 45.5374 52.3312 45.7743 52.7529 46.196C53.1746 46.6178 53.4115 47.1897 53.4115 47.7861C53.4115 48.0843 53.53 48.3703 53.7408 48.5812C53.9517 48.792 54.2377 48.9105 54.5359 48.9105C54.8341 48.9105 55.1201 48.792 55.3309 48.5812C55.5418 48.3703 55.6602 48.0843 55.6602 47.7861C55.6602 46.5933 55.1864 45.4494 54.343 44.606C53.4995 43.7625 52.3556 43.2887 51.1628 43.2887C50.8646 43.2887 50.5786 43.4072 50.3678 43.618C50.1569 43.8289 50.0385 44.1149 50.0385 44.4131C50.0385 44.7113 50.1569 44.9972 50.3678 45.2081C50.5786 45.419 50.8646 45.5374 51.1628 45.5374Z" fill="url(#paint2_linear_106_577)"/>
<defs>
<linearGradient id="paint0_linear_106_577" x1="-0.0540093" y1="-0.300525" x2="70.7817" y2="72.204" gradientUnits="userSpaceOnUse">
<stop stop-color="#E98135"/>
<stop offset="1" stop-color="#48389C"/>
</linearGradient>
<linearGradient id="paint1_linear_106_577" x1="-0.0540093" y1="-0.300525" x2="70.7817" y2="72.204" gradientUnits="userSpaceOnUse">
<stop stop-color="#E98135"/>
<stop offset="1" stop-color="#48389C"/>
</linearGradient>
<linearGradient id="paint2_linear_106_577" x1="-0.0540093" y1="-0.300525" x2="70.7817" y2="72.204" gradientUnits="userSpaceOnUse">
<stop stop-color="#E98135"/>
<stop offset="1" stop-color="#48389C"/>
</linearGradient>
</defs>
</svg>
