<svg width="72" height="72" viewBox="0 0 72 72" fill="none" xmlns="http://www.w3.org/2000/svg">
<path d="M59.3282 53.065C59.5917 53.3285 59.7398 53.6859 59.7398 54.0586V55.0622H60.7436C61.1163 55.0622 61.4737 55.2103 61.7372 55.4738C62.0007 55.7373 62.1488 56.0947 62.1488 56.4674C62.1488 56.8401 62.0007 57.1975 61.7372 57.461C61.4737 57.7245 61.1163 57.8726 60.7436 57.8726H59.7398V58.8762C59.7398 59.2489 59.5917 59.6063 59.3282 59.8698C59.0647 60.1333 58.7073 60.2814 58.3346 60.2814C57.9619 60.2814 57.6045 60.1333 57.341 59.8698C57.0775 59.6063 56.9294 59.2489 56.9294 58.8762V57.8726H55.926C55.5533 57.8726 55.1959 57.7245 54.9324 57.461C54.6688 57.1975 54.5208 56.8401 54.5208 56.4674C54.5208 56.0947 54.6688 55.7373 54.9324 55.4738C55.1959 55.2103 55.5533 55.0622 55.926 55.0622H56.9294V54.0586C56.9294 53.6859 57.0775 53.3285 57.341 53.065C57.6045 52.8015 57.9619 52.6534 58.3346 52.6534C58.7073 52.6534 59.0647 52.8015 59.3282 53.065Z" fill="url(#paint0_linear_757_1467)"/>
<path d="M18.4581 12.5997C18.7216 12.8632 18.8696 13.2206 18.8696 13.5933V14.5969H19.8735C20.2462 14.5969 20.6036 14.745 20.8671 15.0085C21.1306 15.272 21.2786 15.6294 21.2786 16.0021C21.2786 16.3748 21.1306 16.7322 20.8671 16.9957C20.6036 17.2592 20.2462 17.4073 19.8735 17.4073H18.8696V18.4109C18.8696 18.7836 18.7216 19.141 18.4581 19.4045C18.1946 19.668 17.8372 19.8161 17.4645 19.8161C17.0918 19.8161 16.7344 19.668 16.4709 19.4045C16.2073 19.141 16.0593 18.7836 16.0593 18.4109V17.4073H15.0558C14.6832 17.4073 14.3258 17.2592 14.0622 16.9957C13.7987 16.7322 13.6507 16.3748 13.6507 16.0021C13.6507 15.6294 13.7987 15.272 14.0622 15.0085C14.3258 14.745 14.6832 14.5969 15.0558 14.5969H16.0593V13.5933C16.0593 13.2206 16.2073 12.8632 16.4709 12.5997C16.7344 12.3361 17.0918 12.1881 17.4645 12.1881C17.8372 12.1881 18.1946 12.3361 18.4581 12.5997Z" fill="url(#paint1_linear_757_1467)"/>
<path d="M50.3621 0.174712C45.7529 -0.377969 41.0814 0.386843 36.8891 2.38051C32.6968 4.37418 29.1553 7.51507 26.6751 11.4392C24.1949 15.3633 22.8775 19.9099 22.8755 24.5521L22.8755 24.5816L22.8791 24.6109C22.9207 24.9551 23.087 25.2721 23.3465 25.5021C23.606 25.7321 23.9407 25.8591 24.2875 25.8591C24.6342 25.8591 24.9689 25.7321 25.2284 25.5021C25.4879 25.2721 25.6542 24.9551 25.6958 24.6109L25.6994 24.5816L25.6994 24.5521C25.6979 20.4364 26.8633 16.4046 29.0605 12.9245C31.2576 9.44435 34.3965 6.6585 38.1129 4.89012C41.8294 3.12175 45.971 2.44334 50.0574 2.93359C54.1438 3.42384 58.0074 5.06266 61.2001 7.65992C64.3928 10.2572 66.7836 13.7064 68.0953 17.6075C69.4069 21.5086 69.5856 25.7017 68.6106 29.7002C67.6356 33.6987 65.5468 37.3389 62.5867 40.1984C59.6275 43.057 55.9186 45.0182 51.8901 45.8548C51.7093 45.8897 51.5371 45.9602 51.3837 46.0621C51.229 46.1649 51.0964 46.2977 50.9938 46.4526C50.8912 46.6074 50.8207 46.7813 50.7863 46.9639C50.7521 47.1457 50.7545 47.3326 50.7934 47.5135C50.8595 47.8302 51.0319 48.1148 51.2819 48.3201C51.5326 48.5258 51.8462 48.6395 52.1705 48.6422L52.2071 48.6425L52.4478 48.6081L52.4631 48.6049C57.0071 47.6551 61.1889 45.4371 64.5239 42.2078C67.8589 38.9786 70.2105 34.8704 71.3061 30.3593C72.4017 25.8483 72.1966 21.1191 70.7144 16.7198C69.2322 12.3206 66.5337 8.43151 62.9315 5.50322C59.3294 2.57494 54.9712 0.727392 50.3621 0.174712Z" fill="url(#paint2_linear_757_1467)"/>
<path d="M20.763 71.1245H39.0695V71.1799L39.5584 71.1785C40.4809 71.1758 41.3825 70.9032 42.1519 70.3941C42.9213 69.8851 43.5249 69.1619 43.8881 68.3139C44.2513 67.4658 44.3583 66.53 44.1959 65.6218C44.0678 64.9057 43.7766 64.2315 43.348 63.6501C43.8682 63.2695 44.3072 62.7858 44.6364 62.2269C45.0645 61.5002 45.2915 60.6726 45.294 59.8291V59.8279C45.2945 58.8297 44.9744 57.8632 44.3891 57.067C44.8094 56.7627 45.1776 56.3901 45.4778 55.9637C45.891 55.3769 46.1646 54.7035 46.2778 53.995C46.3911 53.2864 46.341 52.5613 46.1314 51.875C45.9799 51.3791 45.748 50.9129 45.4462 50.4946C46.1474 50.011 46.7076 49.344 47.0624 48.5614C47.4995 47.5972 47.5991 46.514 47.3452 45.4862C47.0913 44.4585 46.4987 43.5462 45.6629 42.8965C44.8276 42.2472 43.7981 41.8979 42.7401 41.9049H29.0578L30.1069 34.9485L30.1078 34.9421C30.4201 32.6655 29.8365 30.3566 28.4799 28.5018L28.4628 28.4784L28.4429 28.4572C27.7395 27.7029 26.8776 27.1139 25.9193 26.7325C24.9645 26.3526 23.9376 26.1883 22.912 26.2512C22.6082 26.2578 22.3146 26.3628 22.0754 26.5505C21.8334 26.7404 21.6604 27.0044 21.5829 27.302L17.9399 40.7944L17.9377 40.8032C17.9377 40.8032 17.9373 40.8042 17.9363 40.8076C17.9109 40.8906 17.5313 42.1309 16.7386 43.4208C15.9057 44.7761 14.6946 46.0617 13.0697 46.2815C12.7 46.3308 12.365 46.5249 12.1384 46.8212C11.9118 47.1176 11.8122 47.4917 11.8615 47.8615C11.9108 48.2312 12.1049 48.5663 12.4013 48.7929C12.6976 49.0195 13.0718 49.1191 13.4415 49.0698L13.4432 49.0695C16.0662 48.7105 17.8379 46.848 18.9425 45.1251C20.0522 43.3942 20.5471 41.7165 20.5933 41.5547L23.9845 29.1421C24.3625 29.1878 24.7324 29.2894 25.0819 29.444C25.5356 29.6448 25.9462 29.9311 26.2913 30.2873C27.1465 31.5221 27.5091 33.0325 27.3071 34.5216L25.9584 43.0858L25.9578 43.0899C25.9279 43.291 25.942 43.4961 25.9991 43.6912C26.0562 43.8864 26.1549 44.0668 26.2885 44.22C26.4221 44.3732 26.5874 44.4957 26.7729 44.5788C26.9575 44.6616 27.1578 44.7035 27.3602 44.7017H42.7735L42.7918 44.7004C43.0545 44.6806 43.3185 44.7153 43.5673 44.8023C43.816 44.8893 44.0441 45.0267 44.2373 45.2059C44.4304 45.3852 44.5845 45.6023 44.6899 45.8438C44.7953 46.0854 44.8497 46.346 44.8497 46.6095C44.8497 46.873 44.7953 47.1337 44.6899 47.3752C44.5845 47.6167 44.4304 47.8339 44.2373 48.0131C44.0441 48.1923 43.816 48.3297 43.5673 48.4167C43.3185 48.5037 43.0545 48.5384 42.7918 48.5187L42.7735 48.5173H37.1684C36.7957 48.5173 36.4383 48.6654 36.1748 48.9289C35.9113 49.1924 35.7632 49.5498 35.7632 49.9225C35.7632 50.2952 35.9113 50.6526 36.1748 50.9161C36.4383 51.1796 36.7957 51.3277 37.1684 51.3277H41.6024C42.0775 51.3677 42.5208 51.5835 42.8453 51.9334C43.1738 52.2874 43.3563 52.7525 43.3563 53.2355C43.3563 53.7184 43.1738 54.1835 42.8453 54.5376C42.5208 54.8874 42.0775 55.1033 41.6024 55.1433H41.1931C40.9798 55.129 40.7657 55.129 40.5523 55.1433H35.9539C35.5812 55.1433 35.2238 55.2913 34.9603 55.5548C34.6967 55.8184 34.5487 56.1758 34.5487 56.5484C34.5487 56.9211 34.6967 57.2785 34.9603 57.542C35.2238 57.8056 35.5812 57.9536 35.9539 57.9536H40.9732C41.4128 58.0598 41.8013 58.3185 42.0689 58.6844C42.3461 59.0634 42.4744 59.5312 42.4292 59.9987C42.3841 60.4661 42.1687 60.9007 41.824 61.2197C41.4804 61.5377 41.0322 61.7188 40.5643 61.7287H34.7258C34.3532 61.7287 33.9958 61.8768 33.7322 62.1403C33.4687 62.4038 33.3207 62.7612 33.3207 63.1339C33.3207 63.5066 33.4687 63.864 33.7322 64.1275C33.9958 64.391 34.3532 64.5391 34.7258 64.5391H39.5376C40.0127 64.579 40.4561 64.7949 40.7806 65.1448C41.1091 65.4988 41.2916 65.9639 41.2916 66.4469C41.2916 66.9298 41.1091 67.3949 40.7806 67.749C40.4561 68.0988 40.0127 68.3147 39.5376 68.3547H20.9446L13.3812 65.8735C13.2073 65.8057 13.0217 65.7732 12.835 65.7779C12.6423 65.7828 12.4525 65.8273 12.2777 65.9087C12.1029 65.99 11.9467 66.1065 11.8188 66.2508C11.6909 66.3952 11.5941 66.5643 11.5344 66.7476C11.4747 66.931 11.4534 67.1247 11.4718 67.3166C11.4902 67.5086 11.5479 67.6947 11.6413 67.8634C11.7347 68.0321 11.8618 68.1797 12.0148 68.2972C12.1625 68.4106 12.3312 68.4935 12.5111 68.5411L20.3234 71.1136L20.3661 71.1197C20.4977 71.1384 20.6311 71.14 20.763 71.1245Z" fill="url(#paint3_linear_757_1467)"/>
<path d="M49.1866 7.66707V12.689H46.4785V7.66707H49.1866ZM48.8438 35.6559V40.2664H46.1358V35.6559H48.8438ZM50.3521 29.9827C50.3521 29.3428 50.2435 28.8058 50.0264 28.3716C49.8208 27.9374 49.478 27.5546 48.9981 27.2233C48.5181 26.8919 47.884 26.5662 47.0956 26.2463C45.5873 25.6521 44.2618 25.0351 43.1192 24.3952C41.9766 23.7439 41.0853 22.9327 40.4454 21.9614C39.8056 20.9902 39.4856 19.7447 39.4856 18.225C39.4856 16.8081 39.8284 15.5798 40.514 14.54C41.1996 13.4888 42.148 12.6775 43.3592 12.1062C44.5818 11.5349 45.9929 11.2492 47.5926 11.2492C48.8152 11.2492 49.9293 11.4321 50.9348 11.7977C51.9403 12.1633 52.803 12.689 53.5229 13.3745C54.2542 14.0601 54.8141 14.9057 55.2026 15.9112C55.5911 16.9053 55.7853 18.0422 55.7853 19.3219H50.4206C50.4206 18.6478 50.3521 18.065 50.215 17.5737C50.0778 17.071 49.8779 16.6596 49.6151 16.3397C49.3523 16.0083 49.0438 15.7626 48.6895 15.6027C48.3468 15.4427 47.9583 15.3627 47.5241 15.3627C46.8956 15.3627 46.3814 15.4941 45.9815 15.7569C45.5816 16.0083 45.2902 16.3511 45.1074 16.7853C44.9246 17.2195 44.8332 17.7051 44.8332 18.2422C44.8332 18.7906 44.9303 19.2705 45.1245 19.6819C45.3302 20.0932 45.673 20.4703 46.1529 20.8131C46.6328 21.1559 47.2898 21.5044 48.1239 21.8586C49.6094 22.4642 50.9234 23.1041 52.066 23.7782C53.2087 24.4409 54.0999 25.2579 54.7398 26.2292C55.3911 27.189 55.7167 28.4287 55.7167 29.9484C55.7167 31.4339 55.3682 32.6965 54.6712 33.7363C53.9857 34.7761 53.0201 35.5702 51.7747 36.1187C50.5406 36.6557 49.1123 36.9242 47.4898 36.9242C46.4043 36.9242 45.3302 36.7871 44.2675 36.5129C43.2163 36.2272 42.2565 35.7644 41.3881 35.1246C40.5197 34.4847 39.8284 33.6334 39.3142 32.5708C38.8 31.5081 38.543 30.2055 38.543 28.663H43.9076C43.9076 29.4628 44.0047 30.1313 44.199 30.6683C44.4047 31.1939 44.6732 31.6167 45.0045 31.9366C45.3473 32.2451 45.7301 32.4679 46.1529 32.6051C46.5871 32.7422 47.0327 32.8107 47.4898 32.8107C48.1411 32.8107 48.6781 32.685 49.1009 32.4337C49.5237 32.1823 49.8379 31.8452 50.0436 31.4224C50.2492 30.9882 50.3521 30.5083 50.3521 29.9827Z" fill="url(#paint4_linear_757_1467)"/>
<path fill-rule="evenodd" clip-rule="evenodd" d="M2.92514 44.3647C1.30963 44.3647 0 45.6743 0 47.2898V68.7409C0 70.3564 1.30963 71.666 2.92514 71.666H10.7255C12.341 71.666 13.6507 70.3564 13.6507 68.7409V47.2898C13.6507 45.6743 12.341 44.3647 10.7255 44.3647H2.92514ZM3.90019 47.2898C3.36169 47.2898 2.92514 47.7264 2.92514 48.2649V67.7658C2.92514 68.3043 3.36169 68.7409 3.90019 68.7409H9.75048C10.289 68.7409 10.7255 68.3043 10.7255 67.7658V48.2649C10.7255 47.7264 10.289 47.2898 9.75048 47.2898H3.90019Z" fill="url(#paint5_linear_757_1467)"/>
<defs>
<linearGradient id="paint0_linear_757_1467" x1="0.0497913" y1="1.5412e-06" x2="70.9806" y2="73.1388" gradientUnits="userSpaceOnUse">
<stop stop-color="#E98135"/>
<stop offset="1" stop-color="#48389C"/>
</linearGradient>
<linearGradient id="paint1_linear_757_1467" x1="0.0497913" y1="1.5412e-06" x2="70.9806" y2="73.1388" gradientUnits="userSpaceOnUse">
<stop stop-color="#E98135"/>
<stop offset="1" stop-color="#48389C"/>
</linearGradient>
<linearGradient id="paint2_linear_757_1467" x1="0.0497913" y1="1.5412e-06" x2="70.9806" y2="73.1388" gradientUnits="userSpaceOnUse">
<stop stop-color="#E98135"/>
<stop offset="1" stop-color="#48389C"/>
</linearGradient>
<linearGradient id="paint3_linear_757_1467" x1="0.0497913" y1="1.5412e-06" x2="70.9806" y2="73.1388" gradientUnits="userSpaceOnUse">
<stop stop-color="#E98135"/>
<stop offset="1" stop-color="#48389C"/>
</linearGradient>
<linearGradient id="paint4_linear_757_1467" x1="0.0497913" y1="1.5412e-06" x2="70.9806" y2="73.1388" gradientUnits="userSpaceOnUse">
<stop stop-color="#E98135"/>
<stop offset="1" stop-color="#48389C"/>
</linearGradient>
<linearGradient id="paint5_linear_757_1467" x1="0.0497913" y1="1.5412e-06" x2="70.9806" y2="73.1388" gradientUnits="userSpaceOnUse">
<stop stop-color="#E98135"/>
<stop offset="1" stop-color="#48389C"/>
</linearGradient>
</defs>
</svg>
