<svg width="72" height="72" viewBox="0 0 72 72" fill="none" xmlns="http://www.w3.org/2000/svg">
<path d="M70.8387 0H22.0639C21.858 0.000148834 21.6557 0.0550783 21.478 0.159155C21.3002 0.263232 21.1534 0.412712 21.0524 0.592265L15.5061 10.4517H11.6122C10.4887 10.4491 9.40244 10.8548 8.55569 11.5933C7.70895 12.3318 7.15937 13.3527 7.00925 14.4662C6.85914 15.5797 7.1187 16.7098 7.73964 17.6461C8.36057 18.5825 9.30058 19.2614 10.3847 19.5564L0.148969 37.754C0.049672 37.9306 -0.00167107 38.1302 4.148e-05 38.3328C0.00175403 38.5355 0.0564627 38.7341 0.158731 38.9091C0.261 39.084 0.407268 39.2292 0.583002 39.3301C0.758736 39.431 0.957818 39.4842 1.16047 39.4843H5.80568V72H8.12829V39.4843H48.7739V72H51.0965V39.4843H69.6774V72H72V1.1613C72 0.853307 71.8777 0.557925 71.6599 0.340138C71.4421 0.122352 71.1467 0 70.8387 0ZM68.854 2.32261L56.01 25.1562C55.5821 24.5603 55.0188 24.0747 54.3664 23.7391C53.7141 23.4036 52.9914 23.2277 52.2578 23.2261H37.6939L49.4521 2.32261H68.854ZM54.5804 27.8713C54.5804 28.3307 54.4442 28.7797 54.189 29.1617C53.9338 29.5436 53.5711 29.8413 53.1467 30.0171C52.7223 30.1929 52.2553 30.2389 51.8047 30.1493C51.3542 30.0597 50.9403 29.8384 50.6155 29.5136C50.2907 29.1888 50.0695 28.775 49.9799 28.3244C49.8902 27.8739 49.9362 27.4069 50.112 26.9825C50.2878 26.5581 50.5855 26.1953 50.9675 25.9401C51.3494 25.6849 51.7985 25.5487 52.2578 25.5487C52.8738 25.5487 53.4646 25.7934 53.9002 26.229C54.3357 26.6645 54.5804 27.2553 54.5804 27.8713ZM48.2583 30.1939H32.5157C31.8997 30.1939 31.3089 29.9492 30.8733 29.5136C30.4378 29.0781 30.1931 28.4873 30.1931 27.8713C30.1931 27.2553 30.4378 26.6645 30.8733 26.229C31.3089 25.7934 31.8997 25.5487 32.5157 25.5487H48.2583C47.8358 26.2498 47.6126 27.0528 47.6126 27.8713C47.6126 28.6898 47.8358 29.4928 48.2583 30.1939ZM22.7433 2.32261H40.9827L35.2308 12.5479C34.8087 11.9049 34.2336 11.3767 33.557 11.0109C32.8804 10.645 32.1235 10.4529 31.3544 10.4517H18.1701L22.7433 2.32261ZM33.677 15.097C33.677 15.5563 33.5408 16.0054 33.2855 16.3873C33.0303 16.7693 32.6676 17.067 32.2432 17.2428C31.8188 17.4186 31.3518 17.4645 30.9012 17.3749C30.4507 17.2853 30.0369 17.0641 29.712 16.7393C29.3872 16.4145 29.166 16.0006 29.0764 15.5501C28.9868 15.0995 29.0328 14.6325 29.2086 14.2081C29.3843 13.7837 29.682 13.421 30.064 13.1658C30.4459 12.9106 30.895 12.7743 31.3544 12.7743C31.9704 12.7743 32.5611 13.019 32.9967 13.4546C33.4323 13.8902 33.677 14.481 33.677 15.097ZM9.28959 15.097C9.28959 14.481 9.5343 13.8902 9.96987 13.4546C10.4054 13.019 10.9962 12.7743 11.6122 12.7743H27.3548C26.9324 13.4754 26.7091 14.2784 26.7091 15.097C26.7091 15.9155 26.9324 16.7185 27.3548 17.4196H11.6122C10.9962 17.4196 10.4054 17.1749 9.96987 16.7393C9.5343 16.3037 9.28959 15.7129 9.28959 15.097ZM49.257 37.1617H3.14629L12.9442 19.7422H31.3544C32.4015 19.7399 33.4171 19.3838 34.2365 18.7318C35.0559 18.0798 35.6309 17.1701 35.8684 16.1503L43.6468 2.32261H46.7893L35.0311 23.2261H32.5157C31.2837 23.2261 30.1022 23.7155 29.231 24.5866C28.3599 25.4578 27.8705 26.6393 27.8705 27.8713C27.8705 29.1033 28.3599 30.2848 29.231 31.156C30.1022 32.0271 31.2837 32.5165 32.5157 32.5165H51.87L49.257 37.1617ZM69.6774 37.1617H57.7996L69.6774 16.0457V37.1617ZM69.6774 11.3099L55.1355 37.1617H51.9199L55.0903 31.5259C55.5777 31.1487 55.9845 30.6776 56.2867 30.1404C56.5889 29.6032 56.7803 29.0109 56.8496 28.3985L69.6774 5.594V11.3099Z" fill="url(#paint0_linear_757_1479)"/>
<path d="M43.1172 19.1731L47.6893 11.044L49.7123 12.1821L45.1402 20.3112L43.1172 19.1731ZM55.8916 12.9787L58.94 7.56009L60.9641 8.69817L57.9145 14.118L55.8916 12.9787ZM26.9298 7.56009L29.1816 3.56056L31.2046 4.69864L28.954 8.69817L26.9298 7.56009Z" fill="url(#paint1_linear_757_1479)"/>
<defs>
<linearGradient id="paint0_linear_757_1479" x1="-0.459963" y1="-0.189843" x2="70.7725" y2="72.5023" gradientUnits="userSpaceOnUse">
<stop stop-color="#E98135"/>
<stop offset="1" stop-color="#48389C"/>
</linearGradient>
<linearGradient id="paint1_linear_757_1479" x1="-0.459963" y1="-0.189843" x2="70.7725" y2="72.5023" gradientUnits="userSpaceOnUse">
<stop stop-color="#E98135"/>
<stop offset="1" stop-color="#48389C"/>
</linearGradient>
</defs>
</svg>
