<svg width="72" height="72" viewBox="0 0 72 72" fill="none" xmlns="http://www.w3.org/2000/svg">
<path fill-rule="evenodd" clip-rule="evenodd" d="M24.943 22.4073L20.6766 18.7125H17.0102C15.2284 18.7125 13.7841 17.2681 13.7841 15.4864V7.86117C13.7841 6.07947 15.2284 4.63511 17.0102 4.63511H20.5073L24.943 0.793641C27.0323 -1.01578 30.281 0.468383 30.281 3.23232V19.9686C30.281 22.7326 27.0323 24.2167 24.943 22.4073ZM21.5513 16.3663L26.479 20.6337C27.0488 21.1272 27.9348 20.7225 27.9348 19.9686V3.23232C27.9348 2.47852 27.0488 2.07376 26.479 2.56722L21.382 6.98134H17.0102C16.5243 6.98134 16.1303 7.37525 16.1303 7.86117V15.4864C16.1303 15.9723 16.5243 16.3663 17.0102 16.3663H21.5513Z" fill="url(#paint0_linear_757_1473)"/>
<path d="M35.777 7.28629C35.3187 6.82816 34.5761 6.82816 34.1178 7.28629C33.6597 7.74442 33.6597 8.48719 34.1178 8.94532L36.1917 11.0192L34.118 13.0929C33.6599 13.551 33.6599 14.2938 34.118 14.7519C34.5761 15.2101 35.3189 15.2101 35.777 14.7519L37.8507 12.6782L39.9246 14.7519C40.3827 15.2101 41.1255 15.2101 41.5836 14.7519C42.0417 14.2938 42.0417 13.551 41.5836 13.0929L39.5098 11.0191L41.5836 8.94532C42.0418 8.48719 42.0418 7.74442 41.5836 7.28629C41.1255 6.82816 40.3827 6.82816 39.9246 7.28629L37.8507 9.36009L35.777 7.28629Z" fill="url(#paint1_linear_757_1473)"/>
<path fill-rule="evenodd" clip-rule="evenodd" d="M1.17311 21.2054C0.698685 21.2054 0.270939 21.4912 0.0893583 21.9295C0.00973777 22.1217 -0.0156091 22.3266 0.00916496 22.5244C0.00429607 22.5634 0.00128882 22.6031 0.000429607 22.6432L0 22.6717V30.4436C0 30.7548 0.123584 31.0531 0.343543 31.2731L24.8323 55.7619C25.0524 55.9819 25.3507 56.1055 25.6619 56.1055H70.8268C71.4746 56.1055 71.9999 55.5803 71.9999 54.9324V47.3805C71.9999 47.2922 71.9902 47.206 71.9717 47.1233C72.0585 46.7359 71.9436 46.3249 71.6564 46.0377L47.1676 21.5489C46.9476 21.3289 46.6492 21.2054 46.338 21.2054H38.5661C37.9183 21.2054 37.393 21.7306 37.393 22.3785C37.393 23.0264 37.9183 23.5516 38.5661 23.5516H45.8521L67.9947 45.6941H26.1478L4.00523 23.5516H11.5112C12.1592 23.5516 12.6843 23.0264 12.6843 22.3785C12.6843 21.7306 12.1592 21.2054 11.5112 21.2054H1.17311ZM2.34623 29.9577V25.2105L24.4154 47.2797V52.027L2.34623 29.9577ZM26.7617 53.7593H69.6537V48.0403H26.7617V53.7593Z" fill="url(#paint2_linear_757_1473)"/>
<path d="M16.1303 26.9243C16.1303 27.5722 15.6051 28.0974 14.9572 28.0974C14.3094 28.0974 13.7841 27.5722 13.7841 26.9243C13.7841 26.2764 14.3094 25.7512 14.9572 25.7512C15.6051 25.7512 16.1303 26.2764 16.1303 26.9243Z" fill="url(#paint3_linear_757_1473)"/>
<path d="M19.6497 32.7899C20.2975 32.7899 20.8228 32.2646 20.8228 31.6167C20.8228 30.9688 20.2975 30.4436 19.6497 30.4436C19.0018 30.4436 18.4766 30.9688 18.4766 31.6167C18.4766 32.2646 19.0018 32.7899 19.6497 32.7899Z" fill="url(#paint4_linear_757_1473)"/>
<path d="M25.5152 36.3092C25.5152 36.9571 24.99 37.4823 24.3421 37.4823C23.6943 37.4823 23.169 36.9571 23.169 36.3092C23.169 35.6613 23.6943 35.1361 24.3421 35.1361C24.99 35.1361 25.5152 35.6613 25.5152 36.3092Z" fill="url(#paint5_linear_757_1473)"/>
<path d="M29.0346 42.1748C29.6824 42.1748 30.2077 41.6496 30.2077 41.0017C30.2077 40.3538 29.6824 39.8285 29.0346 39.8285C28.3867 39.8285 27.8615 40.3538 27.8615 41.0017C27.8615 41.6496 28.3867 42.1748 29.0346 42.1748Z" fill="url(#paint6_linear_757_1473)"/>
<path d="M23.169 26.9243C23.169 27.5722 22.6437 28.0974 21.9959 28.0974C21.348 28.0974 20.8228 27.5722 20.8228 26.9243C20.8228 26.2764 21.348 25.7512 21.9959 25.7512C22.6437 25.7512 23.169 26.2764 23.169 26.9243Z" fill="url(#paint7_linear_757_1473)"/>
<path d="M26.6884 32.7899C27.3362 32.7899 27.8615 32.2646 27.8615 31.6167C27.8615 30.9688 27.3362 30.4436 26.6884 30.4436C26.0405 30.4436 25.5152 30.9688 25.5152 31.6167C25.5152 32.2646 26.0405 32.7899 26.6884 32.7899Z" fill="url(#paint8_linear_757_1473)"/>
<path d="M32.5539 36.3092C32.5539 36.9571 32.0287 37.4823 31.3808 37.4823C30.733 37.4823 30.2077 36.9571 30.2077 36.3092C30.2077 35.6613 30.733 35.1361 31.3808 35.1361C32.0287 35.1361 32.5539 35.6613 32.5539 36.3092Z" fill="url(#paint9_linear_757_1473)"/>
<path d="M36.0733 42.1748C36.7211 42.1748 37.2464 41.6496 37.2464 41.0017C37.2464 40.3538 36.7211 39.8285 36.0733 39.8285C35.4254 39.8285 34.9002 40.3538 34.9002 41.0017C34.9002 41.6496 35.4254 42.1748 36.0733 42.1748Z" fill="url(#paint10_linear_757_1473)"/>
<path d="M30.2077 26.9243C30.2077 27.5722 29.6824 28.0974 29.0346 28.0974C28.3867 28.0974 27.8615 27.5722 27.8615 26.9243C27.8615 26.2764 28.3867 25.7512 29.0346 25.7512C29.6824 25.7512 30.2077 26.2764 30.2077 26.9243Z" fill="url(#paint11_linear_757_1473)"/>
<path d="M33.727 32.7899C34.3749 32.7899 34.9002 32.2646 34.9002 31.6167C34.9002 30.9688 34.3749 30.4436 33.727 30.4436C33.0792 30.4436 32.5539 30.9688 32.5539 31.6167C32.5539 32.2646 33.0792 32.7899 33.727 32.7899Z" fill="url(#paint12_linear_757_1473)"/>
<path d="M39.5926 36.3092C39.5926 36.9571 39.0673 37.4823 38.4195 37.4823C37.7717 37.4823 37.2464 36.9571 37.2464 36.3092C37.2464 35.6613 37.7717 35.1361 38.4195 35.1361C39.0673 35.1361 39.5926 35.6613 39.5926 36.3092Z" fill="url(#paint13_linear_757_1473)"/>
<path d="M43.112 42.1748C43.7598 42.1748 44.2851 41.6496 44.2851 41.0017C44.2851 40.3538 43.7598 39.8285 43.112 39.8285C42.4641 39.8285 41.9388 40.3538 41.9388 41.0017C41.9388 41.6496 42.4641 42.1748 43.112 42.1748Z" fill="url(#paint14_linear_757_1473)"/>
<path d="M37.2464 26.9243C37.2464 27.5722 36.7211 28.0974 36.0733 28.0974C35.4254 28.0974 34.9002 27.5722 34.9002 26.9243C34.9002 26.2764 35.4254 25.7512 36.0733 25.7512C36.7211 25.7512 37.2464 26.2764 37.2464 26.9243Z" fill="url(#paint15_linear_757_1473)"/>
<path d="M40.7657 32.7899C41.4136 32.7899 41.9388 32.2646 41.9388 31.6167C41.9388 30.9688 41.4136 30.4436 40.7657 30.4436C40.1179 30.4436 39.5926 30.9688 39.5926 31.6167C39.5926 32.2646 40.1179 32.7899 40.7657 32.7899Z" fill="url(#paint16_linear_757_1473)"/>
<path d="M46.6313 36.3092C46.6313 36.9571 46.106 37.4823 45.4582 37.4823C44.8103 37.4823 44.2851 36.9571 44.2851 36.3092C44.2851 35.6613 44.8103 35.1361 45.4582 35.1361C46.106 35.1361 46.6313 35.6613 46.6313 36.3092Z" fill="url(#paint17_linear_757_1473)"/>
<path d="M50.1506 42.1748C50.7985 42.1748 51.3238 41.6496 51.3238 41.0017C51.3238 40.3538 50.7985 39.8285 50.1506 39.8285C49.5028 39.8285 48.9775 40.3538 48.9775 41.0017C48.9775 41.6496 49.5028 42.1748 50.1506 42.1748Z" fill="url(#paint18_linear_757_1473)"/>
<path d="M44.2851 26.9243C44.2851 27.5722 43.7598 28.0974 43.112 28.0974C42.4641 28.0974 41.9388 27.5722 41.9388 26.9243C41.9388 26.2764 42.4641 25.7512 43.112 25.7512C43.7598 25.7512 44.2851 26.2764 44.2851 26.9243Z" fill="url(#paint19_linear_757_1473)"/>
<path d="M47.8044 32.7899C48.4523 32.7899 48.9775 32.2646 48.9775 31.6167C48.9775 30.9688 48.4523 30.4436 47.8044 30.4436C47.1566 30.4436 46.6313 30.9688 46.6313 31.6167C46.6313 32.2646 47.1566 32.7899 47.8044 32.7899Z" fill="url(#paint20_linear_757_1473)"/>
<path d="M53.67 36.3092C53.67 36.9571 53.1447 37.4823 52.4969 37.4823C51.849 37.4823 51.3238 36.9571 51.3238 36.3092C51.3238 35.6613 51.849 35.1361 52.4969 35.1361C53.1447 35.1361 53.67 35.6613 53.67 36.3092Z" fill="url(#paint21_linear_757_1473)"/>
<path d="M57.1893 42.1748C57.8372 42.1748 58.3624 41.6496 58.3624 41.0017C58.3624 40.3538 57.8372 39.8285 57.1893 39.8285C56.5415 39.8285 56.0162 40.3538 56.0162 41.0017C56.0162 41.6496 56.5415 42.1748 57.1893 42.1748Z" fill="url(#paint22_linear_757_1473)"/>
<path fill-rule="evenodd" clip-rule="evenodd" d="M1.17311 37C0.698685 37 0.270939 37.2858 0.0893583 37.7242C0.00973777 37.9163 -0.0156091 38.1212 0.00916496 38.319C0.00429607 38.3581 0.00128882 38.3977 0.000429607 38.4379L0 38.4664V46.2383C0 46.5494 0.123584 46.8478 0.343543 47.0678L24.8323 71.5566C25.0524 71.7766 25.3507 71.9002 25.6619 71.9002H70.8268C71.4746 71.9002 71.9999 71.3749 71.9999 70.7271V63.1751C71.9999 63.0869 71.9902 63.0007 71.9717 62.918C72.0585 62.5306 71.9436 62.1195 71.6564 61.8324L63.8239 54L62.5085 56.0026L67.9947 61.4888H26.1478L4.00523 39.3462H8.51119C9.15918 39.3462 9.6843 38.821 9.6843 38.1731C9.6843 37.5252 9.15918 37 8.51119 37H1.17311ZM2.34623 45.7524V41.0052L24.4154 63.0744V67.8216L2.34623 45.7524ZM26.7617 69.5539H69.6537V63.835H26.7617V69.5539Z" fill="url(#paint23_linear_757_1473)"/>
<defs>
<linearGradient id="paint0_linear_757_1473" x1="-0.0928758" y1="-0.37234" x2="86.0485" y2="24.5577" gradientUnits="userSpaceOnUse">
<stop stop-color="#E98135"/>
<stop offset="1" stop-color="#48389C"/>
</linearGradient>
<linearGradient id="paint1_linear_757_1473" x1="-0.0928758" y1="-0.37234" x2="86.0485" y2="24.5577" gradientUnits="userSpaceOnUse">
<stop stop-color="#E98135"/>
<stop offset="1" stop-color="#48389C"/>
</linearGradient>
<linearGradient id="paint2_linear_757_1473" x1="-0.0928758" y1="-0.37234" x2="86.0485" y2="24.5577" gradientUnits="userSpaceOnUse">
<stop stop-color="#E98135"/>
<stop offset="1" stop-color="#48389C"/>
</linearGradient>
<linearGradient id="paint3_linear_757_1473" x1="-0.0928758" y1="-0.37234" x2="86.0485" y2="24.5577" gradientUnits="userSpaceOnUse">
<stop stop-color="#E98135"/>
<stop offset="1" stop-color="#48389C"/>
</linearGradient>
<linearGradient id="paint4_linear_757_1473" x1="-0.0928758" y1="-0.37234" x2="86.0485" y2="24.5577" gradientUnits="userSpaceOnUse">
<stop stop-color="#E98135"/>
<stop offset="1" stop-color="#48389C"/>
</linearGradient>
<linearGradient id="paint5_linear_757_1473" x1="-0.0928758" y1="-0.37234" x2="86.0485" y2="24.5577" gradientUnits="userSpaceOnUse">
<stop stop-color="#E98135"/>
<stop offset="1" stop-color="#48389C"/>
</linearGradient>
<linearGradient id="paint6_linear_757_1473" x1="-0.0928758" y1="-0.37234" x2="86.0485" y2="24.5577" gradientUnits="userSpaceOnUse">
<stop stop-color="#E98135"/>
<stop offset="1" stop-color="#48389C"/>
</linearGradient>
<linearGradient id="paint7_linear_757_1473" x1="-0.0928758" y1="-0.37234" x2="86.0485" y2="24.5577" gradientUnits="userSpaceOnUse">
<stop stop-color="#E98135"/>
<stop offset="1" stop-color="#48389C"/>
</linearGradient>
<linearGradient id="paint8_linear_757_1473" x1="-0.0928758" y1="-0.37234" x2="86.0485" y2="24.5577" gradientUnits="userSpaceOnUse">
<stop stop-color="#E98135"/>
<stop offset="1" stop-color="#48389C"/>
</linearGradient>
<linearGradient id="paint9_linear_757_1473" x1="-0.0928758" y1="-0.37234" x2="86.0485" y2="24.5577" gradientUnits="userSpaceOnUse">
<stop stop-color="#E98135"/>
<stop offset="1" stop-color="#48389C"/>
</linearGradient>
<linearGradient id="paint10_linear_757_1473" x1="-0.0928758" y1="-0.37234" x2="86.0485" y2="24.5577" gradientUnits="userSpaceOnUse">
<stop stop-color="#E98135"/>
<stop offset="1" stop-color="#48389C"/>
</linearGradient>
<linearGradient id="paint11_linear_757_1473" x1="-0.0928758" y1="-0.37234" x2="86.0485" y2="24.5577" gradientUnits="userSpaceOnUse">
<stop stop-color="#E98135"/>
<stop offset="1" stop-color="#48389C"/>
</linearGradient>
<linearGradient id="paint12_linear_757_1473" x1="-0.0928758" y1="-0.37234" x2="86.0485" y2="24.5577" gradientUnits="userSpaceOnUse">
<stop stop-color="#E98135"/>
<stop offset="1" stop-color="#48389C"/>
</linearGradient>
<linearGradient id="paint13_linear_757_1473" x1="-0.0928758" y1="-0.37234" x2="86.0485" y2="24.5577" gradientUnits="userSpaceOnUse">
<stop stop-color="#E98135"/>
<stop offset="1" stop-color="#48389C"/>
</linearGradient>
<linearGradient id="paint14_linear_757_1473" x1="-0.0928758" y1="-0.37234" x2="86.0485" y2="24.5577" gradientUnits="userSpaceOnUse">
<stop stop-color="#E98135"/>
<stop offset="1" stop-color="#48389C"/>
</linearGradient>
<linearGradient id="paint15_linear_757_1473" x1="-0.0928758" y1="-0.37234" x2="86.0485" y2="24.5577" gradientUnits="userSpaceOnUse">
<stop stop-color="#E98135"/>
<stop offset="1" stop-color="#48389C"/>
</linearGradient>
<linearGradient id="paint16_linear_757_1473" x1="-0.0928758" y1="-0.37234" x2="86.0485" y2="24.5577" gradientUnits="userSpaceOnUse">
<stop stop-color="#E98135"/>
<stop offset="1" stop-color="#48389C"/>
</linearGradient>
<linearGradient id="paint17_linear_757_1473" x1="-0.0928758" y1="-0.37234" x2="86.0485" y2="24.5577" gradientUnits="userSpaceOnUse">
<stop stop-color="#E98135"/>
<stop offset="1" stop-color="#48389C"/>
</linearGradient>
<linearGradient id="paint18_linear_757_1473" x1="-0.0928758" y1="-0.37234" x2="86.0485" y2="24.5577" gradientUnits="userSpaceOnUse">
<stop stop-color="#E98135"/>
<stop offset="1" stop-color="#48389C"/>
</linearGradient>
<linearGradient id="paint19_linear_757_1473" x1="-0.0928758" y1="-0.37234" x2="86.0485" y2="24.5577" gradientUnits="userSpaceOnUse">
<stop stop-color="#E98135"/>
<stop offset="1" stop-color="#48389C"/>
</linearGradient>
<linearGradient id="paint20_linear_757_1473" x1="-0.0928758" y1="-0.37234" x2="86.0485" y2="24.5577" gradientUnits="userSpaceOnUse">
<stop stop-color="#E98135"/>
<stop offset="1" stop-color="#48389C"/>
</linearGradient>
<linearGradient id="paint21_linear_757_1473" x1="-0.0928758" y1="-0.37234" x2="86.0485" y2="24.5577" gradientUnits="userSpaceOnUse">
<stop stop-color="#E98135"/>
<stop offset="1" stop-color="#48389C"/>
</linearGradient>
<linearGradient id="paint22_linear_757_1473" x1="-0.0928758" y1="-0.37234" x2="86.0485" y2="24.5577" gradientUnits="userSpaceOnUse">
<stop stop-color="#E98135"/>
<stop offset="1" stop-color="#48389C"/>
</linearGradient>
<linearGradient id="paint23_linear_757_1473" x1="-0.0928767" y1="15.5041" x2="81.9748" y2="45.9415" gradientUnits="userSpaceOnUse">
<stop stop-color="#E98135"/>
<stop offset="1" stop-color="#48389C"/>
</linearGradient>
</defs>
</svg>
