<svg width="73" height="72" viewBox="0 0 73 72" fill="none" xmlns="http://www.w3.org/2000/svg">
<path d="M72.6487 28.4843C72.6487 26.9898 71.433 25.7742 69.9387 25.7742H68.2601C67.6372 25.7738 67.0333 25.9891 66.5511 26.3834L65.1642 21.9874C64.6054 20.2159 62.9817 19.0257 61.1238 19.0257H42.7665C42.3285 16.4526 41.0916 14.3247 39.7115 12.1687H41.0873C44.5742 12.1687 44.5799 6.74862 41.0873 6.74862H39.4087C38.7859 6.7482 38.1821 6.96341 37.6999 7.35769L36.3128 2.96137C35.754 1.19015 34.1303 0 32.2724 0H19.9823C18.6488 0 18.5882 2.1311 19.9823 2.1311H32.2724C33.1959 2.1311 34.0028 2.72241 34.2806 3.60255L36.3108 10.0375H7.39409L9.42432 3.60255C9.558 3.17496 9.82509 2.80141 10.1865 2.53662C10.5479 2.27183 10.9845 2.12972 11.4325 2.1311H12.946C14.2795 2.1311 14.3402 0 12.946 0H11.4324C9.57435 0 7.95059 1.19015 7.39182 2.96137L6.0049 7.35769C5.52268 6.96336 4.91882 6.74815 4.2959 6.74862H2.61731C-0.869594 6.74862 -0.875277 12.1687 2.61731 12.1687H3.99329C2.15202 15.0448 0.735407 17.9041 0.735407 21.4195V31.4632C0.735407 32.8351 1.85168 33.9512 3.22396 33.9512H5.17008C6.54222 33.9512 7.65863 32.8352 7.65863 31.4632V27.904H28.8227C28.7805 28.0946 28.759 28.2891 28.7586 28.4843C28.7586 29.9787 29.9744 31.1944 31.4687 31.1944H32.8445C31.4621 33.354 30.2351 35.4696 29.7918 38.0488H18.5123C16.6543 38.0488 15.0305 39.2389 14.4718 41.0103L13.0848 45.4065C12.6026 45.0121 11.9988 44.7968 11.3758 44.7972H9.69724C8.20292 44.7972 6.9872 46.013 6.9872 47.5073C6.9872 49.0016 8.20292 50.2175 9.69724 50.2175H11.0732L10.0594 51.801C8.59285 54.0893 7.81399 56.7504 7.81534 59.4683V69.5119C7.81534 70.8836 8.93161 71.9997 10.3039 71.9997H12.2502C13.6223 71.9997 14.7387 70.8837 14.7387 69.5119V65.9528H43.106V69.5122C43.106 70.8839 44.2223 72 45.5946 72H47.5407C48.9129 72 50.0293 70.884 50.0293 69.5122L50.0496 59.4686C50.0496 58.1351 47.9185 58.0744 47.9185 59.4686V63.8217H46.9157L46.8836 61.7314C46.8532 59.7551 45.2205 58.1472 43.244 58.1472C39.9398 58.1472 36.9466 60.1021 35.6186 63.1274L35.3138 63.8217H22.5515L22.2467 63.1274C20.9186 60.1021 17.9254 58.1472 14.6214 58.1472C12.6448 58.1472 11.0121 59.7549 10.9816 61.7314L10.949 63.8217H9.9463V59.4684C9.94518 57.1579 10.6073 54.8956 11.8541 52.9503L13.6034 50.2176H44.261C45.1429 51.5953 46.1519 52.9663 46.8312 54.4591C47.3837 55.6725 49.3485 54.8448 48.7706 53.5758C48.2306 52.3898 47.4917 51.3117 46.7913 50.2176H48.1673C49.8694 50.2176 51.1759 48.589 50.8139 46.9296H64.8772V50.4888C64.8772 51.8607 65.9935 52.9768 67.3657 52.9768H69.312C70.6842 52.9768 71.8006 51.8608 71.8006 50.4888L71.8207 40.4454C71.8222 37.7275 71.0433 35.0664 69.5767 32.7781L68.563 31.1946H69.9388C71.433 31.1944 72.6487 29.9787 72.6487 28.4843ZM47.8979 69.512C47.8977 69.6067 47.8599 69.6974 47.7929 69.7643C47.7259 69.8312 47.6351 69.8688 47.5404 69.8688H45.5943C45.4996 69.8688 45.4088 69.8312 45.3418 69.7643C45.2748 69.6974 45.237 69.6067 45.2369 69.512V65.9528H47.8979V69.512ZM43.2436 60.2782C44.063 60.2782 44.7397 60.9447 44.7524 61.764L44.7841 63.8216H37.6436C38.146 62.7615 38.9389 61.8658 39.9302 61.2386C40.9215 60.6113 42.0705 60.2783 43.2436 60.2782ZM13.112 61.7642C13.1246 60.9447 13.8016 60.2782 14.6209 60.2782C15.794 60.2783 16.943 60.6114 17.9343 61.2386C18.9256 61.8658 19.7185 62.7615 20.2209 63.8216H13.0804L13.112 61.7642ZM11.9983 65.9528H12.6073V69.5122C12.6071 69.6068 12.5694 69.6976 12.5024 69.7645C12.4354 69.8313 12.3446 69.8689 12.2499 69.8689H10.3038C10.2091 69.8689 10.1183 69.8313 10.0512 69.7645C9.98423 69.6976 9.94648 69.6068 9.9463 69.5122V65.9528H11.9983ZM67.681 28.4843C67.6812 28.3308 67.7422 28.1836 67.8508 28.0751C67.9593 27.9666 68.1065 27.9055 68.26 27.9053H69.9386C70.092 27.9055 70.2392 27.9666 70.3477 28.0751C70.4563 28.1836 70.5173 28.3308 70.5175 28.4843C70.5173 28.6378 70.4563 28.785 70.3478 28.8935C70.2392 29.0021 70.0921 29.0632 69.9386 29.0633H67.6809V28.4843H67.681ZM63.1318 22.6284L65.162 29.0633H36.2452L38.2754 22.6283C38.3259 22.4682 38.3951 22.3147 38.4817 22.1709L38.4868 22.1624C38.6745 21.8544 38.9385 21.6 39.2533 21.4238C39.568 21.2477 39.9229 21.1557 40.2836 21.1568H61.1236C62.0471 21.1568 62.8541 21.7481 63.1318 22.6284ZM35.0488 25.7729H30.5645C31.587 23.6146 33.7649 22.2295 36.1638 22.2295L36.1668 22.2296L35.0488 25.7729ZM38.8298 9.45867C38.83 9.30518 38.891 9.15803 38.9996 9.04949C39.1081 8.94096 39.2552 8.8799 39.4087 8.87972H41.0873C41.8358 8.87972 41.8358 10.0376 41.0873 10.0376H38.8296V9.45867H38.8298ZM2.03836 9.45867C2.03855 9.30518 2.0996 9.15803 2.20814 9.04949C2.31667 8.94096 2.46382 8.8799 2.61731 8.87972H4.2959C4.44942 8.87987 4.5966 8.94091 4.70517 9.04944C4.81373 9.15798 4.87481 9.30515 4.87499 9.45867V10.0376H2.61731C2.46382 10.0374 2.31667 9.97637 2.20814 9.86784C2.0996 9.7593 2.03855 9.61215 2.03836 9.45867ZM2.8665 21.4195C2.8665 17.8111 4.66714 15.0689 6.52375 12.1687H37.1813C38.5749 14.3458 40.0777 16.4328 40.599 19.0257H40.2838C39.1217 19.0257 38.0514 19.4913 37.2758 20.2734C36.9164 20.1577 36.5413 20.0986 36.1638 20.0984C32.8597 20.0984 29.8667 22.0533 28.5384 25.0788L28.2337 25.7731H15.4714L15.1666 25.0788C13.8385 22.0533 10.8453 20.0984 7.54128 20.0984C5.56476 20.0984 3.93205 21.7061 3.90151 23.6826L3.8694 25.7731H2.86665L2.8665 21.4195ZM5.52739 31.4632C5.52724 31.558 5.48952 31.6487 5.4225 31.7156C5.35548 31.7826 5.26464 31.8201 5.16994 31.8201H3.22382C3.12913 31.8201 3.03831 31.7825 2.9713 31.7156C2.90429 31.6487 2.86655 31.5579 2.86636 31.4632V27.904H5.52739V31.4632ZM6.0005 25.7729L6.03218 23.7154C6.04482 22.8959 6.7218 22.2295 7.54114 22.2295C8.71422 22.2296 9.86319 22.5626 10.8545 23.1899C11.8458 23.8172 12.6387 24.7129 13.1411 25.7729H6.0005ZM30.8896 28.4843C30.8898 28.3308 30.9508 28.1836 31.0594 28.0751C31.1679 27.9666 31.3151 27.9055 31.4685 27.9053H33.1471C33.3006 27.9055 33.4478 27.9666 33.5563 28.0751C33.6648 28.1836 33.7259 28.3308 33.7261 28.4843V29.0633H31.4684C31.3149 29.0631 31.1678 29.002 31.0593 28.8935C30.9508 28.7849 30.8897 28.6377 30.8896 28.4843ZM9.11815 47.5074C9.11834 47.3539 9.1794 47.2068 9.28793 47.0983C9.39646 46.9897 9.54361 46.9287 9.6971 46.9285H11.3758C11.5294 46.9286 11.6765 46.9897 11.7851 47.0982C11.8937 47.2067 11.9547 47.3539 11.9549 47.5074V48.0865H9.69724C9.5437 48.0864 9.3965 48.0253 9.28793 47.9167C9.17936 47.8082 9.1183 47.661 9.11815 47.5074ZM14.4739 48.0865L16.5041 41.6515C16.6378 41.2239 16.9049 40.8503 17.2663 40.5855C17.6276 40.3207 18.0643 40.1786 18.5123 40.18H39.3522C39.8002 40.1786 40.237 40.3207 40.5984 40.5855C40.9598 40.8503 41.2269 41.2239 41.3605 41.6516L43.3906 48.0865H14.4739ZM48.7463 47.5074C48.7462 47.6609 48.6852 47.8081 48.5766 47.9167C48.4681 48.0253 48.3209 48.0863 48.1674 48.0865H45.9096C45.8172 47.666 45.9076 46.942 46.4762 46.9296H48.1796C48.3308 46.9328 48.4748 46.9951 48.5807 47.1031C48.6866 47.2111 48.746 47.3562 48.7463 47.5074ZM59.4149 44.7985C59.9173 43.7385 60.7102 42.8428 61.7015 42.2156C62.6928 41.5883 63.8418 41.2553 65.0149 41.2552C65.8343 41.2552 66.511 41.9217 66.5237 42.741L66.5555 44.7985H59.4149ZM69.6693 50.4888C69.6691 50.5835 69.6314 50.6743 69.5644 50.7412C69.4974 50.8081 69.4066 50.8457 69.3119 50.8457H67.3656C67.2709 50.8457 67.1801 50.8081 67.1131 50.7412C67.0461 50.6743 67.0083 50.5835 67.0081 50.4888V46.9296H69.6693V50.4888ZM69.6895 40.4454V44.7987H68.6869L68.6546 42.7083C68.6242 40.7321 66.9915 39.1241 65.015 39.1241C61.7109 39.1241 58.7179 41.079 57.3897 44.1044L57.0849 44.7987H44.588L43.3929 41.0106C42.8341 39.2391 41.2104 38.0489 39.3523 38.0489H31.9597C32.4869 35.4542 33.9797 33.3741 35.375 31.1946H66.0327L67.782 33.9272C69.0286 35.8726 69.6907 38.1349 69.6895 40.4454Z" fill="url(#paint0_linear_757_1476)"/>
<defs>
<linearGradient id="paint0_linear_757_1476" x1="0.00315653" y1="-0.479948" x2="66.456" y2="76.4724" gradientUnits="userSpaceOnUse">
<stop stop-color="#E98135"/>
<stop offset="1" stop-color="#48389C"/>
</linearGradient>
</defs>
</svg>
