<svg width="72" height="72" viewBox="0 0 72 72" fill="none" xmlns="http://www.w3.org/2000/svg">
<path d="M25.5097 5.9955C25.5097 6.82177 24.8399 7.4916 24.0136 7.4916C23.1874 7.4916 22.5175 6.82177 22.5175 5.9955V1.4961C22.5175 0.669828 23.1874 0 24.0136 0C24.8399 0 25.5097 0.669828 25.5097 1.4961V5.9955Z" fill="url(#paint0_linear_757_1464)"/>
<path d="M12.3307 12.3308C12.9149 11.7465 12.9149 10.7992 12.3307 10.215L9.14914 7.03347C8.56487 6.44921 7.61759 6.44921 7.03333 7.03347C6.44906 7.61774 6.44906 8.56502 7.03333 9.14928L10.2148 12.3308C10.7991 12.9151 11.7464 12.9151 12.3307 12.3308Z" fill="url(#paint1_linear_757_1464)"/>
<path fill-rule="evenodd" clip-rule="evenodd" d="M12.6113 30.8211C10.2694 33.1818 8.82273 36.4318 8.82273 40.0197C8.82273 47.1553 14.5447 52.9544 21.6504 53.0791L17.919 56.8104C17.3348 57.3947 17.3348 58.342 17.919 58.9263C18.5033 59.5105 19.4506 59.5105 20.0349 58.9263L25.88 53.0811H36.2909L32.5616 56.8104C31.9773 57.3947 31.9773 58.342 32.5616 58.9263C33.1458 59.5105 34.0931 59.5105 34.6774 58.9263L40.5225 53.0811H50.9334L47.2041 56.8104C46.6198 57.3947 46.6198 58.342 47.2041 58.9263C47.7884 59.5105 48.7357 59.5105 49.3199 58.9263L55.1651 53.0811H58.9386C66.1523 53.0811 72 47.2333 72 40.0197C72 32.8064 66.1526 26.9587 58.9392 26.9584C58.8274 26.9583 58.715 26.9597 58.6033 26.9625C57.5642 26.9885 56.5333 27.1389 55.5336 27.4091C55.5076 27.2726 55.4797 27.1365 55.45 27.0008C55.3058 26.3425 55.1185 25.6935 54.8888 25.0582C54.6079 24.2811 53.7502 23.8789 52.9732 24.1598C52.1961 24.4407 51.7939 25.2984 52.0748 26.0754C52.1894 26.3924 52.2909 26.7135 52.3792 27.0381C52.6001 27.8503 52.738 28.6838 52.7905 29.5256C52.8208 30.0138 53.088 30.4563 53.5058 30.7106C53.9236 30.965 54.4394 30.999 54.887 30.8017C56.1632 30.2393 57.5427 29.9494 58.9374 29.9506L58.9386 29.9506C64.4997 29.9506 69.0078 34.4587 69.0078 40.0197C69.0078 45.5808 64.4997 50.0889 58.9386 50.0889H21.8841C16.3231 50.0889 11.8149 45.5808 11.8149 40.0197C11.8149 34.4587 16.3231 29.9506 21.8841 29.9506C23.2786 29.9506 24.6034 30.2334 25.8073 30.7432C26.2529 30.9318 26.7622 30.8934 27.1744 30.6399C27.5865 30.3864 27.8507 29.9492 27.8833 29.4664C27.9327 28.7358 28.045 28.0224 28.2149 27.3317C29.5545 21.8831 34.4729 17.841 40.335 17.841C41.6779 17.841 42.9685 18.0526 44.1769 18.443C44.9631 18.6971 45.8065 18.2656 46.0605 17.4794C46.3146 16.6932 45.8831 15.8498 45.0969 15.5958C43.5949 15.1104 41.9941 14.8488 40.335 14.8488C38.2971 14.8488 36.3513 15.2427 34.5697 15.9585C32.1453 12.7862 28.3193 10.7359 24.0136 10.7359C16.6804 10.7359 10.7357 16.6806 10.7357 24.0138C10.7357 26.5003 11.4204 28.83 12.6113 30.8211ZM14.9772 28.9319C16.9809 27.6811 19.3481 26.9584 21.8841 26.9584C23.0085 26.9584 24.101 27.1009 25.144 27.369C25.951 23.1948 28.4346 19.6187 31.8662 17.3701C29.978 15.1403 27.1603 13.7281 24.0136 13.7281C18.333 13.7281 13.7279 18.3331 13.7279 24.0138C13.7279 25.7969 14.1805 27.4715 14.9772 28.9319Z" fill="url(#paint2_linear_757_1464)"/>
<path d="M1.4961 25.51C0.669829 25.51 0 24.8402 0 24.0139C0 23.1876 0.669829 22.5178 1.4961 22.5178H5.9955C6.82177 22.5178 7.4916 23.1876 7.4916 24.0139C7.4916 24.8402 6.82177 25.51 5.9955 25.51H1.4961Z" fill="url(#paint3_linear_757_1464)"/>
<path d="M35.697 12.3308C36.2812 12.9151 37.2285 12.9151 37.8128 12.3308L40.9943 9.14928C41.5786 8.56502 41.5786 7.61774 40.9943 7.03347C40.41 6.44921 39.4627 6.44921 38.8785 7.03347L35.697 10.215C35.1127 10.7992 35.1127 11.7465 35.697 12.3308Z" fill="url(#paint4_linear_757_1464)"/>
<path d="M19.5517 71.5618C18.9675 72.1461 18.0202 72.1461 17.4359 71.5618C16.8517 70.9775 16.8517 70.0303 17.4359 69.446L23.7193 63.1626C24.3035 62.5784 25.2508 62.5784 25.8351 63.1626C26.4194 63.7469 26.4194 64.6942 25.8351 65.2784L19.5517 71.5618Z" fill="url(#paint5_linear_757_1464)"/>
<path d="M32.0785 71.5618C32.6627 72.1461 33.61 72.1461 34.1943 71.5618L40.4776 65.2784C41.0619 64.6942 41.0619 63.7469 40.4776 63.1626C39.8934 62.5784 38.9461 62.5784 38.3618 63.1626L32.0785 69.446C31.4942 70.0303 31.4942 70.9775 32.0785 71.5618Z" fill="url(#paint6_linear_757_1464)"/>
<path d="M48.8368 71.5618C48.2525 72.1461 47.3053 72.1461 46.721 71.5618C46.1367 70.9775 46.1367 70.0303 46.721 69.446L53.0043 63.1626C53.5886 62.5784 54.5359 62.5784 55.1202 63.1626C55.7044 63.7469 55.7044 64.6942 55.1202 65.2784L48.8368 71.5618Z" fill="url(#paint7_linear_757_1464)"/>
<defs>
<linearGradient id="paint0_linear_757_1464" x1="-0.0540368" y1="-0.300525" x2="70.7808" y2="72.24" gradientUnits="userSpaceOnUse">
<stop stop-color="#E98135"/>
<stop offset="1" stop-color="#48389C"/>
</linearGradient>
<linearGradient id="paint1_linear_757_1464" x1="-0.0540368" y1="-0.300525" x2="70.7808" y2="72.24" gradientUnits="userSpaceOnUse">
<stop stop-color="#E98135"/>
<stop offset="1" stop-color="#48389C"/>
</linearGradient>
<linearGradient id="paint2_linear_757_1464" x1="-0.0540368" y1="-0.300525" x2="70.7808" y2="72.24" gradientUnits="userSpaceOnUse">
<stop stop-color="#E98135"/>
<stop offset="1" stop-color="#48389C"/>
</linearGradient>
<linearGradient id="paint3_linear_757_1464" x1="-0.0540368" y1="-0.300525" x2="70.7808" y2="72.24" gradientUnits="userSpaceOnUse">
<stop stop-color="#E98135"/>
<stop offset="1" stop-color="#48389C"/>
</linearGradient>
<linearGradient id="paint4_linear_757_1464" x1="-0.0540368" y1="-0.300525" x2="70.7808" y2="72.24" gradientUnits="userSpaceOnUse">
<stop stop-color="#E98135"/>
<stop offset="1" stop-color="#48389C"/>
</linearGradient>
<linearGradient id="paint5_linear_757_1464" x1="-0.0540368" y1="-0.300525" x2="70.7808" y2="72.24" gradientUnits="userSpaceOnUse">
<stop stop-color="#E98135"/>
<stop offset="1" stop-color="#48389C"/>
</linearGradient>
<linearGradient id="paint6_linear_757_1464" x1="-0.0540368" y1="-0.300525" x2="70.7808" y2="72.24" gradientUnits="userSpaceOnUse">
<stop stop-color="#E98135"/>
<stop offset="1" stop-color="#48389C"/>
</linearGradient>
<linearGradient id="paint7_linear_757_1464" x1="-0.0540368" y1="-0.300525" x2="70.7808" y2="72.24" gradientUnits="userSpaceOnUse">
<stop stop-color="#E98135"/>
<stop offset="1" stop-color="#48389C"/>
</linearGradient>
</defs>
</svg>
