<svg width="32" height="32" viewBox="0 0 32 32" fill="none" xmlns="http://www.w3.org/2000/svg">
<circle cx="16" cy="16" r="16" fill="#E98135"/>
<path d="M20.4648 20.0225V22H11.7109V20.3125L15.8506 15.874C16.2666 15.4111 16.5947 15.0039 16.835 14.6523C17.0752 14.2949 17.248 13.9756 17.3535 13.6943C17.4648 13.4072 17.5205 13.1348 17.5205 12.877C17.5205 12.4902 17.4561 12.1592 17.3271 11.8838C17.1982 11.6025 17.0078 11.3857 16.7559 11.2334C16.5098 11.0811 16.2051 11.0049 15.8418 11.0049C15.4551 11.0049 15.1211 11.0986 14.8398 11.2861C14.5645 11.4736 14.3535 11.7344 14.207 12.0684C14.0664 12.4023 13.9961 12.7803 13.9961 13.2021H11.4561C11.4561 12.4404 11.6377 11.7432 12.001 11.1104C12.3643 10.4717 12.877 9.96484 13.5391 9.58984C14.2012 9.20898 14.9863 9.01855 15.8945 9.01855C16.791 9.01855 17.5469 9.16504 18.1621 9.45801C18.7832 9.74512 19.252 10.1611 19.5684 10.7061C19.8906 11.2451 20.0518 11.8896 20.0518 12.6396C20.0518 13.0615 19.9844 13.4746 19.8496 13.8789C19.7148 14.2773 19.5215 14.6758 19.2695 15.0742C19.0234 15.4668 18.7246 15.8652 18.373 16.2695C18.0215 16.6738 17.6318 17.0928 17.2041 17.5264L14.9805 20.0225H20.4648Z" fill="white"/>
</svg>
