<svg width="32" height="32" viewBox="0 0 32 32" fill="none" xmlns="http://www.w3.org/2000/svg">
<circle cx="16" cy="16" r="16" fill="#E98135"/>
<path d="M14.3037 14.5029H15.6572C16.0908 14.5029 16.4482 14.4297 16.7295 14.2832C17.0107 14.1309 17.2188 13.9199 17.3535 13.6504C17.4941 13.375 17.5645 13.0557 17.5645 12.6924C17.5645 12.3643 17.5 12.0742 17.3711 11.8223C17.248 11.5645 17.0576 11.3652 16.7998 11.2246C16.542 11.0781 16.2168 11.0049 15.8242 11.0049C15.5137 11.0049 15.2266 11.0664 14.9629 11.1895C14.6992 11.3125 14.4883 11.4854 14.3301 11.708C14.1719 11.9307 14.0928 12.2002 14.0928 12.5166H11.5527C11.5527 11.8135 11.7402 11.2012 12.1152 10.6797C12.4961 10.1582 13.0059 9.75098 13.6445 9.45801C14.2832 9.16504 14.9863 9.01855 15.7539 9.01855C16.6211 9.01855 17.3799 9.15918 18.0303 9.44043C18.6807 9.71582 19.1875 10.123 19.5508 10.6621C19.9141 11.2012 20.0957 11.8691 20.0957 12.666C20.0957 13.0703 20.002 13.4629 19.8145 13.8438C19.627 14.2188 19.3574 14.5586 19.0059 14.8633C18.6602 15.1621 18.2383 15.4023 17.7402 15.584C17.2422 15.7598 16.6826 15.8477 16.0615 15.8477H14.3037V14.5029ZM14.3037 16.4277V15.1182H16.0615C16.7588 15.1182 17.3711 15.1973 17.8984 15.3555C18.4258 15.5137 18.8682 15.7422 19.2256 16.041C19.583 16.334 19.8525 16.6826 20.0342 17.0869C20.2158 17.4854 20.3066 17.9277 20.3066 18.4141C20.3066 19.0117 20.1924 19.5449 19.9639 20.0137C19.7354 20.4766 19.4131 20.8691 18.9971 21.1914C18.5869 21.5137 18.1064 21.7598 17.5557 21.9297C17.0049 22.0938 16.4043 22.1758 15.7539 22.1758C15.2148 22.1758 14.6846 22.1025 14.1631 21.9561C13.6475 21.8037 13.1787 21.5781 12.7568 21.2793C12.3408 20.9746 12.0068 20.5938 11.7549 20.1367C11.5088 19.6738 11.3857 19.126 11.3857 18.4932H13.9258C13.9258 18.8213 14.0078 19.1143 14.1719 19.3721C14.3359 19.6299 14.5615 19.832 14.8486 19.9785C15.1416 20.125 15.4668 20.1982 15.8242 20.1982C16.2285 20.1982 16.5742 20.125 16.8613 19.9785C17.1543 19.8262 17.377 19.6152 17.5293 19.3457C17.6875 19.0703 17.7666 18.751 17.7666 18.3877C17.7666 17.9189 17.6816 17.5439 17.5117 17.2627C17.3418 16.9756 17.0986 16.7646 16.7822 16.6299C16.4658 16.4951 16.0908 16.4277 15.6572 16.4277H14.3037Z" fill="white"/>
</svg>
