<svg width="32" height="32" viewBox="0 0 32 32" fill="none" xmlns="http://www.w3.org/2000/svg">
<circle cx="16" cy="16" r="16" fill="#E98135"/>
<path d="M14.0928 16.1729L12.0713 15.6895L12.8008 9.20312H19.9902V11.251H14.8838L14.5674 14.0898C14.7373 13.9902 14.9951 13.8848 15.3408 13.7734C15.6865 13.6562 16.0732 13.5977 16.501 13.5977C17.1221 13.5977 17.6729 13.6943 18.1533 13.8877C18.6338 14.0811 19.041 14.3623 19.375 14.7314C19.7148 15.1006 19.9727 15.5518 20.1484 16.085C20.3242 16.6182 20.4121 17.2217 20.4121 17.8955C20.4121 18.4639 20.3242 19.0059 20.1484 19.5215C19.9727 20.0312 19.7061 20.4883 19.3486 20.8926C18.9912 21.291 18.543 21.6045 18.0039 21.833C17.4648 22.0615 16.8262 22.1758 16.0879 22.1758C15.5371 22.1758 15.0039 22.0938 14.4883 21.9297C13.9785 21.7656 13.5186 21.5225 13.1084 21.2002C12.7041 20.8779 12.3789 20.4883 12.1328 20.0312C11.8926 19.5684 11.7666 19.041 11.7549 18.4492H14.2686C14.3037 18.8125 14.3975 19.126 14.5498 19.3896C14.708 19.6475 14.916 19.8467 15.1738 19.9873C15.4316 20.1279 15.7334 20.1982 16.0791 20.1982C16.4014 20.1982 16.6768 20.1367 16.9053 20.0137C17.1338 19.8906 17.3184 19.7207 17.459 19.5039C17.5996 19.2812 17.7021 19.0234 17.7666 18.7305C17.8369 18.4316 17.8721 18.1094 17.8721 17.7637C17.8721 17.418 17.8311 17.1045 17.749 16.8232C17.667 16.542 17.541 16.2988 17.3711 16.0938C17.2012 15.8887 16.9844 15.7305 16.7207 15.6191C16.4629 15.5078 16.1611 15.4521 15.8154 15.4521C15.3467 15.4521 14.9834 15.5254 14.7256 15.6719C14.4736 15.8184 14.2627 15.9854 14.0928 16.1729Z" fill="white"/>
</svg>
