<svg width="32" height="32" viewBox="0 0 32 32" fill="none" xmlns="http://www.w3.org/2000/svg">
<circle cx="16" cy="16" r="16" fill="#E98135"/>
<path d="M18.2412 9.07129H18.6104V11.0928H18.4609C17.793 11.0928 17.1982 11.1924 16.6768 11.3916C16.1553 11.5908 15.7129 11.875 15.3496 12.2441C14.9922 12.6074 14.7168 13.0469 14.5234 13.5625C14.3359 14.0781 14.2422 14.6553 14.2422 15.2939V17.4209C14.2422 17.8779 14.2861 18.2822 14.374 18.6338C14.4678 18.9795 14.5996 19.2695 14.7695 19.5039C14.9453 19.7324 15.1504 19.9053 15.3848 20.0225C15.6191 20.1338 15.8828 20.1895 16.1758 20.1895C16.4512 20.1895 16.7002 20.1309 16.9229 20.0137C17.1514 19.8965 17.3447 19.7324 17.5029 19.5215C17.667 19.3047 17.79 19.0527 17.8721 18.7656C17.96 18.4727 18.0039 18.1533 18.0039 17.8076C18.0039 17.4619 17.96 17.1426 17.8721 16.8496C17.79 16.5566 17.667 16.3047 17.5029 16.0938C17.3389 15.877 17.1396 15.71 16.9053 15.5928C16.6709 15.4756 16.4072 15.417 16.1143 15.417C15.7158 15.417 15.3643 15.5107 15.0596 15.6982C14.7607 15.8799 14.5264 16.1143 14.3564 16.4014C14.1865 16.6885 14.0957 16.9902 14.084 17.3066L13.3193 16.8145C13.3369 16.3633 13.4307 15.9355 13.6006 15.5312C13.7764 15.127 14.0166 14.7695 14.3213 14.459C14.6318 14.1426 15.0039 13.8965 15.4375 13.7207C15.8711 13.5391 16.3604 13.4482 16.9053 13.4482C17.5029 13.4482 18.0273 13.5625 18.4785 13.791C18.9355 14.0195 19.3164 14.333 19.6211 14.7314C19.9258 15.1299 20.1543 15.5898 20.3066 16.1113C20.459 16.6328 20.5352 17.1895 20.5352 17.7812C20.5352 18.4023 20.4326 18.9795 20.2275 19.5127C20.0283 20.0459 19.7383 20.5117 19.3574 20.9102C18.9824 21.3086 18.5312 21.6191 18.0039 21.8418C17.4766 22.0645 16.8848 22.1758 16.2285 22.1758C15.5488 22.1758 14.9307 22.0527 14.374 21.8066C13.8232 21.5547 13.3486 21.2031 12.9502 20.752C12.5518 20.3008 12.2441 19.7646 12.0273 19.1436C11.8164 18.5225 11.7109 17.8428 11.7109 17.1045V16.1201C11.7109 15.0889 11.8604 14.1455 12.1592 13.29C12.4639 12.4287 12.9004 11.6846 13.4688 11.0576C14.0371 10.4248 14.7227 9.93555 15.5254 9.58984C16.3281 9.24414 17.2334 9.07129 18.2412 9.07129Z" fill="white"/>
</svg>
