<svg width="32" height="32" viewBox="0 0 32 32" fill="none" xmlns="http://www.w3.org/2000/svg">
<path d="M16.0119 0C11.9649 0.0268706 8.07607 1.57176 5.11805 4.32776C2.16003 7.08376 0.349268 10.8492 0.0454978 14.8759C-0.258272 18.9027 0.967181 22.8962 3.4784 26.0629C5.98962 29.2297 9.60283 31.338 13.6002 31.9691V20.3456H9.61384V16.1206H13.6002V13.306C13.6002 8.64798 15.8755 6.60043 19.7565 6.60043C20.8615 6.58675 21.966 6.65498 23.0609 6.80456V10.5161H20.4136C18.7707 10.5161 18.1942 12.075 18.1942 13.8318V16.1454H23.0175L22.3975 20.3704H18.1942V32C22.2151 31.4182 25.8675 29.3427 28.4205 26.189C30.9735 23.0352 32.2386 19.0358 31.9628 14.9911C31.687 10.9464 29.8905 7.15487 26.9329 4.37524C23.9753 1.59561 20.0748 0.032953 16.0119 0Z" fill="#A3A5B4"/>
</svg>
