<svg width="26" height="26" viewBox="0 0 26 26" fill="none" xmlns="http://www.w3.org/2000/svg">
<g filter="url(#filter0_d_4_2615)">
<circle cx="10" cy="10" r="10" fill="#E98135"/>
</g>
<path d="M11.9922 3.50781H12.3203V5.30469H12.1875C11.5938 5.30469 11.0651 5.39323 10.6016 5.57031C10.138 5.7474 9.74479 6 9.42188 6.32812C9.10417 6.65104 8.85938 7.04167 8.6875 7.5C8.52083 7.95833 8.4375 8.47135 8.4375 9.03906V10.9297C8.4375 11.3359 8.47656 11.6953 8.55469 12.0078C8.63802 12.3151 8.75521 12.5729 8.90625 12.7812C9.0625 12.9844 9.24479 13.138 9.45312 13.2422C9.66146 13.3411 9.89583 13.3906 10.1562 13.3906C10.401 13.3906 10.6224 13.3385 10.8203 13.2344C11.0234 13.1302 11.1953 12.9844 11.3359 12.7969C11.4818 12.6042 11.5911 12.3802 11.6641 12.125C11.7422 11.8646 11.7812 11.5807 11.7812 11.2734C11.7812 10.9661 11.7422 10.6823 11.6641 10.4219C11.5911 10.1615 11.4818 9.9375 11.3359 9.75C11.1901 9.55729 11.013 9.40885 10.8047 9.30469C10.5964 9.20052 10.362 9.14844 10.1016 9.14844C9.7474 9.14844 9.4349 9.23177 9.16406 9.39844C8.89844 9.5599 8.6901 9.76823 8.53906 10.0234C8.38802 10.2786 8.30729 10.5469 8.29688 10.8281L7.61719 10.3906C7.63281 9.98958 7.71615 9.60938 7.86719 9.25C8.02344 8.89062 8.23698 8.57292 8.50781 8.29688C8.78385 8.01562 9.11458 7.79688 9.5 7.64062C9.88542 7.47917 10.3203 7.39844 10.8047 7.39844C11.3359 7.39844 11.8021 7.5 12.2031 7.70312C12.6094 7.90625 12.9479 8.1849 13.2188 8.53906C13.4896 8.89323 13.6927 9.30208 13.8281 9.76562C13.9635 10.2292 14.0312 10.724 14.0312 11.25C14.0312 11.8021 13.9401 12.3151 13.7578 12.7891C13.5807 13.263 13.3229 13.6771 12.9844 14.0312C12.651 14.3854 12.25 14.6615 11.7812 14.8594C11.3125 15.0573 10.7865 15.1562 10.2031 15.1562C9.59896 15.1562 9.04948 15.0469 8.55469 14.8281C8.0651 14.6042 7.64323 14.2917 7.28906 13.8906C6.9349 13.4896 6.66146 13.013 6.46875 12.4609C6.28125 11.9089 6.1875 11.3047 6.1875 10.6484V9.77344C6.1875 8.85677 6.32031 8.01823 6.58594 7.25781C6.85677 6.49219 7.24479 5.83073 7.75 5.27344C8.25521 4.71094 8.86458 4.27604 9.57812 3.96875C10.2917 3.66146 11.0964 3.50781 11.9922 3.50781Z" fill="white"/>
<defs>
<filter id="filter0_d_4_2615" x="0" y="0" width="26" height="26" filterUnits="userSpaceOnUse" color-interpolation-filters="sRGB">
<feFlood flood-opacity="0" result="BackgroundImageFix"/>
<feColorMatrix in="SourceAlpha" type="matrix" values="0 0 0 0 0 0 0 0 0 0 0 0 0 0 0 0 0 0 127 0" result="hardAlpha"/>
<feOffset dx="3" dy="3"/>
<feGaussianBlur stdDeviation="1.5"/>
<feComposite in2="hardAlpha" operator="out"/>
<feColorMatrix type="matrix" values="0 0 0 0 0 0 0 0 0 0 0 0 0 0 0 0 0 0 0.25 0"/>
<feBlend mode="normal" in2="BackgroundImageFix" result="effect1_dropShadow_4_2615"/>
<feBlend mode="normal" in="SourceGraphic" in2="effect1_dropShadow_4_2615" result="shape"/>
</filter>
</defs>
</svg>
