<svg width="26" height="26" viewBox="0 0 26 26" fill="none" xmlns="http://www.w3.org/2000/svg">
<g filter="url(#filter0_d_4_2597)">
<circle cx="10" cy="10" r="10" fill="#E98135"/>
</g>
<path d="M8.49219 8.33594H9.69531C10.0807 8.33594 10.3984 8.27083 10.6484 8.14062C10.8984 8.00521 11.0833 7.81771 11.2031 7.57812C11.3281 7.33333 11.3906 7.04948 11.3906 6.72656C11.3906 6.4349 11.3333 6.17708 11.2188 5.95312C11.1094 5.72396 10.9401 5.54688 10.7109 5.42188C10.4818 5.29167 10.1927 5.22656 9.84375 5.22656C9.56771 5.22656 9.3125 5.28125 9.07812 5.39062C8.84375 5.5 8.65625 5.65365 8.51562 5.85156C8.375 6.04948 8.30469 6.28906 8.30469 6.57031H6.04688C6.04688 5.94531 6.21354 5.40104 6.54688 4.9375C6.88542 4.47396 7.33854 4.11198 7.90625 3.85156C8.47396 3.59115 9.09896 3.46094 9.78125 3.46094C10.5521 3.46094 11.2266 3.58594 11.8047 3.83594C12.3828 4.08073 12.8333 4.44271 13.1562 4.92188C13.4792 5.40104 13.6406 5.99479 13.6406 6.70312C13.6406 7.0625 13.5573 7.41146 13.3906 7.75C13.224 8.08333 12.9844 8.38542 12.6719 8.65625C12.3646 8.92188 11.9896 9.13542 11.5469 9.29688C11.1042 9.45312 10.6068 9.53125 10.0547 9.53125H8.49219V8.33594ZM8.49219 10.0469V8.88281H10.0547C10.6745 8.88281 11.2188 8.95312 11.6875 9.09375C12.1562 9.23438 12.5495 9.4375 12.8672 9.70312C13.1849 9.96354 13.4245 10.2734 13.5859 10.6328C13.7474 10.987 13.8281 11.3802 13.8281 11.8125C13.8281 12.3438 13.7266 12.8177 13.5234 13.2344C13.3203 13.6458 13.0339 13.9948 12.6641 14.2812C12.2995 14.5677 11.8724 14.7865 11.3828 14.9375C10.8932 15.0833 10.3594 15.1562 9.78125 15.1562C9.30208 15.1562 8.83073 15.0911 8.36719 14.9609C7.90885 14.8255 7.49219 14.625 7.11719 14.3594C6.7474 14.0885 6.45052 13.75 6.22656 13.3438C6.00781 12.9323 5.89844 12.4453 5.89844 11.8828H8.15625C8.15625 12.1745 8.22917 12.4349 8.375 12.6641C8.52083 12.8932 8.72135 13.0729 8.97656 13.2031C9.23698 13.3333 9.52604 13.3984 9.84375 13.3984C10.2031 13.3984 10.5104 13.3333 10.7656 13.2031C11.026 13.0677 11.224 12.8802 11.3594 12.6406C11.5 12.3958 11.5703 12.112 11.5703 11.7891C11.5703 11.3724 11.4948 11.0391 11.3438 10.7891C11.1927 10.5339 10.9766 10.3464 10.6953 10.2266C10.4141 10.1068 10.0807 10.0469 9.69531 10.0469H8.49219Z" fill="white"/>
<defs>
<filter id="filter0_d_4_2597" x="0" y="0" width="26" height="26" filterUnits="userSpaceOnUse" color-interpolation-filters="sRGB">
<feFlood flood-opacity="0" result="BackgroundImageFix"/>
<feColorMatrix in="SourceAlpha" type="matrix" values="0 0 0 0 0 0 0 0 0 0 0 0 0 0 0 0 0 0 127 0" result="hardAlpha"/>
<feOffset dx="3" dy="3"/>
<feGaussianBlur stdDeviation="1.5"/>
<feComposite in2="hardAlpha" operator="out"/>
<feColorMatrix type="matrix" values="0 0 0 0 0 0 0 0 0 0 0 0 0 0 0 0 0 0 0.25 0"/>
<feBlend mode="normal" in2="BackgroundImageFix" result="effect1_dropShadow_4_2597"/>
<feBlend mode="normal" in="SourceGraphic" in2="effect1_dropShadow_4_2597" result="shape"/>
</filter>
</defs>
</svg>
