<svg width="26" height="26" viewBox="0 0 26 26" fill="none" xmlns="http://www.w3.org/2000/svg">
<g filter="url(#filter0_d_4_2609)">
<circle cx="10" cy="10" r="10" fill="#E98135"/>
</g>
<path d="M8.30469 9.82031L6.50781 9.39062L7.15625 3.625H13.5469V5.44531H9.00781L8.72656 7.96875C8.8776 7.88021 9.10677 7.78646 9.41406 7.6875C9.72135 7.58333 10.0651 7.53125 10.4453 7.53125C10.9974 7.53125 11.487 7.61719 11.9141 7.78906C12.3411 7.96094 12.7031 8.21094 13 8.53906C13.3021 8.86719 13.5312 9.26823 13.6875 9.74219C13.8438 10.2161 13.9219 10.7526 13.9219 11.3516C13.9219 11.8568 13.8438 12.3385 13.6875 12.7969C13.5312 13.25 13.2943 13.6562 12.9766 14.0156C12.6589 14.3698 12.2604 14.6484 11.7812 14.8516C11.3021 15.0547 10.7344 15.1562 10.0781 15.1562C9.58854 15.1562 9.11458 15.0833 8.65625 14.9375C8.20312 14.7917 7.79427 14.5755 7.42969 14.2891C7.07031 14.0026 6.78125 13.6562 6.5625 13.25C6.34896 12.8385 6.23698 12.3698 6.22656 11.8438H8.46094C8.49219 12.1667 8.57552 12.4453 8.71094 12.6797C8.85156 12.9089 9.03646 13.0859 9.26562 13.2109C9.49479 13.3359 9.76302 13.3984 10.0703 13.3984C10.3568 13.3984 10.6016 13.3438 10.8047 13.2344C11.0078 13.125 11.1719 12.974 11.2969 12.7812C11.4219 12.5833 11.513 12.3542 11.5703 12.0938C11.6328 11.8281 11.6641 11.5417 11.6641 11.2344C11.6641 10.9271 11.6276 10.6484 11.5547 10.3984C11.4818 10.1484 11.3698 9.93229 11.2188 9.75C11.0677 9.56771 10.875 9.42708 10.6406 9.32812C10.4115 9.22917 10.1432 9.17969 9.83594 9.17969C9.41927 9.17969 9.09635 9.24479 8.86719 9.375C8.64323 9.50521 8.45573 9.65365 8.30469 9.82031Z" fill="white"/>
<defs>
<filter id="filter0_d_4_2609" x="0" y="0" width="26" height="26" filterUnits="userSpaceOnUse" color-interpolation-filters="sRGB">
<feFlood flood-opacity="0" result="BackgroundImageFix"/>
<feColorMatrix in="SourceAlpha" type="matrix" values="0 0 0 0 0 0 0 0 0 0 0 0 0 0 0 0 0 0 127 0" result="hardAlpha"/>
<feOffset dx="3" dy="3"/>
<feGaussianBlur stdDeviation="1.5"/>
<feComposite in2="hardAlpha" operator="out"/>
<feColorMatrix type="matrix" values="0 0 0 0 0 0 0 0 0 0 0 0 0 0 0 0 0 0 0.25 0"/>
<feBlend mode="normal" in2="BackgroundImageFix" result="effect1_dropShadow_4_2609"/>
<feBlend mode="normal" in="SourceGraphic" in2="effect1_dropShadow_4_2609" result="shape"/>
</filter>
</defs>
</svg>
