<svg width="32" height="32" viewBox="0 0 32 32" fill="none" xmlns="http://www.w3.org/2000/svg">
<path d="M16 0C12.8355 0 9.74207 0.938383 7.11088 2.69649C4.4797 4.45459 2.42894 6.95345 1.21793 9.87706C0.00693255 12.8007 -0.309921 16.0177 0.307443 19.1214C0.924806 22.2251 2.44866 25.0761 4.6863 27.3137C6.92394 29.5513 9.77487 31.0752 12.8786 31.6926C15.9823 32.3099 19.1993 31.9931 22.1229 30.7821C25.0466 29.5711 27.5454 27.5203 29.3035 24.8891C31.0616 22.2579 32 19.1645 32 16C32 11.7565 30.3143 7.68687 27.3137 4.68629C24.3131 1.68571 20.2435 0 16 0ZM23.8191 12.8835C23.8191 13.0504 23.8191 13.2174 23.8191 13.3843C23.8197 15.3503 23.2912 17.2802 22.2891 18.9717C21.2871 20.6632 19.8484 22.0538 18.1239 22.9979C16.3994 23.9419 14.4527 24.4046 12.4878 24.3374C10.523 24.2701 8.61243 23.6754 6.95653 22.6157C7.26128 22.6519 7.56788 22.6705 7.87479 22.6713C9.60982 22.6735 11.2953 22.0929 12.6609 21.0226C11.8541 21.0084 11.0719 20.7427 10.4234 20.2626C9.77495 19.7824 9.29252 19.1118 9.04349 18.3443C9.28397 18.3923 9.52871 18.4156 9.77392 18.4139C10.1167 18.4124 10.4579 18.368 10.7896 18.2817C9.91679 18.1049 9.13217 17.6313 8.56909 16.9414C8.00601 16.2515 7.69922 15.3879 7.70088 14.4974V14.4487C8.23279 14.749 8.82949 14.9161 9.44001 14.9357C8.91382 14.5822 8.48256 14.1049 8.18415 13.5457C7.88574 12.9865 7.72934 12.3625 7.7287 11.7287C7.72622 11.0468 7.90637 10.3766 8.25044 9.78783C9.21945 10.9807 10.429 11.956 11.8003 12.65C13.1715 13.344 14.6736 13.7412 16.2087 13.8157C16.1389 13.5287 16.1039 13.2344 16.1044 12.9391C16.1045 12.1665 16.3368 11.4117 16.7712 10.7728C17.2056 10.1339 17.8221 9.64024 18.5405 9.35601C19.259 9.07178 20.0463 9.01006 20.8002 9.17885C21.5542 9.34765 22.24 9.73917 22.7687 10.3026C23.6329 10.1328 24.4613 9.8151 25.2174 9.36348C24.9321 10.2571 24.3312 11.0162 23.527 11.4991C24.2899 11.4061 25.0351 11.2022 25.7391 10.8939C25.2229 11.6663 24.5726 12.3401 23.8191 12.8835Z" fill="#A3A5B4"/>
</svg>
