<svg width="92" height="92" viewBox="0 0 92 92" fill="none" xmlns="http://www.w3.org/2000/svg">
<g clip-path="url(#clip0_1_85)">
<path d="M46 92C71.4051 92 92 71.4051 92 46C92 20.5949 71.4051 0 46 0C20.5949 0 0 20.5949 0 46C0 71.4051 20.5949 92 46 92Z" fill="white"/>
<path d="M48.62 47.2V48.56C48.6309 48.6841 48.6165 48.8091 48.5777 48.9274C48.5389 49.0458 48.4765 49.155 48.3942 49.2485C48.3119 49.342 48.2115 49.4178 48.099 49.4714C47.9866 49.5249 47.8644 49.5551 47.74 49.56H46.54C46.4155 49.5551 46.2934 49.5249 46.1809 49.4714C46.0685 49.4178 45.968 49.342 45.8858 49.2485C45.8035 49.155 45.741 49.0458 45.7022 48.9274C45.6634 48.8091 45.649 48.6841 45.66 48.56V46.26H42.66C42.2876 46.2393 41.9386 46.072 41.6894 45.7946C41.4401 45.5172 41.3109 45.1524 41.33 44.78C41.334 44.4103 41.4727 44.0548 41.72 43.78C41.8365 43.6449 41.9808 43.5366 42.143 43.4624C42.3053 43.3882 42.4816 43.3498 42.66 43.35H47.59C47.8908 43.3349 48.1852 43.2568 48.4539 43.1207C48.7227 42.9847 48.9598 42.7936 49.15 42.56C49.5727 42.0793 49.804 41.4601 49.8 40.82C49.8271 40.2233 49.6279 39.6384 49.2422 39.1823C48.8565 38.7261 48.3129 38.4325 47.72 38.36H46.15C45.2509 38.2884 44.389 37.9706 43.6587 37.4414C42.9284 36.9122 42.358 36.192 42.01 35.36C41.6585 34.5876 41.4777 33.7486 41.48 32.9C41.4686 31.4908 41.9778 30.1269 42.91 29.07C43.6224 28.275 44.5795 27.7401 45.63 27.55V25.3C45.619 25.1759 45.6334 25.0509 45.6722 24.9326C45.711 24.8142 45.7735 24.705 45.8558 24.6115C45.9381 24.518 46.0385 24.4422 46.1509 24.3886C46.2634 24.3351 46.3855 24.3049 46.51 24.3H47.71C47.8344 24.3049 47.9566 24.3351 48.069 24.3886C48.1815 24.4422 48.2819 24.518 48.3642 24.6115C48.4465 24.705 48.5089 24.8142 48.5477 24.9326C48.5865 25.0509 48.6009 25.1759 48.59 25.3V27.56H51.28C51.4639 27.569 51.6443 27.6141 51.8107 27.6929C51.9771 27.7717 52.1264 27.8825 52.25 28.019C52.3735 28.1556 52.4689 28.3152 52.5307 28.4887C52.5925 28.6621 52.6194 28.8461 52.61 29.03C52.6126 29.4159 52.4738 29.7894 52.22 30.08C52.1018 30.2131 51.9572 30.3201 51.7953 30.3941C51.6335 30.4681 51.4579 30.5076 51.28 30.51H46.88C46.5825 30.5137 46.2891 30.5797 46.0187 30.7037C45.7483 30.8277 45.5069 31.007 45.31 31.23C44.8873 31.7107 44.6559 32.3299 44.66 32.97C44.6357 33.5692 44.8385 34.1554 45.2279 34.6115C45.6172 35.0676 46.1644 35.3599 46.76 35.43H48.28C49.1852 35.4929 50.055 35.8069 50.7917 36.3369C51.5283 36.8668 52.1026 37.5917 52.45 38.43C52.8027 39.2019 52.9835 40.0413 52.98 40.89C52.9899 42.296 52.4807 43.6561 51.55 44.71C50.7798 45.5879 49.7103 46.1476 48.55 46.28C48.589 46.5853 48.6124 46.8923 48.62 47.2Z" fill="#E98135"/>
<path d="M15 53.54H21.94V69.89C21.94 70.2692 21.7894 70.633 21.5212 70.9011C21.253 71.1693 20.8893 71.32 20.51 71.32H15C14.6208 71.32 14.257 71.1693 13.9889 70.9011C13.7207 70.633 13.57 70.2692 13.57 69.89V55C13.566 54.8097 13.6001 54.6205 13.6701 54.4435C13.7402 54.2666 13.8449 54.1053 13.9781 53.9694C14.1113 53.8334 14.2703 53.7254 14.4458 53.6516C14.6212 53.5779 14.8097 53.5399 15 53.54Z" fill="#4B5EAA"/>
<path d="M21.72 69.43L27.5 71.32H41.45C42.1007 71.3174 42.7238 71.057 43.183 70.596C43.6422 70.1349 43.9 69.5107 43.9 68.86C43.9 68.5383 43.8366 68.2197 43.7135 67.9224C43.5904 67.6252 43.4099 67.3551 43.1824 67.1276C42.9549 66.9001 42.6848 66.7196 42.3875 66.5965C42.0903 66.4734 41.7717 66.41 41.45 66.41H42.2C42.8524 66.41 43.4781 66.1508 43.9395 65.6895C44.4008 65.2282 44.66 64.6024 44.66 63.95C44.6573 63.2993 44.397 62.6762 43.9359 62.217C43.4749 61.7578 42.8507 61.5 42.2 61.5H38.78H42.97C43.6207 61.5 44.2449 61.2422 44.7059 60.783C45.167 60.3239 45.4273 59.7007 45.43 59.05C45.43 58.3976 45.1708 57.7719 44.7095 57.3105C44.2481 56.8492 43.6224 56.59 42.97 56.59H43.81C44.4607 56.59 45.0849 56.3322 45.5459 55.873C46.007 55.4139 46.2673 54.7907 46.27 54.14C46.27 53.4876 46.0108 52.8619 45.5495 52.4005C45.0881 51.9392 44.4624 51.68 43.81 51.68H32.41L33.41 45.33C33.41 45.33 34.18 40.08 29.12 40.08L26.39 50.17C26.39 50.17 25.15 54.56 21.91 54.99" fill="#A7B0C1"/>
<path d="M25.02 33.85C24.8397 33.85 24.6667 33.7783 24.5392 33.6508C24.4117 33.5233 24.34 33.3503 24.34 33.17V29.63C24.3283 29.5331 24.3373 29.4348 24.3663 29.3416C24.3954 29.2484 24.4439 29.1625 24.5086 29.0894C24.5734 29.0164 24.6529 28.9579 24.7419 28.9178C24.8309 28.8778 24.9274 28.8571 25.025 28.8571C25.1226 28.8571 25.2191 28.8778 25.3081 28.9178C25.3972 28.9579 25.4767 29.0164 25.5414 29.0894C25.6062 29.1625 25.6547 29.2484 25.6837 29.3416C25.7128 29.4348 25.7218 29.5331 25.71 29.63V33.17C25.71 33.2601 25.6921 33.3494 25.6573 33.4325C25.6225 33.5157 25.5715 33.5911 25.5073 33.6544C25.4431 33.7176 25.367 33.7675 25.2833 33.8011C25.1997 33.8347 25.1102 33.8513 25.02 33.85Z" fill="#2E2D6F"/>
<path d="M26.8 32.08H23.25C23.0697 32.08 22.8967 32.0083 22.7692 31.8808C22.6416 31.7533 22.57 31.5803 22.57 31.4C22.57 31.2196 22.6416 31.0467 22.7692 30.9191C22.8967 30.7916 23.0697 30.72 23.25 30.72H26.8C26.9804 30.72 27.1533 30.7916 27.2808 30.9191C27.4084 31.0467 27.48 31.2196 27.48 31.4C27.48 31.5803 27.4084 31.7533 27.2808 31.8808C27.1533 32.0083 26.9804 32.08 26.8 32.08Z" fill="#2E2D6F"/>
<path d="M55.35 63.95C55.2603 63.9513 55.1713 63.9347 55.0882 63.901C55.0051 63.8673 54.9296 63.8172 54.8662 63.7538C54.8027 63.6904 54.7527 63.6149 54.719 63.5318C54.6853 63.4487 54.6686 63.3597 54.67 63.27V59.73C54.67 59.5496 54.7416 59.3767 54.8692 59.2492C54.9967 59.1216 55.1697 59.05 55.35 59.05C55.5303 59.05 55.7033 59.1216 55.8308 59.2492C55.9584 59.3767 56.03 59.5496 56.03 59.73V63.27C56.0313 63.3597 56.0147 63.4487 55.981 63.5318C55.9473 63.6149 55.8972 63.6904 55.8338 63.7538C55.7704 63.8172 55.6949 63.8673 55.6118 63.901C55.5287 63.9347 55.4397 63.9513 55.35 63.95Z" fill="#2E2D6F"/>
<path d="M57.15 62.18H53.58C53.3997 62.18 53.2267 62.1084 53.0992 61.9808C52.9717 61.8533 52.9 61.6804 52.9 61.5C52.9 61.3197 52.9717 61.1467 53.0992 61.0192C53.2267 60.8917 53.3997 60.82 53.58 60.82H57.15C57.3304 60.82 57.5033 60.8917 57.6309 61.0192C57.7584 61.1467 57.83 61.3197 57.83 61.5C57.83 61.6804 57.7584 61.8533 57.6309 61.9808C57.5033 62.1084 57.3304 62.18 57.15 62.18Z" fill="#2E2D6F"/>
<path d="M50.8 55.34C50.6423 55.3387 50.4898 55.2834 50.3679 55.1834C50.246 55.0833 50.162 54.9445 50.13 54.79C50.1111 54.7026 50.1099 54.6123 50.1264 54.5244C50.1429 54.4365 50.1769 54.3528 50.2263 54.2783C50.2757 54.2037 50.3395 54.1398 50.414 54.0903C50.4885 54.0408 50.5721 54.0067 50.66 53.99C53.7131 53.3566 56.5241 51.8704 58.7668 49.704C61.0094 47.5376 62.5919 44.7798 63.3306 41.7504C64.0693 38.721 63.9339 35.5442 62.9402 32.5886C61.9465 29.6331 60.1351 27.0198 57.7163 25.0521C55.2974 23.0843 52.3702 21.8427 49.2743 21.4713C46.1783 21.0999 43.0405 21.6139 40.2248 22.9536C37.4092 24.2934 35.0311 26.404 33.3664 29.0407C31.7018 31.6773 30.8189 34.7319 30.82 37.85C30.7997 38.0174 30.7189 38.1716 30.5927 38.2835C30.4665 38.3953 30.3037 38.4571 30.135 38.4571C29.9664 38.4571 29.8036 38.3953 29.6774 38.2835C29.5512 38.1716 29.4703 38.0174 29.45 37.85C29.4514 34.4783 30.4083 31.176 32.2097 28.3259C34.0111 25.4757 36.5834 23.1944 39.6283 21.7464C42.6733 20.2984 46.0662 19.7429 49.414 20.1443C52.7617 20.5457 55.9271 21.8876 58.5434 24.0145C61.1597 26.1414 63.1197 28.9661 64.1962 32.1613C65.2728 35.3566 65.4218 38.7915 64.626 42.0679C63.8302 45.3444 62.1222 48.3283 59.7 50.6737C57.2777 53.0192 54.2404 54.6302 50.94 55.32L50.8 55.34Z" fill="#2E2D6F"/>
<path d="M41.45 72H27.5C27.427 72.0104 27.3529 72.0104 27.28 72L21.51 70.1C21.4194 70.0774 21.3345 70.0364 21.2605 69.9796C21.1865 69.9228 21.125 69.8513 21.0798 69.7697C21.0345 69.688 21.0066 69.598 20.9977 69.5051C20.9888 69.4122 20.9991 69.3185 21.028 69.2297C21.0569 69.141 21.1038 69.0592 21.1657 68.9893C21.2275 68.9195 21.3031 68.8631 21.3877 68.8237C21.4723 68.7844 21.5641 68.7628 21.6574 68.7605C21.7507 68.7581 21.8435 68.775 21.93 68.81L27.6 70.67H41.45C41.8977 70.6364 42.3162 70.4348 42.6216 70.1056C42.927 69.7764 43.0967 69.344 43.0967 68.895C43.0967 68.446 42.927 68.0136 42.6216 67.6844C42.3162 67.3553 41.8977 67.1536 41.45 67.12H37.87C37.6896 67.12 37.5167 67.0484 37.3891 66.9209C37.2616 66.7933 37.19 66.6204 37.19 66.44C37.19 66.2597 37.2616 66.0867 37.3891 65.9592C37.5167 65.8317 37.6896 65.76 37.87 65.76H42.2C42.6365 65.7517 43.0548 65.5833 43.3753 65.2867C43.6957 64.9901 43.896 64.5861 43.938 64.1515C43.98 63.7169 43.8607 63.282 43.603 62.9295C43.3452 62.5771 42.9669 62.3317 42.54 62.24H38.78C38.5996 62.24 38.4267 62.1684 38.2991 62.0408C38.1716 61.9133 38.1 61.7404 38.1 61.56C38.1 61.3797 38.1716 61.2067 38.2991 61.0792C38.4267 60.9517 38.5996 60.88 38.78 60.88H42.2C42.3498 60.8694 42.5002 60.8694 42.65 60.88H42.98C43.4277 60.8464 43.8462 60.6448 44.1516 60.3156C44.457 59.9864 44.6267 59.554 44.6267 59.105C44.6267 58.656 44.457 58.2236 44.1516 57.8944C43.8462 57.5653 43.4277 57.3636 42.98 57.33H39.68C39.4996 57.33 39.3267 57.2584 39.1992 57.1308C39.0716 57.0033 39 56.8304 39 56.65C39 56.4697 39.0716 56.2967 39.1992 56.1692C39.3267 56.0417 39.4996 55.97 39.68 55.97H43.82C44.0643 55.9884 44.3097 55.9561 44.541 55.8752C44.7722 55.7943 44.9843 55.6666 45.1639 55.5C45.3435 55.3333 45.4868 55.1314 45.5848 54.9069C45.6827 54.6824 45.7333 54.44 45.7333 54.195C45.7333 53.95 45.6827 53.7077 45.5848 53.4831C45.4868 53.2586 45.3435 53.0567 45.1639 52.8901C44.9843 52.7235 44.7722 52.5957 44.541 52.5148C44.3097 52.4339 44.0643 52.4017 43.82 52.42H32.41C32.3116 52.4211 32.2142 52.4008 32.1244 52.3606C32.0346 52.3203 31.9547 52.2611 31.89 52.1869C31.8254 52.1128 31.7776 52.0255 31.75 51.931C31.7223 51.8366 31.7155 51.7373 31.73 51.64L32.73 45.29C32.8943 44.0862 32.5978 42.8647 31.9 41.87C31.6077 41.5627 31.2576 41.3162 30.8697 41.1446C30.4819 40.973 30.064 40.8797 29.64 40.87L27.05 50.35C26.99 50.56 25.63 55.17 22.05 55.66C21.871 55.6839 21.6898 55.6357 21.5463 55.526C21.4029 55.4162 21.3089 55.254 21.285 55.075C21.2611 54.896 21.3093 54.7148 21.419 54.5714C21.5288 54.4279 21.691 54.3339 21.87 54.31C24.61 53.94 25.77 50.02 25.78 49.98L28.48 39.98C28.5173 39.8354 28.6012 39.7072 28.7186 39.615C28.8361 39.5228 28.9807 39.4719 29.13 39.47C29.8395 39.4253 30.55 39.5385 31.2106 39.8013C31.8711 40.0641 32.4651 40.4701 32.95 40.99C33.9 42.2889 34.3087 43.9058 34.09 45.5L33.25 51.07H43.81C44.5133 51.0651 45.1977 51.2972 45.7529 51.7288C46.3082 52.1604 46.7019 52.7665 46.8706 53.4493C47.0392 54.132 46.973 54.8517 46.6827 55.4923C46.3923 56.1328 45.8946 56.6569 45.27 56.98C45.5954 57.3284 45.837 57.7465 45.9763 58.2024C46.1155 58.6583 46.1488 59.14 46.0736 59.6108C45.9983 60.0816 45.8166 60.5289 45.5421 60.9187C45.2677 61.3085 44.9078 61.6305 44.49 61.86C45.0361 62.4347 45.3404 63.1973 45.34 63.99C45.3383 64.5509 45.1874 65.1013 44.9027 65.5846C44.618 66.0679 44.2098 66.4667 43.72 66.74C44.1417 67.185 44.424 67.7437 44.5319 68.3473C44.6399 68.9508 44.5687 69.5727 44.3274 70.1363C44.086 70.6999 43.6849 71.1805 43.1736 71.5187C42.6622 71.857 42.0631 72.0383 41.45 72.04V72Z" fill="#2E2D6F"/>
<path d="M47.74 50.2H46.54C46.1173 50.1844 45.7176 50.0041 45.4261 49.6977C45.1346 49.3912 44.9745 48.9829 44.98 48.56V46.92H42.67C42.12 46.894 41.6022 46.6531 41.2282 46.2491C40.8541 45.8451 40.6536 45.3104 40.67 44.76C40.6673 44.2066 40.8705 43.672 41.24 43.26C41.4177 43.0517 41.6364 42.882 41.8823 42.7616C42.1283 42.6412 42.3964 42.5726 42.67 42.56H47.6C47.8029 42.5589 48.0033 42.5147 48.1877 42.4302C48.3722 42.3457 48.5366 42.2229 48.67 42.07C48.9711 41.7261 49.1411 41.287 49.15 40.83C49.1748 40.4073 49.0409 39.9905 48.7746 39.6613C48.5082 39.332 48.1286 39.1141 47.71 39.05H46.15C45.1321 38.9766 44.1539 38.6255 43.3217 38.0349C42.4895 37.4442 41.8352 36.6366 41.43 35.7C41.037 34.8403 40.8357 33.9053 40.84 32.96C40.8227 31.3822 41.3971 29.8552 42.45 28.68C43.126 27.9124 44.0073 27.3538 44.99 27.07V25.3C44.9792 24.8747 45.1373 24.4624 45.4296 24.1532C45.7219 23.844 46.1247 23.6631 46.55 23.65H47.75C48.1753 23.6631 48.5781 23.844 48.8704 24.1532C49.1627 24.4624 49.3208 24.8747 49.31 25.3V26.87H51.31C51.8591 26.8934 52.3769 27.1322 52.7512 27.5346C53.1255 27.937 53.3263 28.4707 53.31 29.02C53.3117 29.5733 53.1087 30.1076 52.74 30.52C52.5596 30.7274 52.3368 30.8937 52.0867 31.0075C51.8365 31.1214 51.5648 31.1802 51.29 31.18H46.89C46.6881 31.1844 46.4894 31.2312 46.3068 31.3173C46.1242 31.4034 45.9618 31.527 45.83 31.68C45.515 32.0313 45.3437 32.4882 45.35 32.96C45.3258 33.3858 45.4624 33.8051 45.7328 34.1348C46.0033 34.4645 46.3877 34.6805 46.81 34.74H48.32C49.3574 34.7925 50.3594 35.1341 51.2129 35.726C52.0664 36.318 52.7373 37.1368 53.15 38.09C53.543 38.9498 53.7443 39.8847 53.74 40.83C53.7535 42.4071 53.1796 43.9328 52.13 45.11C51.3949 45.9416 50.4202 46.5251 49.34 46.78C49.34 46.92 49.34 47.06 49.34 47.2V48.56C49.3426 48.7728 49.3033 48.984 49.2244 49.1815C49.1454 49.3791 49.0283 49.5591 48.8797 49.7114C48.7311 49.8637 48.554 49.9853 48.3584 50.0691C48.1629 50.1529 47.9527 50.1974 47.74 50.2ZM42.67 43.97C42.5858 43.971 42.5028 43.9903 42.4269 44.0265C42.3509 44.0628 42.2837 44.1152 42.23 44.18C42.089 44.3397 42.0139 44.5471 42.02 44.76C42.0031 44.9517 42.0614 45.1425 42.1828 45.2918C42.3041 45.4412 42.4789 45.5374 42.67 45.56H45.67C45.7601 45.5587 45.8496 45.5753 45.9333 45.6089C46.017 45.6425 46.0931 45.6923 46.1573 45.7556C46.2215 45.8189 46.2725 45.8943 46.3073 45.9775C46.3421 46.0606 46.36 46.1499 46.36 46.24C46.36 46.24 46.36 46.71 46.36 47.24V48.56C46.36 48.73 46.46 48.85 46.56 48.85H47.76C47.86 48.85 47.96 48.73 47.96 48.56V47.2C47.9569 46.8991 47.9369 46.5987 47.9 46.3C47.8874 46.2096 47.8935 46.1177 47.9178 46.0297C47.942 45.9417 47.984 45.8597 48.0411 45.7885C48.0982 45.7173 48.1693 45.6586 48.2499 45.6159C48.3305 45.5731 48.419 45.5473 48.51 45.54C49.5062 45.4281 50.4255 44.9506 51.09 44.2C51.91 43.2705 52.3555 42.0695 52.34 40.83C52.3471 40.0818 52.1901 39.3411 51.88 38.66C51.5781 37.9481 51.0864 37.3328 50.4586 36.8813C49.8308 36.4299 49.091 36.1596 48.32 36.1H46.74C45.9729 36.0172 45.2654 35.6477 44.7592 35.0654C44.253 34.4832 43.9854 33.7312 44.01 32.96C44.0004 32.1485 44.2967 31.363 44.84 30.76C45.0989 30.4658 45.4173 30.2299 45.7741 30.0679C46.1309 29.9058 46.5181 29.8214 46.91 29.82H51.31C51.3941 29.8184 51.4768 29.7988 51.5527 29.7626C51.6286 29.7264 51.6959 29.6744 51.75 29.61C51.8925 29.4473 51.9676 29.2362 51.96 29.02C51.9768 28.8294 51.9181 28.6399 51.7965 28.4921C51.675 28.3444 51.5003 28.2503 51.31 28.23H48.62C48.4396 28.23 48.2667 28.1584 48.1392 28.0309C48.0116 27.9033 47.94 27.7304 47.94 27.55V25.3C47.94 25.13 47.84 25.01 47.74 25.01H46.54C46.44 25.01 46.34 25.13 46.34 25.3V27.61C46.3397 27.7711 46.2823 27.9269 46.1779 28.0496C46.0735 28.1723 45.929 28.254 45.77 28.28C44.8737 28.4307 44.0554 28.8822 43.45 29.56C42.6049 30.4898 42.1407 31.7036 42.15 32.96C42.1464 33.709 42.3068 34.4497 42.62 35.13C42.9191 35.8371 43.4063 36.4487 44.0287 36.8983C44.651 37.3478 45.3847 37.6182 46.15 37.68H47.76C48.5244 37.7653 49.2284 38.1362 49.7309 38.7185C50.2334 39.3007 50.4974 40.0514 50.47 40.82C50.4723 41.6273 50.1767 42.407 49.64 43.01C49.3801 43.3063 49.0603 43.5442 48.7018 43.7079C48.3433 43.8717 47.9541 43.9576 47.56 43.96L42.67 43.97Z" fill="#2E2D6F"/>
<path d="M20.52 72H14.93C14.3801 71.9974 13.8536 71.7771 13.4657 71.3873C13.0777 70.9975 12.86 70.47 12.86 69.92V54.92C12.86 54.3701 13.0777 53.8426 13.4657 53.4528C13.8536 53.063 14.3801 52.8427 14.93 52.84H20.52C21.0699 52.8427 21.5964 53.063 21.9843 53.4528C22.3722 53.8426 22.59 54.3701 22.59 54.92V69.92C22.59 70.47 22.3722 70.9975 21.9843 71.3873C21.5964 71.7771 21.0699 71.9974 20.52 72ZM14.93 54.22C14.8359 54.22 14.7428 54.2387 14.656 54.275C14.5692 54.3113 14.4904 54.3645 14.4244 54.4315C14.3583 54.4985 14.3062 54.578 14.2711 54.6653C14.236 54.7526 14.2187 54.846 14.22 54.94V69.94C14.2187 70.0341 14.236 70.1275 14.2711 70.2148C14.3062 70.3021 14.3583 70.3816 14.4244 70.4485C14.4904 70.5155 14.5692 70.5687 14.656 70.605C14.7428 70.6413 14.8359 70.66 14.93 70.66H20.52C20.6141 70.66 20.7072 70.6413 20.794 70.605C20.8808 70.5687 20.9595 70.5155 21.0256 70.4485C21.0917 70.3816 21.1438 70.3021 21.1788 70.2148C21.2139 70.1275 21.2313 70.0341 21.23 69.94V54.94C21.2313 54.846 21.2139 54.7526 21.1788 54.6653C21.1438 54.578 21.0917 54.4985 21.0256 54.4315C20.9595 54.3645 20.8808 54.3113 20.794 54.275C20.7072 54.2387 20.6141 54.22 20.52 54.22H14.93Z" fill="#2E2D6F"/>
</g>
<defs>
<clipPath id="clip0_1_85">
<rect width="92" height="92" fill="white"/>
</clipPath>
</defs>
</svg>
