<svg width="92" height="92" viewBox="0 0 92 92" fill="none" xmlns="http://www.w3.org/2000/svg">
<g clip-path="url(#clip0_1_159)">
<path d="M46 92C71.4051 92 92 71.4051 92 46C92 20.5949 71.4051 0 46 0C20.5949 0 0 20.5949 0 46C0 71.4051 20.5949 92 46 92Z" fill="white"/>
<path d="M40.77 49.83C40.77 48.6536 39.8164 47.7 38.64 47.7C37.4636 47.7 36.51 48.6536 36.51 49.83V52.59C36.51 53.7664 37.4636 54.72 38.64 54.72C39.8164 54.72 40.77 53.7664 40.77 52.59V49.83Z" fill="#E98135"/>
<path d="M55.65 49.83C55.65 48.6536 54.6964 47.7 53.52 47.7C52.3436 47.7 51.39 48.6536 51.39 49.83V52.59C51.39 53.7664 52.3436 54.72 53.52 54.72C54.6964 54.72 55.65 53.7664 55.65 52.59V49.83Z" fill="#E98135"/>
<path d="M31.52 45.72C31.5187 44.4681 31.7643 43.2283 32.2427 42.0714C32.7212 40.9146 33.4231 39.8635 34.3083 38.9783C35.1935 38.0931 36.2446 37.3912 37.4015 36.9127C38.5583 36.4343 39.7981 36.1887 41.05 36.19H60.48V30.32C60.48 27.7925 59.4759 25.3685 57.6887 23.5813C55.9015 21.794 53.4775 20.79 50.95 20.79H26.01C23.4825 20.79 21.0585 21.794 19.2713 23.5813C17.484 25.3685 16.48 27.7925 16.48 30.32V40.24C16.4795 41.9744 16.9523 43.676 17.8475 45.1615C18.7427 46.6471 20.0263 47.8601 21.56 48.67V54.94C21.56 55.1114 21.6107 55.279 21.7057 55.4217C21.8007 55.5644 21.9357 55.6759 22.0938 55.7421C22.2519 55.8083 22.4261 55.8264 22.5944 55.794C22.7627 55.7616 22.9178 55.6802 23.04 55.56L28.83 49.77H31.52V45.72Z" fill="#A7B0C1"/>
<path d="M22.43 56.61C22.2106 56.6054 21.9938 56.5614 21.79 56.48C21.4903 56.3502 21.2355 56.1348 21.0577 55.8609C20.8798 55.5869 20.7867 55.2666 20.79 54.94V49.13C19.2403 48.2213 17.9557 46.9223 17.0644 45.3625C16.1731 43.8027 15.7061 42.0365 15.71 40.24V30.32C15.7126 27.5872 16.798 24.9669 18.7285 23.0326C20.659 21.0984 23.2772 20.0079 26.01 20H50.95C53.6879 20 56.3139 21.087 58.2509 23.0221C60.1878 24.9571 61.2773 27.582 61.28 30.32V36.19H59.69V30.32C59.6913 29.1709 59.4663 28.0329 59.0278 26.9708C58.5892 25.9087 57.9458 24.9433 57.1342 24.1299C56.3227 23.3164 55.3588 22.6708 54.2977 22.2299C53.2366 21.7889 52.0991 21.5613 50.95 21.56H26.01C23.6955 21.5626 21.4765 22.4833 19.8399 24.1199C18.2032 25.7565 17.2826 27.9755 17.28 30.29V40.21C17.2767 41.8 17.7082 43.3606 18.5278 44.723C19.3473 46.0855 20.5238 47.1979 21.93 47.94L22.36 48.16V54.91C22.3527 54.9202 22.3487 54.9324 22.3487 54.945C22.3487 54.9576 22.3527 54.9698 22.36 54.98C22.41 54.98 22.43 54.98 22.44 54.98L28.44 48.98H31.02V50.56H29.15L23.59 56.12C23.4388 56.2745 23.2584 56.3974 23.0592 56.4815C22.8601 56.5657 22.6462 56.6093 22.43 56.61Z" fill="#2E2D6F"/>
<path d="M69.57 72C69.1343 72.013 68.7108 71.855 68.39 71.56L62.84 65.96H41.05C38.312 65.96 35.6861 64.8731 33.7491 62.938C31.8121 61.0029 30.7226 58.378 30.72 55.64V45.72C30.7226 42.9811 31.8118 40.3552 33.7485 38.4185C35.6852 36.4818 38.3111 35.3927 41.05 35.39H65.99C68.7279 35.3927 71.3528 36.4822 73.2879 38.4191C75.223 40.3561 76.31 42.9821 76.31 45.72V55.64C76.3171 57.4412 75.8517 59.2128 74.9604 60.7779C74.069 62.3431 72.7827 63.6472 71.23 64.56V70.37C71.2326 70.6952 71.1391 71.0139 70.9612 71.2861C70.7833 71.5583 70.5289 71.7719 70.23 71.9C70.0198 71.9809 69.7946 72.015 69.57 72ZM41.05 37C38.7328 37.0027 36.5113 37.9243 34.8728 39.5628C33.2343 41.2013 32.3126 43.4228 32.31 45.74V55.66C32.3153 57.9755 33.2381 60.1944 34.8763 61.8307C36.5145 63.4671 38.7345 64.3874 41.05 64.39H63.5L69.5 70.39C69.5121 70.397 69.5259 70.4007 69.54 70.4007C69.554 70.4007 69.5678 70.397 69.58 70.39C69.5861 70.3794 69.5893 70.3673 69.5893 70.355C69.5893 70.3427 69.5861 70.3307 69.58 70.32V63.56L70 63.34C71.4072 62.6009 72.5854 61.4908 73.4068 60.13C74.2282 58.7692 74.6616 57.2095 74.66 55.62V45.72C74.66 43.4038 73.7405 41.1822 72.1036 39.5434C70.4667 37.9047 68.2462 36.9827 65.93 36.98L41.05 37Z" fill="#2E2D6F"/>
<path d="M24.42 33.31C25.2153 33.31 25.86 32.6653 25.86 31.87C25.86 31.0747 25.2153 30.43 24.42 30.43C23.6247 30.43 22.98 31.0747 22.98 31.87C22.98 32.6653 23.6247 33.31 24.42 33.31Z" fill="white"/>
<path d="M28.3899 33.31C29.1852 33.31 29.83 32.6653 29.83 31.87C29.83 31.0747 29.1852 30.43 28.3899 30.43C27.5947 30.43 26.95 31.0747 26.95 31.87C26.95 32.6653 27.5947 33.31 28.3899 33.31Z" fill="white"/>
<path d="M32.52 33.31C33.3152 33.31 33.96 32.6653 33.96 31.87C33.96 31.0747 33.3152 30.43 32.52 30.43C31.7247 30.43 31.08 31.0747 31.08 31.87C31.08 32.6653 31.7247 33.31 32.52 33.31Z" fill="white"/>
<path d="M66.15 44.68H58.63C58.5181 44.6926 58.4049 44.6814 58.2976 44.6472C58.1903 44.613 58.0915 44.5565 58.0075 44.4814C57.9236 44.4064 57.8564 44.3145 57.8105 44.2117C57.7645 44.1089 57.7407 43.9976 57.7407 43.885C57.7407 43.7724 57.7645 43.6611 57.8105 43.5583C57.8564 43.4556 57.9236 43.3636 58.0075 43.2886C58.0915 43.2136 58.1903 43.1571 58.2976 43.1229C58.4049 43.0886 58.5181 43.0775 58.63 43.09H66.15C66.3455 43.112 66.526 43.2052 66.6571 43.3518C66.7882 43.4985 66.8607 43.6883 66.8607 43.885C66.8607 44.0817 66.7882 44.2715 66.6571 44.4182C66.526 44.5649 66.3455 44.6581 66.15 44.68Z" fill="#2E2D6F"/>
<path d="M64.23 48.97H58.63C58.4178 48.97 58.2143 48.8857 58.0643 48.7357C57.9142 48.5857 57.83 48.3822 57.83 48.17C57.8299 48.0654 57.8507 47.9619 57.891 47.8654C57.9314 47.7689 57.9904 47.6813 58.0649 47.6078C58.1393 47.5343 58.2276 47.4764 58.3246 47.4372C58.4216 47.3981 58.5254 47.3787 58.63 47.38H64.23C64.3345 47.3787 64.4383 47.3981 64.5353 47.4372C64.6324 47.4764 64.7206 47.5343 64.795 47.6078C64.8695 47.6813 64.9286 47.7689 64.9689 47.8654C65.0092 47.9619 65.03 48.0654 65.03 48.17C65.03 48.3822 64.9457 48.5857 64.7956 48.7357C64.6456 48.8857 64.4421 48.97 64.23 48.97Z" fill="#2E2D6F"/>
<path d="M38.64 55.56C38.2497 55.5601 37.8633 55.482 37.5037 55.3303C37.1442 55.1786 36.8186 54.9563 36.5464 54.6766C36.2742 54.397 36.0608 54.0655 35.9189 53.702C35.7769 53.3384 35.7093 52.9501 35.72 52.56V49.83C35.72 49.4465 35.7955 49.0668 35.9422 48.7125C36.089 48.3583 36.3041 48.0364 36.5752 47.7652C36.8464 47.4941 37.1683 47.279 37.5225 47.1322C37.8768 46.9855 38.2565 46.91 38.64 46.91C39.0234 46.91 39.4031 46.9855 39.7574 47.1322C40.1117 47.279 40.4336 47.4941 40.7047 47.7652C40.9759 48.0364 41.191 48.3583 41.3377 48.7125C41.4844 49.0668 41.56 49.4465 41.56 49.83V52.56C41.5707 52.9501 41.503 53.3384 41.3611 53.702C41.2191 54.0655 41.0057 54.397 40.7335 54.6766C40.4613 54.9563 40.1358 55.1786 39.7762 55.3303C39.4166 55.482 39.0303 55.5601 38.64 55.56ZM38.64 48.56C38.2846 48.56 37.9437 48.7012 37.6924 48.9524C37.4411 49.2037 37.3 49.5446 37.3 49.9V52.56C37.2839 52.745 37.3065 52.9313 37.3664 53.1072C37.4262 53.283 37.5219 53.4445 37.6474 53.5813C37.7729 53.7182 37.9255 53.8275 38.0955 53.9023C38.2656 53.977 38.4492 54.0156 38.635 54.0156C38.8207 54.0156 39.0044 53.977 39.1744 53.9023C39.3444 53.8275 39.497 53.7182 39.6225 53.5813C39.7481 53.4445 39.8438 53.283 39.9036 53.1072C39.9634 52.9313 39.986 52.745 39.97 52.56V49.83C39.9713 49.6545 39.9379 49.4805 39.8716 49.3179C39.8054 49.1554 39.7076 49.0076 39.584 48.8831C39.4603 48.7585 39.3133 48.6596 39.1513 48.5922C38.9892 48.5247 38.8155 48.49 38.64 48.49V48.56Z" fill="#2E2D6F"/>
<path d="M53.52 55.56C53.1292 55.5601 52.7424 55.4821 52.3823 55.3304C52.0222 55.1788 51.696 54.9567 51.423 54.6772C51.15 54.3977 50.9356 54.0664 50.7926 53.7028C50.6495 53.3392 50.5806 52.9506 50.59 52.56V49.83C50.5667 49.4315 50.625 49.0324 50.7615 48.6573C50.8979 48.2821 51.1096 47.9389 51.3835 47.6485C51.6574 47.3581 51.9878 47.1267 52.3543 46.9686C52.7208 46.8105 53.1158 46.7289 53.515 46.7289C53.9141 46.7289 54.3091 46.8105 54.6756 46.9686C55.0422 47.1267 55.3725 47.3581 55.6464 47.6485C55.9203 47.9389 56.132 48.2821 56.2685 48.6573C56.4049 49.0324 56.4633 49.4315 56.44 49.83V52.56C56.4507 52.9501 56.383 53.3384 56.2411 53.702C56.0991 54.0656 55.8857 54.397 55.6135 54.6766C55.3413 54.9563 55.0158 55.1786 54.6562 55.3303C54.2966 55.482 53.9102 55.5601 53.52 55.56ZM53.52 48.56C53.1712 48.5517 52.833 48.6797 52.5772 48.9169C52.3213 49.154 52.1681 49.4816 52.15 49.83V52.56C52.1339 52.745 52.1565 52.9313 52.2164 53.1072C52.2762 53.283 52.3719 53.4445 52.4974 53.5813C52.6229 53.7182 52.7755 53.8275 52.9455 53.9023C53.1156 53.977 53.2992 54.0156 53.485 54.0156C53.6707 54.0156 53.8544 53.977 54.0244 53.9023C54.1944 53.8275 54.347 53.7182 54.4725 53.5813C54.5981 53.4445 54.6938 53.283 54.7536 53.1072C54.8134 52.9313 54.836 52.745 54.82 52.56V49.83C54.8201 49.4814 54.6844 49.1465 54.4417 48.8963C54.199 48.6461 53.8684 48.5004 53.52 48.49V48.56Z" fill="#2E2D6F"/>
<path d="M53.51 48.49C53.3055 48.4902 53.109 48.4111 52.9617 48.2693C52.8144 48.1276 52.7277 47.9343 52.72 47.73C52.6267 46.032 51.8865 44.4342 50.6515 43.2651C49.4165 42.0961 47.7806 41.4446 46.08 41.4446C44.3794 41.4446 42.7434 42.0961 41.5084 43.2651C40.2734 44.4342 39.5332 46.032 39.44 47.73C39.411 47.9258 39.3105 48.104 39.1578 48.23C39.0051 48.356 38.8112 48.4209 38.6134 48.4122C38.4156 48.4035 38.2281 48.3217 38.0871 48.1828C37.9461 48.0439 37.8616 47.8576 37.85 47.66C37.9243 45.5282 38.8234 43.5086 40.3578 42.0268C41.8922 40.545 43.9419 39.7169 46.075 39.7169C48.208 39.7169 50.2578 40.545 51.7922 42.0268C53.3265 43.5086 54.2256 45.5282 54.3 47.66C54.3053 47.7646 54.2899 47.8692 54.2545 47.9678C54.219 48.0663 54.1644 48.1568 54.0937 48.2341C54.0229 48.3113 53.9376 48.3737 53.8425 48.4176C53.7475 48.4616 53.6446 48.4862 53.54 48.49H53.51Z" fill="#2E2D6F"/>
<path d="M48.32 61.15C47.8072 61.0884 47.3232 60.8799 46.9262 60.5496C46.5291 60.2194 46.236 59.7814 46.0819 59.2885C45.9279 58.7956 45.9196 58.2686 46.058 57.7711C46.1963 57.2735 46.4755 56.8266 46.862 56.4839C47.2484 56.1413 47.7256 55.9176 48.2361 55.8398C48.7466 55.762 49.2688 55.8333 49.7397 56.0453C50.2107 56.2572 50.6104 56.6007 50.8907 57.0344C51.1711 57.4681 51.3201 57.9736 51.32 58.49C51.266 59.2372 50.922 59.9337 50.3615 60.4308C49.8009 60.9278 49.0683 61.1859 48.32 61.15ZM48.32 57.42C47.53 57.42 46.87 57.91 46.87 58.49C46.87 59.07 47.53 59.56 48.32 59.56C49.11 59.56 49.76 59.07 49.76 58.49C49.76 57.91 49.15 57.42 48.32 57.42Z" fill="#2E2D6F"/>
<path d="M50.56 59.28C50.3712 59.2829 50.1877 59.2181 50.0426 59.0973C49.8975 58.9765 49.8004 58.8078 49.769 58.6216C49.7375 58.4355 49.7738 58.2442 49.8712 58.0825C49.9686 57.9207 50.1208 57.7993 50.3 57.74C50.9528 57.5132 51.5274 57.1048 51.956 56.5627C52.3847 56.0207 52.6498 55.3675 52.72 54.68C52.7497 54.4839 52.8512 54.3058 53.0048 54.1803C53.1584 54.0548 53.3531 53.9908 53.5512 54.0008C53.7493 54.0107 53.9366 54.0939 54.0769 54.2342C54.2171 54.3745 54.3002 54.5619 54.31 54.76C54.2228 55.7639 53.8468 56.7212 53.2276 57.5161C52.6083 58.3111 51.7721 58.9098 50.82 59.24C50.7361 59.2673 50.6483 59.2808 50.56 59.28Z" fill="#2E2D6F"/>
</g>
<defs>
<clipPath id="clip0_1_159">
<rect width="92" height="92" fill="white"/>
</clipPath>
</defs>
</svg>
