<svg width="92" height="92" viewBox="0 0 92 92" fill="none" xmlns="http://www.w3.org/2000/svg">
<g clip-path="url(#clip0_1_143)">
<path d="M46 92C71.4051 92 92 71.4051 92 46C92 20.5949 71.4051 0 46 0C20.5949 0 0 20.5949 0 46C0 71.4051 20.5949 92 46 92Z" fill="white"/>
<path d="M65.59 55.49C64.7896 54.7034 63.7122 54.2626 62.59 54.2626C61.4677 54.2626 60.3904 54.7034 59.59 55.49L56.85 54.11L54.08 55.11L52.15 54.56L48.62 54.66L39.29 64.04H36.72C36.1314 63.9687 35.5629 63.7807 35.0478 63.4871C34.5326 63.1935 34.0812 62.8001 33.72 62.33C33.3053 61.9107 33.0728 61.3447 33.0728 60.755C33.0728 60.1653 33.3053 59.5993 33.72 59.18L35.37 57.52C35.7697 57.1231 36.0869 56.651 36.3034 56.131C36.5199 55.611 36.6313 55.0533 36.6313 54.49C36.6313 53.9267 36.5199 53.369 36.3034 52.849C36.0869 52.3289 35.7697 51.8569 35.37 51.46L35.15 51.14C34.3457 50.3376 33.256 49.887 32.12 49.887C30.9839 49.887 29.8942 50.3376 29.09 51.14L22.25 57.96V57.75C21.4473 58.6444 20.9317 59.7592 20.77 60.95C20.5524 62.0958 20.015 63.1567 19.22 64.01L9.33997 73.78C12.6534 78.1482 16.7165 81.8931 21.34 84.84L29.45 76.76C31.5567 74.6432 34.3771 73.3881 37.36 73.24H52.43C52.43 73.24 54.51 73.24 57.36 70.36L65.89 61.84C66.6918 61.0374 67.1421 59.9494 67.1421 58.815C67.1421 57.6806 66.6918 56.5925 65.89 55.79L65.59 55.49Z" fill="#A7B0C1"/>
<path d="M40.64 33.88L48.72 47.88L49.72 48.99L51.26 49.68C52.1628 49.844 53.0944 49.6695 53.8766 49.1898C54.6588 48.7102 55.2368 47.959 55.5 47.08V44.92L52.25 39.11L49.25 33.88H40.64Z" fill="#E98135"/>
<path d="M45.15 64.66C45.0659 64.6611 44.9826 64.6447 44.9051 64.612C44.8277 64.5793 44.7579 64.531 44.7 64.47C44.6386 64.4112 44.5897 64.3406 44.5563 64.2624C44.5229 64.1842 44.5057 64.1001 44.5057 64.015C44.5057 63.93 44.5229 63.8459 44.5563 63.7677C44.5897 63.6895 44.6386 63.6188 44.7 63.56L53.22 55.03C54.0801 54.1643 55.2323 53.6506 56.4511 53.5896C57.67 53.5285 58.8677 53.9245 59.81 54.7C59.9426 54.8074 60.0271 54.9631 60.0449 55.1329C60.0627 55.3026 60.0124 55.4724 59.905 55.605C59.7976 55.7376 59.6419 55.8221 59.4722 55.84C59.3024 55.8578 59.1326 55.8074 59 55.7C58.3012 55.1318 57.4165 54.8428 56.5169 54.889C55.6174 54.9352 54.767 55.3132 54.13 55.95L45.61 64.47C45.5506 64.5318 45.4791 64.5805 45.3999 64.6132C45.3207 64.6459 45.2356 64.6619 45.15 64.66Z" fill="#2E2D6F"/>
<path d="M39.03 64.66C38.9459 64.661 38.8626 64.6447 38.7851 64.612C38.7077 64.5793 38.6379 64.5309 38.58 64.47C38.5186 64.4112 38.4697 64.3405 38.4363 64.2623C38.403 64.1841 38.3857 64.1 38.3857 64.015C38.3857 63.9299 38.403 63.8458 38.4363 63.7676C38.4697 63.6894 38.5186 63.6188 38.58 63.56L47.15 55.03C47.609 54.5692 48.1544 54.2036 48.755 53.9541C49.3557 53.7046 49.9996 53.5762 50.65 53.5762C51.3004 53.5762 51.9443 53.7046 52.545 53.9541C53.1456 54.2036 53.691 54.5692 54.15 55.03C54.272 55.152 54.3405 55.3174 54.3405 55.49C54.3405 55.6625 54.272 55.828 54.15 55.95C54.028 56.072 53.8625 56.1405 53.69 56.1405C53.5175 56.1405 53.352 56.072 53.23 55.95C52.5464 55.2721 51.6227 54.8918 50.66 54.8918C49.6973 54.8918 48.7736 55.2721 48.09 55.95L39.57 64.47C39.5019 64.5427 39.4172 64.5979 39.3232 64.631C39.2292 64.6641 39.1286 64.674 39.03 64.66Z" fill="#2E2D6F"/>
<path d="M51.9401 50.38C51.1729 50.3794 50.4193 50.1779 49.7544 49.7954C49.0894 49.4129 48.5362 48.8628 48.1501 48.2L37.2301 29.26C37.1781 29.1863 37.142 29.1026 37.1242 29.0142C37.1063 28.9258 37.1071 28.8346 37.1264 28.7465C37.1456 28.6584 37.183 28.5753 37.2362 28.5024C37.2893 28.4296 37.3571 28.3686 37.4351 28.3233C37.5131 28.278 37.5996 28.2495 37.6893 28.2395C37.7789 28.2295 37.8696 28.2383 37.9557 28.2652C38.0417 28.2922 38.1212 28.3368 38.1891 28.3961C38.257 28.4555 38.3118 28.5283 38.3501 28.61L49.2801 47.56C49.6858 48.2641 50.3547 48.7783 51.1396 48.9892C51.9244 49.2002 52.7609 49.0908 53.4651 48.685C54.1692 48.2792 54.6833 47.6103 54.8943 46.8255C55.1053 46.0406 54.9958 45.2041 54.5901 44.5L43.6501 25.56C43.566 25.4097 43.5441 25.2324 43.5889 25.0661C43.6338 24.8999 43.7418 24.7577 43.8901 24.67C43.9642 24.6271 44.0461 24.5992 44.131 24.5881C44.2159 24.5769 44.3022 24.5826 44.385 24.6049C44.4677 24.6272 44.5451 24.6657 44.613 24.718C44.6808 24.7704 44.7375 24.8356 44.7801 24.91L55.7101 43.84C56.0925 44.5024 56.2939 45.2537 56.2942 46.0185C56.2944 46.7834 56.0935 47.5348 55.7115 48.1974C55.3295 48.8601 54.78 49.4106 54.118 49.7937C53.456 50.1768 52.7049 50.379 51.9401 50.38Z" fill="#2E2D6F"/>
<path d="M36.3601 30.16C35.8617 30.1611 35.3769 29.9974 34.9812 29.6943C34.5855 29.3913 34.301 28.966 34.1721 28.4846C34.0432 28.0031 34.0771 27.4926 34.2684 27.0324C34.4597 26.5722 34.7978 26.1881 35.2301 25.94L42.6801 21.63C43.2009 21.335 43.817 21.2567 44.3951 21.412C44.9732 21.5673 45.4671 21.9437 45.7701 22.46C46.0709 22.9812 46.1524 23.6005 45.9968 24.1818C45.8411 24.7631 45.4611 25.2588 44.9401 25.56L37.4901 29.86C37.1466 30.0583 36.7566 30.1618 36.3601 30.16ZM43.8101 22.62C43.6417 22.6222 43.4766 22.6669 43.3301 22.75L35.8701 27.06C35.7085 27.217 35.6048 27.424 35.5756 27.6474C35.5464 27.8708 35.5935 28.0974 35.7092 28.2907C35.8249 28.484 36.0025 28.6325 36.2132 28.7123C36.4239 28.792 36.6554 28.7982 36.8701 28.73L44.3201 24.43C44.5366 24.2969 44.6943 24.0864 44.7611 23.8412C44.828 23.596 44.799 23.3346 44.6801 23.11C44.6183 22.9981 44.534 22.9004 44.4324 22.8229C44.3309 22.7454 44.2143 22.6899 44.0901 22.66C43.9989 22.6346 43.9047 22.6211 43.8101 22.62Z" fill="#2E2D6F"/>
<path d="M49.21 34.56H40.64C40.4676 34.56 40.3023 34.4915 40.1804 34.3696C40.0585 34.2477 39.99 34.0824 39.99 33.91C39.99 33.7376 40.0585 33.5723 40.1804 33.4504C40.3023 33.3285 40.4676 33.26 40.64 33.26H49.21C49.2954 33.26 49.3799 33.2768 49.4587 33.3095C49.5376 33.3422 49.6093 33.39 49.6696 33.4504C49.73 33.5107 49.7778 33.5824 49.8105 33.6613C49.8432 33.7401 49.86 33.8246 49.86 33.91C49.86 33.9954 49.8432 34.0799 49.8105 34.1588C49.7778 34.2376 49.73 34.3093 49.6696 34.3696C49.6093 34.43 49.5376 34.4779 49.4587 34.5105C49.3799 34.5432 49.2954 34.56 49.21 34.56Z" fill="#2E2D6F"/>
<path d="M57.28 35.11C56.9031 35.1103 56.5312 35.024 56.1929 34.8577C55.8546 34.6915 55.5591 34.4497 55.3291 34.1511C55.0991 33.8525 54.9408 33.505 54.8664 33.1355C54.792 32.766 54.8035 32.3843 54.9 32.02C54.985 31.7124 55.1305 31.4248 55.328 31.1741C55.5254 30.9234 55.7709 30.7147 56.05 30.56L60.15 28.14C60.43 27.9718 60.7407 27.861 61.0639 27.8142C61.3872 27.7673 61.7165 27.7853 62.0327 27.8671C62.349 27.9489 62.6457 28.0928 62.9057 28.2905C63.1657 28.4882 63.3838 28.7357 63.5471 29.0186C63.7104 29.3014 63.8158 29.614 63.8571 29.938C63.8983 30.262 63.8747 30.591 63.7874 30.9057C63.7002 31.2205 63.5512 31.5147 63.349 31.7713C63.1469 32.0278 62.8957 32.2415 62.61 32.4L58.48 34.78C58.1155 34.9923 57.7019 35.106 57.28 35.11ZM61.4 29.11C61.1971 29.1097 60.9974 29.1613 60.82 29.26L56.69 31.65C56.4247 31.8029 56.2306 32.0545 56.15 32.35C56.1096 32.4972 56.0993 32.651 56.12 32.8023C56.1406 32.9535 56.1916 33.099 56.27 33.23C56.3457 33.3631 56.4471 33.4799 56.5681 33.5736C56.6892 33.6673 56.8276 33.7362 56.9755 33.7762C57.1233 33.8161 57.2775 33.8265 57.4294 33.8065C57.5812 33.7866 57.7276 33.7368 57.86 33.66L61.98 31.28C62.1131 31.2043 62.2299 31.1029 62.3237 30.9819C62.4174 30.8608 62.4862 30.7224 62.5262 30.5745C62.5662 30.4267 62.5765 30.2725 62.5566 30.1206C62.5366 29.9688 62.4868 29.8224 62.41 29.69C62.3062 29.5142 62.1586 29.3683 61.9816 29.2667C61.8045 29.165 61.6042 29.111 61.4 29.11Z" fill="#2E2D6F"/>
<path d="M52.15 30.49C51.9166 30.4868 51.6847 30.4532 51.46 30.39C50.8455 30.2063 50.327 29.7899 50.0151 29.2295C49.7031 28.6691 49.6224 28.0091 49.79 27.39L51.12 22.82C51.3037 22.2055 51.7201 21.687 52.2805 21.375C52.8409 21.0631 53.5009 20.9823 54.12 21.15C54.431 21.2394 54.7212 21.3897 54.9736 21.5923C55.2259 21.7949 55.4355 22.0456 55.59 22.33C55.8996 22.9029 55.9714 23.5746 55.79 24.2L54.45 28.77C54.362 29.0804 54.2121 29.3698 54.0093 29.6207C53.8065 29.8716 53.555 30.0789 53.27 30.23C52.9242 30.4089 52.5392 30.4982 52.15 30.49ZM53.48 22.29C53.2286 22.2894 52.9839 22.3713 52.7835 22.523C52.583 22.6747 52.4378 22.8879 52.37 23.13L51.03 27.7C50.9638 27.9206 50.9647 28.1559 51.0327 28.376C51.1007 28.596 51.2326 28.7909 51.4118 28.9357C51.5909 29.0805 51.809 29.1687 52.0385 29.189C52.2679 29.2094 52.4982 29.161 52.7 29.05C52.9681 28.9001 53.1685 28.6532 53.26 28.36L54.6 23.78C54.6833 23.4849 54.6474 23.1689 54.5 22.9C54.3501 22.6319 54.1032 22.4315 53.81 22.34C53.6898 22.305 53.5651 22.2882 53.44 22.29H53.48Z" fill="#2E2D6F"/>
<path d="M63.22 42.92C62.9864 42.9212 62.7538 42.8875 62.53 42.82L57.96 41.48C57.6508 41.3894 57.3624 41.2388 57.1114 41.0367C56.8603 40.8346 56.6515 40.5851 56.4969 40.3024C56.3423 40.0196 56.2449 39.7092 56.2103 39.3888C56.1756 39.0684 56.2044 38.7443 56.295 38.435C56.3857 38.1258 56.5363 37.8374 56.7384 37.5863C56.9404 37.3353 57.19 37.1265 57.4727 36.9719C57.7555 36.8173 58.0659 36.7199 58.3863 36.6852C58.7067 36.6506 59.0308 36.6794 59.34 36.77L63.91 38.1C64.4773 38.2669 64.9655 38.6325 65.2852 39.1299C65.6049 39.6274 65.7348 40.2233 65.651 40.8086C65.5672 41.394 65.2754 41.9295 64.8289 42.3173C64.3825 42.705 63.8114 42.919 63.22 42.92ZM58.65 37.92C58.3973 37.9189 58.1512 38.0004 57.949 38.152C57.7469 38.3036 57.5998 38.5171 57.53 38.76C57.4462 39.0557 57.4821 39.3725 57.6299 39.6419C57.7777 39.9114 58.0256 40.1119 58.32 40.2L62.89 41.56C63.1885 41.6428 63.5074 41.607 63.78 41.46C63.981 41.3499 64.1449 41.1826 64.2509 40.9794C64.3569 40.7762 64.4004 40.5462 64.3758 40.3183C64.3512 40.0904 64.2596 39.8749 64.1126 39.699C63.9657 39.5232 63.7699 39.3947 63.55 39.33L58.97 37.99C58.8651 37.9663 58.7576 37.9562 58.65 37.96V37.92Z" fill="#2E2D6F"/>
<path d="M33.48 48.85C33.2643 48.8486 33.0495 48.8218 32.84 48.77C32.527 48.6886 32.2336 48.5448 31.9776 48.3471C31.7215 48.1495 31.5081 47.9022 31.35 47.62C31.1884 47.3416 31.0831 47.0341 31.0404 46.7151C30.9976 46.396 31.0182 46.0717 31.1008 45.7606C31.1835 45.4494 31.3266 45.1577 31.5221 44.9019C31.7176 44.6462 31.9615 44.4314 32.24 44.27L36.37 41.89C36.6495 41.7263 36.9588 41.6199 37.2799 41.5769C37.6009 41.534 37.9273 41.5554 38.24 41.64C38.7113 41.7634 39.135 42.0245 39.4572 42.3899C39.7793 42.7554 39.9852 43.2085 40.0485 43.6915C40.1118 44.1746 40.0297 44.6655 39.8127 45.1016C39.5956 45.5377 39.2535 45.8993 38.83 46.14L34.7 48.56C34.3257 48.7617 33.9051 48.8617 33.48 48.85ZM37.6 42.85C37.3956 42.8484 37.1947 42.9038 37.02 43.01L32.89 45.39C32.6512 45.5563 32.4836 45.8064 32.4205 46.0905C32.3575 46.3746 32.4035 46.6721 32.5496 46.9239C32.6956 47.1756 32.9309 47.3633 33.2089 47.4496C33.4868 47.536 33.787 47.5147 34.05 47.39L38.15 45.02C38.3503 44.9059 38.5121 44.7347 38.6147 44.5282C38.7172 44.3218 38.756 44.0894 38.7259 43.8609C38.6959 43.6323 38.5984 43.4179 38.446 43.245C38.2935 43.072 38.093 42.9485 37.87 42.89C37.7823 42.8644 37.6914 42.8509 37.6 42.85Z" fill="#2E2D6F"/>
<path d="M36.4899 39.84C36.2563 39.8412 36.0237 39.8075 35.7999 39.74L31.2299 38.4C30.6054 38.217 30.0791 37.7934 29.7668 37.2223C29.4546 36.6513 29.3819 35.9796 29.5649 35.355C29.7479 34.7304 30.1716 34.2041 30.7426 33.8919C31.3137 33.5796 31.9854 33.507 32.6099 33.69L37.1499 35.02C37.7172 35.1869 38.2054 35.5525 38.5251 36.0499C38.8448 36.5473 38.9747 37.1433 38.8909 37.7286C38.8071 38.314 38.5153 38.8495 38.0688 39.2373C37.6224 39.625 37.0513 39.839 36.4599 39.84H36.4899ZM31.9099 34.84C31.7165 34.8398 31.5265 34.8917 31.3599 34.99C31.159 35.1002 30.9951 35.2674 30.8891 35.4706C30.7831 35.6738 30.7396 35.9039 30.7642 36.1318C30.7888 36.3596 30.8804 36.5751 31.0273 36.751C31.1743 36.9269 31.3701 37.0553 31.5899 37.12L36.1499 38.5C36.2964 38.5433 36.4499 38.5574 36.6018 38.5414C36.7536 38.5254 36.9008 38.4797 37.035 38.4068C37.1692 38.3339 37.2877 38.2353 37.3838 38.1166C37.4799 37.9979 37.5516 37.8614 37.5949 37.715C37.6383 37.5686 37.6524 37.4151 37.6364 37.2632C37.6204 37.1113 37.5746 36.9641 37.5017 36.8299C37.4288 36.6957 37.3302 36.5772 37.2115 36.4812C37.0928 36.3851 36.9564 36.3133 36.8099 36.27L32.23 34.93C32.1259 34.8996 32.0183 34.8828 31.9099 34.88V34.84Z" fill="#2E2D6F"/>
<path d="M41.35 55.25C41.1163 55.2511 40.8837 55.2174 40.66 55.15C40.044 54.9685 39.5239 54.5525 39.2116 53.9915C38.8992 53.4304 38.8197 52.7691 38.99 52.15L40.33 47.56C40.4179 47.2496 40.5678 46.9602 40.7706 46.7093C40.9734 46.4584 41.2249 46.2511 41.51 46.1C41.7903 45.9427 42.0993 45.8431 42.4188 45.807C42.7382 45.771 43.0616 45.7992 43.37 45.89C43.9967 46.0735 44.5252 46.4978 44.84 47.07C44.9975 47.3522 45.0964 47.6632 45.1308 47.9846C45.1651 48.3059 45.1343 48.6309 45.04 48.94L43.71 53.51C43.5623 54.0213 43.252 54.4706 42.8262 54.79C42.4004 55.1093 41.8822 55.2813 41.35 55.28V55.25ZM42.68 47.06C42.488 47.0612 42.2992 47.1093 42.13 47.2C41.8619 47.3498 41.6615 47.5968 41.57 47.89L40.23 52.47C40.1488 52.7656 40.1859 53.0812 40.3333 53.35C40.4808 53.6188 40.727 53.8196 41.02 53.91C41.1664 53.9542 41.3201 53.9689 41.4723 53.953C41.6244 53.9371 41.7718 53.891 41.9059 53.8174C42.04 53.7439 42.1581 53.6443 42.2532 53.5245C42.3483 53.4048 42.4186 53.2672 42.46 53.12L43.8 48.56C43.8437 48.4125 43.8574 48.2577 43.8402 48.1048C43.823 47.952 43.7753 47.8041 43.7 47.67C43.6297 47.5353 43.5319 47.4168 43.4131 47.322C43.2943 47.2273 43.157 47.1585 43.01 47.12C42.9041 47.0815 42.7926 47.0613 42.68 47.06Z" fill="#2E2D6F"/>
<path d="M66.05 55.03C65.591 54.5692 65.0455 54.2036 64.4449 53.9541C63.8443 53.7046 63.2003 53.5762 62.55 53.5762C61.8996 53.5762 61.2556 53.7046 60.655 53.9541C60.0544 54.2036 59.5089 54.5692 59.05 55.03L50.75 63.37H36.75C35.7576 63.2023 34.8649 62.6667 34.25 61.87C34.1009 61.723 33.9825 61.5479 33.9017 61.3547C33.821 61.1616 33.7794 60.9543 33.7794 60.745C33.7794 60.5357 33.821 60.3284 33.9017 60.1353C33.9825 59.9421 34.1009 59.767 34.25 59.62L35.9 57.98C36.3644 57.5231 36.7332 56.9783 36.985 56.3774C37.2367 55.7765 37.3664 55.1315 37.3664 54.48C37.3664 53.8285 37.2367 53.1835 36.985 52.5826C36.7332 51.9817 36.3644 51.4369 35.9 50.98L35.61 50.68C35.151 50.2192 34.6055 49.8536 34.0049 49.6041C33.4043 49.3546 32.7603 49.2262 32.11 49.2262C31.4596 49.2262 30.8156 49.3546 30.215 49.6041C29.6144 49.8536 29.0689 50.2192 28.61 50.68L22.15 57.11C21.9955 57.1216 21.8519 57.1934 21.75 57.31C20.8595 58.3015 20.3003 59.5459 20.15 60.87C19.9444 61.878 19.4632 62.8092 18.76 63.56L8.94995 73.26C9.20995 73.61 9.46995 73.95 9.73995 74.26L19.67 64.44C20.5705 63.4937 21.1752 62.3051 21.41 61.02C21.4052 61.0037 21.4052 60.9863 21.41 60.97C21.5169 60.0904 21.8627 59.2569 22.41 58.56C22.5252 58.53 22.6293 58.4675 22.71 58.38L29.5299 51.56C29.8665 51.2208 30.2668 50.9515 30.7079 50.7678C31.149 50.584 31.6221 50.4894 32.1 50.4894C32.5778 50.4894 33.0509 50.584 33.492 50.7678C33.9331 50.9515 34.3334 51.2208 34.67 51.56L34.97 51.85C35.6478 52.5336 36.0281 53.4573 36.0281 54.42C36.0281 55.3827 35.6478 56.3064 34.97 56.99L33.31 58.65C32.7823 59.1819 32.4863 59.9008 32.4863 60.65C32.4863 61.3992 32.7823 62.1181 33.31 62.65C33.7271 63.1815 34.2464 63.6243 34.8371 63.9523C35.4279 64.2803 36.0782 64.4869 36.75 64.56H51.01C51.0954 64.5606 51.1802 64.5442 51.2592 64.5115C51.3382 64.4789 51.4099 64.4308 51.47 64.37L59.99 55.85C60.6735 55.1722 61.5973 54.7918 62.56 54.7918C63.5226 54.7918 64.4464 55.1722 65.13 55.85L65.43 56.15C66.1078 56.8336 66.4881 57.7573 66.4881 58.72C66.4881 59.6827 66.1078 60.6064 65.43 61.29L56.91 69.81C54.36 72.45 52.51 72.56 52.42 72.56H37.36C34.1988 72.6924 31.2065 74.0223 28.99 76.28L20.81 84.45C21.18 84.7 21.55 84.94 21.93 85.17L29.93 77.17C29.93 77.17 33.1 73.86 37.37 73.86H52.44C52.53 73.86 54.81 73.8 57.82 70.79L66.34 62.27C66.8044 61.8131 67.1732 61.2683 67.425 60.6674C67.6767 60.0665 67.8064 59.4215 67.8064 58.77C67.8064 58.1185 67.6767 57.4735 67.425 56.8726C67.1732 56.2717 66.8044 55.7269 66.34 55.27L66.05 55.03Z" fill="#2E2D6F"/>
</g>
<defs>
<clipPath id="clip0_1_143">
<rect width="92" height="92" fill="white"/>
</clipPath>
</defs>
</svg>
