<svg width="92" height="92" viewBox="0 0 92 92" fill="none" xmlns="http://www.w3.org/2000/svg">
<g clip-path="url(#clip0_1_61)">
<path d="M46 92C71.4051 92 92 71.4051 92 46C92 20.5949 71.4051 0 46 0C20.5949 0 0 20.5949 0 46C0 71.4051 20.5949 92 46 92Z" fill="white"/>
<path d="M69.44 45.16H45.2V54.71H69.44V45.16Z" fill="#A7B0C1"/>
<path d="M69.44 58.33H45.2V67.66H69.44V58.33Z" fill="#A7B0C1"/>
<path d="M45.26 66.01H23.29V48.67H45.26V54.33L43.4 56.52L45.26 58.56V66.01Z" fill="#4B5EAA"/>
<path d="M44.45 41.55L43.4 43.35H23.29V26.02H56.31V41.55H44.45Z" fill="#4B5EAA"/>
<path d="M61.25 58.66C61.2769 59.1948 61.1948 59.7294 61.0087 60.2315C60.8226 60.7336 60.5364 61.1926 60.1674 61.5806C59.7985 61.9686 59.3544 62.2776 58.8624 62.4887C58.3703 62.6998 57.8404 62.8087 57.305 62.8087C56.7695 62.8087 56.2397 62.6998 55.7476 62.4887C55.2555 62.2776 54.8115 61.9686 54.4425 61.5806C54.0736 61.1926 53.7873 60.7336 53.6012 60.2315C53.4151 59.7294 53.333 59.1948 53.36 58.66C53.36 56.48 57.31 49.94 57.31 49.94C57.31 49.94 61.25 56.48 61.25 58.66Z" fill="#E98135"/>
<path d="M30.19 26.02V33.83C30.1899 34.0593 30.2357 34.2863 30.3246 34.4976C30.4136 34.709 30.5439 34.9004 30.7079 35.0606C30.8718 35.2209 31.0662 35.3467 31.2795 35.4308C31.4928 35.5148 31.7208 35.5554 31.95 35.55C32.4062 35.55 32.8437 35.3688 33.1662 35.0463C33.4888 34.7237 33.67 34.2862 33.67 33.83V31.99C33.6687 31.7633 33.7122 31.5386 33.7981 31.3287C33.8839 31.1189 34.0104 30.9281 34.1702 30.7673C34.3301 30.6066 34.5202 30.479 34.7295 30.3919C34.9388 30.3048 35.1633 30.26 35.39 30.26C35.6167 30.26 35.8412 30.3048 36.0505 30.3919C36.2599 30.479 36.4499 30.6066 36.6098 30.7673C36.7696 30.9281 36.8961 31.1189 36.982 31.3287C37.0678 31.5386 37.1113 31.7633 37.11 31.99V37.48C37.1127 37.9371 37.2961 38.3746 37.6202 38.6969C37.9444 39.0191 38.3829 39.2001 38.84 39.2C39.2962 39.2 39.7337 39.0188 40.0562 38.6963C40.3788 38.3737 40.56 37.9362 40.56 37.48V26.02H30.19Z" fill="#E98135"/>
<path d="M45.29 49.42H23.29C22.4112 49.42 21.5683 49.0716 20.9459 48.4511C20.3236 47.8307 19.9726 46.9888 19.97 46.11V46C19.97 45.1195 20.3198 44.275 20.9424 43.6524C21.565 43.0298 22.4095 42.68 23.29 42.68H43.4V44.13H23.29C22.794 44.13 22.3184 44.327 21.9677 44.6777C21.617 45.0284 21.42 45.504 21.42 46V46.11C21.4226 46.6042 21.6208 47.0773 21.9712 47.4258C22.3216 47.7744 22.7958 47.97 23.29 47.97H45.29V49.42Z" fill="#2E2D6F"/>
<path d="M56.27 72H23.27C22.3912 72 21.5483 71.6516 20.9259 71.0311C20.3036 70.4107 19.9527 69.5688 19.95 68.69V68.58C19.95 67.6995 20.2998 66.855 20.9224 66.2324C21.545 65.6098 22.3895 65.26 23.27 65.26H45.27V66.75H23.27C23.0244 66.75 22.7813 66.7984 22.5544 66.8923C22.3275 66.9863 22.1214 67.1241 21.9477 67.2977C21.7741 67.4713 21.6363 67.6775 21.5424 67.9044C21.4484 68.1313 21.4 68.3744 21.4 68.62V68.73C21.4027 69.2242 21.6008 69.6973 21.9512 70.0458C22.3016 70.3944 22.7758 70.59 23.27 70.59H56.27V72Z" fill="#2E2D6F"/>
<path d="M23.97 48.69H22.52V65.98H23.97V48.69Z" fill="#2E2D6F"/>
<path d="M24.01 26.01H22.56V43.41H24.01V26.01Z" fill="#2E2D6F"/>
<path d="M57.03 26.01H55.58V41.55H57.03V26.01Z" fill="#2E2D6F"/>
<path d="M38.81 39.92C38.1619 39.92 37.5403 39.6633 37.0811 39.206C36.6219 38.7487 36.3626 38.1281 36.36 37.48V31.99C36.36 31.7248 36.2546 31.4705 36.0671 31.2829C35.8795 31.0954 35.6252 30.99 35.36 30.99C35.0948 30.99 34.8404 31.0954 34.6529 31.2829C34.4653 31.4705 34.36 31.7248 34.36 31.99V33.83C34.3814 34.1643 34.334 34.4993 34.2208 34.8145C34.1076 35.1298 33.931 35.4184 33.7018 35.6627C33.4727 35.9069 33.1959 36.1016 32.8886 36.2347C32.5812 36.3678 32.2499 36.4365 31.915 36.4365C31.5801 36.4365 31.2487 36.3678 30.9414 36.2347C30.634 36.1016 30.3572 35.9069 30.1281 35.6627C29.899 35.4184 29.7224 35.1298 29.6092 34.8145C29.496 34.4993 29.4486 34.1643 29.47 33.83V26.02H30.95V33.83C30.95 34.0952 31.0553 34.3496 31.2429 34.5371C31.4304 34.7247 31.6848 34.83 31.95 34.83C32.2152 34.83 32.4695 34.7247 32.6571 34.5371C32.8446 34.3496 32.95 34.0952 32.95 33.83V31.99C32.95 31.3402 33.2081 30.7171 33.6676 30.2576C34.127 29.7982 34.7502 29.54 35.4 29.54C36.0498 29.54 36.6729 29.7982 37.1324 30.2576C37.5918 30.7171 37.85 31.3402 37.85 31.99V37.48C37.85 37.7453 37.9553 37.9996 38.1429 38.1871C38.3304 38.3747 38.5848 38.48 38.85 38.48C39.1152 38.48 39.3696 38.3747 39.5571 38.1871C39.7446 37.9996 39.85 37.7453 39.85 37.48V26.02H41.31V37.48C41.3087 37.8052 41.2428 38.1268 41.1159 38.4262C40.9891 38.7256 40.8039 38.9968 40.5713 39.2239C40.3386 39.451 40.063 39.6295 39.7606 39.749C39.4582 39.8685 39.135 39.9267 38.81 39.92Z" fill="#2E2D6F"/>
<path d="M53.08 59.06H45.21C44.5652 59.0195 43.96 58.7348 43.5178 58.2638C43.0755 57.7929 42.8293 57.1711 42.8293 56.525C42.8293 55.8789 43.0755 55.2571 43.5178 54.7862C43.96 54.3152 44.5652 54.0305 45.21 53.99H54.49V55.44H45.21C44.9402 55.4659 44.6897 55.5914 44.5075 55.7921C44.3252 55.9927 44.2243 56.254 44.2243 56.525C44.2243 56.796 44.3252 57.0574 44.5075 57.258C44.6897 57.4586 44.9402 57.5841 45.21 57.61H53.08V59.06Z" fill="#2E2D6F"/>
<path d="M69.54 59.06H61.73V57.61H69.54C69.8098 57.5841 70.0602 57.4586 70.2425 57.258C70.4247 57.0574 70.5257 56.796 70.5257 56.525C70.5257 56.254 70.4247 55.9927 70.2425 55.7921C70.0602 55.5914 69.8098 55.4659 69.54 55.44H60.1V53.99H69.54C70.1848 54.0305 70.7899 54.3152 71.2322 54.7862C71.6745 55.2571 71.9207 55.8789 71.9207 56.525C71.9207 57.1711 71.6745 57.7929 71.2322 58.2638C70.7899 58.7348 70.1848 59.0195 69.54 59.06Z" fill="#2E2D6F"/>
<path d="M69.51 72H45.18C44.509 72 43.8655 71.7334 43.391 71.259C42.9166 70.7845 42.65 70.141 42.65 69.47C42.65 68.799 42.9166 68.1555 43.391 67.681C43.8655 67.2066 44.509 66.94 45.18 66.94H69.51C70.181 66.94 70.8245 67.2066 71.299 67.681C71.7734 68.1555 72.04 68.799 72.04 69.47C72.04 70.141 71.7734 70.7845 71.299 71.259C70.8245 71.7334 70.181 72 69.51 72ZM45.18 68.39C44.8936 68.39 44.6189 68.5038 44.4164 68.7063C44.2138 68.9089 44.1 69.1836 44.1 69.47C44.1 69.7564 44.2138 70.0311 44.4164 70.2337C44.6189 70.4362 44.8936 70.55 45.18 70.55H69.51C69.7964 70.55 70.0711 70.4362 70.2737 70.2337C70.4762 70.0311 70.59 69.7564 70.59 69.47C70.59 69.1836 70.4762 68.9089 70.2737 68.7063C70.0711 68.5038 69.7964 68.39 69.51 68.39H45.18Z" fill="#2E2D6F"/>
<path d="M45.99 58.33H44.54V67.66H45.99V58.33Z" fill="#2E2D6F"/>
<path d="M46.02 45.16H44.57V54.72H46.02V45.16Z" fill="#2E2D6F"/>
<path d="M70.17 45.16H68.72V54.72H70.17V45.16Z" fill="#2E2D6F"/>
<path d="M69.54 45.89H45.21C44.5652 45.8495 43.96 45.5648 43.5178 45.0938C43.0755 44.6229 42.8293 44.0011 42.8293 43.355C42.8293 42.7089 43.0755 42.0871 43.5178 41.6162C43.96 41.1452 44.5652 40.8605 45.21 40.82H69.54C70.1848 40.8605 70.7899 41.1452 71.2322 41.6162C71.6745 42.0871 71.9207 42.7089 71.9207 43.355C71.9207 44.0011 71.6745 44.6229 71.2322 45.0938C70.7899 45.5648 70.1848 45.8495 69.54 45.89ZM45.21 42.28C44.9236 42.28 44.6489 42.3938 44.4463 42.5963C44.2438 42.7989 44.13 43.0736 44.13 43.36C44.13 43.6464 44.2438 43.9211 44.4463 44.1237C44.6489 44.3262 44.9236 44.44 45.21 44.44H69.54C69.8264 44.44 70.1011 44.3262 70.3036 44.1237C70.5062 43.9211 70.62 43.6464 70.62 43.36C70.62 43.0736 70.5062 42.7989 70.3036 42.5963C70.1011 42.3938 69.8264 42.28 69.54 42.28H45.21Z" fill="#2E2D6F"/>
<path d="M70.17 58.22H68.72V67.78H70.17V58.22Z" fill="#2E2D6F"/>
<path d="M57.31 63.33C56.0714 63.33 54.8836 62.838 54.0078 61.9622C53.132 61.0864 52.64 59.8986 52.64 58.66C52.64 56.35 56.27 50.25 56.69 49.56L57.31 48.56L57.93 49.56C58.34 50.25 61.93 56.35 61.93 58.66C61.9275 59.8892 61.4415 61.068 60.5771 61.9418C59.7126 62.8156 58.5391 63.3142 57.31 63.33ZM57.31 51.33C55.87 53.85 54.09 57.33 54.09 58.62C54.09 59.474 54.4293 60.293 55.0331 60.8969C55.637 61.5007 56.456 61.84 57.31 61.84C58.164 61.84 58.983 61.5007 59.5869 60.8969C60.1908 60.293 60.53 59.474 60.53 58.62C60.53 57.41 58.75 53.89 57.31 51.37V51.33Z" fill="#2E2D6F"/>
<path d="M56.31 26.75H23.31C22.4312 26.75 21.5882 26.4016 20.9659 25.7811C20.3436 25.1607 19.9926 24.3188 19.99 23.44V23.33C19.99 22.4495 20.3398 21.605 20.9624 20.9824C21.585 20.3598 22.4294 20.01 23.31 20.01H56.31C57.1905 20.01 58.0349 20.3598 58.6576 20.9824C59.2802 21.605 59.63 22.4495 59.63 23.33V23.44C59.6273 24.3188 59.2764 25.1607 58.6541 25.7811C58.0317 26.4016 57.1888 26.75 56.31 26.75ZM23.31 21.46C22.814 21.46 22.3384 21.657 21.9877 22.0077C21.637 22.3584 21.44 22.834 21.44 23.33V23.44C21.4426 23.9342 21.6408 24.4073 21.9912 24.7558C22.3416 25.1044 22.8157 25.3 23.31 25.3H56.31C56.8042 25.3 57.2783 25.1044 57.6288 24.7558C57.9792 24.4073 58.1773 23.9342 58.18 23.44V23.33C58.18 22.834 57.983 22.3584 57.6323 22.0077C57.2816 21.657 56.8059 21.46 56.31 21.46H23.31Z" fill="#2E2D6F"/>
</g>
<defs>
<clipPath id="clip0_1_61">
<rect width="92" height="92" fill="white"/>
</clipPath>
</defs>
</svg>
