<svg width="92" height="92" viewBox="0 0 92 92" fill="none" xmlns="http://www.w3.org/2000/svg">
<g clip-path="url(#clip0_1_132)">
<path d="M46 92C71.4051 92 92 71.4051 92 46C92 20.5949 71.4051 0 46 0C20.5949 0 0 20.5949 0 46C0 71.4051 20.5949 92 46 92Z" fill="white"/>
<path d="M42.15 59.31L35.45 70.9C35.3741 71.0334 35.2615 71.1421 35.1255 71.2133C34.9896 71.2844 34.836 71.3149 34.6832 71.3012C34.5304 71.2875 34.3847 71.2302 34.2635 71.136C34.1424 71.0418 34.0509 70.9147 34 70.77L32 64.96C31.9365 64.7803 31.8109 64.6293 31.6459 64.5339C31.4809 64.4386 31.2873 64.4053 31.1 64.44L25.1 65.61C24.943 65.6673 24.7721 65.6741 24.6111 65.6293C24.4501 65.5845 24.3072 65.4904 24.2024 65.3603C24.0976 65.2301 24.0362 65.0704 24.0268 64.9035C24.0174 64.7367 24.0605 64.5711 24.15 64.43L30.94 52.63" fill="#4B5EAA"/>
<path d="M49.88 59.31L56.55 70.9C56.6269 71.0305 56.7392 71.1364 56.874 71.2056C57.0087 71.2747 57.1603 71.3042 57.3111 71.2906C57.462 71.2769 57.6058 71.2208 57.726 71.1286C57.8462 71.0365 57.9377 70.9121 57.99 70.77L59.99 64.96C60.0535 64.7803 60.1791 64.6293 60.344 64.5339C60.509 64.4386 60.7026 64.4053 60.89 64.44L66.89 65.61C67.0395 65.6372 67.1937 65.6212 67.3344 65.564C67.4752 65.5068 67.5967 65.4106 67.6849 65.2869C67.773 65.1631 67.824 65.0167 67.832 64.865C67.84 64.7133 67.8046 64.5624 67.73 64.43L60.94 52.63" fill="#4B5EAA"/>
<path d="M46 20.7C42.1433 20.7 38.3731 21.8437 35.1664 23.9864C31.9596 26.129 29.4603 29.1745 27.9844 32.7377C26.5084 36.3008 26.1223 40.2216 26.8747 44.0043C27.6271 47.7869 29.4843 51.2615 32.2114 53.9886C34.9385 56.7157 38.4131 58.5729 42.1957 59.3253C45.9784 60.0777 49.8992 59.6916 53.4623 58.2157C57.0255 56.7398 60.071 54.2404 62.2137 51.0336C64.3564 47.8269 65.5 44.0567 65.5 40.2C65.5 35.0283 63.4456 30.0684 59.7886 26.4114C56.1316 22.7545 51.1717 20.7 46 20.7ZM46 54.45C43.1792 54.45 40.4218 53.6134 38.0765 52.0461C35.7313 50.4787 33.9035 48.251 32.8245 45.6448C31.7455 43.0385 31.4637 40.1708 32.0147 37.4043C32.5658 34.6379 33.9249 32.097 35.9202 30.1031C37.9155 28.1092 40.4573 26.7519 43.2242 26.2028C45.991 25.6537 48.8585 25.9375 51.464 27.0184C54.0695 28.0992 56.2959 29.9285 57.8616 32.2749C59.4273 34.6212 60.262 37.3792 60.26 40.2C60.2574 43.9803 58.7538 47.6048 56.0798 50.2769C53.4058 52.949 49.7803 54.45 46 54.45Z" fill="#A7B0C1"/>
<path d="M46.59 31.7L48.59 35.79C48.6381 35.8839 48.7075 35.9654 48.7925 36.0278C48.8776 36.0903 48.976 36.1322 49.08 36.15L53.59 36.8C53.7131 36.8165 53.8291 36.8673 53.9246 36.9467C54.0201 37.0261 54.0912 37.1308 54.1299 37.2488C54.1685 37.3669 54.1731 37.4934 54.143 37.6139C54.113 37.7344 54.0495 37.844 53.96 37.93L50.7 41.11C50.6218 41.1827 50.5633 41.274 50.5301 41.3755C50.4969 41.4769 50.4899 41.5852 50.51 41.69L51.28 46.18C51.3038 46.3066 51.2905 46.4374 51.2419 46.5566C51.1932 46.6759 51.1112 46.7786 51.0057 46.8525C50.9002 46.9263 50.7756 46.9682 50.6469 46.9731C50.5182 46.978 50.3908 46.9457 50.28 46.88L46.28 44.76C46.1841 44.7109 46.0778 44.6853 45.97 44.6853C45.8622 44.6853 45.756 44.7109 45.66 44.76L41.66 46.88C41.5492 46.9457 41.4218 46.978 41.2931 46.9731C41.1644 46.9682 41.0398 46.9263 40.9343 46.8525C40.8288 46.7786 40.7468 46.6759 40.6981 46.5566C40.6495 46.4374 40.6363 46.3066 40.66 46.18L41.43 41.69C41.4501 41.5852 41.4432 41.4769 41.4099 41.3755C41.3767 41.274 41.3182 41.1827 41.24 41.11L37.98 37.93C37.8907 37.8446 37.8271 37.7358 37.7966 37.6161C37.7661 37.4963 37.7697 37.3704 37.8073 37.2526C37.8448 37.1349 37.9146 37.03 38.0088 36.95C38.103 36.87 38.2177 36.818 38.34 36.8L42.86 36.15C42.964 36.1322 43.0624 36.0903 43.1475 36.0278C43.2325 35.9654 43.3019 35.8839 43.35 35.79L45.35 31.7C45.3964 31.5729 45.4808 31.4631 45.5917 31.3855C45.7026 31.3079 45.8347 31.2663 45.97 31.2663C46.1054 31.2663 46.2374 31.3079 46.3483 31.3855C46.4592 31.4631 46.5436 31.5729 46.59 31.7Z" fill="#E98135"/>
<path d="M41.35 47.66C41.1521 47.6568 40.9571 47.6111 40.7784 47.5259C40.5997 47.4407 40.4415 47.318 40.3144 47.1663C40.1873 47.0145 40.0943 46.8371 40.0418 46.6463C39.9893 46.4554 39.9784 46.2554 40.01 46.06L40.78 41.56L37.53 38.4C37.3489 38.2213 37.2212 37.9956 37.1611 37.7483C37.1011 37.501 37.1111 37.2419 37.19 37C37.2667 36.7596 37.4096 36.5457 37.6024 36.3829C37.7953 36.2202 38.0301 36.1152 38.28 36.08L42.77 35.43L44.77 31.36C44.8822 31.1322 45.056 30.9404 45.2716 30.8062C45.4872 30.6721 45.7361 30.601 45.99 30.601C46.244 30.601 46.4928 30.6721 46.7084 30.8062C46.9241 30.9404 47.0978 31.1322 47.21 31.36L49.21 35.43L53.7 36.08C53.9499 36.1152 54.1848 36.2202 54.3776 36.3829C54.5704 36.5457 54.7134 36.7596 54.79 37C54.869 37.2419 54.879 37.501 54.8189 37.7483C54.7589 37.9956 54.6311 38.2213 54.45 38.4L51.22 41.56L51.99 46.03C52.0354 46.2801 52.0087 46.5379 51.9131 46.7734C51.8175 47.0089 51.6569 47.2124 51.45 47.36C51.2445 47.5117 51.0005 47.6025 50.7458 47.6219C50.4912 47.6414 50.2362 47.5887 50.01 47.47L46.01 45.36L42.01 47.47C41.8092 47.5872 41.5824 47.6525 41.35 47.66ZM38.57 37.48L41.77 40.61C41.9286 40.7626 42.0471 40.9519 42.1151 41.1612C42.1831 41.3705 42.1985 41.5933 42.16 41.81L41.41 46.22L45.41 44.14C45.6039 44.0367 45.8203 43.9827 46.04 43.9827C46.2597 43.9827 46.4761 44.0367 46.67 44.14L50.67 46.22L49.92 41.81C49.8815 41.5933 49.8969 41.3705 49.9649 41.1612C50.033 40.9519 50.1515 40.7626 50.31 40.61L53.51 37.48L49.08 36.84C48.8668 36.8043 48.665 36.7187 48.4912 36.5901C48.3174 36.4614 48.1765 36.2935 48.08 36.1L46.08 32.1L44.08 36.1C43.9836 36.2935 43.8427 36.4614 43.6689 36.5901C43.4951 36.7187 43.2933 36.8043 43.08 36.84L38.57 37.48Z" fill="#2E2D6F"/>
<path d="M46 55.15C43.0333 55.15 40.1332 54.2703 37.6665 52.6221C35.1997 50.9739 33.2771 48.6312 32.1418 45.8903C31.0065 43.1494 30.7094 40.1334 31.2882 37.2237C31.867 34.314 33.2956 31.6412 35.3934 29.5434C37.4912 27.4456 40.1639 26.017 43.0737 25.4383C45.9834 24.8595 48.9994 25.1565 51.7403 26.2918C54.4811 27.4272 56.8238 29.3497 58.472 31.8165C60.1203 34.2832 61 37.1833 61 40.15C61 44.1283 59.4197 47.9436 56.6066 50.7566C53.7936 53.5697 49.9783 55.15 46 55.15ZM46 26.64C43.3181 26.64 40.6964 27.4353 38.4665 28.9253C36.2365 30.4153 34.4985 32.5331 33.4722 35.0108C32.4459 37.4886 32.1773 40.2151 32.7006 42.8455C33.2238 45.4758 34.5152 47.892 36.4116 49.7884C38.308 51.6848 40.7242 52.9763 43.3546 53.4995C45.985 54.0227 48.7114 53.7542 51.1892 52.7278C53.667 51.7015 55.7847 49.9635 57.2747 47.7336C58.7647 45.5036 59.56 42.8819 59.56 40.2C59.5574 36.6045 58.1279 33.157 55.5854 30.6146C53.043 28.0722 49.5955 26.6427 46 26.64Z" fill="#2E2D6F"/>
<path d="M46 60.4C42.0048 60.4 38.0993 59.2153 34.7775 56.9957C31.4556 54.7761 28.8665 51.6213 27.3376 47.9302C25.8087 44.2391 25.4087 40.1776 26.1881 36.2592C26.9676 32.3408 28.8914 28.7415 31.7164 25.9165C34.5415 23.0914 38.1408 21.1676 42.0592 20.3881C45.9776 19.6087 50.0391 20.0088 53.7302 21.5376C57.4213 23.0665 60.5761 25.6556 62.7957 28.9775C65.0153 32.2994 66.2 36.2048 66.2 40.2C66.1921 45.5549 64.0613 50.6883 60.2748 54.4748C56.4883 58.2613 51.3549 60.3921 46 60.4ZM46 21.4C42.2817 21.4 38.6469 22.5026 35.5553 24.5684C32.4636 26.6342 30.054 29.5703 28.6311 33.0056C27.2081 36.4408 26.8358 40.2209 27.5612 43.8677C28.2866 47.5146 30.0772 50.8644 32.7064 53.4936C35.3356 56.1228 38.6855 57.9134 42.3323 58.6388C45.9791 59.3642 49.7592 58.9919 53.1944 57.5689C56.6297 56.146 59.5659 53.7364 61.6316 50.6447C63.6974 47.5531 64.8 43.9183 64.8 40.2C64.7947 35.2156 62.8123 30.4368 59.2878 26.9122C55.7632 23.3877 50.9844 21.4053 46 21.4Z" fill="#2E2D6F"/>
<path d="M34.76 72H34.62C34.3324 71.9763 34.058 71.869 33.8306 71.6913C33.6032 71.5136 33.4326 71.2734 33.34 71L31.34 65.2C31.3377 65.1881 31.3329 65.1767 31.326 65.1666C31.3192 65.1566 31.3103 65.148 31.3 65.1414C31.2897 65.1349 31.2782 65.1305 31.2662 65.1285C31.2542 65.1266 31.2419 65.1271 31.23 65.13L25.23 66.29C24.9487 66.3488 24.6563 66.3231 24.3895 66.2164C24.1226 66.1097 23.8932 65.9266 23.73 65.69C23.5637 65.4576 23.4677 65.1822 23.4535 64.8968C23.4393 64.6113 23.5075 64.3278 23.65 64.08L30.44 52.28L31.65 52.97L24.87 64.77C24.8593 64.7864 24.8535 64.8055 24.8535 64.825C24.8535 64.8446 24.8593 64.8637 24.87 64.88C24.8852 64.8888 24.9025 64.8934 24.92 64.8934C24.9376 64.8934 24.9548 64.8888 24.97 64.88L30.97 63.72C31.3249 63.6557 31.691 63.7214 32.0014 63.905C32.3118 64.0887 32.5456 64.378 32.66 64.72L34.66 70.52C34.66 70.52 34.66 70.58 34.74 70.59C34.7583 70.5919 34.7768 70.5881 34.7929 70.5792C34.809 70.5702 34.8219 70.5566 34.83 70.54L41.51 58.96L42.72 59.66L36.06 71.25C35.9283 71.4782 35.7388 71.6676 35.5106 71.7993C35.2824 71.931 35.0235 72.0002 34.76 72Z" fill="#2E2D6F"/>
<path d="M57.24 72C56.9764 72.0012 56.7171 71.9324 56.4887 71.8006C56.2603 71.6689 56.071 71.4788 55.94 71.25L49.28 59.66L50.49 58.96L57.15 70.56C57.1581 70.5765 57.1711 70.5902 57.1872 70.5991C57.2033 70.6081 57.2217 70.6119 57.24 70.61C57.3 70.61 57.32 70.56 57.32 70.54L59.32 64.74C59.4345 64.398 59.6683 64.1087 59.9786 63.925C60.289 63.7414 60.6552 63.6757 61.01 63.74L67.01 64.9C67.0252 64.9088 67.0425 64.9134 67.06 64.9134C67.0776 64.9134 67.0948 64.9088 67.11 64.9C67.1208 64.8837 67.1265 64.8645 67.1265 64.845C67.1265 64.8254 67.1208 64.8063 67.11 64.79L60.33 52.99L61.54 52.3L68.33 64.1C68.4725 64.3478 68.5407 64.6313 68.5266 64.9167C68.5124 65.2022 68.4164 65.4776 68.25 65.71C68.0852 65.9474 67.854 66.1309 67.5855 66.2376C67.3169 66.3443 67.0228 66.3695 66.74 66.31L60.74 65.15C60.7282 65.147 60.7159 65.1465 60.7039 65.1485C60.6918 65.1505 60.6803 65.1549 60.67 65.1614C60.6597 65.1679 60.6509 65.1765 60.644 65.1866C60.6371 65.1967 60.6324 65.208 60.63 65.22L58.63 71.02C58.5374 71.2933 58.3669 71.5336 58.1395 71.7113C57.9121 71.889 57.6376 71.9963 57.35 72.02L57.24 72Z" fill="#2E2D6F"/>
</g>
<defs>
<clipPath id="clip0_1_132">
<rect width="92" height="92" fill="white"/>
</clipPath>
</defs>
</svg>
