<svg width="92" height="92" viewBox="0 0 92 92" fill="none" xmlns="http://www.w3.org/2000/svg">
<g clip-path="url(#clip0_1_98)">
<path d="M46 92C71.4051 92 92 71.4051 92 46C92 20.5949 71.4051 0 46 0C20.5949 0 0 20.5949 0 46C0 71.4051 20.5949 92 46 92Z" fill="white"/>
<path d="M29.26 58.2C27.9736 58.198 26.7155 58.5778 25.645 59.2913C24.5746 60.0048 23.7399 61.0198 23.2467 62.208C22.7535 63.3961 22.6239 64.7038 22.8744 65.9657C23.1249 67.2275 23.7442 68.3866 24.6538 69.2962C25.5635 70.2058 26.7226 70.8251 27.9844 71.0756C29.2462 71.3261 30.5539 71.1965 31.7421 70.7033C32.9302 70.2101 33.9452 69.3754 34.6587 68.305C35.3722 67.2345 35.752 65.9764 35.75 64.69C35.75 62.9688 35.0662 61.318 33.8491 60.1009C32.632 58.8838 30.9813 58.2 29.26 58.2ZM29.26 67.2C28.7715 67.2 28.2939 67.0552 27.8877 66.7838C27.4815 66.5123 27.165 66.1266 26.978 65.6752C26.7911 65.2239 26.7421 64.7273 26.8375 64.2481C26.9328 63.769 27.168 63.3289 27.5134 62.9835C27.8589 62.638 28.299 62.4028 28.7781 62.3075C29.2573 62.2122 29.7539 62.2611 30.2052 62.448C30.6566 62.635 31.0423 62.9516 31.3137 63.3578C31.5851 63.764 31.73 64.2415 31.73 64.73C31.7221 65.379 31.458 65.9985 30.9954 66.4537C30.5328 66.9088 29.909 67.1627 29.26 67.16V67.2Z" fill="#A7B0C1"/>
<path d="M63.61 58.2C62.3257 58.2079 61.0726 58.5961 60.0087 59.3156C58.9449 60.035 58.118 61.0535 57.6325 62.2425C57.1469 63.4315 57.0245 64.7376 57.2806 65.9961C57.5367 67.2546 58.1599 68.409 59.0715 69.3137C59.9831 70.2183 61.1423 70.8326 62.4027 71.0791C63.6631 71.3255 64.9683 71.1931 66.1535 70.6984C67.3388 70.2038 68.3509 69.3691 69.0621 68.2997C69.7734 67.2304 70.152 65.9743 70.15 64.69C70.1487 63.8339 69.9783 62.9865 69.6486 62.1964C69.3188 61.4063 68.8362 60.6891 68.2285 60.0861C67.6209 59.483 66.9 59.006 66.1074 58.6823C65.3148 58.3587 64.4661 58.1947 63.61 58.2ZM63.61 67.2C63.1215 67.2 62.644 67.0552 62.2378 66.7837C61.8316 66.5123 61.515 66.1266 61.328 65.6752C61.1411 65.2239 61.0922 64.7273 61.1875 64.2481C61.2828 63.769 61.518 63.3289 61.8635 62.9835C62.2089 62.638 62.649 62.4028 63.1281 62.3075C63.6073 62.2122 64.1039 62.2611 64.5552 62.448C65.0066 62.635 65.3923 62.9516 65.6638 63.3578C65.9352 63.7639 66.08 64.2415 66.08 64.73C66.0695 65.3781 65.8047 65.9962 65.3426 66.4508C64.8805 66.9054 64.2582 67.1601 63.61 67.16V67.2Z" fill="#A7B0C1"/>
<path d="M51.57 43.35H36.77V46.92H51.57V43.35Z" fill="#4B5EAA"/>
<path d="M45.8 40.96H36.77V33.19H51.59V40.99L45.8 40.96Z" fill="#4B5EAA"/>
<path d="M39.87 33.19V36.69C39.87 36.7911 39.8899 36.8912 39.9286 36.9847C39.9673 37.0781 40.024 37.163 40.0955 37.2345C40.167 37.306 40.2519 37.3627 40.3453 37.4014C40.4387 37.4401 40.5389 37.46 40.64 37.46C40.742 37.4613 40.8432 37.4424 40.9377 37.4043C41.0323 37.3662 41.1184 37.3097 41.1909 37.238C41.2635 37.1664 41.3211 37.0811 41.3604 36.987C41.3998 36.8929 41.42 36.792 41.42 36.69V35.86C41.42 35.6558 41.5011 35.4599 41.6455 35.3155C41.7899 35.1711 41.9858 35.09 42.19 35.09C42.3942 35.09 42.5901 35.1711 42.7345 35.3155C42.8789 35.4599 42.96 35.6558 42.96 35.86V38.33C42.9626 38.5351 43.046 38.731 43.192 38.8751C43.3379 39.0192 43.5348 39.1 43.74 39.1C43.9434 39.0974 44.1378 39.0155 44.2816 38.8716C44.4254 38.7278 44.5074 38.5334 44.51 38.33V33.19H39.87Z" fill="#E98135"/>
<path d="M46.65 44.17H36.77C36.2396 44.17 35.7309 43.9593 35.3558 43.5842C34.9807 43.2091 34.77 42.7004 34.77 42.17C34.77 41.6395 34.9807 41.1308 35.3558 40.7558C35.7309 40.3807 36.2396 40.17 36.77 40.17H45.77V41.8H36.77C36.6789 41.8026 36.5925 41.8406 36.529 41.906C36.4655 41.9713 36.43 42.0589 36.43 42.15C36.43 42.2411 36.4655 42.3286 36.529 42.394C36.5925 42.4594 36.6789 42.4974 36.77 42.5H46.65V44.17Z" fill="#2E2D6F"/>
<path d="M37.57 43.36H35.94V46.92H37.57V43.36Z" fill="#2E2D6F"/>
<path d="M37.59 33.18H35.96V40.98H37.59V33.18Z" fill="#2E2D6F"/>
<path d="M52.4 33.18H50.77V40.98H52.4V33.18Z" fill="#2E2D6F"/>
<path d="M51.65 34H36.72C36.2108 34 35.7224 33.7977 35.3623 33.4376C35.0023 33.0776 34.8 32.5892 34.8 32.08V31.92C34.8 31.4108 35.0023 30.9224 35.3623 30.5624C35.7224 30.2023 36.2108 30 36.72 30H51.65C52.1575 30.0026 52.6433 30.2061 53.0012 30.5659C53.3591 30.9257 53.56 31.4125 53.56 31.92V32.08C53.56 32.5875 53.3591 33.0743 53.0012 33.4341C52.6433 33.7939 52.1575 33.9974 51.65 34ZM36.72 31.63C36.6431 31.63 36.5693 31.6606 36.5149 31.7149C36.4605 31.7693 36.43 31.8431 36.43 31.92V32.08C36.43 32.1569 36.4605 32.2307 36.5149 32.2851C36.5693 32.3394 36.6431 32.37 36.72 32.37H51.65C51.7269 32.37 51.8007 32.3394 51.855 32.2851C51.9094 32.2307 51.94 32.1569 51.94 32.08V31.92C51.94 31.8431 51.9094 31.7693 51.855 31.7149C51.8007 31.6606 51.7269 31.63 51.65 31.63H36.72Z" fill="#2E2D6F"/>
<path d="M51.59 44.17H41.72V42.56H51.59C51.6828 42.56 51.7718 42.5231 51.8375 42.4575C51.9031 42.3918 51.94 42.3028 51.94 42.21C51.94 42.1172 51.9031 42.0281 51.8375 41.9625C51.7718 41.8969 51.6828 41.86 51.59 41.86H42.59V40.17H51.59C52.1204 40.17 52.6291 40.3807 53.0042 40.7558C53.3793 41.1308 53.59 41.6395 53.59 42.17C53.59 42.7004 53.3793 43.2091 53.0042 43.5842C52.6291 43.9593 52.1204 44.17 51.59 44.17Z" fill="#2E2D6F"/>
<path d="M52.4 43.36H50.77V46.92H52.4V43.36Z" fill="#2E2D6F"/>
<path d="M32.53 43.35H17.73V46.92H32.53V43.35Z" fill="#4B5EAA"/>
<path d="M26.75 40.96H17.73V33.19H32.54V40.99L26.75 40.96Z" fill="#4B5EAA"/>
<path d="M20.82 33.19V36.69C20.82 36.792 20.8402 36.8929 20.8796 36.987C20.9189 37.0811 20.9765 37.1664 21.0491 37.238C21.1216 37.3097 21.2077 37.3662 21.3023 37.4043C21.3968 37.4424 21.4981 37.4613 21.6 37.46C21.8042 37.46 22.0001 37.3789 22.1445 37.2345C22.2889 37.0901 22.37 36.8942 22.37 36.69V35.86C22.37 35.6558 22.4511 35.4599 22.5955 35.3155C22.7399 35.1711 22.9358 35.09 23.14 35.09C23.3442 35.09 23.5401 35.1711 23.6845 35.3155C23.8289 35.4599 23.91 35.6558 23.91 35.86V38.33C23.9126 38.5351 23.996 38.731 24.142 38.8751C24.288 39.0192 24.4849 39.1 24.69 39.1C24.8934 39.0974 25.0878 39.0155 25.2316 38.8716C25.3755 38.7278 25.4574 38.5334 25.46 38.33V33.19H20.82Z" fill="#E98135"/>
<path d="M27.6 44.17H17.73C17.1995 44.17 16.6908 43.9593 16.3158 43.5842C15.9407 43.2091 15.73 42.7004 15.73 42.17C15.73 41.6395 15.9407 41.1308 16.3158 40.7558C16.6908 40.3807 17.1995 40.17 17.73 40.17H26.73V41.8H17.73C17.6372 41.8 17.5481 41.8369 17.4825 41.9025C17.4169 41.9681 17.38 42.0572 17.38 42.15C17.38 42.2428 17.4169 42.3318 17.4825 42.3975C17.5481 42.4631 17.6372 42.5 17.73 42.5H27.6V44.17Z" fill="#2E2D6F"/>
<path d="M18.52 43.36H16.89V46.92H18.52V43.36Z" fill="#2E2D6F"/>
<path d="M18.54 33.18H16.91V40.98H18.54V33.18Z" fill="#2E2D6F"/>
<path d="M33.35 33.18H31.72V40.98H33.35V33.18Z" fill="#2E2D6F"/>
<path d="M32.6 34H17.67C17.1608 34 16.6724 33.7977 16.3124 33.4376C15.9523 33.0776 15.75 32.5892 15.75 32.08V31.92C15.75 31.4108 15.9523 30.9224 16.3124 30.5624C16.6724 30.2023 17.1608 30 17.67 30H32.6C33.1075 30.0026 33.5933 30.2061 33.9512 30.5659C34.3091 30.9257 34.51 31.4125 34.51 31.92V32.08C34.51 32.5875 34.3091 33.0743 33.9512 33.4341C33.5933 33.7939 33.1075 33.9974 32.6 34ZM17.67 31.63C17.5931 31.63 17.5193 31.6606 17.4649 31.7149C17.4106 31.7693 17.38 31.8431 17.38 31.92V32.08C17.38 32.1569 17.4106 32.2307 17.4649 32.2851C17.5193 32.3394 17.5931 32.37 17.67 32.37H32.6C32.6769 32.37 32.7507 32.3394 32.8051 32.2851C32.8594 32.2307 32.89 32.1569 32.89 32.08V31.92C32.89 31.8431 32.8594 31.7693 32.8051 31.7149C32.7507 31.6606 32.6769 31.63 32.6 31.63H17.67Z" fill="#2E2D6F"/>
<path d="M32.54 44.17H22.67V42.56H32.54C32.6328 42.56 32.7218 42.5231 32.7875 42.4575C32.8531 42.3918 32.89 42.3028 32.89 42.21C32.89 42.1172 32.8531 42.0281 32.7875 41.9625C32.7218 41.8969 32.6328 41.86 32.54 41.86H23.54V40.17H32.54C33.0704 40.17 33.5791 40.3807 33.9542 40.7558C34.3293 41.1308 34.54 41.6395 34.54 42.17C34.54 42.7004 34.3293 43.2091 33.9542 43.5842C33.5791 43.9593 33.0704 44.17 32.54 44.17Z" fill="#2E2D6F"/>
<path d="M33.35 43.36H31.72V46.92H33.35V43.36Z" fill="#2E2D6F"/>
<path d="M78.48 65.56H70.15C69.9343 65.5574 69.7283 65.4698 69.5766 65.3163C69.425 65.1628 69.34 64.9557 69.34 64.74C69.34 64.5252 69.4254 64.3191 69.5773 64.1672C69.7292 64.0153 69.9352 63.93 70.15 63.93H77.66V60.73H77.02C76.8052 60.73 76.5992 60.6446 76.4473 60.4927C76.2953 60.3408 76.21 60.1348 76.21 59.92V48.02L70.15 34.86H56.15V46.61C56.15 46.8257 56.065 47.0328 55.9134 47.1863C55.7618 47.3398 55.5558 47.4274 55.34 47.43H14.34V59.05H15.59C15.8075 59.05 16.0161 59.1364 16.1698 59.2902C16.3236 59.4439 16.41 59.6525 16.41 59.87V63.87H22.68C22.8948 63.87 23.1009 63.9553 23.2528 64.1072C23.4047 64.2591 23.49 64.4652 23.49 64.68C23.49 64.8957 23.405 65.1028 23.2534 65.2563C23.1018 65.4098 22.8958 65.4974 22.68 65.5H15.58C15.3643 65.4974 15.1583 65.4098 15.0066 65.2563C14.855 65.1028 14.77 64.8957 14.77 64.68V60.68H13.51C13.2952 60.68 13.0892 60.5946 12.9373 60.4427C12.7854 60.2908 12.7 60.0848 12.7 59.87V46.61C12.7 46.3952 12.7854 46.1891 12.9373 46.0372C13.0892 45.8853 13.2952 45.8 13.51 45.8H54.51V34.05C54.51 33.8325 54.5964 33.6239 54.7502 33.4702C54.904 33.3164 55.1125 33.23 55.33 33.23H70.67C70.8265 33.2299 70.9798 33.2752 71.1111 33.3604C71.2424 33.4456 71.3462 33.567 71.41 33.71L77.77 47.5C77.8189 47.6065 77.8429 47.7228 77.84 47.84V59.05H78.48C78.6975 59.05 78.9061 59.1364 79.0598 59.2902C79.2136 59.4439 79.3 59.6525 79.3 59.87V64.69C79.3068 64.8018 79.2907 64.9138 79.2525 65.0192C79.2144 65.1245 79.1551 65.2209 79.0783 65.3024C79.0014 65.3839 78.9087 65.4488 78.8058 65.4931C78.7029 65.5374 78.592 65.5602 78.48 65.56ZM57.15 65.56H35.75C35.5343 65.5574 35.3283 65.4698 35.1766 65.3163C35.025 65.1628 34.94 64.9557 34.94 64.74C34.94 64.5252 35.0254 64.3191 35.1773 64.1672C35.3292 64.0153 35.5352 63.93 35.75 63.93H57.15C57.3648 63.93 57.5709 64.0153 57.7228 64.1672C57.8747 64.3191 57.96 64.5252 57.96 64.74C57.96 64.9557 57.875 65.1628 57.7234 65.3163C57.5718 65.4698 57.3658 65.5574 57.15 65.56Z" fill="#2E2D6F"/>
<path d="M19.09 60.68H14.55C14.3342 60.68 14.1272 60.595 13.9737 60.4434C13.8202 60.2917 13.7326 60.0857 13.73 59.87C13.73 59.6525 13.8164 59.4439 13.9702 59.2902C14.1239 59.1364 14.3325 59.05 14.55 59.05H19.09C19.3057 59.0526 19.5117 59.1402 19.6634 59.2937C19.815 59.4472 19.9 59.6542 19.9 59.87C19.9 60.0848 19.8146 60.2908 19.6627 60.4427C19.5108 60.5946 19.3048 60.68 19.09 60.68Z" fill="#2E2D6F"/>
<path d="M77.64 60.68H74.54C74.4336 60.68 74.3283 60.659 74.23 60.6183C74.1317 60.5776 74.0424 60.518 73.9672 60.4427C73.892 60.3675 73.8323 60.2782 73.7916 60.18C73.7509 60.0817 73.73 59.9764 73.73 59.87C73.73 59.6542 73.815 59.4472 73.9666 59.2937C74.1182 59.1402 74.3242 59.0526 74.54 59.05H77.64C77.8575 59.05 78.066 59.1364 78.2198 59.2902C78.3736 59.4439 78.46 59.6525 78.46 59.87C78.4573 60.0857 78.3698 60.2917 78.2163 60.4434C78.0628 60.595 77.8557 60.68 77.64 60.68Z" fill="#2E2D6F"/>
<path d="M77.03 55.56H75.46C75.2425 55.56 75.034 55.4736 74.8802 55.3198C74.7264 55.166 74.64 54.9575 74.64 54.74C74.6426 54.5243 74.7302 54.3182 74.8837 54.1666C75.0372 54.015 75.2443 53.93 75.46 53.93H77.03C77.2448 53.93 77.4509 54.0153 77.6028 54.1672C77.7547 54.3191 77.84 54.5252 77.84 54.74C77.84 54.9557 77.755 55.1628 77.6034 55.3163C77.4518 55.4698 77.2458 55.5574 77.03 55.56Z" fill="#2E2D6F"/>
<path d="M55.35 53.04C55.1326 53.04 54.924 52.9536 54.7702 52.7998C54.6164 52.646 54.53 52.4375 54.53 52.22V45.22C54.5327 45.0042 54.6202 44.7982 54.7737 44.6466C54.9272 44.495 55.1343 44.41 55.35 44.41C55.5649 44.41 55.7709 44.4953 55.9228 44.6472C56.0747 44.7991 56.16 45.0051 56.16 45.22V52.22C56.16 52.4357 56.075 52.6428 55.9234 52.7963C55.7718 52.9498 55.5658 53.0373 55.35 53.04Z" fill="#2E2D6F"/>
<path d="M77.03 48.61H66.55C65.5304 48.6871 64.5064 48.5369 63.5518 48.1703C62.5972 47.8037 61.7359 47.2298 61.03 46.49C59.8811 44.9999 59.3639 43.1179 59.59 41.25V34.05C59.59 33.8342 59.675 33.6272 59.8267 33.4737C59.9783 33.3202 60.1843 33.2326 60.4 33.23C60.6175 33.23 60.8261 33.3164 60.9799 33.4702C61.1336 33.6239 61.22 33.8325 61.22 34.05V41.31C61.22 41.31 61.22 41.39 61.22 41.43C61.0487 42.8498 61.428 44.2813 62.28 45.43C62.8372 45.9849 63.509 46.4112 64.2484 46.679C64.9877 46.9467 65.7767 47.0495 66.56 46.98H77.03C77.2458 46.9826 77.4518 47.0702 77.6034 47.2237C77.755 47.3772 77.84 47.5842 77.84 47.8C77.84 47.9064 77.8191 48.0117 77.7784 48.11C77.7377 48.2082 77.678 48.2975 77.6028 48.3727C77.5276 48.448 77.4383 48.5076 77.34 48.5483C77.2417 48.589 77.1364 48.61 77.03 48.61Z" fill="#2E2D6F"/>
<path d="M29.26 67.98C28.6089 67.982 27.9718 67.7907 27.4295 67.4304C26.8871 67.0701 26.4639 66.557 26.2133 65.956C25.9628 65.355 25.8962 64.6932 26.022 64.0543C26.1478 63.4155 26.4604 62.8283 26.9201 62.3672C27.3798 61.9061 27.966 61.5917 28.6045 61.464C29.243 61.3362 29.905 61.4008 30.5067 61.6495C31.1085 61.8982 31.6229 62.3199 31.9849 62.8611C32.3468 63.4024 32.54 64.0389 32.54 64.69C32.5374 65.56 32.1913 66.3938 31.577 67.01C30.9628 67.6261 30.13 67.9747 29.26 67.98ZM29.26 63.04C28.9313 63.04 28.6099 63.1376 28.3367 63.3205C28.0635 63.5033 27.8508 63.7632 27.7254 64.0671C27.6001 64.371 27.5678 64.7053 27.6327 65.0276C27.6976 65.3498 27.8567 65.6456 28.0898 65.8773C28.323 66.1091 28.6197 66.2664 28.9423 66.3293C29.265 66.3922 29.5991 66.3579 29.9022 66.2308C30.2054 66.1036 30.4639 65.8893 30.6451 65.615C30.8263 65.3407 30.922 65.0187 30.92 64.69C30.9174 64.2515 30.7413 63.8318 30.4303 63.5227C30.1193 63.2135 29.6986 63.04 29.26 63.04Z" fill="#2E2D6F"/>
<path d="M29.26 72C27.8142 72 26.4009 71.5713 25.1988 70.7681C23.9967 69.9648 23.0597 68.8231 22.5065 67.4874C21.9532 66.1517 21.8084 64.6819 22.0905 63.2639C22.3725 61.8459 23.0687 60.5434 24.0911 59.5211C25.1134 58.4987 26.4159 57.8025 27.8339 57.5205C29.2519 57.2384 30.7217 57.3832 32.0574 57.9364C33.3932 58.4897 34.5348 59.4267 35.3381 60.6288C36.1413 61.8309 36.57 63.2442 36.57 64.69C36.5674 66.6279 35.7964 68.4857 34.426 69.856C33.0557 71.2264 31.1979 71.9974 29.26 72ZM29.26 59C28.1366 59 27.0384 59.3331 26.1044 59.9573C25.1703 60.5814 24.4423 61.4685 24.0124 62.5064C23.5825 63.5442 23.47 64.6863 23.6892 65.7881C23.9083 66.8899 24.4493 67.902 25.2436 68.6964C26.038 69.4907 27.0501 70.0317 28.1519 70.2509C29.2537 70.47 30.3958 70.3576 31.4337 69.9276C32.4715 69.4977 33.3586 68.7697 33.9828 67.8356C34.6069 66.9016 34.94 65.8034 34.94 64.68C34.9347 63.1761 34.3343 61.7355 33.2699 60.673C32.2056 59.6105 30.7639 59.0126 29.26 59.01V59Z" fill="#2E2D6F"/>
<path d="M63.67 67.98C63.0189 67.982 62.3818 67.7907 61.8395 67.4304C61.2971 67.0701 60.8739 66.557 60.6233 65.956C60.3728 65.355 60.3062 64.6932 60.432 64.0543C60.5578 63.4155 60.8704 62.8283 61.3301 62.3672C61.7898 61.9061 62.376 61.5917 63.0145 61.464C63.6529 61.3362 64.315 61.4008 64.9167 61.6495C65.5185 61.8982 66.0329 62.3199 66.3948 62.8611C66.7568 63.4024 66.95 64.0389 66.95 64.69C66.9474 65.56 66.6013 66.3938 65.987 67.01C65.3727 67.6261 64.54 67.9747 63.67 67.98ZM63.67 63.04C63.3408 63.038 63.0185 63.134 62.744 63.3156C62.4695 63.4972 62.2552 63.7564 62.1283 64.0601C62.0014 64.3639 61.9677 64.6984 62.0314 65.0214C62.0952 65.3443 62.2535 65.641 62.4862 65.8738C62.719 66.1065 63.0157 66.2648 63.3386 66.3286C63.6616 66.3923 63.9962 66.3586 64.2999 66.2317C64.6036 66.1048 64.8628 65.8905 65.0444 65.616C65.226 65.3415 65.322 65.0192 65.32 64.69C65.32 64.4733 65.2773 64.2588 65.1944 64.0586C65.1115 63.8584 64.9899 63.6765 64.8367 63.5233C64.6835 63.3701 64.5016 63.2485 64.3014 63.1656C64.1012 63.0827 63.8867 63.04 63.67 63.04Z" fill="#2E2D6F"/>
<path d="M63.67 72C62.2242 72 60.8109 71.5713 59.6088 70.7681C58.4066 69.9648 57.4697 68.8231 56.9164 67.4874C56.3632 66.1517 56.2184 64.6819 56.5004 63.2639C56.7825 61.8459 57.4787 60.5434 58.501 59.5211C59.5234 58.4987 60.8259 57.8025 62.2439 57.5205C63.6619 57.2384 65.1317 57.3832 66.4674 57.9364C67.8031 58.4897 68.9448 59.4267 69.748 60.6288C70.5513 61.8309 70.98 63.2442 70.98 64.69C70.9773 66.6279 70.2063 68.4857 68.836 69.856C67.4657 71.2264 65.6079 71.9974 63.67 72ZM63.67 59C62.5466 59 61.4484 59.3331 60.5143 59.9573C59.5803 60.5814 58.8523 61.4685 58.4224 62.5064C57.9924 63.5442 57.88 64.6863 58.0991 65.7881C58.3183 66.8899 58.8593 67.902 59.6536 68.6964C60.448 69.4907 61.4601 70.0317 62.5619 70.2509C63.6637 70.47 64.8057 70.3576 65.8436 69.9276C66.8815 69.4977 67.7686 68.7697 68.3927 67.8356C69.0169 66.9016 69.35 65.8034 69.35 64.68C69.3447 63.1761 68.7443 61.7355 67.6799 60.673C66.6156 59.6105 65.1739 59.0126 63.67 59.01V59Z" fill="#2E2D6F"/>
</g>
<defs>
<clipPath id="clip0_1_98">
<rect width="92" height="92" fill="white"/>
</clipPath>
</defs>
</svg>
