<svg width="20" height="20" viewBox="0 0 20 20" fill="none" xmlns="http://www.w3.org/2000/svg">
<path d="M20 10C20 15.5228 15.5228 20 10 20C4.47715 20 0 15.5228 0 10C0 4.47715 4.47715 0 10 0C15.5228 0 20 4.47715 20 10Z" fill="#E98135"/>
<path d="M4.22006 18.1614C3.30008 17.5087 2.49525 16.7043 1.842 15.7847L9.02935 8.59799L6.64148 6.21032C6.54431 6.11072 6.47844 5.98487 6.45196 5.84827C6.42548 5.71168 6.43956 5.57032 6.49247 5.44163C6.54538 5.31295 6.6348 5.20256 6.7497 5.12409C6.86461 5.04561 6.99997 5.00247 7.1391 5H14.2872C14.4757 5.00175 14.656 5.07742 14.7893 5.2107C14.9226 5.34399 14.9982 5.52425 15 5.71274V12.8603C14.9975 12.9994 14.9544 13.1347 14.8759 13.2496C14.7974 13.3645 14.6871 13.4539 14.5584 13.5068C14.4297 13.5598 14.2883 13.5738 14.1517 13.5474C14.0151 13.5209 13.8892 13.455 13.7896 13.3578L11.4068 10.9752L4.22006 18.1614Z" fill="white"/>
</svg>
