<svg width="32" height="32" viewBox="0 0 32 32" fill="none" xmlns="http://www.w3.org/2000/svg">
<path d="M16 0C12.8355 0 9.74207 0.938383 7.11088 2.69649C4.4797 4.45459 2.42894 6.95345 1.21793 9.87706C0.00693255 12.8007 -0.309921 16.0177 0.307443 19.1214C0.924806 22.2251 2.44866 25.0761 4.6863 27.3137C6.92394 29.5513 9.77486 31.0752 12.8786 31.6926C15.9823 32.3099 19.1993 31.9931 22.1229 30.7821C25.0466 29.5711 27.5454 27.5203 29.3035 24.8891C31.0616 22.2579 32 19.1645 32 16C32 11.7565 30.3143 7.68687 27.3137 4.68629C24.3131 1.68571 20.2435 0 16 0ZM11.1304 22.9565H8.34783V12.5217H11.1304V22.9565ZM9.73914 10.4348C9.46396 10.4348 9.19497 10.3532 8.96617 10.2003C8.73737 10.0474 8.55904 9.83013 8.45374 9.57591C8.34843 9.32168 8.32088 9.04193 8.37457 8.77205C8.42825 8.50216 8.56076 8.25425 8.75534 8.05968C8.94991 7.8651 9.19782 7.73259 9.46771 7.67891C9.73759 7.62522 10.0173 7.65277 10.2716 7.75808C10.5258 7.86338 10.7431 8.04171 10.896 8.27051C11.0488 8.49931 11.1304 8.7683 11.1304 9.04348C11.1304 9.41247 10.9839 9.76636 10.7229 10.0273C10.462 10.2882 10.1081 10.4348 9.73914 10.4348ZM24.3478 22.9565H21.5652V17.7391C21.5652 17.0934 21.3087 16.4741 20.8521 16.0175C20.3955 15.5609 19.7762 15.3043 19.1304 15.3043C18.4847 15.3043 17.8654 15.5609 17.4088 16.0175C16.9522 16.4741 16.6957 17.0934 16.6957 17.7391V22.9565H13.913V12.5217H16.6957V13.7878C17.3336 13.1713 18.139 12.7564 19.0113 12.595C19.8837 12.4335 20.7842 12.5326 21.6006 12.8799C22.4169 13.2273 23.1128 13.8074 23.6014 14.5478C24.09 15.2883 24.3496 16.1563 24.3478 17.0435V22.9565Z" fill="#A3A5B4"/>
</svg>
