<svg width="14" height="10" viewBox="0 0 14 10" fill="none" xmlns="http://www.w3.org/2000/svg">
<path d="M9.63077 5L13.8767 0.781434C13.9534 0.941859 14 1.11918 14 1.30859V8.69141C14 8.88079 13.9534 9.05814 13.8767 9.21857L9.63077 5Z" fill="#CDD4F1"/>
<path d="M1.23047 0.078125H12.7695C12.9589 0.078125 13.1363 0.124691 13.2967 0.201445L7.86997 5.60082C7.39014 6.08065 6.60986 6.08065 6.13003 5.60082L0.703309 0.201445C0.863734 0.124691 1.04106 0.078125 1.23047 0.078125Z" fill="#CDD4F1"/>
<path d="M0 1.30859C0 1.11918 0.0465664 0.941859 0.12332 0.781434L4.36923 5L0.12332 9.21857C0.0465664 9.05817 0 8.88082 0 8.69141V1.30859Z" fill="#CDD4F1"/>
<path d="M8.44977 6.18081L9.0506 5.57999L13.2965 9.79855C13.1361 9.87531 12.9588 9.92187 12.7693 9.92187H1.23029C1.04087 9.92187 0.863551 9.87531 0.703125 9.79855L4.94903 5.57999L5.54983 6.18081C6.34934 6.98031 7.65027 6.98031 8.44977 6.18081Z" fill="#CDD4F1"/>
</svg>
