<svg width="14" height="14" viewBox="0 0 14 14" fill="none" xmlns="http://www.w3.org/2000/svg">
<path d="M13.6199 10.2746L11.6661 8.32085C10.9684 7.62308 9.78218 7.90222 9.50307 8.80928C9.29374 9.4373 8.59598 9.78618 7.96799 9.6466C6.57246 9.29772 4.68849 7.48353 4.33961 6.01822C4.13028 5.39021 4.54894 4.69244 5.17693 4.48314C6.08402 4.20403 6.36313 3.01783 5.66536 2.32007L3.71162 0.366327C3.15341 -0.122109 2.31609 -0.122109 1.82766 0.366327L0.501902 1.69208C-0.823851 3.08761 0.641455 6.78576 3.92095 10.0653C7.20045 13.3448 10.8986 14.8799 12.2941 13.4843L13.6199 12.1586C14.1083 11.6003 14.1083 10.763 13.6199 10.2746Z" fill="#CDD4F1"/>
</svg>
