<svg width="68" height="73" viewBox="0 0 68 73" fill="none" xmlns="http://www.w3.org/2000/svg">
<path d="M65.9427 0H25.4627C25.0702 0 24.6938 0.155933 24.4162 0.433487C24.1387 0.711041 23.9827 1.08748 23.9827 1.48V4.78H20.6827C20.2902 4.78 19.9138 4.93593 19.6362 5.21349C19.3587 5.49104 19.2027 5.86748 19.2027 6.26V19.26L3.71273 27C3.30266 27.2024 2.95772 27.516 2.71725 27.905C2.47679 28.294 2.35048 28.7427 2.35273 29.2V37.31C2.32825 39.8217 2.64789 42.325 3.30273 44.75C1.57537 46.3078 0.44513 48.4191 0.106534 50.7204C-0.232062 53.0217 0.242178 55.3691 1.44763 57.3584C2.65308 59.3478 4.51432 60.8546 6.71098 61.6197C8.90764 62.3848 11.3023 62.3601 13.4827 61.55V67.21C13.4838 67.5177 13.5741 67.8185 13.7427 68.0759C13.9114 68.3332 14.1511 68.5361 14.4327 68.66C14.7136 68.7838 15.0242 68.8241 15.3274 68.7763C15.6306 68.7284 15.9136 68.5943 16.1427 68.39L20.0127 64.89L23.8827 68.39C24.1961 68.6702 24.6077 68.8148 25.0275 68.7924C25.4473 68.7699 25.8411 68.582 26.1227 68.27C26.3887 67.9813 26.5352 67.6025 26.5327 67.21V58.9H34.4727C34.7348 58.8745 34.978 58.7523 35.1549 58.5572C35.3319 58.3622 35.4299 58.1083 35.4299 57.845C35.4299 57.5817 35.3319 57.3278 35.1549 57.1328C34.978 56.9377 34.7348 56.8155 34.4727 56.79H28.6527C30.8103 54.9891 32.6787 52.8677 34.1927 50.5H52.6827C52.9448 50.4745 53.188 50.3523 53.365 50.1572C53.5419 49.9622 53.6399 49.7083 53.6399 49.445C53.6399 49.1817 53.5419 48.9278 53.365 48.7327C53.188 48.5377 52.9448 48.4156 52.6827 48.39H35.3527C35.7819 47.5146 36.1462 46.6088 36.4427 45.68H39.9527C40.0999 45.6943 40.2485 45.6777 40.3888 45.6312C40.5292 45.5848 40.6583 45.5094 40.7678 45.4101C40.8773 45.3107 40.9649 45.1895 41.0247 45.0543C41.0846 44.9191 41.1156 44.7729 41.1156 44.625C41.1156 44.4771 41.0846 44.3309 41.0247 44.1957C40.9649 44.0605 40.8773 43.9393 40.7678 43.84C40.6583 43.7406 40.5292 43.6652 40.3888 43.6188C40.2485 43.5723 40.0999 43.5557 39.9527 43.57H37.0227C37.218 42.6748 37.3682 41.7703 37.4727 40.86H52.6827C52.9448 40.8345 53.188 40.7123 53.365 40.5173C53.5419 40.3222 53.6399 40.0683 53.6399 39.805C53.6399 39.5417 53.5419 39.2878 53.365 39.0928C53.188 38.8977 52.9448 38.7756 52.6827 38.75H37.6327C37.6327 38.28 37.6327 37.75 37.6327 37.31V36.04H52.6327C52.8948 36.0145 53.138 35.8923 53.3149 35.6972C53.4919 35.5022 53.5899 35.2483 53.5899 34.985C53.5899 34.7217 53.4919 34.4678 53.3149 34.2728C53.138 34.0777 52.8948 33.9555 52.6327 33.93H37.6327V31.22H43.0027C43.1499 31.2344 43.2985 31.2177 43.4388 31.1713C43.5792 31.1248 43.7083 31.0494 43.8178 30.9501C43.9273 30.8507 44.0148 30.7295 44.0747 30.5943C44.1346 30.4591 44.1656 30.3129 44.1656 30.165C44.1656 30.0171 44.1346 29.8709 44.0747 29.7357C44.0148 29.6005 43.9273 29.4793 43.8178 29.38C43.7083 29.2806 43.5792 29.2052 43.4388 29.1588C43.2985 29.1123 43.1499 29.0957 43.0027 29.11H37.6227C37.6105 28.6689 37.4784 28.2394 37.2406 27.8676C37.0027 27.4959 36.6681 27.196 36.2727 27L35.0827 26.4H52.6427C52.9048 26.3745 53.148 26.2523 53.3249 26.0573C53.5019 25.8622 53.5999 25.6083 53.5999 25.345C53.5999 25.0817 53.5019 24.8278 53.3249 24.6328C53.148 24.4377 52.9048 24.3155 52.6427 24.29H30.9027L21.3127 19.5V6.9H60.5327V14.78C60.5583 15.0421 60.6805 15.2853 60.8755 15.4622C61.0705 15.6392 61.3244 15.7372 61.5877 15.7372C61.8511 15.7372 62.105 15.6392 62.3 15.4622C62.495 15.2853 62.6172 15.0421 62.6427 14.78V6.27C62.6401 5.87829 62.4833 5.50337 62.2064 5.22638C61.9294 4.94939 61.5545 4.79262 61.1627 4.79H26.0927V2.11H65.3127V51.95H62.6427V19.69C62.6172 19.4279 62.495 19.1847 62.3 19.0078C62.105 18.8309 61.8511 18.7328 61.5877 18.7328C61.3244 18.7328 61.0705 18.8309 60.8755 19.0078C60.6805 19.1847 60.5583 19.4279 60.5327 19.69V56.74H39.3927C39.2456 56.7257 39.097 56.7423 38.9566 56.7887C38.8163 56.8352 38.6872 56.9106 38.5776 57.01C38.4681 57.1093 38.3806 57.2305 38.3207 57.3657C38.2608 57.5009 38.2299 57.6471 38.2299 57.795C38.2299 57.9429 38.2608 58.0891 38.3207 58.2243C38.3806 58.3595 38.4681 58.4807 38.5776 58.5801C38.6872 58.6794 38.8163 58.7548 38.9566 58.8012C39.097 58.8477 39.2456 58.8643 39.3927 58.85H61.1627C61.5545 58.8474 61.9294 58.6906 62.2064 58.4136C62.4833 58.1366 62.6401 57.7617 62.6427 57.37V54.06H65.9427C66.3335 54.06 66.7085 53.9055 66.9857 53.6301C67.263 53.3547 67.4201 52.9808 67.4227 52.59V1.48C67.4201 1.08829 67.2633 0.713366 66.9864 0.436378C66.7094 0.159391 66.3345 0.00262023 65.9427 0ZM1.94273 52.25C1.94075 50.6946 2.4003 49.1736 3.26321 47.8795C4.12612 46.5854 5.35358 45.5764 6.79022 44.9802C8.22685 44.3841 9.80807 44.2276 11.3337 44.5306C12.8593 44.8335 14.2607 45.5823 15.3606 46.6822C16.4604 47.782 17.2092 49.1834 17.5122 50.7091C17.8151 52.2347 17.6587 53.8159 17.0625 55.2525C16.4664 56.6891 15.4574 57.9166 14.1633 58.7795C12.8692 59.6424 11.3481 60.102 9.79274 60.1C7.71241 60.0947 5.7188 59.266 4.24778 57.795C2.77677 56.3239 1.94801 54.3303 1.94273 52.25ZM21.0827 62.96C20.79 62.6937 20.4085 62.5461 20.0127 62.5461C19.617 62.5461 19.2355 62.6937 18.9427 62.96L15.5927 65.96V60.31C17.253 59.1317 18.5096 57.4703 19.1914 55.5519C19.8732 53.6336 19.947 51.5518 19.4027 49.59H20.0127C21.5374 49.5768 23.0415 49.2358 24.4227 48.59V65.89L21.0827 62.96ZM35.5627 29.15V37.26C35.7598 42.227 34.2336 47.1095 31.2427 51.08C29.8777 52.8231 28.31 54.3976 26.5727 55.77V47.44C28.6055 45.8986 30.0277 43.688 30.5877 41.1991C31.1477 38.7102 30.8094 36.1035 29.6327 33.84C29.5671 33.7172 29.4779 33.6086 29.3702 33.5203C29.2626 33.4319 29.1386 33.3657 29.0053 33.3253C28.8721 33.2849 28.7322 33.2712 28.5936 33.2848C28.455 33.2985 28.3205 33.3393 28.1977 33.405C28.0749 33.4707 27.9663 33.5599 27.878 33.6675C27.7897 33.7752 27.7234 33.8992 27.683 34.0324C27.6426 34.1657 27.6289 34.3056 27.6426 34.4441C27.6562 34.5827 27.6971 34.7172 27.7627 34.84C28.4511 36.1653 28.7867 37.6455 28.7372 39.1381C28.6878 40.6306 28.2549 42.0854 27.4804 43.3622C26.7059 44.6391 25.6157 45.695 24.3148 46.4285C23.0139 47.1619 21.5461 47.5482 20.0527 47.55C19.5432 47.5527 19.0344 47.5092 18.5327 47.42C17.8646 46.2243 16.9581 45.1787 15.8692 44.3478C14.7803 43.517 13.5324 42.9187 12.2027 42.59C11.6426 41.4264 11.3521 40.1514 11.3527 38.86C11.3532 37.2922 11.7772 35.7537 12.5801 34.407C13.383 33.0604 14.5348 31.9558 15.9138 31.2099C17.2928 30.4641 18.8478 30.1047 20.4142 30.1699C21.9807 30.235 23.5004 30.7222 24.8127 31.58C25.0466 31.7322 25.331 31.7861 25.6044 31.7299C25.8777 31.6738 26.1178 31.5121 26.2727 31.28C26.424 31.0449 26.4763 30.7596 26.4183 30.4862C26.3602 30.2128 26.1965 29.9733 25.9627 29.82C24.0826 28.5871 21.8645 27.9718 19.6179 28.0598C17.3713 28.1478 15.2082 28.9348 13.4302 30.3109C11.6522 31.687 10.3481 33.5837 9.6996 35.7365C9.05112 37.8893 9.09068 40.1908 9.81274 42.32C8.20157 42.3173 6.61464 42.7124 5.19273 43.47C4.71737 41.4449 4.48572 39.3701 4.50273 37.29V29.18C4.5011 29.1142 4.51807 29.0493 4.55168 28.9927C4.58529 28.9361 4.63417 28.8901 4.69273 28.86L20.0527 21.19L35.4027 28.86C35.4617 28.8905 35.5114 28.9363 35.5466 28.9926C35.5818 29.0489 35.6012 29.1136 35.6027 29.18L35.5627 29.15Z" fill="url(#paint0_linear_83_575)"/>
<path d="M28.1027 20.48C28.1157 20.7515 28.2333 21.0074 28.431 21.1938C28.6287 21.3803 28.891 21.4829 29.1627 21.48H52.6827C52.9448 21.4545 53.188 21.3323 53.365 21.1373C53.5419 20.9422 53.6399 20.6883 53.6399 20.425C53.6399 20.1617 53.5419 19.9078 53.365 19.7128C53.188 19.5177 52.9448 19.3956 52.6827 19.37H29.1627C28.8816 19.37 28.612 19.4817 28.4132 19.6805C28.2144 19.8793 28.1027 20.1489 28.1027 20.43V20.48ZM52.6827 29.06H46.9827C46.7207 29.0856 46.4775 29.2078 46.3005 29.4028C46.1236 29.5978 46.0256 29.8517 46.0256 30.115C46.0256 30.3783 46.1236 30.6322 46.3005 30.8273C46.4775 31.0223 46.7207 31.1445 46.9827 31.17H52.6827C52.819 31.1782 52.9555 31.1584 53.0839 31.1118C53.2122 31.0653 53.3297 30.9929 53.429 30.8992C53.5283 30.8055 53.6074 30.6925 53.6613 30.5671C53.7153 30.4417 53.743 30.3065 53.7427 30.17C53.7458 29.8973 53.6435 29.6338 53.4572 29.4345C53.271 29.2353 53.0151 29.1154 52.7427 29.1L52.6827 29.06ZM52.6827 43.52H43.7527C43.6056 43.5057 43.457 43.5223 43.3166 43.5688C43.1763 43.6153 43.0472 43.6906 42.9377 43.79C42.8281 43.8893 42.7406 44.0105 42.6807 44.1457C42.6208 44.2809 42.5899 44.4272 42.5899 44.575C42.5899 44.7229 42.6208 44.8691 42.6807 45.0043C42.7406 45.1395 42.8281 45.2607 42.9377 45.3601C43.0472 45.4594 43.1763 45.5348 43.3166 45.5813C43.457 45.6278 43.6056 45.6444 43.7527 45.63H52.6827C52.9448 45.6045 53.188 45.4823 53.365 45.2873C53.5419 45.0923 53.6399 44.8383 53.6399 44.575C53.6399 44.3117 53.5419 44.0578 53.365 43.8628C53.188 43.6677 52.9448 43.5456 52.6827 43.52ZM48.1527 14.57C48.4148 14.5445 48.658 14.4223 48.835 14.2273C49.0119 14.0322 49.1099 13.7783 49.1099 13.515C49.1099 13.2517 49.0119 12.9978 48.835 12.8028C48.658 12.6077 48.4148 12.4856 48.1527 12.46H33.6927C33.5456 12.4457 33.397 12.4623 33.2566 12.5088C33.1163 12.5553 32.9872 12.6306 32.8777 12.73C32.7681 12.8293 32.6806 12.9505 32.6207 13.0857C32.5608 13.2209 32.5299 13.3671 32.5299 13.515C32.5299 13.6629 32.5608 13.8091 32.6207 13.9443C32.6806 14.0795 32.7681 14.2007 32.8777 14.3001C32.9872 14.3994 33.1163 14.4748 33.2566 14.5213C33.397 14.5678 33.5456 14.5844 33.6927 14.57H48.1527ZM23.2427 36.38L19.4827 40.14L17.0227 37.68C16.8243 37.484 16.5567 37.3741 16.2777 37.3741C15.9988 37.3741 15.7311 37.484 15.5327 37.68C15.3361 37.8801 15.2259 38.1495 15.2259 38.43C15.2259 38.7106 15.3361 38.9799 15.5327 39.18L18.7427 42.38C18.838 42.48 18.9529 42.5591 19.0803 42.6125C19.2077 42.6658 19.3447 42.6922 19.4827 42.69C19.6221 42.6907 19.7601 42.6636 19.8889 42.6104C20.0177 42.5572 20.1346 42.4789 20.2327 42.38L24.7427 37.88C24.9417 37.6811 25.0534 37.4113 25.0534 37.13C25.0534 36.8487 24.9417 36.5789 24.7427 36.38C24.5438 36.1811 24.274 36.0694 23.9927 36.0694C23.7114 36.0694 23.4417 36.1811 23.2427 36.38ZM39.3527 63.75L37.1827 63.44L36.1827 61.44C36.0513 61.1744 35.8482 60.9508 35.5964 60.7945C35.3446 60.6382 35.0541 60.5553 34.7577 60.5553C34.4614 60.5553 34.1709 60.6382 33.9191 60.7945C33.6673 60.9508 33.4642 61.1744 33.3327 61.44L32.3327 63.44L30.1727 63.75C29.8776 63.7917 29.6001 63.9156 29.372 64.1074C29.1439 64.2992 28.9742 64.5513 28.8825 64.8349C28.7907 65.1185 28.7805 65.4222 28.8531 65.7113C28.9256 66.0004 29.078 66.2633 29.2927 66.47L30.8527 67.99L30.4827 70.14C30.4415 70.3688 30.4513 70.6039 30.5114 70.8285C30.5715 71.053 30.6804 71.2616 30.8303 71.4392C30.9803 71.6169 31.1676 71.7592 31.3789 71.8562C31.5902 71.9531 31.8203 72.0022 32.0527 72C32.3101 71.9986 32.5635 71.9369 32.7927 71.82L34.7227 70.82L36.6527 71.82C36.9157 71.9593 37.2126 72.0219 37.5094 72.0008C37.8062 71.9797 38.0912 71.8757 38.3319 71.7007C38.5725 71.5257 38.7592 71.2866 38.8708 71.0107C38.9823 70.7348 39.0142 70.4331 38.9627 70.14L38.5927 67.99L40.1627 66.47C40.3738 66.2617 40.5227 65.9989 40.5931 65.7109C40.6634 65.4228 40.6523 65.1209 40.5611 64.8388C40.4698 64.5567 40.3019 64.3055 40.0762 64.1132C39.8505 63.921 39.5758 63.7952 39.2827 63.75H39.3527ZM37.0027 66.67C36.8165 66.8495 36.6772 67.0719 36.597 67.3177C36.5168 67.5635 36.4982 67.8253 36.5427 68.08L36.7827 69.46L35.5327 68.81C35.3056 68.6866 35.0512 68.622 34.7927 68.622C34.5343 68.622 34.2799 68.6866 34.0527 68.81L32.8127 69.46L33.0527 68.08C33.093 67.8254 33.0724 67.5648 32.9924 67.3197C32.9124 67.0746 32.7755 66.8519 32.5927 66.67L31.5927 65.67L32.9827 65.47C33.2381 65.4326 33.4806 65.3338 33.6896 65.1824C33.8985 65.0309 34.0677 64.8311 34.1827 64.6L34.8027 63.34L35.4227 64.6C35.5391 64.8301 35.7087 65.029 35.9174 65.1803C36.1261 65.3316 36.3679 65.431 36.6227 65.47L38.0127 65.67L37.0027 66.67ZM52.4027 63.75L50.2427 63.44L49.2427 61.44C49.1113 61.1744 48.9082 60.9508 48.6564 60.7945C48.4046 60.6382 48.1141 60.5553 47.8177 60.5553C47.5214 60.5553 47.2309 60.6382 46.9791 60.7945C46.7273 60.9508 46.5242 61.1744 46.3927 61.44L45.3927 63.44L43.2327 63.75C42.9397 63.7952 42.665 63.921 42.4393 64.1132C42.2135 64.3055 42.0457 64.5567 41.9544 64.8388C41.8631 65.1209 41.8521 65.4228 41.9224 65.7109C41.9927 65.9989 42.1417 66.2617 42.3527 66.47L43.9127 67.99L43.5427 70.14C43.4913 70.4331 43.5232 70.7348 43.6347 71.0107C43.7462 71.2866 43.933 71.5257 44.1736 71.7007C44.4143 71.8757 44.6993 71.9797 44.9961 72.0008C45.2929 72.0219 45.5897 71.9593 45.8527 71.82L47.7827 70.82L49.7228 71.82C49.9508 71.9402 50.205 72.0021 50.4627 72C50.6944 72.0008 50.9233 71.9506 51.1334 71.853C51.3434 71.7554 51.5295 71.6128 51.6783 71.4354C51.8272 71.2579 51.9352 71.0499 51.9947 70.826C52.0542 70.6022 52.0638 70.368 52.0227 70.14L51.6527 67.99L53.2228 66.47C53.4338 66.2617 53.5827 65.9989 53.6531 65.7109C53.7234 65.4228 53.7123 65.1209 53.6211 64.8388C53.5298 64.5567 53.3619 64.3055 53.1362 64.1132C52.9105 63.921 52.6358 63.7952 52.3427 63.75H52.4027ZM50.0527 66.67C49.8665 66.8495 49.7272 67.0719 49.647 67.3177C49.5668 67.5635 49.5482 67.8253 49.5927 68.08L49.8327 69.46L48.5827 68.81C48.3556 68.6866 48.1012 68.622 47.8427 68.622C47.5843 68.622 47.3299 68.6866 47.1027 68.81L45.8627 69.46L46.1027 68.08C46.1447 67.8253 46.1248 67.5643 46.0448 67.3189C45.9647 67.0735 45.8268 66.851 45.6427 66.67L44.6427 65.67L46.0327 65.47C46.2881 65.4326 46.5306 65.3338 46.7396 65.1824C46.9485 65.0309 47.1177 64.8311 47.2327 64.6L47.8527 63.34L48.4728 64.6C48.5891 64.8301 48.7587 65.029 48.9674 65.1803C49.1761 65.3316 49.4179 65.431 49.6727 65.47L51.0627 65.67L50.0527 66.67ZM65.4527 63.75L63.2927 63.44L62.2927 61.44C62.1613 61.1744 61.9582 60.9508 61.7064 60.7945C61.4546 60.6382 61.1641 60.5553 60.8677 60.5553C60.5714 60.5553 60.2809 60.6382 60.0291 60.7945C59.7773 60.9508 59.5742 61.1744 59.4428 61.44L58.4428 63.44L56.2827 63.75C55.9889 63.7939 55.7131 63.9194 55.4869 64.112C55.2606 64.3047 55.0929 64.5569 55.0028 64.84C54.9084 65.1217 54.8958 65.4244 54.9666 65.713C55.0375 66.0015 55.1887 66.264 55.4027 66.47L56.9627 67.99L56.5927 70.14C56.5424 70.4339 56.5757 70.736 56.6889 71.0119C56.8021 71.2877 56.9905 71.5262 57.2327 71.7C57.5019 71.8983 57.8284 72.0036 58.1628 72C58.4202 71.9997 58.6739 71.938 58.9027 71.82L60.8327 70.82L62.7727 71.82C63.0354 71.9565 63.331 72.0169 63.6262 71.9944C63.9214 71.972 64.2045 71.8676 64.4435 71.693C64.6826 71.5184 64.8681 71.2805 64.9793 71.0061C65.0905 70.7318 65.1228 70.4318 65.0727 70.14L64.7027 67.99L66.2727 66.47C66.4838 66.2617 66.6328 65.9989 66.7031 65.7109C66.7734 65.4228 66.7623 65.1209 66.6711 64.8388C66.5798 64.5567 66.4119 64.3055 66.1862 64.1132C65.9605 63.921 65.6858 63.7952 65.3927 63.75H65.4527ZM63.1027 66.67C62.9158 66.8489 62.776 67.0713 62.6957 67.3173C62.6155 67.5633 62.5973 67.8253 62.6427 68.08L62.8828 69.46L61.6328 68.81C61.4056 68.6866 61.1512 68.622 60.8927 68.622C60.6342 68.622 60.3799 68.6866 60.1527 68.81L58.9128 69.46L59.1527 68.08C59.1973 67.8253 59.1787 67.5635 59.0985 67.3177C59.0182 67.0719 58.879 66.8495 58.6928 66.67L57.6928 65.67L59.0827 65.47C59.3381 65.4326 59.5806 65.3338 59.7896 65.1824C59.9985 65.0309 60.1677 64.8311 60.2827 64.6L60.9027 63.34L61.5327 64.6C61.6454 64.8308 61.8127 65.0307 62.0201 65.1823C62.2274 65.3339 62.4686 65.4327 62.7228 65.47L64.1127 65.67L63.1027 66.67ZM13.9027 49.9L12.0127 49.63L11.1727 47.92C11.0454 47.6629 10.8487 47.4464 10.6048 47.2951C10.361 47.1437 10.0797 47.0635 9.79274 47.0635C9.50576 47.0635 9.22449 47.1437 8.98066 47.2951C8.73682 47.4464 8.54011 47.6629 8.41274 47.92L7.57274 49.63L5.68274 49.9C5.40453 49.9378 5.14196 50.051 4.92341 50.2272C4.70485 50.4035 4.53863 50.6361 4.44274 50.9C4.35335 51.1719 4.34254 51.4635 4.41153 51.7412C4.48053 52.019 4.62652 52.2716 4.83274 52.47L6.20275 53.81L5.88274 55.69C5.84482 55.9099 5.85546 56.1354 5.9139 56.3507C5.97234 56.5661 6.07716 56.766 6.22103 56.9366C6.36489 57.1071 6.54432 57.2441 6.74672 57.338C6.94913 57.4319 7.16962 57.4804 7.39274 57.48C7.6408 57.4809 7.88505 57.419 8.10274 57.3L9.79274 56.42L11.4827 57.3C11.7355 57.4354 12.0212 57.4971 12.3073 57.4779C12.5934 57.4588 12.8683 57.3597 13.1008 57.1918C13.3333 57.024 13.5139 56.7942 13.6221 56.5287C13.7303 56.2631 13.7617 55.9725 13.7127 55.69L13.3927 53.81L14.7527 52.47C14.96 52.2723 15.1067 52.0196 15.1757 51.7416C15.2448 51.4637 15.2333 51.1718 15.1427 50.9C15.0468 50.6361 14.8806 50.4035 14.6621 50.2272C14.4435 50.051 14.181 49.9378 13.9027 49.9ZM11.7027 52.56C11.523 52.7292 11.3872 52.9397 11.3071 53.1732C11.2269 53.4066 11.2048 53.6561 11.2427 53.9L11.4127 54.9L10.4927 54.41C10.2729 54.2919 10.0273 54.23 9.77775 54.23C9.5282 54.23 9.28255 54.2919 9.06275 54.41L8.13274 54.9L8.31275 53.9C8.35394 53.6547 8.33545 53.403 8.25887 53.1663C8.18229 52.9296 8.04985 52.7148 7.87275 52.54L7.12275 51.8L8.12275 51.65C8.37052 51.617 8.6062 51.5229 8.80866 51.3763C9.01112 51.2297 9.17402 51.0351 9.28273 50.81L9.74274 49.87L10.2127 50.81C10.3198 51.0344 10.481 51.2286 10.6817 51.3752C10.8824 51.5218 11.1165 51.6163 11.3627 51.65L12.3627 51.8L11.7027 52.56Z" fill="url(#paint1_linear_83_575)"/>
<defs>
<linearGradient id="paint0_linear_83_575" x1="0.00292946" y1="-0.47998" x2="67.0029" y2="71.52" gradientUnits="userSpaceOnUse">
<stop stop-color="#E98135"/>
<stop offset="1" stop-color="#48389C"/>
</linearGradient>
<linearGradient id="paint1_linear_83_575" x1="0.00292946" y1="-0.47998" x2="67.0029" y2="71.52" gradientUnits="userSpaceOnUse">
<stop stop-color="#E98135"/>
<stop offset="1" stop-color="#48389C"/>
</linearGradient>
</defs>
</svg>
