<svg width="65" height="73" viewBox="0 0 65 73" fill="none" xmlns="http://www.w3.org/2000/svg">
<path fill-rule="evenodd" clip-rule="evenodd" d="M22.5016 20.5589C22.7244 20.9823 22.8084 21.4651 22.7416 21.9389L22.4216 24.6189C22.2951 25.6389 22.505 26.6723 23.0194 27.5621C23.5338 28.4519 24.3246 29.1495 25.2716 29.5489L26.8616 30.2289L22.9116 38.7089C22.798 38.9552 22.7538 39.2279 22.7837 39.4975C22.8137 39.7672 22.9167 40.0235 23.0816 40.2389C23.2448 40.4549 23.4653 40.621 23.718 40.7182C23.9708 40.8154 24.2457 40.8399 24.5116 40.7889L28.5116 40.0889L30.5716 43.6389C30.7092 43.8716 30.9076 44.0625 31.1454 44.1911C31.3832 44.3197 31.6515 44.3811 31.9216 44.3689C32.1912 44.3583 32.4525 44.2734 32.6767 44.1233C32.9009 43.9733 33.0791 43.7641 33.1916 43.5189L37.0316 35.2889L38.1916 34.9389C38.6462 34.7886 39.137 34.7886 39.5916 34.9389L40.7516 35.2889L44.5916 43.5189C44.7102 43.7739 44.8995 43.9896 45.1371 44.1402C45.3746 44.2909 45.6503 44.3702 45.9316 44.3689C46.1899 44.3686 46.4438 44.3012 46.6682 44.1732C46.8926 44.0452 47.0798 43.8611 47.2116 43.6389L49.2716 40.0889L53.2716 40.7889C53.5376 40.8399 53.8125 40.8154 54.0652 40.7182C54.3179 40.621 54.5384 40.4549 54.7016 40.2389C54.8665 40.0235 54.9695 39.7672 54.9995 39.4975C55.0295 39.2279 54.9852 38.9552 54.8716 38.7089L50.9216 30.2289L52.5116 29.5489C53.4586 29.1495 54.2494 28.4519 54.7638 27.5621C55.2782 26.6723 55.4881 25.6389 55.3616 24.6189L55.0416 21.9389C54.9748 21.4651 55.0588 20.9823 55.2816 20.5589L56.5016 18.1489C56.9682 17.2341 57.123 16.1918 56.9425 15.1809C56.762 14.1699 56.256 13.2457 55.5016 12.5489L53.5016 10.6989C53.1499 10.3767 52.9056 9.95436 52.8016 9.48888L52.1916 6.85888C51.9607 5.8582 51.4104 4.95985 50.6238 4.29956C49.8373 3.63927 48.8572 3.25292 47.8316 3.19888L45.1316 3.04888C44.655 3.03242 44.1961 2.86425 43.8216 2.56888L41.6616 0.958878C40.8436 0.336815 39.8443 0 38.8166 0C37.789 0 36.7896 0.336815 35.9716 0.958878L33.8116 2.56888C33.4328 2.8632 32.971 3.0311 32.4916 3.04888L29.7916 3.19888C28.7661 3.25292 27.786 3.63927 26.9994 4.29956C26.2128 4.95985 25.6625 5.8582 25.4316 6.85888L24.8216 9.48888C24.7201 9.95532 24.4754 10.3784 24.1216 10.6989L22.1216 12.5489C21.3672 13.2457 20.8612 14.1699 20.6807 15.1809C20.5002 16.1918 20.655 17.2341 21.1216 18.1489L22.5016 20.5589ZM31.8116 41.0789L30.1916 38.2189C30.0726 38.0143 29.8939 37.8509 29.6794 37.7508C29.4649 37.6507 29.2249 37.6186 28.9916 37.6589L25.7416 38.2289L28.8616 31.5089L30.3416 33.7689C30.7642 34.4232 31.3427 34.9622 32.0252 35.3375C32.7077 35.7128 33.4728 35.9125 34.2516 35.9189L31.8116 41.0789ZM48.9116 37.6689C48.6783 37.6286 48.4384 37.6607 48.2239 37.7608C48.0093 37.8609 47.8306 38.0242 47.7116 38.2289L46.0516 41.0789L43.6516 35.9289C44.4305 35.9226 45.1955 35.7228 45.878 35.3475C46.5605 34.9722 47.1391 34.4332 47.5616 33.7789L49.0416 31.5189L52.1616 38.2389L48.9116 37.6689ZM23.9116 14.2489L25.9116 12.4089C26.5965 11.7708 27.0738 10.9416 27.2816 10.0289L27.9016 7.39888C28.012 6.88519 28.29 6.42276 28.6918 6.08427C29.0937 5.74577 29.5966 5.5504 30.1216 5.52888L32.8216 5.37888C33.7573 5.33553 34.6574 5.00758 35.4016 4.43888L37.5616 2.81888C37.9768 2.49777 38.4868 2.32355 39.0116 2.32355C39.5365 2.32355 40.0465 2.49777 40.4616 2.81888L42.6216 4.43888C43.3658 5.00758 44.266 5.33553 45.2016 5.37888L47.9016 5.52888C48.4266 5.5504 48.9295 5.74577 49.3314 6.08427C49.7332 6.42276 50.0112 6.88519 50.1216 7.39888L50.7416 10.0289C50.9494 10.9416 51.4267 11.7708 52.1116 12.4089L54.1116 14.2489C54.4976 14.6043 54.7564 15.0764 54.8485 15.5929C54.9406 16.1095 54.8609 16.642 54.6216 17.1089L53.4016 19.5189C52.97 20.3525 52.8026 21.2978 52.9216 22.2289L53.2416 24.9089C53.3118 25.4287 53.2075 25.9572 52.9451 26.4114C52.6827 26.8656 52.277 27.22 51.7916 27.4189L49.1916 28.4789C48.3251 28.8363 47.5887 29.4505 47.0816 30.2389L45.6116 32.4989C45.331 32.9438 44.911 33.2833 44.4171 33.4642C43.9231 33.6451 43.3832 33.6573 42.8816 33.4989L40.2916 32.7189C39.8478 32.5816 39.3861 32.5108 38.9216 32.5089C38.457 32.51 37.9952 32.5808 37.5516 32.7189L34.9616 33.4989C34.46 33.6573 33.9201 33.6451 33.4262 33.4642C32.9323 33.2833 32.5122 32.9438 32.2316 32.4989L30.7616 30.2389C30.2545 29.4505 29.5182 28.8363 28.6516 28.4789L26.1916 27.4089C25.7062 27.21 25.3005 26.8556 25.0381 26.4014C24.7757 25.9472 24.6715 25.4187 24.7416 24.8989L25.0616 22.2189C25.1806 21.2878 25.0132 20.3425 24.5816 19.5089L23.3516 17.0789C23.1139 16.615 23.035 16.0859 23.1272 15.5728C23.2193 15.0597 23.4773 14.5911 23.8616 14.2389L23.9116 14.2489ZM38.9816 29.4689C41.2561 29.4689 43.4795 28.7944 45.3707 27.5308C47.2618 26.2671 48.7358 24.4711 49.6062 22.3697C50.4766 20.2684 50.7044 17.9561 50.2606 15.7253C49.8169 13.4946 48.7216 11.4455 47.1133 9.83715C45.505 8.22885 43.4559 7.13358 41.2252 6.68985C38.9944 6.24612 36.6821 6.47386 34.5808 7.34427C32.4794 8.21468 30.6834 9.68866 29.4197 11.5798C28.1561 13.471 27.4816 15.6944 27.4816 17.9689C27.4843 21.0181 28.6967 23.9416 30.8528 26.0977C33.0089 28.2538 35.9324 29.4662 38.9816 29.4689ZM38.9816 8.79888C40.7953 8.79888 42.5682 9.33669 44.0762 10.3443C45.5842 11.3519 46.7595 12.7841 47.4536 14.4597C48.1476 16.1353 48.3292 17.9791 47.9754 19.7579C47.6216 21.5367 46.7482 23.1706 45.4658 24.453C44.1833 25.7355 42.5494 26.6089 40.7706 26.9627C38.9918 27.3165 37.148 27.1349 35.4724 26.4409C33.7968 25.7468 32.3646 24.5715 31.357 23.0635C30.3494 21.5555 29.8116 19.7825 29.8116 17.9689C29.8143 15.5377 30.7812 13.2068 32.5004 11.4876C34.2195 9.7685 36.5504 8.80153 38.9816 8.79888ZM37.6316 23.7989C38.3446 23.7978 39.028 23.5136 39.5316 23.0089C40.8216 21.7189 42.1216 20.3989 43.3816 19.1289L45.6416 16.8289C46.0127 16.4503 46.2642 15.9708 46.3646 15.4502C46.465 14.9296 46.41 14.391 46.2063 13.9015C46.0026 13.412 45.6593 12.9933 45.2192 12.6977C44.7792 12.402 44.2618 12.2424 43.7316 12.2389C43.0176 12.2448 42.3348 12.5323 41.8316 13.0389L37.6316 17.2889L36.1416 15.7989C35.6364 15.2936 34.9511 15.0098 34.2366 15.0098C33.5221 15.0098 32.8368 15.2936 32.3316 15.7989C31.8264 16.3041 31.5425 16.9894 31.5425 17.7039C31.5425 18.4184 31.8264 19.1036 32.3316 19.6089L35.7316 23.0089C35.9822 23.26 36.2799 23.4591 36.6077 23.5947C36.9355 23.7302 37.2869 23.7996 37.6416 23.7989H37.6316ZM33.8616 17.7089C33.8602 17.6599 33.8689 17.6112 33.887 17.5657C33.9051 17.5202 33.9323 17.4788 33.9669 17.4442C34.0015 17.4095 34.0429 17.3823 34.0884 17.3642C34.1339 17.3461 34.1826 17.3375 34.2316 17.3389C34.2803 17.3375 34.3287 17.3466 34.3736 17.3656C34.4184 17.3846 34.4587 17.413 34.4916 17.4489L36.8016 19.7489C36.9089 19.8571 37.0367 19.9428 37.1775 20.0012C37.3183 20.0596 37.4692 20.0894 37.6216 20.0889C37.929 20.0877 38.2236 19.9655 38.4416 19.7489L43.4416 14.6789C43.4753 14.644 43.5157 14.6162 43.5604 14.5973C43.6051 14.5784 43.6531 14.5687 43.7016 14.5689C43.7495 14.5669 43.7973 14.5747 43.842 14.5919C43.8867 14.6091 43.9274 14.6353 43.9616 14.6689C43.997 14.7033 44.0251 14.7446 44.0443 14.7901C44.0635 14.8356 44.0734 14.8845 44.0734 14.9339C44.0734 14.9833 44.0635 15.0322 44.0443 15.0777C44.0251 15.1232 43.997 15.1644 43.9616 15.1989L41.6916 17.4989L37.8616 21.3689C37.7895 21.4356 37.6949 21.4727 37.5966 21.4727C37.4983 21.4727 37.4037 21.4356 37.3316 21.3689L33.9416 17.9689C33.8949 17.9307 33.8584 17.8814 33.8357 17.8255C33.813 17.7696 33.8047 17.7088 33.8116 17.6489L33.8616 17.7089ZM63.7716 46.2689C63.1516 45.2689 60.5816 42.1089 53.8416 46.0389L42.1316 52.8489C41.6651 53.129 41.1643 53.3475 40.6416 53.4989C40.8113 53.1813 40.9454 52.8459 41.0416 52.4989C41.3252 51.3648 41.1615 50.1651 40.5843 49.1485C40.0071 48.1319 39.0608 47.3765 37.9416 47.0389H37.7916C34.6087 46.3819 31.4874 45.4552 28.4616 44.2689C27.5316 43.9389 26.6516 43.6189 25.9116 43.3789C22.9116 42.3789 20.1216 43.6089 17.8516 44.9289L9.25161 49.9289L8.68161 48.9289C8.4955 48.5989 8.24612 48.3089 7.94774 48.0754C7.64936 47.842 7.30786 47.6697 6.94279 47.5684C6.57772 47.4672 6.19625 47.4389 5.82025 47.4853C5.44425 47.5318 5.0811 47.6519 4.75161 47.8389L1.46161 49.6989C0.797155 50.0767 0.309416 50.7023 0.105135 51.4388C-0.0991466 52.1754 -0.00332886 52.9628 0.371614 53.6289L10.0316 70.6889C10.2171 71.0184 10.4666 71.3076 10.7654 71.5394C11.0642 71.7712 11.4063 71.941 11.7716 72.0389C12.0254 72.1111 12.2878 72.1481 12.5516 72.1489C13.0452 72.1459 13.5301 72.0186 13.9616 71.7789L17.2416 69.9189C17.5716 69.7328 17.8616 69.4834 18.0951 69.185C18.3285 68.8866 18.5008 68.5451 18.6021 68.18C18.7033 67.815 18.7316 67.4335 18.6852 67.0575C18.6387 66.6815 18.5186 66.3184 18.3316 65.9889L17.2116 63.9889L19.0416 62.9289L33.9816 66.9289C34.7974 67.1453 35.6376 67.2562 36.4816 67.2589C38.1517 67.26 39.7881 66.7885 41.2016 65.8989L62.3916 52.6789C63.3801 51.9605 64.0646 50.8986 64.3106 49.7017C64.5567 48.5047 64.3466 47.259 63.7216 46.2089L63.7716 46.2689ZM16.3616 67.4689C16.3224 67.6117 16.2292 67.7336 16.1016 67.8089L12.8216 69.6689C12.6887 69.7358 12.5364 69.7535 12.3916 69.7189C12.2485 69.6745 12.1273 69.5782 12.0516 69.4489L2.39161 52.3889C2.32015 52.2589 2.30318 52.1059 2.34442 51.9634C2.38567 51.8209 2.48176 51.7006 2.61161 51.6289L5.89161 49.7689C5.97356 49.7214 6.06692 49.6972 6.16162 49.6989H6.32161C6.46442 49.7381 6.58636 49.8313 6.66162 49.9589L16.3116 67.0189C16.3497 67.083 16.3739 67.1544 16.3825 67.2285C16.3911 67.3026 16.384 67.3777 16.3616 67.4489V67.4689ZM61.1916 50.7089L39.9416 63.7889C39.1469 64.2869 38.2558 64.6112 37.3268 64.7405C36.3979 64.8697 35.4521 64.801 34.5516 64.5389L19.1416 60.4089C18.8439 60.3317 18.5278 60.3748 18.2616 60.5289L16.0216 61.8189L10.3516 51.8189L18.9716 46.8189C20.9016 45.6989 22.9716 44.8189 25.1516 45.4689C25.8616 45.6989 26.6816 45.9989 27.6316 46.3389C30.7545 47.5518 33.972 48.505 37.2516 49.1889C37.7926 49.3498 38.2511 49.7126 38.5322 50.2021C38.8132 50.6917 38.8954 51.2705 38.7616 51.8189C38.6162 52.3559 38.2646 52.8137 37.7833 53.0928C37.3019 53.3718 36.7299 53.4495 36.1916 53.3089C34.3716 52.9389 32.7216 52.4689 30.9916 51.9789C30.2216 51.7589 29.4116 51.5289 28.5716 51.3089C28.4245 51.2688 28.271 51.2581 28.1198 51.2774C27.9686 51.2967 27.8226 51.3456 27.6903 51.4213C27.558 51.4969 27.4419 51.5979 27.3486 51.7185C27.2553 51.8391 27.1867 51.9768 27.1466 52.1239C27.1066 52.271 27.0959 52.4245 27.1152 52.5757C27.1344 52.7269 27.1833 52.8728 27.259 53.0052C27.3347 53.1375 27.4357 53.2536 27.5562 53.3469C27.6768 53.4402 27.8145 53.5088 27.9616 53.5489C28.7916 53.7689 29.5916 53.9989 30.3616 54.2189C32.1516 54.7189 33.8516 55.2189 35.7616 55.5889C36.2516 55.6889 36.7616 55.7789 37.2616 55.8589C39.3228 56.247 41.4548 55.8739 43.2616 54.8089L54.9716 47.9889C58.2716 46.0689 60.8016 45.8489 61.7416 47.4189C62.051 47.9462 62.1654 48.5655 62.0649 49.1686C61.9644 49.7717 61.6553 50.3204 61.1916 50.7189V50.7089ZM6.55161 52.5589C6.5967 52.8665 6.51772 53.1795 6.33206 53.4289C6.1464 53.6783 5.86927 53.8438 5.56162 53.8889C5.25397 53.934 4.941 53.855 4.69158 53.6693C4.44215 53.4837 4.2767 53.2065 4.23162 52.8989C4.18785 52.5912 4.2681 52.2788 4.4547 52.0303C4.6413 51.7818 4.91897 51.6176 5.22662 51.5739C5.53427 51.5301 5.8467 51.6104 6.09519 51.797C6.34367 51.9836 6.50785 52.2612 6.55161 52.5689V52.5589Z" fill="url(#paint0_linear_83_574)"/>
<defs>
<linearGradient id="paint0_linear_83_574" x1="-0.0483412" y1="-0.301146" x2="70.6686" y2="64.3519" gradientUnits="userSpaceOnUse">
<stop stop-color="#E98135"/>
<stop offset="1" stop-color="#48389C"/>
</linearGradient>
</defs>
</svg>
