<svg width="70" height="74" viewBox="0 0 70 74" fill="none" xmlns="http://www.w3.org/2000/svg">
<path d="M67.4301 34.9402H63.94C63.634 34.9402 63.3311 35.0004 63.0484 35.1175C62.7657 35.2346 62.5088 35.4063 62.2925 35.6226C62.0761 35.839 61.9045 36.0958 61.7874 36.3785C61.6703 36.6612 61.61 36.9642 61.61 37.2702H48.94C47.57 36.7502 40.49 32.9302 38.3 32.3902C36.1101 31.8502 34.66 32.0802 31.62 32.1102C30.3699 32.1833 29.1337 32.4117 27.94 32.7902C25.94 33.4802 20.04 37.2702 16.41 37.2702H8.15002C8.15002 36.6522 7.90455 36.0596 7.46759 35.6226C7.03063 35.1857 6.43796 34.9402 5.82001 34.9402H2.33002C1.71206 34.9402 1.11945 35.1857 0.682495 35.6226C0.245535 36.0596 0 36.6522 0 37.2702V54.7202C0.00264475 55.3364 0.249301 55.9265 0.685974 56.3613C1.12265 56.7961 1.71379 57.0402 2.33002 57.0402H5.82001C6.42771 57.0404 7.01144 56.8032 7.44672 56.3791C7.88199 55.955 8.13438 55.3777 8.15002 54.7702C10.4319 55.0123 12.6676 55.578 14.79 56.4502C14.3165 57.2922 14.157 58.275 14.3401 59.2236C14.5233 60.1721 15.0371 61.0249 15.79 61.6302C16.5058 62.1998 17.3952 62.5069 18.31 62.5002C18.4843 62.4901 18.658 62.47 18.83 62.4402V62.5202C18.9464 63.5034 19.4164 64.4108 20.1523 65.0732C20.8883 65.7355 21.84 66.1076 22.83 66.1202C23.0044 66.1106 23.1781 66.0906 23.35 66.0602C23.4378 67.0593 23.8976 67.9889 24.6385 68.6649C25.3793 69.341 26.3471 69.714 27.35 69.7102C27.5277 69.7006 27.7047 69.6806 27.88 69.6502C27.9573 70.4596 28.2753 71.2273 28.793 71.8544C29.3106 72.4814 30.0042 72.939 30.7844 73.1682C31.5645 73.3974 32.3954 73.3877 33.1699 73.1403C33.9445 72.8929 34.6272 72.4192 35.13 71.7802L36.21 70.4002C37.45 71.4702 38.21 72.1502 38.21 72.1502C38.7798 72.7208 39.5063 73.1093 40.2973 73.2664C41.0883 73.4235 41.9082 73.342 42.6528 73.0324C43.3974 72.7228 44.0332 72.1989 44.4796 71.5273C44.926 70.8557 45.1628 70.0666 45.16 69.2602H45.21C46.2861 69.2523 47.3157 68.8207 48.0757 68.0588C48.8357 67.297 49.2648 66.2663 49.27 65.1902V65.1402C50.3399 65.1456 51.3687 64.7284 52.1328 63.9794C52.8968 63.2303 53.3342 62.21 53.35 61.1402V61.0002C53.886 61.0033 54.4171 60.8987 54.9119 60.6926C55.4066 60.4864 55.8549 60.183 56.23 59.8002C56.7957 59.2533 57.1875 58.5518 57.3564 57.7834C57.5254 57.015 57.4641 56.2139 57.1801 55.4802C58.5883 55.0797 60.0376 54.8415 61.5 54.7702C61.5131 55.3794 61.7643 55.9593 62.1999 56.3855C62.6354 56.8117 63.2206 57.0503 63.83 57.0502H67.32C67.6255 57.0515 67.9283 56.9925 68.2109 56.8765C68.4936 56.7605 68.7505 56.5898 68.967 56.3742C69.1835 56.1587 69.3553 55.9025 69.4725 55.6203C69.5897 55.3382 69.65 55.0357 69.65 54.7302V37.2702C69.6507 36.6708 69.4203 36.0943 69.0069 35.6603C68.5935 35.2264 68.0287 34.9685 67.4301 34.9402ZM5.77002 54.7202H2.28003V37.2702H5.77002V54.7202ZM38.62 40.3402C38.1831 40.0366 37.6557 39.8909 37.1249 39.9273C36.5941 39.9637 36.0915 40.1798 35.7 40.5402L29.78 46.0502C29.6154 46.2171 29.4192 46.3496 29.2029 46.44C28.9866 46.5305 28.7545 46.5771 28.52 46.5771C28.2856 46.5771 28.0535 46.5305 27.8372 46.44C27.6209 46.3496 27.4247 46.2171 27.26 46.0502C26.9548 45.7535 26.7697 45.3548 26.7401 44.9302C26.7108 44.6875 26.732 44.4413 26.8026 44.2072C26.8732 43.9732 26.9915 43.7563 27.15 43.5702L34.15 36.2002C34.7603 35.5802 35.5488 35.166 36.4056 35.0154C37.2625 34.8648 38.145 34.9854 38.9301 35.3602L46.57 39.2002C47.056 39.4489 47.594 39.5792 48.14 39.5802H61.61V52.4102C59.6115 52.5003 57.6356 52.8706 55.7401 53.5102C51.1101 49.5102 39.17 40.7302 38.62 40.3302V40.3402ZM17.2 59.8102C16.8366 59.5193 16.6024 59.097 16.5482 58.6347C16.4939 58.1724 16.6239 57.7073 16.91 57.3402L19.55 54.0002C19.7141 53.7917 19.9238 53.6238 20.1631 53.5094C20.4024 53.3949 20.6648 53.337 20.9301 53.3402C21.3219 53.3353 21.7034 53.4661 22.01 53.7102C22.3699 53.999 22.6019 54.4176 22.6561 54.8759C22.7104 55.3341 22.5825 55.7953 22.3 56.1602L19.65 59.5102C19.3626 59.8716 18.9448 60.1055 18.4865 60.1617C18.0281 60.2178 17.5661 60.0915 17.2 59.8102ZM21.76 63.4202C21.5795 63.2758 21.4292 63.0973 21.3176 62.8948C21.2061 62.6924 21.1356 62.4699 21.11 62.2402C21.081 62.0136 21.0978 61.7834 21.1597 61.5635C21.2215 61.3436 21.3271 61.1384 21.47 60.9602L24.85 56.7002C25.1378 56.3382 25.5576 56.1053 26.017 56.0528C26.4765 56.0003 26.938 56.1324 27.3 56.4202C27.6621 56.7079 27.8949 57.1277 27.9474 57.5872C28 58.0467 27.8678 58.5082 27.58 58.8702L24.21 63.1302C23.9212 63.49 23.5026 63.7221 23.0444 63.7763C22.5861 63.8306 22.1249 63.7027 21.76 63.4202ZM26.32 67.0202C25.9601 66.7314 25.7281 66.3127 25.6739 65.8545C25.6196 65.3963 25.7475 64.9351 26.03 64.5702L28.7 61.2102C28.9274 60.9305 29.236 60.7284 29.5833 60.6317C29.9305 60.535 30.2991 60.5485 30.6383 60.6703C30.9775 60.7922 31.2705 61.0164 31.4768 61.3119C31.6831 61.6075 31.7926 61.9598 31.79 62.3202C31.7895 62.7051 31.6592 63.0786 31.42 63.3802L28.78 66.7302C28.4894 67.0907 28.0691 67.323 27.6092 67.3772C27.1493 67.4314 26.6865 67.3033 26.32 67.0202ZM35.32 67.9102L33.4 70.3402C33.1065 70.683 32.6919 70.8992 32.2427 70.9435C31.7936 70.9879 31.3447 70.857 30.9897 70.5782C30.6348 70.2995 30.4013 69.8943 30.338 69.4475C30.2747 69.0006 30.3865 68.5466 30.65 68.1802L32.58 65.7502C32.7446 65.5416 32.9542 65.3729 33.1932 65.2569C33.4322 65.1409 33.6943 65.0805 33.96 65.0802C34.3498 65.0797 34.7279 65.2139 35.03 65.4602C35.3899 65.749 35.6219 66.1676 35.6761 66.6259C35.7304 67.0841 35.6025 67.5453 35.32 67.9102ZM54.75 58.1502C54.4203 58.4775 53.9746 58.6612 53.51 58.6612C53.0454 58.6612 52.5997 58.4775 52.27 58.1502C52.0512 57.9327 51.755 57.8111 51.4465 57.812C51.138 57.8129 50.8425 57.9364 50.625 58.1552C50.4075 58.374 50.2859 58.6702 50.2868 58.9787C50.2877 59.2872 50.4112 59.5827 50.63 59.8002C50.9561 60.1265 51.1393 60.5689 51.1393 61.0302C51.1393 61.4915 50.9561 61.9339 50.63 62.2602C50.2978 62.5827 49.853 62.7632 49.39 62.7632C48.927 62.7632 48.4822 62.5827 48.15 62.2602C47.9308 62.0422 47.6342 61.9198 47.325 61.9198C47.0158 61.9198 46.7192 62.0422 46.5 62.2602C46.2826 62.4777 46.1605 62.7727 46.1605 63.0802C46.1605 63.3877 46.2826 63.6827 46.5 63.9002C46.663 64.0619 46.7924 64.2543 46.8806 64.4663C46.9689 64.6782 47.0143 64.9056 47.0143 65.1352C47.0143 65.3648 46.9689 65.5921 46.8806 65.8041C46.7924 66.016 46.663 66.2084 46.5 66.3702C46.1758 66.6926 45.7372 66.8736 45.28 66.8736C44.8228 66.8736 44.3842 66.6926 44.06 66.3702C43.953 66.2579 43.8249 66.1678 43.683 66.105C43.5412 66.0423 43.3884 66.008 43.2333 66.0043C43.0783 66.0006 42.9239 66.0275 42.7792 66.0834C42.6345 66.1393 42.5023 66.2232 42.39 66.3302C42.2777 66.4372 42.1877 66.5653 42.1249 66.7072C42.0621 66.849 42.0279 67.0018 42.0242 67.1569C42.0205 67.312 42.0473 67.4663 42.1032 67.6109C42.1591 67.7556 42.243 67.8879 42.35 68.0002C42.6767 68.3282 42.8602 68.7722 42.8602 69.2352C42.8602 69.6981 42.6767 70.1422 42.35 70.4702C42.0165 70.8018 41.5653 70.9879 41.095 70.9879C40.6247 70.9879 40.1735 70.8018 39.84 70.4702C39.11 69.8002 38.36 69.1402 37.6 68.4702C37.8873 67.8674 38.0192 67.2023 37.9835 66.5355C37.9479 65.8687 37.7458 65.2214 37.3958 64.6528C37.0458 64.0841 36.5591 63.612 35.9799 63.2797C35.4007 62.9474 34.7476 62.7653 34.08 62.7502C34.1586 62.0607 34.0613 61.3626 33.7973 60.7209C33.5333 60.0791 33.1111 59.5147 32.57 59.0802C31.903 58.5571 31.0872 58.2595 30.2401 58.2302C30.2751 57.9212 30.2751 57.6092 30.2401 57.3002C30.1146 56.2283 29.5696 55.2498 28.7243 54.5788C27.879 53.9079 26.8024 53.5991 25.73 53.7202C25.4153 53.7601 25.1065 53.8373 24.81 53.9502C24.6254 53.2159 24.2361 52.5492 23.6876 52.0274C23.139 51.5056 22.4536 51.1502 21.711 51.0026C20.9684 50.8549 20.1992 50.921 19.4927 51.1932C18.7863 51.4654 18.1716 51.9325 17.72 52.5402L16.16 54.5402C13.5969 53.4229 10.8733 52.7176 8.09003 52.4502V39.5902H19.72C20.2614 39.5972 20.7965 39.4738 21.28 39.2302L28.95 35.3702C29.882 34.906 30.9582 34.8235 31.95 35.1402L25.44 42.0002C25.0651 42.3941 24.7714 42.8581 24.5758 43.3656C24.3802 43.873 24.2865 44.414 24.2999 44.9577C24.3134 45.5014 24.4338 46.0371 24.6543 46.5343C24.8748 47.0314 25.1911 47.4803 25.585 47.8552C25.979 48.2301 26.4429 48.5238 26.9504 48.7194C27.4578 48.915 27.9989 49.0088 28.5425 48.9953C29.0862 48.9818 29.6219 48.8614 30.1191 48.6409C30.6162 48.4204 31.0651 48.1042 31.44 47.7102L37.3 42.2302C37.43 42.3202 50.71 52.1402 54.79 55.7402C54.9384 55.8745 55.0576 56.0379 55.1402 56.2203C55.2228 56.4026 55.267 56.6 55.27 56.8002C55.2753 57.0499 55.2302 57.2982 55.1374 57.5301C55.0446 57.7621 54.9061 57.9729 54.73 58.1502H54.75ZM67.48 54.7202H63.9901V37.2702H67.48V54.7202Z" fill="url(#paint0_linear_83_578)"/>
<path d="M50.1499 39.3401C49.8184 39.3401 49.5004 39.2085 49.266 38.974C49.0315 38.7396 48.8999 38.4217 48.8999 38.0901C48.8999 37.7586 49.0315 37.4407 49.266 37.2063C49.5004 36.9718 49.8184 36.8401 50.1499 36.8401C50.3331 36.8402 50.509 36.7684 50.6399 36.6402C50.7468 36.501 50.8126 36.3348 50.8299 36.1602C50.8326 36.0701 50.817 35.9804 50.7838 35.8967C50.7506 35.8129 50.7006 35.7369 50.6369 35.6732C50.5732 35.6095 50.4971 35.5595 50.4134 35.5263C50.3296 35.4931 50.2399 35.4774 50.1499 35.4801H46.2099C45.8784 35.4801 45.5604 35.3484 45.326 35.114C45.0915 34.8796 44.9599 34.5617 44.9599 34.2301C44.9599 33.8986 45.0915 33.5807 45.326 33.3463C45.5604 33.1118 45.8784 32.9802 46.2099 32.9802H48.4199V24.3002H46.2099C45.8784 24.3002 45.5604 24.1685 45.326 23.934C45.0915 23.6996 44.9599 23.3817 44.9599 23.0502C44.9599 22.7186 45.0915 22.4007 45.326 22.1663C45.5604 21.9318 45.8784 21.8002 46.2099 21.8002H50.0699C50.2531 21.8002 50.429 21.7284 50.5599 21.6002C50.6687 21.4621 50.7348 21.2953 50.7499 21.1202C50.7526 21.0301 50.737 20.9404 50.7038 20.8567C50.6706 20.7729 50.6206 20.6969 50.5569 20.6331C50.4932 20.5694 50.4171 20.5195 50.3334 20.4863C50.2496 20.4531 50.1599 20.4374 50.0699 20.4402H43.5499C43.2184 20.4402 42.9004 20.3085 42.666 20.074C42.4316 19.8396 42.2999 19.5217 42.2999 19.1902C42.2999 18.8586 42.4316 18.5407 42.666 18.3063C42.9004 18.0718 43.2184 17.9402 43.5499 17.9402H48.4099V10.9402H19.4099V17.8502H24.2699C24.6014 17.8502 24.9194 17.9818 25.1538 18.2163C25.3882 18.4507 25.5199 18.7686 25.5199 19.1002C25.5199 19.4317 25.3882 19.7496 25.1538 19.984C24.9194 20.2185 24.6014 20.3502 24.2699 20.3502H17.7599C17.6704 20.3487 17.5816 20.3656 17.499 20.4001C17.4164 20.4345 17.3418 20.4856 17.2799 20.5502C17.2132 20.6105 17.1608 20.6848 17.1262 20.7678C17.0916 20.8508 17.0758 20.9403 17.0799 21.0302C17.0771 21.1202 17.0928 21.2099 17.126 21.2936C17.1592 21.3774 17.2092 21.4535 17.2729 21.5172C17.3366 21.5809 17.4127 21.6308 17.4964 21.664C17.5802 21.6972 17.6698 21.7129 17.7599 21.7102H21.6199C21.9514 21.7102 22.2693 21.8419 22.5038 22.0763C22.7382 22.3107 22.8699 22.6286 22.8699 22.9602C22.8699 23.2917 22.7382 23.6096 22.5038 23.844C22.2693 24.0785 21.9514 24.2102 21.6199 24.2102H19.4099V33.0002H21.6199C21.9514 33.0002 22.2693 33.1319 22.5038 33.3663C22.7382 33.6007 22.8699 33.9186 22.8699 34.2502C22.8699 34.5817 22.7382 34.8996 22.5038 35.134C22.2693 35.3685 21.9514 35.5002 21.6199 35.5002H17.6799C17.5048 35.5153 17.3379 35.5813 17.1999 35.6902C17.1065 35.7865 17.0432 35.9081 17.0179 36.0399C16.9925 36.1717 17.0061 36.308 17.057 36.4322C17.108 36.5564 17.194 36.663 17.3047 36.739C17.4153 36.815 17.5457 36.8571 17.6799 36.8602C18.0114 36.8602 18.3293 36.9919 18.5638 37.2263C18.7982 37.4607 18.9299 37.7786 18.9299 38.1102C18.9299 38.4417 18.7982 38.7596 18.5638 38.994C18.3293 39.2285 18.0114 39.3602 17.6799 39.3602C17.0506 39.3607 16.4352 39.1745 15.9117 38.8251C15.3883 38.4757 14.9802 37.9789 14.7393 37.3975C14.4984 36.816 14.4354 36.1762 14.5583 35.559C14.6813 34.9418 14.9846 34.3749 15.4299 33.9302C15.8436 33.5307 16.3533 33.2448 16.9099 33.1002V24.1002C16.3747 23.9498 15.888 23.6623 15.4982 23.266C15.1084 22.8697 14.8289 22.3784 14.6874 21.8408C14.5459 21.3032 14.5474 20.738 14.6917 20.2011C14.836 19.6643 15.118 19.1744 15.5099 18.7802C15.8966 18.391 16.3798 18.1115 16.9099 17.9702V10.9002C16.3912 10.7756 15.9128 10.5209 15.5199 10.1602C15.1996 9.85056 14.9458 9.47897 14.7739 9.06807C14.602 8.65717 14.5155 8.21555 14.5199 7.77015C14.5213 6.92691 14.8555 6.11832 15.4499 5.52015C16.0572 4.93977 16.86 4.60797 17.6999 4.59015H50.0999C50.8663 4.59381 51.6056 4.87416 52.1817 5.37958C52.7579 5.885 53.1321 6.5815 53.2356 7.3409C53.339 8.10031 53.1647 8.87154 52.7447 9.51265C52.3248 10.1538 51.6874 10.6216 50.9499 10.8302V18.0502C51.6251 18.2286 52.2212 18.6277 52.6434 19.184C53.0656 19.7403 53.2897 20.4218 53.2799 21.1202C53.267 21.9611 52.9345 22.7655 52.3499 23.3702C51.9628 23.761 51.4801 24.0438 50.9499 24.1902V33.0702C51.6433 33.234 52.2601 33.6295 52.6983 34.1913C53.1365 34.7532 53.3699 35.4477 53.3599 36.1602C53.3438 36.9985 53.0158 37.8007 52.4399 38.4102C51.8288 39.0096 51.0059 39.3438 50.1499 39.3401ZM17.6699 7.09015C17.4928 7.10437 17.3247 7.17439 17.1899 7.29015C17.1262 7.3528 17.0758 7.42753 17.0414 7.50996C17.0071 7.59239 16.9896 7.68085 16.9899 7.77015C16.9873 7.87196 17.0054 7.97324 17.0433 8.06779C17.0811 8.16235 17.1378 8.24822 17.2099 8.32015C17.3095 8.40804 17.4371 8.45766 17.5699 8.46015H50.0699C50.2479 8.44469 50.4179 8.37878 50.5599 8.27015C50.6538 8.17314 50.7173 8.0507 50.7423 7.91799C50.7673 7.78528 50.7528 7.64815 50.7007 7.52359C50.6485 7.39903 50.5609 7.29251 50.4488 7.21724C50.3366 7.14197 50.2049 7.10126 50.0699 7.10015L17.6699 7.09015Z" fill="url(#paint1_linear_83_578)"/>
<path d="M25.9602 36.4402C25.7712 36.4466 25.5832 36.4104 25.4101 36.3342C25.237 36.2581 25.0832 36.1439 24.9602 36.0002C23.7594 34.5697 22.9211 32.8707 22.5163 31.0473C22.1116 29.224 22.1524 27.3299 22.6352 25.5256C23.118 23.7214 24.0286 22.0601 25.2898 20.6825C26.5511 19.3049 28.1259 18.2517 29.8807 17.612C31.6355 16.9724 33.5186 16.7651 35.3705 17.0079C37.2224 17.2506 38.9885 17.9362 40.5191 19.0065C42.0498 20.0769 43.2999 21.5004 44.1635 23.1565C45.0271 24.8126 45.4788 26.6525 45.4803 28.5202C45.4897 31.1424 44.6043 33.6894 42.9703 35.7402C42.7647 36.0054 42.4622 36.1781 42.1294 36.2203C41.7965 36.2625 41.4604 36.1707 41.1952 35.9652C40.93 35.7597 40.7573 35.4572 40.7151 35.1243C40.6729 34.7914 40.7647 34.4554 40.9703 34.1902C41.8734 33.0496 42.4905 31.7096 42.7702 30.2819C43.0498 28.8542 42.9839 27.3803 42.5778 25.9833C42.1717 24.5863 41.4374 23.3067 40.436 22.2513C39.4346 21.196 38.1953 20.3955 36.8215 19.9167C35.4477 19.438 33.9793 19.2948 32.5389 19.4992C31.0985 19.7036 29.7279 20.2497 28.5415 21.0917C27.3552 21.9338 26.3875 23.0474 25.7192 24.3397C25.051 25.632 24.7016 27.0654 24.7002 28.5202C24.7019 30.6675 25.4595 32.7457 26.8402 34.3902C27.0523 34.6449 27.1546 34.9733 27.1246 35.3033C27.0946 35.6334 26.9348 35.938 26.6803 36.1502C26.4764 36.3196 26.2246 36.4211 25.9602 36.4402Z" fill="url(#paint2_linear_83_578)"/>
<path d="M33.9004 35.1602C32.5743 35.1602 31.3025 34.6334 30.3649 33.6957C29.4272 32.758 28.9004 31.4863 28.9004 30.1602C28.9004 27.7802 32.1804 23.1002 32.8404 22.1602C32.9569 22.0035 33.1074 21.8753 33.2806 21.7852C33.4538 21.6951 33.6452 21.6455 33.8404 21.6402C34.0372 21.6428 34.2305 21.6923 34.4044 21.7844C34.5782 21.8766 34.7277 22.0088 34.8404 22.1702C35.7604 23.4702 38.7704 27.8902 38.7704 30.1702C38.7682 31.4723 38.2582 32.7222 37.3487 33.6541C36.4392 34.586 35.2021 35.1263 33.9004 35.1602ZM33.9004 25.1602C32.5904 27.1602 31.4504 29.3402 31.4504 30.1602C31.4607 30.8067 31.7221 31.4239 32.1794 31.8812C32.6366 32.3384 33.2538 32.5999 33.9004 32.6102C34.2221 32.6102 34.5407 32.5468 34.838 32.4237C35.1352 32.3006 35.4053 32.1201 35.6328 31.8926C35.8603 31.6651 36.0408 31.395 36.1639 31.0977C36.287 30.8005 36.3504 30.4819 36.3504 30.1602C36.3504 29.4102 35.2104 27.2402 33.9004 25.2002V25.1602ZM39.9004 7.05018C39.5689 7.05018 39.2509 6.91848 39.0165 6.68406C38.7821 6.44964 38.6504 6.1317 38.6504 5.80018V5.00017C38.6504 3.67409 39.1772 2.40232 40.1149 1.46463C41.0526 0.526953 42.3243 0.00017267 43.6504 0.00017267C44.2917 -0.00523869 44.9277 0.116591 45.5216 0.358617C46.1155 0.600643 46.6556 0.958062 47.1104 1.41018C47.5678 1.88704 47.9261 2.44984 48.1647 3.06604C48.4033 3.68224 48.5174 4.33961 48.5004 5.00017V5.80018C48.5004 6.1317 48.3687 6.44964 48.1343 6.68406C47.8999 6.91848 47.5819 7.05018 47.2504 7.05018C46.9188 7.05018 46.6009 6.91848 46.3665 6.68406C46.1321 6.44964 46.0004 6.1317 46.0004 5.80018V5.00017C45.9973 4.37078 45.7541 3.76629 45.3204 3.31017C45.0981 3.09005 44.8341 2.91652 44.5439 2.79976C44.2537 2.68299 43.9431 2.62533 43.6304 2.63017C42.989 2.62198 42.3701 2.8656 41.9064 3.30873C41.4427 3.75185 41.1713 4.35913 41.1504 5.00017V5.80018C41.1557 5.96517 41.1283 6.12957 41.0698 6.28392C41.0112 6.43826 40.9226 6.57948 40.8092 6.69941C40.6958 6.81935 40.5597 6.91563 40.4089 6.9827C40.258 7.04977 40.0955 7.08629 39.9304 7.09017L39.9004 7.05018Z" fill="url(#paint3_linear_83_578)"/>
<defs>
<linearGradient id="paint0_linear_83_578" x1="-0.0898445" y1="-0.379819" x2="83.8936" y2="22.6694" gradientUnits="userSpaceOnUse">
<stop stop-color="#E98135"/>
<stop offset="1" stop-color="#48389C"/>
</linearGradient>
<linearGradient id="paint1_linear_83_578" x1="-0.0898445" y1="-0.379819" x2="83.8936" y2="22.6694" gradientUnits="userSpaceOnUse">
<stop stop-color="#E98135"/>
<stop offset="1" stop-color="#48389C"/>
</linearGradient>
<linearGradient id="paint2_linear_83_578" x1="-0.0898445" y1="-0.379819" x2="83.8936" y2="22.6694" gradientUnits="userSpaceOnUse">
<stop stop-color="#E98135"/>
<stop offset="1" stop-color="#48389C"/>
</linearGradient>
<linearGradient id="paint3_linear_83_578" x1="-0.0898445" y1="-0.379819" x2="83.8936" y2="22.6694" gradientUnits="userSpaceOnUse">
<stop stop-color="#E98135"/>
<stop offset="1" stop-color="#48389C"/>
</linearGradient>
</defs>
</svg>
