<svg width="72" height="72" viewBox="0 0 72 72" fill="none" xmlns="http://www.w3.org/2000/svg">
<path d="M52.2969 67.3369C52.6028 67.3349 52.9013 67.2423 53.1548 67.0708C53.4083 66.8993 53.6053 66.6566 53.7211 66.3732C53.8368 66.0898 53.8661 65.7784 53.8052 65.4784C53.7443 65.1784 53.596 64.9032 53.3789 64.6874C53.1619 64.4716 52.8858 64.325 52.5855 64.2659C52.2853 64.2069 51.9743 64.2382 51.6918 64.3558C51.4093 64.4734 51.1679 64.6721 50.9981 64.9267C50.8283 65.1814 50.7376 65.4807 50.7376 65.7869C50.7376 65.9913 50.7781 66.1936 50.8565 66.3823C50.935 66.571 51.05 66.7424 51.1949 66.8864C51.3398 67.0305 51.5118 67.1445 51.7009 67.2218C51.89 67.2991 52.0926 67.3382 52.2969 67.3369Z" fill="url(#paint0_linear_65_52)"/>
<path d="M70.4608 27.9602V18.6997C70.4615 18.0299 70.2683 17.3742 69.9046 16.8119L65.2866 9.68769C64.9755 9.19591 64.5441 8.79181 64.0331 8.5136C63.5222 8.23538 62.9486 8.09229 62.3669 8.09794H52.8927V1.2619C52.8927 0.92723 52.7598 0.606281 52.5233 0.369632C52.2868 0.132983 51.9659 0 51.6314 0H10.4872C10.1527 0 9.83188 0.132983 9.59535 0.369632C9.35882 0.606281 9.22597 0.92723 9.22597 1.2619V17.3385H6.49494C6.16043 17.3385 5.83959 17.4715 5.60306 17.7081C5.36653 17.9448 5.23367 18.2657 5.23367 18.6004V34.6869H2.51258C2.17808 34.6869 1.85723 34.8198 1.6207 35.0565C1.38417 35.2931 1.25132 35.6141 1.25132 35.9488V62.7763C0.874816 62.9771 0.559747 63.2762 0.33944 63.6418C0.119132 64.0075 0.00179488 64.4259 0 64.8529V66.6612C0 66.9731 0.0614712 67.2819 0.180752 67.57C0.300032 67.8581 0.474844 68.1199 0.695245 68.3404C0.915647 68.561 1.17732 68.7358 1.46529 68.8552C1.75326 68.9745 2.06184 69.036 2.37353 69.036H4.99534C5.55393 69.942 6.3349 70.69 7.26401 71.2088C8.19312 71.7276 9.23943 72 10.3034 72C11.3675 72 12.4138 71.7276 13.3429 71.2088C14.272 70.69 15.053 69.942 15.6116 69.036H17.856C18.4146 69.942 19.1955 70.69 20.1246 71.2088C21.0538 71.7276 22.1002 72 23.1642 72C24.2282 72 25.2745 71.7276 26.2036 71.2088C27.1328 70.69 27.9137 69.942 28.4723 69.036H46.9838C47.5424 69.942 48.3233 70.69 49.2525 71.2088C50.1816 71.7276 51.2279 72 52.2919 72C53.3559 72 54.4022 71.7276 55.3313 71.2088C56.2604 70.69 57.0414 69.942 57.6 69.036H61.6618C62.2913 69.036 62.895 68.7858 63.3402 68.3404C63.7853 67.8951 64.0353 67.2911 64.0353 66.6612V64.8231C64.0316 64.3403 63.8816 63.8699 63.6049 63.4742C63.3283 63.0786 62.9382 62.7763 62.4861 62.6073V53.3568C62.4922 52.7726 62.3449 52.197 62.059 51.6875H65.6441C66.2719 51.6875 66.8742 51.4387 67.319 50.9955C67.7638 50.5523 68.015 49.9508 68.0176 49.3228V47.4846C68.016 47.0001 67.8668 46.5275 67.5901 46.1299C67.3133 45.7323 66.9221 45.4285 66.4685 45.2589V36.0084C66.4731 35.4256 66.3295 34.8512 66.0513 34.3391H69.6364C70.2633 34.3391 70.8645 34.09 71.3078 33.6465C71.751 33.203 72 32.6016 72 31.9744V30.1362C71.9919 29.6607 71.8406 29.1987 71.566 28.8105C71.2914 28.4223 70.9063 28.1259 70.4608 27.9602ZM16.5054 65.0218H16.9721C16.9064 65.5297 16.9064 66.044 16.9721 66.552H16.5054C16.5583 66.0433 16.5583 65.5304 16.5054 65.0218ZM4.11146 66.552H2.52252V65.0218H4.11146C4.04577 65.5297 4.04577 66.044 4.11146 66.552ZM66.4585 30.3349H69.4378V31.8849H66.4585C66.5247 31.3804 66.5247 30.8693 66.4585 30.3647V30.3349ZM61.493 65.0218V66.552H58.5137C58.5283 66.2971 58.5283 66.0417 58.5137 65.7869C58.5219 65.5317 58.5153 65.2762 58.4938 65.0218H61.493ZM52.3167 62.0409C53.0533 62.0409 53.7733 62.2595 54.3857 62.6689C54.9982 63.0783 55.4755 63.6602 55.7573 64.3411C56.0392 65.0219 56.1129 65.7711 55.9692 66.4939C55.8255 67.2167 55.4709 67.8806 54.9501 68.4017C54.4292 68.9228 53.7657 69.2777 53.0433 69.4214C52.3209 69.5652 51.5721 69.4914 50.8916 69.2094C50.2111 68.9274 49.6294 68.4498 49.2202 67.8371C48.811 67.2243 48.5926 66.5039 48.5926 65.767C48.5978 64.7856 48.9897 63.846 49.6833 63.1521C50.3769 62.4582 51.316 62.066 52.2969 62.0608L52.3167 62.0409ZM46.1198 65.0218C46.0541 65.5297 46.0541 66.044 46.1198 66.552H29.3761C29.3955 66.2973 29.3955 66.0415 29.3761 65.7869C29.3873 65.5318 29.384 65.2764 29.3661 65.0218H46.1198ZM46.3878 42.8146H44.928V35.9786C44.928 35.6439 44.7951 35.323 44.5586 35.0863C44.3221 34.8497 44.0012 34.7167 43.6667 34.7167H43.1007V22.5549C43.1007 22.2203 42.9679 21.8993 42.7313 21.6627C42.4948 21.426 42.174 21.2931 41.8395 21.2931C41.505 21.2931 41.1841 21.426 40.9476 21.6627C40.711 21.8993 40.5782 22.2203 40.5782 22.5549V34.6869H33.259V22.5549C33.259 22.3892 33.2264 22.2251 33.163 22.072C33.0996 21.9189 33.0068 21.7798 32.8896 21.6627C32.7725 21.5455 32.6335 21.4525 32.4805 21.3891C32.3275 21.3257 32.1634 21.2931 31.9978 21.2931C31.8321 21.2931 31.6682 21.3257 31.5152 21.3891C31.3621 21.4525 31.2231 21.5455 31.106 21.6627C30.9889 21.7798 30.896 21.9189 30.8326 22.072C30.7693 22.2251 30.7366 22.3892 30.7366 22.5549V34.6869H23.4175V22.5549C23.4175 22.2203 23.2845 21.8993 23.048 21.6627C22.8114 21.426 22.4907 21.2931 22.1562 21.2931C21.8217 21.2931 21.5008 21.426 21.2643 21.6627C21.0278 21.8993 20.8949 22.2203 20.8949 22.5549V34.6869H13.5758V22.5549C13.5477 22.2383 13.4022 21.9437 13.1678 21.7291C12.9335 21.5145 12.6272 21.3955 12.3095 21.3955C11.9918 21.3955 11.6856 21.5145 11.4512 21.7291C11.2169 21.9437 11.0714 22.2383 11.0433 22.5549V34.6869H7.71643V19.8623H46.3482L46.3878 42.8146ZM57.6099 25.4761H52.8927V10.6217H62.3371C62.4978 10.6173 62.6568 10.6555 62.798 10.7322C62.9393 10.809 63.0578 10.9216 63.1416 11.0589L67.7495 18.1831C67.8539 18.3351 67.9094 18.5153 67.9084 18.6997V20.0709H67.3225C66.988 20.0709 66.6672 20.2039 66.4306 20.4405C66.1941 20.6772 66.0613 20.9981 66.0613 21.3328C66.0613 21.6675 66.1941 21.9884 66.4306 22.2251C66.6672 22.4617 66.988 22.5947 67.3225 22.5947H67.9084V27.8112H65.5448C64.74 26.5117 63.4864 25.553 62.0219 25.1171C60.5574 24.6812 58.9839 24.7984 57.6 25.4464L57.6099 25.4761ZM63.9857 31.2093L61.7115 27.6919C62.3828 27.98 62.9555 28.4577 63.3594 29.0666C63.7634 29.6755 63.9811 30.389 63.9857 31.1198V31.2093ZM63.797 35.5613C63.9009 35.713 63.9532 35.8942 63.9459 36.0779V37.4392H63.3302C62.9957 37.4392 62.6749 37.5722 62.4383 37.8088C62.2018 38.0454 62.069 38.3664 62.069 38.7011C62.069 39.0357 62.2018 39.3567 62.4383 39.5933C62.6749 39.83 62.9957 39.963 63.3302 39.963H63.9062V45.1794H61.5426C60.9837 44.2735 60.2038 43.5247 59.2761 43.0033C58.3484 42.4819 57.3035 42.205 56.2395 42.1986C55.3232 42.2059 54.4191 42.4091 53.5878 42.7947H48.8706V27.9701H58.3647C58.5231 27.9645 58.6802 28.001 58.8198 28.0761C58.9594 28.1512 59.0766 28.2621 59.1592 28.3974L63.797 35.5613ZM60.0034 48.5577L57.7291 45.0403C58.4004 45.3284 58.9731 45.8061 59.3771 46.415C59.781 47.0239 59.9987 47.7375 60.0034 48.4683V48.5577ZM44.928 45.3384H54.3923C54.553 45.334 54.712 45.3722 54.8532 45.4489C54.9944 45.5257 55.113 45.6383 55.1968 45.7756L59.8146 52.9097C59.9185 53.0614 59.9708 53.2426 59.9636 53.4264V54.7379H59.3578C59.0233 54.7379 58.7025 54.8709 58.4659 55.1075C58.2294 55.3442 58.0965 55.6652 58.0965 55.9998C58.0965 56.3345 58.2294 56.6555 58.4659 56.8921C58.7025 57.1288 59.0233 57.2617 59.3578 57.2617H59.9338V62.4781H57.5702C57.0116 61.5721 56.2306 60.8241 55.3015 60.3053C54.3724 59.7865 53.3261 59.5141 52.2621 59.5141C51.1981 59.5141 50.1517 59.7865 49.2226 60.3053C48.2935 60.8241 47.5125 61.5721 46.954 62.4781H44.8982L44.928 45.3384ZM50.3702 25.4662H48.9103V18.6203C48.9103 18.2856 48.7775 17.9646 48.541 17.7279C48.3044 17.4913 47.9836 17.3584 47.6491 17.3584H47.0831V5.23634C47.0831 4.90167 46.9502 4.58072 46.7137 4.34407C46.4772 4.10742 46.1563 3.97443 45.8218 3.97443C45.4873 3.97443 45.1665 4.10742 44.9299 4.34407C44.6934 4.58072 44.5605 4.90167 44.5605 5.23634V17.3584H37.2414V5.23634C37.2414 4.90167 37.1085 4.58072 36.872 4.34407C36.6355 4.10742 36.3146 3.97443 35.9801 3.97443C35.6456 3.97443 35.3249 4.10742 35.0884 4.34407C34.8518 4.58072 34.7189 4.90167 34.7189 5.23634V17.3584H27.3997V5.23634C27.3997 4.90167 27.2668 4.58072 27.0303 4.34407C26.7938 4.10742 26.4731 3.97443 26.1385 3.97443C25.804 3.97443 25.4832 4.10742 25.2467 4.34407C25.0101 4.58072 24.8773 4.90167 24.8773 5.23634V17.3584H17.5581V5.23634C17.5581 4.90167 17.4253 4.58072 17.1887 4.34407C16.9522 4.10742 16.6314 3.97443 16.2969 3.97443C15.9624 3.97443 15.6415 4.10742 15.405 4.34407C15.1685 4.58072 15.0356 4.90167 15.0356 5.23634V17.3584H11.7485V2.5238H50.4199L50.3702 25.4662ZM23.1692 62.0807C23.9057 62.0807 24.6258 62.2992 25.2382 62.7086C25.8506 63.1181 26.3279 63.7 26.6098 64.3809C26.8916 65.0617 26.9654 65.8109 26.8217 66.5336C26.678 67.2564 26.3233 67.9203 25.8025 68.4414C25.2817 68.9625 24.6181 69.3174 23.8957 69.4612C23.1733 69.6049 22.4244 69.5312 21.7439 69.2491C21.0634 68.9671 20.4819 68.4895 20.0726 67.8768C19.6634 67.2641 19.445 66.5437 19.445 65.8067C19.4424 65.3158 19.5368 64.8291 19.7228 64.3747C19.9088 63.9204 20.1826 63.5073 20.5287 63.1592C20.8748 62.8111 21.2863 62.5348 21.7394 62.3463C22.1925 62.1578 22.6784 62.0608 23.1692 62.0608V62.0807ZM10.2588 62.0807C10.9954 62.0807 11.7154 62.2992 12.3278 62.7086C12.9403 63.1181 13.4175 63.7 13.6994 64.3809C13.9813 65.0617 14.055 65.8109 13.9113 66.5336C13.7676 67.2564 13.413 67.9203 12.8922 68.4414C12.3713 68.9625 11.7078 69.3174 10.9854 69.4612C10.2629 69.6049 9.51405 69.5312 8.83355 69.2491C8.15306 68.9671 7.57151 68.4895 7.1623 67.8768C6.75308 67.2641 6.5347 66.5437 6.5347 65.8067C6.53201 65.3116 6.62797 64.8208 6.81704 64.3632C7.00611 63.9055 7.28445 63.4902 7.63582 63.1414C7.98718 62.7926 8.40448 62.5174 8.86338 62.3319C9.32227 62.1464 9.81352 62.0542 10.3084 62.0608L10.2588 62.0807ZM42.3459 37.2405V62.5279H28.4425C27.8839 61.6218 27.1029 60.8737 26.1738 60.3549C25.2447 59.8361 24.1984 59.5638 23.1344 59.5638C22.0704 59.5638 21.0241 59.8361 20.0949 60.3549C19.1658 60.8737 18.3849 61.6218 17.8263 62.5279H15.6613C15.1027 61.6218 14.3217 60.8737 13.3926 60.3549C12.4635 59.8361 11.4172 59.5638 10.3532 59.5638C9.28913 59.5638 8.24282 59.8361 7.31371 60.3549C6.3846 60.8737 5.60363 61.6218 5.04504 62.5279H3.74402V37.2107L42.3459 37.2405ZM62.4265 47.7032H65.4058V49.2334H62.4265C62.4413 48.9785 62.4413 48.7231 62.4265 48.4683C62.4587 48.2045 62.4753 47.9391 62.4762 47.6734L62.4265 47.7032Z" fill="url(#paint1_linear_65_52)"/>
<path d="M8.32221 58.8316C8.65671 58.8316 8.97756 58.6987 9.21409 58.462C9.45062 58.2254 9.58347 57.9044 9.58347 57.5697V39.9034C9.58347 39.5687 9.45062 39.2477 9.21409 39.0111C8.97756 38.7744 8.65671 38.6415 8.32221 38.6415C7.98771 38.6415 7.66686 38.7744 7.43033 39.0111C7.19381 39.2477 7.06095 39.5687 7.06095 39.9034V57.5697C7.06095 57.9044 7.19381 58.2254 7.43033 58.462C7.66686 58.6987 7.98771 58.8316 8.32221 58.8316Z" fill="url(#paint2_linear_65_52)"/>
<path d="M47.8775 54.0921H56.2593C56.445 54.0962 56.6281 54.048 56.7879 53.9532C56.9476 53.8583 57.0777 53.7206 57.1631 53.5555C57.2502 53.4045 57.2961 53.2332 57.2961 53.0587C57.2961 52.8843 57.2502 52.713 57.1631 52.5619L54.3129 48.1603C54.2225 48.0156 54.0965 47.8967 53.9469 47.8149C53.7973 47.7331 53.6293 47.6912 53.4588 47.6932H47.9172C47.6538 47.6932 47.4013 47.7979 47.2151 47.9843C47.0288 48.1706 46.9241 48.4233 46.9241 48.6868V53.0786C46.9187 53.3388 47.0156 53.5907 47.1938 53.7802C47.3721 53.9697 47.6175 54.0817 47.8775 54.0921ZM48.8706 52.0452V49.7003H52.843L54.3624 52.0452H48.8706Z" fill="url(#paint3_linear_65_52)"/>
<path d="M23.1692 67.3369C23.4752 67.3349 23.7737 67.2423 24.0271 67.0708C24.2806 66.8993 24.4776 66.6566 24.5934 66.3732C24.7091 66.0898 24.7383 65.7784 24.6774 65.4784C24.6165 65.1784 24.4682 64.9032 24.2511 64.6874C24.0341 64.4716 23.7581 64.325 23.4578 64.2659C23.1576 64.2069 22.8465 64.2382 22.564 64.3558C22.2815 64.4734 22.0401 64.6721 21.8703 64.9267C21.7005 65.1814 21.6099 65.4807 21.6099 65.7869C21.6099 65.9913 21.6504 66.1936 21.7289 66.3823C21.8073 66.571 21.9223 66.7424 22.0672 66.8864C22.2121 67.0305 22.3841 67.1445 22.5732 67.2218C22.7623 67.2991 22.9649 67.3382 23.1692 67.3369Z" fill="url(#paint4_linear_65_52)"/>
<path d="M65.1575 18.3321C65.156 18.1373 65.0974 17.9473 64.9888 17.7856L62.208 13.4833C62.1186 13.3401 61.9941 13.2221 61.8464 13.1404C61.6987 13.0587 61.5327 13.016 61.3639 13.0163H55.9317C55.6683 13.0163 55.4156 13.121 55.2294 13.3073C55.0431 13.4937 54.9385 13.7464 54.9385 14.0099V18.3123C54.9385 18.5758 55.0431 18.8285 55.2294 19.0148C55.4156 19.2012 55.6683 19.3059 55.9317 19.3059H64.1445C64.2749 19.3085 64.4046 19.2854 64.5261 19.2379C64.6476 19.1904 64.7587 19.1193 64.8527 19.0289C64.9468 18.9385 65.022 18.8304 65.0743 18.7109C65.1266 18.5913 65.1549 18.4626 65.1575 18.3321ZM62.2874 17.3385H56.9445V15.0631H60.8077L62.2874 17.3385Z" fill="url(#paint5_linear_65_52)"/>
<path d="M57.3716 30.3051H51.8301C51.5667 30.3051 51.3141 30.4098 51.1279 30.5961C50.9416 30.7824 50.837 31.0352 50.837 31.2987V35.6905C50.837 35.954 50.9416 36.2067 51.1279 36.393C51.3141 36.5794 51.5667 36.6841 51.8301 36.6841H60.2119C60.4753 36.6841 60.7279 36.5794 60.9141 36.393C61.1004 36.2067 61.205 35.954 61.205 35.6905C61.2054 35.4923 61.1466 35.2985 61.0361 35.134L58.1958 30.7423C58.1047 30.6074 57.9819 30.4971 57.8382 30.4208C57.6945 30.3446 57.5343 30.3048 57.3716 30.3051ZM52.8629 34.6969V32.3519H56.8353L58.3448 34.6969H52.8629Z" fill="url(#paint6_linear_65_52)"/>
<path d="M10.3084 67.3369C10.6144 67.3349 10.913 67.2423 11.1665 67.0708C11.4199 66.8993 11.6169 66.6566 11.7326 66.3732C11.8483 66.0898 11.8776 65.7784 11.8167 65.4784C11.7558 65.1784 11.6076 64.9032 11.3905 64.6874C11.1734 64.4716 10.8973 64.325 10.5971 64.2659C10.2968 64.2069 9.98588 64.2382 9.70337 64.3558C9.42086 64.4734 9.1795 64.6721 9.0097 64.9267C8.8399 65.1814 8.74931 65.4807 8.7493 65.7869C8.7493 65.9913 8.78963 66.1936 8.8681 66.3823C8.94658 66.571 9.06166 66.7424 9.20657 66.8864C9.35149 67.0305 9.52335 67.1445 9.71246 67.2218C9.90157 67.2991 10.1041 67.3382 10.3084 67.3369Z" fill="url(#paint7_linear_65_52)"/>
<path d="M28.0056 58.8316C28.3401 58.8316 28.6608 58.6987 28.8973 58.462C29.1339 58.2254 29.2667 57.9044 29.2667 57.5697V39.9034C29.2667 39.7376 29.2341 39.5735 29.1707 39.4204C29.1073 39.2673 29.0145 39.1283 28.8973 39.0111C28.7802 38.8939 28.6412 38.8009 28.4882 38.7375C28.3352 38.6741 28.1712 38.6415 28.0056 38.6415C27.84 38.6415 27.6759 38.6741 27.5229 38.7375C27.3698 38.8009 27.2308 38.8939 27.1137 39.0111C26.9966 39.1283 26.9037 39.2673 26.8403 39.4204C26.777 39.5735 26.7443 39.7376 26.7443 39.9034V57.5697C26.7443 57.9044 26.8772 58.2254 27.1137 58.462C27.3502 58.6987 27.6711 58.8316 28.0056 58.8316Z" fill="url(#paint8_linear_65_52)"/>
<path d="M37.8472 58.8316C38.1817 58.8316 38.5025 58.6987 38.739 58.462C38.9756 58.2254 39.1084 57.9044 39.1084 57.5697V39.9034C39.1084 39.5687 38.9756 39.2477 38.739 39.0111C38.5025 38.7744 38.1817 38.6415 37.8472 38.6415C37.5127 38.6415 37.1919 38.7744 36.9554 39.0111C36.7189 39.2477 36.5859 39.5687 36.5859 39.9034V57.5697C36.5859 57.9044 36.7189 58.2254 36.9554 58.462C37.1919 58.6987 37.5127 58.8316 37.8472 58.8316Z" fill="url(#paint9_linear_65_52)"/>
<path d="M18.1639 58.8316C18.4984 58.8316 18.8191 58.6987 19.0557 58.462C19.2922 58.2254 19.4252 57.9044 19.4252 57.5697V39.9034C19.4252 39.7376 19.3925 39.5735 19.3291 39.4204C19.2658 39.2673 19.1728 39.1283 19.0557 39.0111C18.9385 38.8939 18.7995 38.8009 18.6465 38.7375C18.4935 38.6741 18.3295 38.6415 18.1639 38.6415C17.9983 38.6415 17.8342 38.6741 17.6812 38.7375C17.5281 38.8009 17.3891 38.8939 17.272 39.0111C17.1549 39.1283 17.062 39.2673 16.9987 39.4204C16.9353 39.5735 16.9026 39.7376 16.9026 39.9034V57.5697C16.9026 57.9044 17.0355 58.2254 17.272 58.462C17.5086 58.6987 17.8294 58.8316 18.1639 58.8316Z" fill="url(#paint10_linear_65_52)"/>
<defs>
<linearGradient id="paint0_linear_65_52" x1="0" y1="0" x2="71.3118" y2="70.6942" gradientUnits="userSpaceOnUse">
<stop stop-color="#E98135"/>
<stop offset="1" stop-color="#48389C"/>
</linearGradient>
<linearGradient id="paint1_linear_65_52" x1="0" y1="0" x2="71.3118" y2="70.6942" gradientUnits="userSpaceOnUse">
<stop stop-color="#E98135"/>
<stop offset="1" stop-color="#48389C"/>
</linearGradient>
<linearGradient id="paint2_linear_65_52" x1="0" y1="0" x2="71.3118" y2="70.6942" gradientUnits="userSpaceOnUse">
<stop stop-color="#E98135"/>
<stop offset="1" stop-color="#48389C"/>
</linearGradient>
<linearGradient id="paint3_linear_65_52" x1="0" y1="0" x2="71.3118" y2="70.6942" gradientUnits="userSpaceOnUse">
<stop stop-color="#E98135"/>
<stop offset="1" stop-color="#48389C"/>
</linearGradient>
<linearGradient id="paint4_linear_65_52" x1="0" y1="0" x2="71.3118" y2="70.6942" gradientUnits="userSpaceOnUse">
<stop stop-color="#E98135"/>
<stop offset="1" stop-color="#48389C"/>
</linearGradient>
<linearGradient id="paint5_linear_65_52" x1="0" y1="0" x2="71.3118" y2="70.6942" gradientUnits="userSpaceOnUse">
<stop stop-color="#E98135"/>
<stop offset="1" stop-color="#48389C"/>
</linearGradient>
<linearGradient id="paint6_linear_65_52" x1="0" y1="0" x2="71.3118" y2="70.6942" gradientUnits="userSpaceOnUse">
<stop stop-color="#E98135"/>
<stop offset="1" stop-color="#48389C"/>
</linearGradient>
<linearGradient id="paint7_linear_65_52" x1="0" y1="0" x2="71.3118" y2="70.6942" gradientUnits="userSpaceOnUse">
<stop stop-color="#E98135"/>
<stop offset="1" stop-color="#48389C"/>
</linearGradient>
<linearGradient id="paint8_linear_65_52" x1="0" y1="0" x2="71.3118" y2="70.6942" gradientUnits="userSpaceOnUse">
<stop stop-color="#E98135"/>
<stop offset="1" stop-color="#48389C"/>
</linearGradient>
<linearGradient id="paint9_linear_65_52" x1="0" y1="0" x2="71.3118" y2="70.6942" gradientUnits="userSpaceOnUse">
<stop stop-color="#E98135"/>
<stop offset="1" stop-color="#48389C"/>
</linearGradient>
<linearGradient id="paint10_linear_65_52" x1="0" y1="0" x2="71.3118" y2="70.6942" gradientUnits="userSpaceOnUse">
<stop stop-color="#E98135"/>
<stop offset="1" stop-color="#48389C"/>
</linearGradient>
</defs>
</svg>
