<svg width="532" height="357" viewBox="0 0 532 357" fill="none" xmlns="http://www.w3.org/2000/svg">
<path d="M52.4048 153.438H49.1441V151.382H52.4048C52.9087 151.382 53.3189 151.3 53.6353 151.136C53.9517 150.966 54.1832 150.731 54.3296 150.433C54.4761 150.134 54.5494 149.797 54.5494 149.422C54.5494 149.041 54.4761 148.687 54.3296 148.358C54.1832 148.03 53.9517 147.767 53.6353 147.567C53.3189 147.368 52.9087 147.269 52.4048 147.269H50.0582V158H47.4214V145.203H52.4048C53.4068 145.203 54.2652 145.385 54.98 145.748C55.7007 146.105 56.2515 146.601 56.6324 147.233C57.0132 147.866 57.2037 148.59 57.2037 149.404C57.2037 150.23 57.0132 150.945 56.6324 151.549C56.2515 152.152 55.7007 152.618 54.98 152.946C54.2652 153.274 53.4068 153.438 52.4048 153.438ZM61.5761 150.564V158H59.0448V148.49H61.4266L61.5761 150.564ZM64.4413 148.429L64.3973 150.775C64.2743 150.758 64.1249 150.743 63.9491 150.731C63.7792 150.714 63.6239 150.705 63.4833 150.705C63.1259 150.705 62.8153 150.752 62.5516 150.846C62.2938 150.934 62.077 151.065 61.9012 151.241C61.7313 151.417 61.6024 151.631 61.5145 151.883C61.4325 152.135 61.3856 152.422 61.3739 152.744L60.8641 152.586C60.8641 151.971 60.9257 151.405 61.0487 150.89C61.1718 150.368 61.3505 149.914 61.5848 149.527C61.8251 149.141 62.118 148.842 62.4637 148.631C62.8095 148.42 63.205 148.314 63.6503 148.314C63.7909 148.314 63.9345 148.326 64.0809 148.35C64.2274 148.367 64.3475 148.394 64.4413 148.429ZM65.1486 153.342V153.157C65.1486 152.46 65.2482 151.818 65.4475 151.232C65.6467 150.641 65.9367 150.128 66.3176 149.694C66.6984 149.261 67.1672 148.924 67.7238 148.684C68.2805 148.438 68.9191 148.314 69.6398 148.314C70.3605 148.314 71.0021 148.438 71.5646 148.684C72.1271 148.924 72.5988 149.261 72.9797 149.694C73.3664 150.128 73.6594 150.641 73.8586 151.232C74.0578 151.818 74.1574 152.46 74.1574 153.157V153.342C74.1574 154.033 74.0578 154.675 73.8586 155.267C73.6594 155.853 73.3664 156.365 72.9797 156.805C72.5988 157.238 72.1301 157.575 71.5734 157.815C71.0168 158.056 70.3781 158.176 69.6574 158.176C68.9367 158.176 68.2951 158.056 67.7326 157.815C67.176 157.575 66.7043 157.238 66.3176 156.805C65.9367 156.365 65.6467 155.853 65.4475 155.267C65.2482 154.675 65.1486 154.033 65.1486 153.342ZM67.6799 153.157V153.342C67.6799 153.74 67.715 154.112 67.7854 154.458C67.8557 154.804 67.967 155.108 68.1193 155.372C68.2775 155.63 68.4826 155.832 68.7346 155.979C68.9865 156.125 69.2941 156.198 69.6574 156.198C70.009 156.198 70.3107 156.125 70.5627 155.979C70.8146 155.832 71.0168 155.63 71.1691 155.372C71.3215 155.108 71.4328 154.804 71.5031 154.458C71.5793 154.112 71.6174 153.74 71.6174 153.342V153.157C71.6174 152.771 71.5793 152.407 71.5031 152.067C71.4328 151.722 71.3186 151.417 71.1604 151.153C71.008 150.884 70.8059 150.673 70.5539 150.521C70.302 150.368 69.9973 150.292 69.6398 150.292C69.2824 150.292 68.9777 150.368 68.7258 150.521C68.4797 150.673 68.2775 150.884 68.1193 151.153C67.967 151.417 67.8557 151.722 67.7854 152.067C67.715 152.407 67.6799 152.771 67.6799 153.157ZM81.5093 155.926V144.5H84.0581V158H81.7642L81.5093 155.926ZM75.4976 153.359V153.175C75.4976 152.448 75.5796 151.789 75.7437 151.197C75.9077 150.6 76.148 150.087 76.4644 149.659C76.7808 149.231 77.1704 148.9 77.6333 148.666C78.0962 148.432 78.6236 148.314 79.2154 148.314C79.772 148.314 80.2583 148.432 80.6743 148.666C81.0962 148.9 81.4536 149.234 81.7466 149.668C82.0454 150.096 82.2857 150.603 82.4673 151.188C82.6489 151.769 82.7808 152.404 82.8628 153.096V153.5C82.7808 154.162 82.6489 154.777 82.4673 155.346C82.2857 155.914 82.0454 156.412 81.7466 156.84C81.4536 157.262 81.0962 157.59 80.6743 157.824C80.2525 158.059 79.7603 158.176 79.1978 158.176C78.606 158.176 78.0786 158.056 77.6157 157.815C77.1587 157.575 76.772 157.238 76.4556 156.805C76.145 156.371 75.9077 155.861 75.7437 155.275C75.5796 154.689 75.4976 154.051 75.4976 153.359ZM78.0288 153.175V153.359C78.0288 153.752 78.0581 154.118 78.1167 154.458C78.1812 154.798 78.2837 155.1 78.4243 155.363C78.5708 155.621 78.7583 155.823 78.9868 155.97C79.2212 156.11 79.5054 156.181 79.8394 156.181C80.273 156.181 80.6304 156.084 80.9116 155.891C81.1929 155.691 81.4068 155.419 81.5532 155.073C81.7056 154.728 81.7935 154.329 81.8169 153.878V152.727C81.7993 152.357 81.7466 152.026 81.6587 151.733C81.5767 151.435 81.4536 151.18 81.2896 150.969C81.1314 150.758 80.9321 150.594 80.6919 150.477C80.4575 150.359 80.1792 150.301 79.857 150.301C79.5288 150.301 79.2476 150.377 79.0132 150.529C78.7788 150.676 78.5884 150.878 78.4419 151.136C78.3013 151.394 78.1958 151.698 78.1255 152.05C78.0611 152.396 78.0288 152.771 78.0288 153.175ZM91.8407 155.724V148.49H94.3719V158H91.9901L91.8407 155.724ZM92.1219 153.772L92.869 153.755C92.869 154.388 92.7957 154.977 92.6493 155.521C92.5028 156.061 92.283 156.529 91.9901 156.928C91.6971 157.32 91.328 157.628 90.8827 157.851C90.4373 158.067 89.9129 158.176 89.3094 158.176C88.8465 158.176 88.4188 158.111 88.0262 157.982C87.6395 157.848 87.3055 157.64 87.0243 157.358C86.7489 157.071 86.5321 156.705 86.3739 156.26C86.2215 155.809 86.1454 155.267 86.1454 154.634V148.49H88.6766V154.651C88.6766 154.933 88.7088 155.17 88.7733 155.363C88.8436 155.557 88.9403 155.715 89.0633 155.838C89.1864 155.961 89.3299 156.049 89.494 156.102C89.6639 156.154 89.8514 156.181 90.0565 156.181C90.578 156.181 90.9881 156.075 91.287 155.864C91.5916 155.653 91.8055 155.366 91.9286 155.003C92.0575 154.634 92.1219 154.224 92.1219 153.772ZM100.414 156.198C100.725 156.198 101 156.14 101.24 156.022C101.481 155.899 101.668 155.729 101.803 155.513C101.944 155.29 102.017 155.029 102.023 154.73H104.404C104.399 155.398 104.22 155.993 103.868 156.515C103.517 157.03 103.045 157.438 102.453 157.736C101.861 158.029 101.199 158.176 100.467 158.176C99.7287 158.176 99.0841 158.053 98.5334 157.807C97.9884 157.561 97.5343 157.221 97.1711 156.787C96.8078 156.348 96.5353 155.838 96.3537 155.258C96.172 154.672 96.0812 154.045 96.0812 153.377V153.122C96.0812 152.448 96.172 151.821 96.3537 151.241C96.5353 150.655 96.8078 150.146 97.1711 149.712C97.5343 149.272 97.9884 148.93 98.5334 148.684C99.0783 148.438 99.717 148.314 100.449 148.314C101.229 148.314 101.911 148.464 102.497 148.763C103.089 149.062 103.552 149.489 103.886 150.046C104.226 150.597 104.399 151.25 104.404 152.006H102.023C102.017 151.689 101.949 151.402 101.82 151.145C101.697 150.887 101.516 150.682 101.276 150.529C101.041 150.371 100.751 150.292 100.405 150.292C100.036 150.292 99.7345 150.371 99.5002 150.529C99.2658 150.682 99.0841 150.893 98.9552 151.162C98.8263 151.426 98.7355 151.728 98.6828 152.067C98.6359 152.401 98.6125 152.753 98.6125 153.122V153.377C98.6125 153.746 98.6359 154.101 98.6828 154.44C98.7296 154.78 98.8175 155.082 98.9464 155.346C99.0812 155.609 99.2658 155.817 99.5002 155.97C99.7345 156.122 100.039 156.198 100.414 156.198ZM110.71 148.49V150.283H105.173V148.49H110.71ZM106.544 146.144H109.076V155.135C109.076 155.41 109.111 155.621 109.181 155.768C109.257 155.914 109.369 156.017 109.515 156.075C109.662 156.128 109.846 156.154 110.069 156.154C110.227 156.154 110.368 156.148 110.491 156.137C110.62 156.119 110.728 156.102 110.816 156.084L110.825 157.947C110.608 158.018 110.374 158.073 110.122 158.114C109.87 158.155 109.591 158.176 109.287 158.176C108.73 158.176 108.244 158.085 107.828 157.903C107.417 157.716 107.101 157.417 106.878 157.007C106.656 156.597 106.544 156.058 106.544 155.39V146.144ZM115.004 148.49V158H112.464V148.49H115.004ZM112.305 146.012C112.305 145.643 112.434 145.338 112.692 145.098C112.95 144.857 113.296 144.737 113.729 144.737C114.157 144.737 114.5 144.857 114.758 145.098C115.021 145.338 115.153 145.643 115.153 146.012C115.153 146.381 115.021 146.686 114.758 146.926C114.5 147.166 114.157 147.286 113.729 147.286C113.296 147.286 112.95 147.166 112.692 146.926C112.434 146.686 112.305 146.381 112.305 146.012ZM116.871 153.342V153.157C116.871 152.46 116.971 151.818 117.17 151.232C117.369 150.641 117.659 150.128 118.04 149.694C118.421 149.261 118.89 148.924 119.446 148.684C120.003 148.438 120.642 148.314 121.362 148.314C122.083 148.314 122.725 148.438 123.287 148.684C123.85 148.924 124.321 149.261 124.702 149.694C125.089 150.128 125.382 150.641 125.581 151.232C125.78 151.818 125.88 152.46 125.88 153.157V153.342C125.88 154.033 125.78 154.675 125.581 155.267C125.382 155.853 125.089 156.365 124.702 156.805C124.321 157.238 123.853 157.575 123.296 157.815C122.739 158.056 122.101 158.176 121.38 158.176C120.659 158.176 120.018 158.056 119.455 157.815C118.899 157.575 118.427 157.238 118.04 156.805C117.659 156.365 117.369 155.853 117.17 155.267C116.971 154.675 116.871 154.033 116.871 153.342ZM119.402 153.157V153.342C119.402 153.74 119.438 154.112 119.508 154.458C119.578 154.804 119.69 155.108 119.842 155.372C120 155.63 120.205 155.832 120.457 155.979C120.709 156.125 121.017 156.198 121.38 156.198C121.732 156.198 122.033 156.125 122.285 155.979C122.537 155.832 122.739 155.63 122.892 155.372C123.044 155.108 123.155 154.804 123.226 154.458C123.302 154.112 123.34 153.74 123.34 153.342V153.157C123.34 152.771 123.302 152.407 123.226 152.067C123.155 151.722 123.041 151.417 122.883 151.153C122.731 150.884 122.528 150.673 122.276 150.521C122.025 150.368 121.72 150.292 121.362 150.292C121.005 150.292 120.7 150.368 120.448 150.521C120.202 150.673 120 150.884 119.842 151.153C119.69 151.417 119.578 151.722 119.508 152.067C119.438 152.407 119.402 152.771 119.402 153.157ZM130.094 150.521V158H127.563V148.49H129.936L130.094 150.521ZM129.725 152.911H129.039C129.039 152.208 129.13 151.575 129.312 151.013C129.494 150.444 129.748 149.961 130.077 149.562C130.405 149.158 130.794 148.851 131.246 148.64C131.703 148.423 132.212 148.314 132.775 148.314C133.22 148.314 133.627 148.379 133.997 148.508C134.366 148.637 134.682 148.842 134.946 149.123C135.215 149.404 135.42 149.776 135.561 150.239C135.707 150.702 135.781 151.268 135.781 151.936V158H133.232V151.927C133.232 151.505 133.173 151.177 133.056 150.942C132.939 150.708 132.766 150.544 132.538 150.45C132.315 150.351 132.039 150.301 131.711 150.301C131.372 150.301 131.076 150.368 130.824 150.503C130.578 150.638 130.372 150.825 130.208 151.065C130.05 151.3 129.93 151.575 129.848 151.892C129.766 152.208 129.725 152.548 129.725 152.911Z" fill="#48389C"/>
<path d="M240.238 209.651C240.238 209.423 240.203 209.218 240.133 209.036C240.068 208.849 239.945 208.679 239.764 208.526C239.582 208.368 239.327 208.213 238.999 208.061C238.671 207.908 238.246 207.75 237.725 207.586C237.145 207.398 236.594 207.188 236.072 206.953C235.557 206.719 235.1 206.446 234.701 206.136C234.309 205.819 233.998 205.453 233.77 205.037C233.547 204.621 233.436 204.138 233.436 203.587C233.436 203.054 233.553 202.57 233.787 202.137C234.022 201.697 234.35 201.322 234.772 201.012C235.193 200.695 235.691 200.452 236.266 200.282C236.846 200.112 237.481 200.027 238.173 200.027C239.116 200.027 239.939 200.197 240.643 200.537C241.346 200.877 241.891 201.343 242.277 201.935C242.67 202.526 242.866 203.203 242.866 203.965H240.247C240.247 203.59 240.168 203.262 240.01 202.98C239.857 202.693 239.623 202.468 239.307 202.304C238.996 202.14 238.604 202.058 238.129 202.058C237.672 202.058 237.291 202.128 236.986 202.269C236.682 202.403 236.453 202.588 236.301 202.822C236.148 203.051 236.072 203.309 236.072 203.596C236.072 203.812 236.125 204.009 236.231 204.185C236.342 204.36 236.506 204.524 236.723 204.677C236.939 204.829 237.206 204.973 237.522 205.107C237.839 205.242 238.205 205.374 238.621 205.503C239.318 205.714 239.931 205.951 240.458 206.215C240.991 206.479 241.437 206.774 241.794 207.103C242.151 207.431 242.421 207.803 242.603 208.219C242.784 208.635 242.875 209.106 242.875 209.634C242.875 210.19 242.767 210.688 242.55 211.128C242.333 211.567 242.02 211.939 241.609 212.244C241.199 212.549 240.71 212.78 240.142 212.938C239.573 213.097 238.938 213.176 238.234 213.176C237.602 213.176 236.978 213.094 236.362 212.93C235.747 212.76 235.188 212.505 234.684 212.165C234.186 211.825 233.787 211.392 233.488 210.864C233.189 210.337 233.04 209.713 233.04 208.992H235.686C235.686 209.391 235.747 209.728 235.87 210.003C235.993 210.278 236.166 210.501 236.389 210.671C236.617 210.841 236.887 210.964 237.197 211.04C237.514 211.116 237.859 211.154 238.234 211.154C238.691 211.154 239.066 211.09 239.359 210.961C239.658 210.832 239.878 210.653 240.019 210.425C240.165 210.196 240.238 209.938 240.238 209.651ZM249.348 203.49V205.283H243.811V203.49H249.348ZM245.182 201.144H247.713V210.135C247.713 210.41 247.748 210.621 247.819 210.768C247.895 210.914 248.006 211.017 248.153 211.075C248.299 211.128 248.484 211.154 248.706 211.154C248.865 211.154 249.005 211.148 249.128 211.137C249.257 211.119 249.366 211.102 249.453 211.084L249.462 212.947C249.245 213.018 249.011 213.073 248.759 213.114C248.507 213.155 248.229 213.176 247.924 213.176C247.368 213.176 246.881 213.085 246.465 212.903C246.055 212.716 245.739 212.417 245.516 212.007C245.293 211.597 245.182 211.058 245.182 210.39V201.144ZM250.337 208.342V208.157C250.337 207.46 250.436 206.818 250.635 206.232C250.835 205.641 251.125 205.128 251.506 204.694C251.886 204.261 252.355 203.924 252.912 203.684C253.468 203.438 254.107 203.314 254.828 203.314C255.549 203.314 256.19 203.438 256.753 203.684C257.315 203.924 257.787 204.261 258.168 204.694C258.554 205.128 258.847 205.641 259.047 206.232C259.246 206.818 259.345 207.46 259.345 208.157V208.342C259.345 209.033 259.246 209.675 259.047 210.267C258.847 210.853 258.554 211.365 258.168 211.805C257.787 212.238 257.318 212.575 256.761 212.815C256.205 213.056 255.566 213.176 254.845 213.176C254.125 213.176 253.483 213.056 252.921 212.815C252.364 212.575 251.892 212.238 251.506 211.805C251.125 211.365 250.835 210.853 250.635 210.267C250.436 209.675 250.337 209.033 250.337 208.342ZM252.868 208.157V208.342C252.868 208.74 252.903 209.112 252.973 209.458C253.044 209.804 253.155 210.108 253.307 210.372C253.466 210.63 253.671 210.832 253.923 210.979C254.174 211.125 254.482 211.198 254.845 211.198C255.197 211.198 255.499 211.125 255.751 210.979C256.003 210.832 256.205 210.63 256.357 210.372C256.509 210.108 256.621 209.804 256.691 209.458C256.767 209.112 256.805 208.74 256.805 208.342V208.157C256.805 207.771 256.767 207.407 256.691 207.067C256.621 206.722 256.507 206.417 256.348 206.153C256.196 205.884 255.994 205.673 255.742 205.521C255.49 205.368 255.185 205.292 254.828 205.292C254.47 205.292 254.166 205.368 253.914 205.521C253.668 205.673 253.466 205.884 253.307 206.153C253.155 206.417 253.044 206.722 252.973 207.067C252.903 207.407 252.868 207.771 252.868 208.157ZM263.612 205.564V213H261.081V203.49H263.463L263.612 205.564ZM266.478 203.429L266.434 205.775C266.311 205.758 266.161 205.743 265.985 205.731C265.815 205.714 265.66 205.705 265.52 205.705C265.162 205.705 264.852 205.752 264.588 205.846C264.33 205.934 264.113 206.065 263.938 206.241C263.768 206.417 263.639 206.631 263.551 206.883C263.469 207.135 263.422 207.422 263.41 207.744L262.9 207.586C262.9 206.971 262.962 206.405 263.085 205.89C263.208 205.368 263.387 204.914 263.621 204.527C263.861 204.141 264.154 203.842 264.5 203.631C264.846 203.42 265.241 203.314 265.687 203.314C265.827 203.314 265.971 203.326 266.117 203.35C266.264 203.367 266.384 203.394 266.478 203.429ZM272.687 210.855V206.619C272.687 206.314 272.637 206.054 272.537 205.837C272.438 205.614 272.283 205.441 272.072 205.318C271.867 205.195 271.6 205.134 271.272 205.134C270.991 205.134 270.747 205.184 270.542 205.283C270.337 205.377 270.179 205.515 270.068 205.696C269.956 205.872 269.901 206.08 269.901 206.32H267.369C267.369 205.916 267.463 205.532 267.651 205.169C267.838 204.806 268.111 204.486 268.468 204.211C268.826 203.93 269.25 203.71 269.743 203.552C270.241 203.394 270.797 203.314 271.412 203.314C272.151 203.314 272.807 203.438 273.381 203.684C273.955 203.93 274.407 204.299 274.735 204.791C275.069 205.283 275.236 205.898 275.236 206.637V210.706C275.236 211.228 275.268 211.655 275.332 211.989C275.397 212.317 275.491 212.604 275.614 212.851V213H273.056C272.933 212.742 272.839 212.42 272.775 212.033C272.716 211.641 272.687 211.248 272.687 210.855ZM273.021 207.208L273.038 208.641H271.623C271.289 208.641 270.999 208.679 270.753 208.755C270.507 208.831 270.305 208.939 270.147 209.08C269.989 209.215 269.871 209.373 269.795 209.555C269.725 209.736 269.69 209.936 269.69 210.152C269.69 210.369 269.74 210.565 269.839 210.741C269.939 210.911 270.082 211.046 270.27 211.146C270.457 211.239 270.677 211.286 270.929 211.286C271.31 211.286 271.641 211.21 271.922 211.058C272.203 210.905 272.42 210.718 272.573 210.495C272.731 210.272 272.813 210.062 272.819 209.862L273.487 210.935C273.393 211.175 273.264 211.424 273.1 211.682C272.942 211.939 272.74 212.183 272.493 212.411C272.247 212.634 271.951 212.818 271.606 212.965C271.26 213.105 270.85 213.176 270.375 213.176C269.772 213.176 269.224 213.056 268.732 212.815C268.245 212.569 267.859 212.232 267.572 211.805C267.29 211.371 267.15 210.879 267.15 210.328C267.15 209.83 267.243 209.388 267.431 209.001C267.618 208.614 267.894 208.289 268.257 208.025C268.626 207.756 269.086 207.554 269.637 207.419C270.188 207.278 270.826 207.208 271.553 207.208H273.021ZM283.387 203.49H285.681V212.684C285.681 213.551 285.488 214.286 285.101 214.89C284.72 215.499 284.187 215.959 283.502 216.27C282.816 216.586 282.019 216.744 281.111 216.744C280.713 216.744 280.291 216.691 279.845 216.586C279.406 216.48 278.984 216.316 278.58 216.094C278.181 215.871 277.847 215.59 277.578 215.25L278.694 213.756C278.987 214.096 279.327 214.359 279.714 214.547C280.1 214.74 280.528 214.837 280.997 214.837C281.454 214.837 281.84 214.752 282.157 214.582C282.473 214.418 282.716 214.175 282.886 213.853C283.056 213.536 283.141 213.152 283.141 212.701V205.688L283.387 203.49ZM276.989 208.359V208.175C276.989 207.448 277.077 206.789 277.253 206.197C277.434 205.6 277.689 205.087 278.017 204.659C278.351 204.231 278.756 203.9 279.23 203.666C279.705 203.432 280.241 203.314 280.839 203.314C281.471 203.314 282.002 203.432 282.429 203.666C282.857 203.9 283.209 204.234 283.484 204.668C283.759 205.096 283.973 205.603 284.126 206.188C284.284 206.769 284.407 207.404 284.495 208.096V208.5C284.407 209.162 284.275 209.777 284.099 210.346C283.923 210.914 283.692 211.412 283.405 211.84C283.118 212.262 282.76 212.59 282.333 212.824C281.911 213.059 281.407 213.176 280.821 213.176C280.235 213.176 279.705 213.056 279.23 212.815C278.761 212.575 278.36 212.238 278.026 211.805C277.692 211.371 277.434 210.861 277.253 210.275C277.077 209.689 276.989 209.051 276.989 208.359ZM279.52 208.175V208.359C279.52 208.752 279.558 209.118 279.634 209.458C279.711 209.798 279.828 210.1 279.986 210.363C280.15 210.621 280.352 210.823 280.592 210.97C280.839 211.11 281.129 211.181 281.463 211.181C281.925 211.181 282.303 211.084 282.596 210.891C282.889 210.691 283.109 210.419 283.256 210.073C283.402 209.728 283.487 209.329 283.51 208.878V207.727C283.499 207.357 283.449 207.026 283.361 206.733C283.273 206.435 283.15 206.18 282.992 205.969C282.834 205.758 282.629 205.594 282.377 205.477C282.125 205.359 281.826 205.301 281.48 205.301C281.146 205.301 280.856 205.377 280.61 205.529C280.37 205.676 280.168 205.878 280.004 206.136C279.845 206.394 279.725 206.698 279.643 207.05C279.561 207.396 279.52 207.771 279.52 208.175ZM292.207 213.176C291.469 213.176 290.807 213.059 290.221 212.824C289.635 212.584 289.137 212.253 288.727 211.831C288.322 211.409 288.012 210.92 287.795 210.363C287.578 209.801 287.47 209.203 287.47 208.57V208.219C287.47 207.498 287.572 206.839 287.777 206.241C287.982 205.644 288.275 205.125 288.656 204.686C289.043 204.246 289.512 203.909 290.062 203.675C290.613 203.435 291.234 203.314 291.926 203.314C292.6 203.314 293.197 203.426 293.719 203.648C294.24 203.871 294.677 204.188 295.028 204.598C295.386 205.008 295.655 205.5 295.837 206.074C296.019 206.643 296.109 207.275 296.109 207.973V209.027H288.551V207.34H293.622V207.146C293.622 206.795 293.558 206.481 293.429 206.206C293.306 205.925 293.118 205.702 292.866 205.538C292.614 205.374 292.292 205.292 291.899 205.292C291.565 205.292 291.278 205.365 291.038 205.512C290.798 205.658 290.602 205.863 290.449 206.127C290.303 206.391 290.191 206.701 290.115 207.059C290.045 207.41 290.01 207.797 290.01 208.219V208.57C290.01 208.951 290.062 209.303 290.168 209.625C290.279 209.947 290.435 210.226 290.634 210.46C290.839 210.694 291.085 210.876 291.372 211.005C291.665 211.134 291.996 211.198 292.365 211.198C292.822 211.198 293.247 211.11 293.64 210.935C294.038 210.753 294.381 210.48 294.668 210.117L295.898 211.453C295.699 211.74 295.427 212.016 295.081 212.279C294.741 212.543 294.331 212.76 293.851 212.93C293.37 213.094 292.822 213.176 292.207 213.176Z" fill="#48389C"/>
<path d="M396.331 157H393.545L393.563 154.943H396.331C397.023 154.943 397.606 154.788 398.08 154.478C398.555 154.161 398.912 153.701 399.153 153.098C399.399 152.494 399.522 151.765 399.522 150.909V150.285C399.522 149.629 399.451 149.052 399.311 148.554C399.176 148.056 398.974 147.637 398.704 147.297C398.435 146.957 398.104 146.702 397.711 146.532C397.319 146.356 396.867 146.269 396.358 146.269H393.492V144.203H396.358C397.213 144.203 397.995 144.35 398.704 144.643C399.419 144.93 400.037 145.343 400.559 145.882C401.08 146.421 401.482 147.065 401.763 147.815C402.05 148.56 402.194 149.389 402.194 150.303V150.909C402.194 151.817 402.05 152.646 401.763 153.396C401.482 154.146 401.08 154.791 400.559 155.33C400.043 155.863 399.425 156.276 398.704 156.569C397.989 156.856 397.198 157 396.331 157ZM395.039 144.203V157H392.403V144.203H395.039ZM406.803 147.49V157H404.263V147.49H406.803ZM404.105 145.012C404.105 144.643 404.234 144.338 404.492 144.098C404.75 143.857 405.095 143.737 405.529 143.737C405.957 143.737 406.299 143.857 406.557 144.098C406.821 144.338 406.953 144.643 406.953 145.012C406.953 145.381 406.821 145.686 406.557 145.926C406.299 146.166 405.957 146.286 405.529 146.286C405.095 146.286 404.75 146.166 404.492 145.926C404.234 145.686 404.105 145.381 404.105 145.012ZM414.217 154.372C414.217 154.19 414.164 154.026 414.058 153.88C413.953 153.733 413.757 153.599 413.47 153.476C413.188 153.347 412.781 153.229 412.248 153.124C411.767 153.019 411.319 152.887 410.903 152.729C410.493 152.564 410.136 152.368 409.831 152.14C409.532 151.911 409.298 151.642 409.128 151.331C408.958 151.015 408.873 150.654 408.873 150.25C408.873 149.852 408.958 149.477 409.128 149.125C409.304 148.773 409.553 148.463 409.875 148.193C410.203 147.918 410.601 147.704 411.07 147.552C411.545 147.394 412.078 147.314 412.67 147.314C413.496 147.314 414.205 147.446 414.797 147.71C415.394 147.974 415.851 148.337 416.168 148.8C416.49 149.257 416.651 149.778 416.651 150.364H414.12C414.12 150.118 414.067 149.898 413.962 149.705C413.862 149.506 413.704 149.351 413.487 149.239C413.276 149.122 413.001 149.063 412.661 149.063C412.38 149.063 412.137 149.113 411.932 149.213C411.726 149.307 411.568 149.436 411.457 149.6C411.351 149.758 411.299 149.934 411.299 150.127C411.299 150.273 411.328 150.405 411.387 150.522C411.451 150.634 411.554 150.736 411.694 150.83C411.835 150.924 412.016 151.012 412.239 151.094C412.468 151.17 412.749 151.24 413.083 151.305C413.768 151.445 414.381 151.63 414.92 151.858C415.459 152.081 415.887 152.386 416.203 152.772C416.519 153.153 416.678 153.654 416.678 154.275C416.678 154.697 416.584 155.084 416.396 155.436C416.209 155.787 415.939 156.095 415.588 156.358C415.236 156.616 414.814 156.818 414.322 156.965C413.836 157.105 413.288 157.176 412.679 157.176C411.794 157.176 411.044 157.018 410.429 156.701C409.819 156.385 409.356 155.983 409.04 155.497C408.729 155.005 408.574 154.501 408.574 153.985H410.974C410.985 154.331 411.073 154.609 411.237 154.82C411.407 155.031 411.621 155.184 411.879 155.277C412.142 155.371 412.427 155.418 412.731 155.418C413.059 155.418 413.332 155.374 413.549 155.286C413.766 155.192 413.93 155.069 414.041 154.917C414.158 154.759 414.217 154.577 414.217 154.372ZM423.159 147.49V149.283H417.622V147.49H423.159ZM418.993 145.144H421.525V154.135C421.525 154.41 421.56 154.621 421.63 154.768C421.706 154.914 421.818 155.017 421.964 155.075C422.111 155.128 422.295 155.154 422.518 155.154C422.676 155.154 422.817 155.148 422.94 155.137C423.069 155.119 423.177 155.102 423.265 155.084L423.274 156.947C423.057 157.018 422.822 157.073 422.571 157.114C422.319 157.155 422.04 157.176 421.736 157.176C421.179 157.176 420.693 157.085 420.277 156.903C419.866 156.716 419.55 156.417 419.327 156.007C419.105 155.597 418.993 155.058 418.993 154.39V145.144ZM427.312 149.564V157H424.781V147.49H427.163L427.312 149.564ZM430.177 147.429L430.133 149.775C430.01 149.758 429.861 149.743 429.685 149.731C429.515 149.714 429.36 149.705 429.219 149.705C428.862 149.705 428.551 149.752 428.288 149.846C428.03 149.934 427.813 150.065 427.637 150.241C427.467 150.417 427.338 150.631 427.251 150.883C427.168 151.135 427.122 151.422 427.11 151.744L426.6 151.586C426.6 150.971 426.662 150.405 426.785 149.89C426.908 149.368 427.086 148.914 427.321 148.527C427.561 148.141 427.854 147.842 428.2 147.631C428.545 147.42 428.941 147.314 429.386 147.314C429.527 147.314 429.67 147.326 429.817 147.35C429.963 147.367 430.084 147.394 430.177 147.429ZM434.224 147.49V157H431.684V147.49H434.224ZM431.526 145.012C431.526 144.643 431.655 144.338 431.913 144.098C432.171 143.857 432.516 143.737 432.95 143.737C433.378 143.737 433.721 143.857 433.978 144.098C434.242 144.338 434.374 144.643 434.374 145.012C434.374 145.381 434.242 145.686 433.978 145.926C433.721 146.166 433.378 146.286 432.95 146.286C432.516 146.286 432.171 146.166 431.913 145.926C431.655 145.686 431.526 145.381 431.526 145.012ZM436.496 143.5H439.028V154.82L438.773 157H436.496V143.5ZM445.048 152.148V152.333C445.048 153.042 444.972 153.692 444.819 154.284C444.673 154.876 444.444 155.389 444.134 155.822C443.823 156.25 443.437 156.584 442.974 156.824C442.517 157.059 441.978 157.176 441.357 157.176C440.777 157.176 440.273 157.059 439.845 156.824C439.423 156.59 439.069 156.259 438.781 155.831C438.494 155.403 438.263 154.902 438.087 154.328C437.911 153.754 437.779 153.127 437.692 152.447V152.043C437.779 151.363 437.911 150.736 438.087 150.162C438.263 149.588 438.494 149.087 438.781 148.659C439.069 148.231 439.423 147.9 439.845 147.666C440.267 147.432 440.765 147.314 441.339 147.314C441.966 147.314 442.511 147.435 442.974 147.675C443.443 147.909 443.829 148.243 444.134 148.677C444.444 149.104 444.673 149.614 444.819 150.206C444.972 150.792 445.048 151.439 445.048 152.148ZM442.517 152.333V152.148C442.517 151.762 442.487 151.398 442.429 151.059C442.376 150.713 442.282 150.411 442.148 150.153C442.013 149.89 441.828 149.682 441.594 149.529C441.365 149.377 441.069 149.301 440.706 149.301C440.361 149.301 440.068 149.359 439.827 149.477C439.587 149.594 439.388 149.758 439.23 149.969C439.077 150.18 438.963 150.432 438.887 150.725C438.811 151.012 438.764 151.328 438.746 151.674V152.825C438.764 153.288 438.84 153.698 438.975 154.056C439.115 154.407 439.326 154.686 439.608 154.891C439.895 155.09 440.267 155.189 440.724 155.189C441.081 155.189 441.377 155.119 441.611 154.979C441.846 154.838 442.028 154.639 442.156 154.381C442.291 154.123 442.385 153.821 442.438 153.476C442.49 153.124 442.517 152.743 442.517 152.333ZM452.426 154.724V147.49H454.957V157H452.576L452.426 154.724ZM452.707 152.772L453.455 152.755C453.455 153.388 453.381 153.977 453.235 154.521C453.088 155.061 452.869 155.529 452.576 155.928C452.283 156.32 451.914 156.628 451.468 156.851C451.023 157.067 450.499 157.176 449.895 157.176C449.432 157.176 449.004 157.111 448.612 156.982C448.225 156.848 447.891 156.64 447.61 156.358C447.334 156.071 447.118 155.705 446.959 155.26C446.807 154.809 446.731 154.267 446.731 153.634V147.49H449.262V153.651C449.262 153.933 449.294 154.17 449.359 154.363C449.429 154.557 449.526 154.715 449.649 154.838C449.772 154.961 449.916 155.049 450.08 155.102C450.249 155.154 450.437 155.181 450.642 155.181C451.164 155.181 451.574 155.075 451.873 154.864C452.177 154.653 452.391 154.366 452.514 154.003C452.643 153.634 452.707 153.224 452.707 152.772ZM461.729 147.49V149.283H456.192V147.49H461.729ZM457.563 145.144H460.095V154.135C460.095 154.41 460.13 154.621 460.2 154.768C460.276 154.914 460.387 155.017 460.534 155.075C460.68 155.128 460.865 155.154 461.088 155.154C461.246 155.154 461.387 155.148 461.51 155.137C461.638 155.119 461.747 155.102 461.835 155.084L461.844 156.947C461.627 157.018 461.392 157.073 461.14 157.114C460.888 157.155 460.61 157.176 460.305 157.176C459.749 157.176 459.262 157.085 458.846 156.903C458.436 156.716 458.12 156.417 457.897 156.007C457.675 155.597 457.563 155.058 457.563 154.39V145.144ZM466.023 147.49V157H463.483V147.49H466.023ZM463.324 145.012C463.324 144.643 463.453 144.338 463.711 144.098C463.969 143.857 464.315 143.737 464.748 143.737C465.176 143.737 465.519 143.857 465.776 144.098C466.04 144.338 466.172 144.643 466.172 145.012C466.172 145.381 466.04 145.686 465.776 145.926C465.519 146.166 465.176 146.286 464.748 146.286C464.315 146.286 463.969 146.166 463.711 145.926C463.453 145.686 463.324 145.381 463.324 145.012ZM467.89 152.342V152.157C467.89 151.46 467.99 150.818 468.189 150.232C468.388 149.641 468.678 149.128 469.059 148.694C469.44 148.261 469.909 147.924 470.465 147.684C471.022 147.438 471.661 147.314 472.381 147.314C473.102 147.314 473.744 147.438 474.306 147.684C474.869 147.924 475.34 148.261 475.721 148.694C476.108 149.128 476.401 149.641 476.6 150.232C476.799 150.818 476.899 151.46 476.899 152.157V152.342C476.899 153.033 476.799 153.675 476.6 154.267C476.401 154.853 476.108 155.365 475.721 155.805C475.34 156.238 474.872 156.575 474.315 156.815C473.758 157.056 473.12 157.176 472.399 157.176C471.678 157.176 471.037 157.056 470.474 156.815C469.917 156.575 469.446 156.238 469.059 155.805C468.678 155.365 468.388 154.853 468.189 154.267C467.99 153.675 467.89 153.033 467.89 152.342ZM470.421 152.157V152.342C470.421 152.74 470.456 153.112 470.527 153.458C470.597 153.804 470.708 154.108 470.861 154.372C471.019 154.63 471.224 154.832 471.476 154.979C471.728 155.125 472.036 155.198 472.399 155.198C472.75 155.198 473.052 155.125 473.304 154.979C473.556 154.832 473.758 154.63 473.911 154.372C474.063 154.108 474.174 153.804 474.245 153.458C474.321 153.112 474.359 152.74 474.359 152.342V152.157C474.359 151.771 474.321 151.407 474.245 151.067C474.174 150.722 474.06 150.417 473.902 150.153C473.749 149.884 473.547 149.673 473.295 149.521C473.043 149.368 472.739 149.292 472.381 149.292C472.024 149.292 471.719 149.368 471.467 149.521C471.221 149.673 471.019 149.884 470.861 150.153C470.708 150.417 470.597 150.722 470.527 151.067C470.456 151.407 470.421 151.771 470.421 152.157ZM481.113 149.521V157H478.582V147.49H480.955L481.113 149.521ZM480.744 151.911H480.058C480.058 151.208 480.149 150.575 480.331 150.013C480.512 149.444 480.767 148.961 481.095 148.562C481.424 148.158 481.813 147.851 482.264 147.64C482.721 147.423 483.231 147.314 483.794 147.314C484.239 147.314 484.646 147.379 485.015 147.508C485.385 147.637 485.701 147.842 485.965 148.123C486.234 148.404 486.439 148.776 486.58 149.239C486.726 149.702 486.8 150.268 486.8 150.936V157H484.251V150.927C484.251 150.505 484.192 150.177 484.075 149.942C483.958 149.708 483.785 149.544 483.556 149.45C483.334 149.351 483.058 149.301 482.73 149.301C482.39 149.301 482.094 149.368 481.843 149.503C481.596 149.638 481.391 149.825 481.227 150.065C481.069 150.3 480.949 150.575 480.867 150.892C480.785 151.208 480.744 151.548 480.744 151.911Z" fill="#48389C"/>
<path d="M362.473 187.164C362.473 187.899 361.882 188.491 361.146 188.49L349.386 188.485C348.184 188.484 347.566 187.027 348.41 186.182L352.293 182.3L313.811 143.818L317.8 139.829L356.282 178.311L360.165 174.428C361.009 173.584 362.466 174.201 362.467 175.403L362.473 187.164Z" fill="#E4E7EC"/>
<path d="M191.473 170.763C191.473 170.027 190.882 169.436 190.146 169.436L178.386 169.442C177.184 169.442 176.566 170.9 177.41 171.744L181.293 175.627L142.811 214.109L146.8 218.097L185.282 179.615L189.165 183.498C190.009 184.342 191.466 183.725 191.467 182.523L191.473 170.763Z" fill="#E4E7EC"/>
<path d="M316.853 143.445C288.672 171.627 242.981 171.627 214.8 143.445C186.619 115.264 186.619 69.5736 214.8 41.3924C242.981 13.2113 288.672 13.2113 316.853 41.3924C345.034 69.5736 345.034 115.264 316.853 143.445Z" fill="#E4E7EC"/>
<path d="M265.467 158.66C302.078 158.66 331.756 128.981 331.756 92.3709C331.756 55.7607 302.078 26.0823 265.467 26.0823C228.857 26.0823 199.179 55.7607 199.179 92.3709C199.179 128.981 228.857 158.66 265.467 158.66Z" fill="white"/>
<path d="M231.444 19.5103C247.524 11.8918 265.675 9.81213 283.062 13.5958C300.449 17.3795 316.093 26.8137 327.554 40.4255C339.014 54.0373 345.645 71.0607 346.411 88.8381C347.178 106.615 342.036 124.146 331.789 138.694" stroke="#E98135"/>
<path d="M307.364 161.389C291.009 171.198 271.704 174.886 252.885 171.797C234.066 168.708 216.953 159.042 204.592 144.519C192.231 129.996 185.423 111.559 185.38 92.4882C185.337 73.4171 192.062 54.9494 204.358 40.3715" stroke="#E98135"/>
<path d="M218.02 14.5513C235.183 3.97134 255.386 -0.61573 275.475 1.50622C295.564 3.62817 314.408 12.3397 329.065 26.2809C343.722 40.222 353.368 58.6082 356.495 78.5689" stroke="#4B5EAA"/>
<path d="M321.468 164.93C304.188 178.103 282.814 184.733 261.149 183.641C239.484 182.548 218.934 173.803 203.156 158.962C187.377 144.121 177.394 124.146 174.982 102.593" stroke="#4B5EAA"/>
<path fill-rule="evenodd" clip-rule="evenodd" d="M250.569 66.4429V79.4489C251.073 79.4489 251.66 79.4489 252.248 79.4489C260.471 79.4489 265.505 80.288 267.267 80.8753L267.519 80.9592L267.267 81.0432C265.505 81.7144 260.555 82.4696 252.248 82.4696C251.66 82.4696 251.157 82.4696 250.569 82.4696V88.1755C261.897 91.8675 280.945 88.1755 280.945 88.1755V66.4429C280.945 66.4429 271.211 68.8763 250.569 66.4429Z" fill="#E98135"/>
<path fill-rule="evenodd" clip-rule="evenodd" d="M256.947 91.6158C258.289 90.9445 262.569 90.2733 268.778 89.9376V82.3857C268.778 82.3857 258.122 85.0709 235.55 82.3857V106.552C247.968 110.663 268.778 106.552 268.778 106.552V93.294C262.485 92.9584 258.289 92.2032 256.947 91.6158Z" fill="#4B5EAA"/>
<path fill-rule="evenodd" clip-rule="evenodd" d="M284.218 95.0562V120.649C284.218 120.9 284.134 121.152 283.882 121.404C283.714 121.572 283.462 121.739 283.127 121.739C282.875 121.739 282.623 121.656 282.372 121.404C282.204 121.236 282.036 120.984 282.036 120.649V95.224C279.854 95.3079 277.84 95.3918 276.33 95.3918V99.0839H280.106C280.358 99.0839 280.609 99.1678 280.861 99.4195C281.029 99.5873 281.197 99.839 281.197 100.175C281.197 100.51 281.113 100.678 280.861 100.93C280.693 101.098 280.442 101.266 280.106 101.266H276.414V106.048H280.106C280.358 106.048 280.609 106.132 280.861 106.384C281.029 106.552 281.197 106.804 281.197 107.139C281.197 107.391 281.113 107.643 280.861 107.894C280.693 108.062 280.442 108.23 280.106 108.23H276.414V113.013H280.106C280.358 113.013 280.609 113.097 280.861 113.349C281.029 113.516 281.197 113.768 281.197 114.104C281.197 114.439 281.113 114.607 280.861 114.859C280.693 115.027 280.442 115.195 280.106 115.195H276.414V121.068C276.414 121.32 276.33 121.572 276.078 121.823C275.91 121.991 275.659 122.159 275.323 122.159C275.071 122.159 274.82 122.075 274.568 121.823C274.4 121.656 274.232 121.404 274.232 121.068V95.3918C272.218 95.3918 268.778 95.3079 265.422 95.0562C262.065 94.8045 258.625 94.301 256.527 93.5458V118.551C256.695 118.635 256.863 118.719 257.115 118.887C257.45 118.97 257.786 119.138 258.289 119.222C259.212 119.474 260.555 119.642 262.065 119.893C265.254 120.313 269.533 120.565 274.652 120.565C279.854 120.565 284.134 120.229 287.238 119.893C288.833 119.726 290.091 119.474 291.014 119.222C291.518 119.138 291.853 118.97 292.189 118.887C292.441 118.803 292.692 118.719 292.776 118.551V93.4619C290.259 94.3849 287.238 94.9723 284.218 95.0562Z" fill="#A7B0C1"/>
<path d="M250.738 78.6099C250.989 78.6099 251.241 78.526 251.409 78.3582C251.577 78.1904 251.661 77.9387 251.661 77.6869V67.0304C253.255 67.5339 254.849 67.8695 256.444 68.0373V77.6869C256.444 77.9387 256.527 78.1904 256.695 78.3582C256.863 78.526 257.115 78.6099 257.367 78.6099C257.618 78.6099 257.87 78.526 258.038 78.3582C258.206 78.1904 258.29 77.9387 258.29 77.6869V73.1558H260.303C260.555 73.1558 260.807 73.0719 260.975 72.9041C261.143 72.7363 261.226 72.4845 261.226 72.2328C261.226 71.9811 261.143 71.7294 260.975 71.5615C260.807 71.3937 260.555 71.3098 260.303 71.3098H258.29V68.2051C259.464 68.2891 260.891 68.373 262.485 68.373V78.2743C262.485 78.526 262.569 78.7778 262.737 78.9456C262.905 79.1134 263.156 79.1973 263.408 79.1973C263.66 79.1973 263.912 79.1134 264.079 78.9456C264.247 78.7778 264.331 78.526 264.331 78.2743V68.4569C264.751 68.4569 265.254 68.4569 265.674 68.4569C273.645 68.4569 277.757 67.7856 279.77 67.0304V87.9239C279.77 88.1756 279.854 88.4274 280.022 88.5952C280.19 88.763 280.442 88.8469 280.693 88.8469C280.945 88.8469 281.197 88.763 281.365 88.5952C281.533 88.4274 281.616 88.1756 281.616 87.9239V65.3522C281.616 64.1775 279.519 62.2476 265.59 62.2476C251.661 62.2476 249.563 64.1775 249.563 65.3522V77.6869C249.563 77.9387 249.647 78.1904 249.815 78.3582C250.234 78.526 250.486 78.6099 250.738 78.6099ZM279.267 65.3522C277.505 65.9396 273.058 66.6109 265.841 66.6109C258.625 66.6109 254.094 65.9396 252.416 65.3522C254.178 64.7648 258.709 64.0936 265.841 64.0936C272.974 64.0936 277.505 64.8488 279.267 65.3522ZM274.904 87.84C270.205 87.84 254.681 88.0917 254.681 91.532V118.719C254.681 122.159 270.121 122.411 274.904 122.411C279.687 122.411 295.126 122.159 295.126 118.719V91.6159C295.126 88.0917 279.687 87.84 274.904 87.84ZM292.944 91.6159C291.182 92.455 284.553 93.462 274.988 93.462C265.422 93.462 258.793 92.455 257.031 91.6159C258.793 90.7768 265.422 89.7699 274.988 89.7699C284.469 89.7699 291.098 90.7768 292.944 91.6159ZM274.904 120.649C264.583 120.649 257.702 119.474 256.611 118.635V93.462C260.723 95.1402 270.456 95.3919 274.484 95.3919V120.733C274.484 120.984 274.568 121.236 274.736 121.404C274.904 121.572 275.155 121.656 275.407 121.656C275.659 121.656 275.911 121.572 276.078 121.404C276.246 121.236 276.33 120.984 276.33 120.733V114.775H280.106C280.358 114.775 280.61 114.691 280.777 114.523C280.945 114.355 281.029 114.104 281.029 113.852C281.029 113.6 280.945 113.349 280.777 113.181C280.61 113.013 280.358 112.929 280.106 112.929H276.33V107.978H280.106C280.358 107.978 280.61 107.894 280.777 107.727C280.945 107.559 281.029 107.307 281.029 107.055C281.029 106.804 280.945 106.552 280.777 106.384C280.61 106.216 280.358 106.132 280.106 106.132H276.33V101.182H280.106C280.358 101.182 280.61 101.098 280.777 100.93C280.945 100.762 281.029 100.51 281.029 100.259C281.029 100.007 280.945 99.7552 280.777 99.5874C280.61 99.4195 280.358 99.3356 280.106 99.3356H276.33V95.4758C277.924 95.4758 280.022 95.3919 282.204 95.308V120.817C282.204 121.068 282.288 121.32 282.456 121.488C282.623 121.656 282.875 121.74 283.127 121.74C283.379 121.74 283.63 121.656 283.798 121.488C283.966 121.32 284.05 121.068 284.05 120.817V94.9723C287.155 94.8884 290.175 94.3011 293.112 93.3781V118.551C292.189 119.474 285.225 120.649 274.904 120.649Z" fill="#2E2D6F"/>
<path fill-rule="evenodd" clip-rule="evenodd" d="M252.584 63.2543C254.849 62.6669 258.877 62.1635 265.841 62.1635C272.722 62.1635 276.75 62.6669 279.015 63.2543C280.19 63.5899 280.861 63.9256 281.281 64.2612C281.7 64.5968 281.868 65.0164 281.868 65.2681V87.8398C283.462 87.9237 285.141 88.0076 286.819 88.2594C289.084 88.5111 291.098 88.8467 292.693 89.3502C293.448 89.6019 294.119 89.9376 294.539 90.2732C294.958 90.6088 295.21 91.0284 295.21 91.5318V118.719C295.21 119.222 294.958 119.558 294.539 119.977C294.119 120.313 293.448 120.648 292.693 120.9C291.182 121.404 289.084 121.739 286.819 121.991C282.372 122.495 277.253 122.578 274.904 122.578C272.554 122.578 267.52 122.495 262.989 121.991C260.723 121.739 258.709 121.404 257.115 120.9C256.36 120.648 255.688 120.313 255.269 119.977C254.849 119.642 254.598 119.222 254.598 118.719V91.6157C254.598 91.1123 254.849 90.7767 255.269 90.3571C255.688 90.0215 256.36 89.6858 257.115 89.4341C258.625 88.9306 260.723 88.595 262.989 88.3433C267.436 87.8398 272.47 87.7559 274.904 87.7559C276.078 87.7559 277.841 87.7559 279.854 87.8398V67.198C277.757 67.9532 273.645 68.5406 265.841 68.5406C265.59 68.5406 265.338 68.5406 265.17 68.5406C265.002 68.5406 264.751 68.5406 264.583 68.5406V78.358C264.583 78.6097 264.499 78.8615 264.247 79.1132C264.079 79.281 263.828 79.4488 263.492 79.4488C263.156 79.4488 262.989 79.3649 262.737 79.1132C262.569 78.9454 262.401 78.6937 262.401 78.358V68.5406C260.891 68.5406 259.548 68.4567 258.374 68.3728V71.2257H260.303C260.555 71.2257 260.807 71.3096 261.059 71.5613C261.226 71.7292 261.394 71.9809 261.394 72.3165C261.394 72.5683 261.31 72.82 261.059 73.0717C260.891 73.2395 260.639 73.4073 260.303 73.4073H258.374V77.8546C258.374 78.1063 258.29 78.358 258.038 78.6097C257.87 78.7776 257.618 78.9454 257.283 78.9454C257.031 78.9454 256.779 78.8615 256.527 78.6097C256.36 78.4419 256.192 78.1902 256.192 77.8546V68.121C254.849 68.0371 253.255 67.7015 251.745 67.198V77.6867C251.745 77.9385 251.661 78.1902 251.409 78.4419C251.241 78.6097 250.989 78.7776 250.654 78.7776C250.402 78.7776 250.15 78.6937 249.899 78.4419C249.731 78.2741 249.563 78.0224 249.563 77.6867V65.352C249.563 65.0164 249.731 64.6807 250.15 64.3451C250.738 63.9256 251.409 63.5899 252.584 63.2543ZM279.854 88.0076C277.841 87.9237 276.078 87.9237 274.904 87.9237C272.554 87.9237 267.52 88.0076 263.072 88.5111C260.807 88.7628 258.793 89.0985 257.283 89.6019C256.527 89.8536 255.94 90.1054 255.521 90.441C255.101 90.7767 254.849 91.1123 254.849 91.5318V118.719C254.849 119.138 255.101 119.474 255.521 119.809C255.94 120.145 256.527 120.397 257.283 120.648C258.793 121.152 260.891 121.488 263.072 121.739C267.52 122.243 272.554 122.327 274.904 122.327C277.253 122.327 282.288 122.243 286.735 121.739C289.001 121.488 291.014 121.152 292.525 120.648C293.28 120.397 293.867 120.145 294.287 119.809C294.706 119.474 294.958 119.138 294.958 118.719V91.6157C294.958 91.1962 294.706 90.8606 294.287 90.5249C293.867 90.1893 293.28 89.9376 292.525 89.6858C291.014 89.1824 288.917 88.8467 286.735 88.595C285.141 88.3433 283.462 88.1755 281.868 88.0915C281.868 88.3433 281.7 88.5111 281.616 88.6789C281.449 88.8467 281.197 89.0145 280.861 89.0145C280.61 89.0145 280.358 88.9306 280.106 88.6789C279.938 88.5111 279.854 88.2594 279.854 88.0076ZM281.7 88.0915C281.7 88.2594 281.616 88.4272 281.449 88.595C281.281 88.7628 281.029 88.8467 280.861 88.8467C280.61 88.8467 280.442 88.7628 280.274 88.595C280.106 88.4272 280.022 88.2594 280.022 88.0076C280.526 88.0076 281.113 88.0915 281.7 88.0915ZM281.7 87.9237C281.113 87.9237 280.526 87.8398 280.022 87.8398V66.9463L279.938 67.0302C277.841 67.7854 273.813 68.3728 265.841 68.3728C265.59 68.3728 265.338 68.3728 265.17 68.3728C264.918 68.3728 264.751 68.3728 264.499 68.3728H264.415V78.358C264.415 78.6097 264.331 78.7776 264.163 78.9454C263.995 79.1132 263.744 79.1971 263.576 79.1971C263.408 79.1971 263.156 79.1132 262.989 78.9454C262.821 78.7776 262.737 78.5258 262.737 78.358V68.3728H262.653C261.059 68.3728 259.716 68.2889 258.457 68.2049H258.374V71.3935H260.471C260.723 71.3935 260.891 71.4774 261.059 71.6452C261.226 71.8131 261.31 72.0648 261.31 72.2326C261.31 72.4843 261.226 72.6522 261.059 72.82C260.891 72.9878 260.639 73.0717 260.387 73.0717H258.29V77.6867C258.29 77.9385 258.206 78.1063 258.038 78.2741C257.87 78.4419 257.618 78.5258 257.45 78.5258C257.199 78.5258 257.031 78.4419 256.863 78.2741C256.695 78.1063 256.611 77.9385 256.611 77.6867V67.9532H256.527C254.933 67.7854 253.339 67.4498 251.745 66.9463H251.661V77.6867C251.661 77.9385 251.577 78.1063 251.409 78.2741C251.241 78.4419 250.989 78.5258 250.822 78.5258C250.57 78.5258 250.402 78.4419 250.234 78.2741C250.066 78.1063 249.899 77.9385 249.899 77.6867V65.352C249.899 65.1003 249.983 64.7647 250.402 64.429C250.822 64.0934 251.493 63.7577 252.584 63.4221C254.849 62.7508 258.793 62.3313 265.758 62.3313C272.722 62.3313 276.666 62.8347 278.931 63.4221C280.022 63.7577 280.777 64.0934 281.113 64.429C281.533 64.7647 281.616 65.1003 281.616 65.352V87.9237H281.7ZM252.668 65.352C254.598 65.8555 258.961 66.5268 265.841 66.5268C272.722 66.5268 277.085 65.9394 279.015 65.352C277.085 64.8486 272.638 64.1773 265.841 64.1773C258.961 64.1773 254.514 64.8486 252.668 65.352ZM252.332 65.2681C254.094 64.7647 258.625 64.0095 265.841 64.0095C273.058 64.0095 277.589 64.6807 279.351 65.2681L279.603 65.352L279.267 65.4359C277.505 66.0233 272.974 66.6946 265.841 66.6946C258.625 66.6946 254.094 66.0233 252.332 65.4359L252.08 65.352L252.332 65.2681ZM257.115 91.6157C257.534 91.7836 258.206 91.9514 259.129 92.2031C260.136 92.4548 261.394 92.6227 262.989 92.7905C266.093 93.1261 270.121 93.3779 274.904 93.3779C279.687 93.3779 283.714 93.1261 286.819 92.7905C288.329 92.6227 289.672 92.3709 290.679 92.2031C291.602 92.0353 292.273 91.8675 292.693 91.6157C292.273 91.4479 291.602 91.2801 290.679 91.0284C289.672 90.7767 288.329 90.6088 286.819 90.441C283.714 90.1054 279.687 89.8536 274.904 89.8536C270.121 89.8536 266.093 90.1054 262.989 90.441C261.478 90.6088 260.136 90.8606 259.129 91.0284C258.29 91.1962 257.618 91.364 257.115 91.6157ZM262.989 90.2732C266.093 89.9376 270.121 89.6858 274.904 89.6858C279.687 89.6858 283.714 89.9376 286.819 90.2732C288.329 90.441 289.672 90.6927 290.679 90.8606C291.686 91.1123 292.441 91.2801 292.944 91.5318L293.112 91.6157L292.944 91.6997C292.525 91.9514 291.77 92.1192 290.679 92.3709C289.672 92.6227 288.329 92.7905 286.819 92.9583C283.714 93.2939 279.687 93.5457 274.904 93.5457C270.121 93.5457 266.009 93.2939 262.989 92.9583C261.478 92.7905 260.136 92.5388 259.129 92.3709C258.122 92.1192 257.367 91.9514 256.863 91.6997L256.695 91.6157L256.863 91.5318C257.283 91.2801 258.038 91.1123 259.129 90.8606C260.136 90.6088 261.478 90.441 262.989 90.2732ZM256.527 93.2939L256.611 93.3779C258.625 94.2169 262.149 94.7204 265.59 94.9721C269.03 95.2239 272.47 95.3078 274.484 95.3078H274.568V120.732C274.568 120.984 274.652 121.152 274.82 121.32C274.988 121.488 275.239 121.572 275.407 121.572C275.659 121.572 275.827 121.488 275.995 121.32C276.162 121.152 276.246 120.9 276.246 120.732V114.691H280.106C280.358 114.691 280.526 114.607 280.693 114.439C280.861 114.271 280.945 114.02 280.945 113.852C280.945 113.684 280.945 113.348 280.777 113.181C280.61 113.013 280.358 112.929 280.19 112.929H276.33V107.81H280.106C280.358 107.81 280.526 107.726 280.693 107.559C280.861 107.391 280.945 107.139 280.945 106.971C280.945 106.719 280.861 106.552 280.693 106.384C280.526 106.216 280.274 106.132 280.106 106.132H276.246V101.014H280.106C280.358 101.014 280.526 100.93 280.693 100.762C280.861 100.594 280.945 100.342 280.945 100.175C280.945 100.007 280.861 99.755 280.693 99.5872C280.526 99.4193 280.274 99.3354 280.106 99.3354H276.246V95.3078H276.33C277.924 95.3078 280.022 95.2239 282.204 95.14H282.288V120.816C282.288 121.068 282.372 121.236 282.539 121.404C282.707 121.572 282.959 121.655 283.127 121.655C283.379 121.655 283.546 121.572 283.714 121.404C283.882 121.236 283.966 120.984 283.966 120.816V94.8882H284.05C287.155 94.8043 290.175 94.2169 293.112 93.2939H293.196V118.635C293.028 118.719 292.776 118.886 292.525 118.97C292.189 119.054 291.77 119.222 291.35 119.306C290.427 119.558 289.084 119.725 287.49 119.977C284.302 120.397 280.022 120.648 274.82 120.648C269.617 120.648 265.338 120.313 262.149 119.977C260.555 119.809 259.297 119.558 258.29 119.306C257.786 119.222 257.367 119.054 257.115 118.97C256.779 118.886 256.527 118.719 256.444 118.635V93.2939H256.527ZM284.218 95.056V120.648C284.218 120.9 284.134 121.152 283.882 121.404C283.714 121.572 283.462 121.739 283.127 121.739C282.875 121.739 282.623 121.655 282.372 121.404C282.204 121.236 282.036 120.984 282.036 120.648V95.2239C279.854 95.3078 277.841 95.3917 276.33 95.3917V99.0837H280.106C280.358 99.0837 280.61 99.1676 280.861 99.4193C281.029 99.5872 281.197 99.8389 281.197 100.175C281.197 100.51 281.113 100.678 280.861 100.93C280.693 101.098 280.442 101.265 280.106 101.265H276.414V106.048H280.106C280.358 106.048 280.61 106.132 280.861 106.384C281.029 106.552 281.197 106.803 281.197 107.139C281.197 107.391 281.113 107.642 280.861 107.894C280.693 108.062 280.442 108.23 280.106 108.23H276.414V113.013H280.106C280.358 113.013 280.61 113.097 280.861 113.348C281.029 113.516 281.197 113.768 281.197 114.104C281.197 114.439 281.113 114.607 280.861 114.859C280.693 115.027 280.442 115.194 280.106 115.194H276.414V121.068C276.414 121.32 276.33 121.572 276.078 121.823C275.911 121.991 275.659 122.159 275.323 122.159C275.072 122.159 274.82 122.075 274.568 121.823C274.4 121.655 274.232 121.404 274.232 121.068V95.3917C272.219 95.3917 268.778 95.3078 265.422 95.056C262.066 94.8043 258.625 94.3009 256.527 93.5457V118.551C256.695 118.635 256.863 118.719 257.115 118.886C257.45 118.97 257.786 119.138 258.29 119.222C259.213 119.474 260.555 119.642 262.066 119.893C265.254 120.313 269.533 120.565 274.652 120.565C279.854 120.565 284.134 120.229 287.238 119.893C288.833 119.725 290.091 119.474 291.014 119.222C291.518 119.138 291.853 118.97 292.189 118.886C292.441 118.802 292.693 118.719 292.776 118.551V93.4618C290.259 94.3848 287.238 94.9721 284.218 95.056Z" fill="#2E2D6F"/>
<path d="M255.269 107.223H255.101C245.703 107.223 236.977 106.636 236.725 105.629V82.7213C237.9 83.1408 239.074 83.3926 240.249 83.5604V107.475C240.249 107.726 240.333 107.978 240.501 108.146C240.669 108.314 240.92 108.398 241.172 108.398C241.424 108.398 241.676 108.314 241.843 108.146C242.011 107.978 242.095 107.726 242.095 107.475V100.846H244.445C244.696 100.846 244.948 100.762 245.116 100.594C245.284 100.426 245.368 100.174 245.368 99.9228C245.368 99.671 245.284 99.4193 245.116 99.2515C244.948 99.0837 244.696 98.9998 244.445 98.9998H242.179V95.056H244.528C244.78 95.056 245.032 94.9721 245.2 94.8043C245.368 94.6364 245.451 94.3847 245.451 94.133C245.451 93.8813 245.368 93.6295 245.2 93.4617C245.032 93.2939 244.78 93.21 244.528 93.21H242.179V89.2662H244.528C244.78 89.2662 245.032 89.1823 245.2 89.0145C245.368 88.8467 245.451 88.595 245.451 88.3432C245.451 88.0915 245.368 87.8398 245.2 87.6719C245.032 87.5041 244.78 87.4202 244.528 87.4202H242.179V83.9799C243.522 84.1477 245.032 84.2316 246.878 84.3156V107.475C246.878 107.726 246.962 107.978 247.13 108.146C247.297 108.314 247.549 108.398 247.801 108.398C248.053 108.398 248.304 108.314 248.472 108.146C248.64 107.978 248.724 107.726 248.724 107.475V84.2316C249.815 84.2316 250.989 84.3156 252.164 84.3156C261.059 84.3156 265.506 83.5604 267.688 82.7213V88.8467C267.688 89.0984 267.771 89.3501 267.939 89.518C268.107 89.6858 268.359 89.7697 268.611 89.7697C268.862 89.7697 269.114 89.6858 269.282 89.518C269.45 89.3501 269.534 89.0984 269.534 88.8467V80.9592C269.534 77.9384 257.367 77.6028 252.164 77.6028C246.962 77.6028 234.795 77.9384 234.795 80.9592V105.88C234.795 107.139 236.473 109.069 255.017 109.069H255.185C255.437 109.069 255.688 108.985 255.856 108.817C256.024 108.649 256.108 108.398 256.108 108.146C256.108 107.894 256.024 107.642 255.856 107.475C255.688 107.307 255.521 107.223 255.269 107.223ZM267.184 80.9592C265.422 81.5465 260.471 82.3856 252.248 82.3856C244.025 82.3856 238.99 81.5465 237.312 80.9592C239.074 80.3718 244.025 79.5327 252.248 79.5327C260.471 79.5327 265.506 80.3718 267.184 80.9592Z" fill="#2E2D6F"/>
<path fill-rule="evenodd" clip-rule="evenodd" d="M241.592 78.1062C245.284 77.6867 249.647 77.6028 252.248 77.6028C254.849 77.6028 259.213 77.6867 262.905 78.1062C264.751 78.358 266.429 78.6936 267.688 79.1132C268.275 79.3649 268.778 79.6166 269.198 79.8683C269.534 80.204 269.785 80.5396 269.785 80.9592V88.8467C269.785 89.0984 269.701 89.3501 269.45 89.6019C269.198 89.8536 268.946 89.8536 268.694 89.8536C268.443 89.8536 268.191 89.7697 267.939 89.518C267.771 89.3501 267.604 89.0984 267.604 88.7628V82.8052C265.422 83.6443 260.975 84.3156 252.164 84.3156C250.989 84.3156 249.815 84.3156 248.808 84.3156V107.055C250.822 107.139 252.919 107.139 255.017 107.139H255.185C255.437 107.139 255.688 107.223 255.94 107.475C256.192 107.726 256.276 107.894 256.276 108.23C256.276 108.565 256.192 108.733 255.94 108.985C255.688 109.237 255.521 109.153 255.269 109.153H255.101C245.871 109.153 240.753 108.649 238.067 107.978C236.725 107.642 235.886 107.307 235.466 106.887C234.879 106.636 234.795 106.216 234.795 105.88V80.9592C234.795 80.5396 234.963 80.204 235.382 79.8683C235.718 79.5327 236.221 79.281 236.893 79.1132C238.067 78.6097 239.746 78.358 241.592 78.1062ZM248.724 107.055V84.1477H248.808C249.899 84.1477 251.073 84.2316 252.248 84.2316C261.143 84.2316 265.59 83.4765 267.688 82.6374L267.771 82.5535V88.7628C267.771 89.0145 267.855 89.1823 268.023 89.3501C268.191 89.518 268.443 89.6019 268.611 89.6019C268.862 89.6019 269.03 89.518 269.198 89.3501C269.366 89.1823 269.45 88.9306 269.45 88.7628V80.8753C269.45 80.5396 269.282 80.204 268.946 79.9523C268.611 79.7005 268.107 79.4488 267.52 79.1971C266.345 78.7775 264.667 78.4419 262.821 78.1902C259.129 77.7706 254.765 77.6867 252.164 77.6867C249.563 77.6867 245.2 77.7706 241.508 78.1902C239.662 78.4419 237.983 78.7775 236.809 79.1971C236.221 79.4488 235.718 79.7005 235.382 79.9523C235.047 80.204 234.879 80.5396 234.879 80.8753V105.796C234.879 106.048 234.963 106.384 235.382 106.719C235.802 107.055 236.557 107.391 237.983 107.726C238.739 108.062 239.578 108.23 240.669 108.314C240.585 108.314 240.585 108.23 240.501 108.23C240.333 108.062 240.165 107.81 240.165 107.475V106.636C239.494 106.552 238.823 106.468 238.319 106.384C237.816 106.3 237.396 106.216 237.144 106.048C236.977 105.964 236.893 105.964 236.809 105.88C236.809 105.796 236.725 105.796 236.641 105.629V82.5535H236.725C237.816 82.973 238.99 83.2247 240.249 83.3926H240.333V106.384C240.836 106.468 241.424 106.468 242.011 106.552V100.762H244.445C244.696 100.762 244.864 100.678 245.032 100.51C245.2 100.342 245.284 100.091 245.284 99.9228C245.284 99.671 245.2 99.5032 245.032 99.3354C244.864 99.1676 244.612 99.0837 244.445 99.0837H242.095V94.8882H244.528C244.78 94.8882 244.948 94.8043 245.116 94.6364C245.284 94.4686 245.368 94.2169 245.368 94.0491C245.368 93.8813 245.284 93.6295 245.116 93.4617C244.948 93.2939 244.696 93.21 244.528 93.21H242.095V89.0984H244.528C244.78 89.0984 244.948 89.0145 245.116 88.8467C245.284 88.6789 245.368 88.4271 245.368 88.2593C245.368 88.0076 245.284 87.8398 245.116 87.6719C244.948 87.5041 244.696 87.4202 244.528 87.4202H242.095V83.8121H242.179C243.522 83.9799 245.032 84.0638 246.878 84.1477H246.962V107.055C247.549 106.971 248.137 106.971 248.724 107.055ZM246.962 107.139C247.549 107.139 248.053 107.223 248.64 107.223V107.475C248.64 107.726 248.556 107.894 248.388 108.062C248.22 108.23 247.969 108.314 247.801 108.314C247.633 108.314 247.381 108.23 247.214 108.062C247.046 107.894 246.962 107.642 246.962 107.475V107.139ZM246.794 107.139V107.475C246.794 107.726 246.878 107.978 247.13 108.23C247.297 108.398 247.549 108.565 247.885 108.565C248.137 108.565 248.388 108.482 248.64 108.23C248.808 108.062 248.976 107.81 248.976 107.475V107.223C250.989 107.307 253.087 107.307 255.185 107.307H255.353C255.605 107.307 255.772 107.391 255.94 107.559C256.108 107.726 256.192 107.978 256.192 108.146C256.192 108.314 256.108 108.565 255.94 108.733C255.772 108.901 255.521 108.985 255.353 108.985H255.185C248.976 108.985 244.696 108.733 241.676 108.398C241.843 108.314 241.927 108.23 242.011 108.146C242.179 107.978 242.347 107.726 242.347 107.391V106.719C242.431 106.719 242.515 106.719 242.599 106.719C243.773 106.971 245.2 107.055 246.794 107.139ZM246.794 106.971V84.2316C245.032 84.1477 243.522 84.0638 242.263 83.896V87.1685H244.528C244.78 87.1685 245.032 87.2524 245.284 87.5041C245.451 87.6719 245.619 87.9237 245.619 88.2593C245.619 88.511 245.535 88.7628 245.284 89.0145C245.116 89.1823 244.864 89.3501 244.528 89.3501H242.263V93.1261H244.528C244.78 93.1261 245.032 93.21 245.284 93.4617C245.451 93.6295 245.619 93.8813 245.619 94.2169C245.619 94.5525 245.535 94.7204 245.284 94.9721C245.116 95.1399 244.864 95.3077 244.528 95.3077H242.263V99.0837H244.528C244.78 99.0837 245.032 99.1676 245.284 99.4193C245.451 99.5871 245.619 99.8388 245.619 100.174C245.619 100.426 245.535 100.678 245.284 100.93C245.116 101.097 244.864 101.265 244.528 101.265H242.263V107.055C242.347 107.055 242.431 107.055 242.515 107.055C243.773 106.803 245.284 106.887 246.794 106.971ZM242.095 106.803C241.508 106.719 240.92 106.719 240.417 106.636V107.475C240.417 107.726 240.501 107.894 240.669 108.062C240.753 108.23 241.004 108.314 241.256 108.314C241.508 108.314 241.676 108.23 241.843 108.062C242.011 107.894 242.095 107.642 242.095 107.475V106.803ZM240.165 106.468V83.6443C238.99 83.4765 237.9 83.2247 236.809 82.8052V105.629C236.809 105.629 236.809 105.713 236.893 105.713C236.977 105.796 237.06 105.796 237.228 105.88C237.48 105.964 237.9 106.048 238.403 106.216C238.906 106.3 239.494 106.384 240.165 106.468ZM237.564 80.9592C239.494 81.5465 244.361 82.3017 252.248 82.3017C260.136 82.3017 265.002 81.5465 266.932 80.9592C265.002 80.3718 260.136 79.6166 252.248 79.6166C244.361 79.6166 239.494 80.3718 237.564 80.9592ZM237.228 80.8753C238.99 80.204 243.941 79.4488 252.248 79.4488C260.471 79.4488 265.506 80.2879 267.268 80.8753L267.52 80.9592L267.268 81.0431C265.506 81.7144 260.555 82.4695 252.248 82.4695C244.025 82.4695 238.99 81.6304 237.228 81.0431L236.977 80.9592L237.228 80.8753Z" fill="#2E2D6F"/>
<circle cx="440.848" cy="264.74" r="72.1623" fill="#E4E7EC"/>
<path d="M364.982 237.498C370.965 220.74 382.329 206.435 397.299 196.816C412.269 187.197 430.002 182.806 447.731 184.327C465.46 185.848 482.186 193.197 495.298 205.226C508.41 217.254 517.171 233.286 520.212 250.818" stroke="#E98135"/>
<path d="M518.989 284.137C514.36 302.638 503.318 318.897 487.826 330.019C472.335 341.142 453.399 346.408 434.389 344.88C415.38 343.351 397.529 335.128 384.013 321.673C370.498 308.218 362.194 290.404 360.581 271.401" stroke="#E98135"/>
<path d="M351.983 243.484C356.638 223.866 367.68 206.336 383.386 193.632C399.091 180.927 418.576 173.763 438.798 173.256C459.02 172.75 478.841 178.931 495.167 190.834" stroke="#4B5EAA"/>
<path d="M531.465 276.668C528.562 298.202 518.136 318.004 502.044 332.551C485.952 347.097 465.238 355.444 443.586 356.107C421.935 356.77 400.752 349.705 383.806 336.17" stroke="#4B5EAA"/>
<path d="M440.753 331.028C477.364 331.028 507.042 301.35 507.042 264.74C507.042 228.129 477.364 198.451 440.753 198.451C404.143 198.451 374.465 228.129 374.465 264.74C374.465 301.35 404.143 331.028 440.753 331.028Z" fill="white"/>
<path d="M458.207 239.807C456.445 238.129 454.095 237.122 451.662 237.122C449.229 237.122 446.879 238.045 445.117 239.807C443.355 241.485 442.348 243.835 442.264 246.352V246.52C442.264 248.618 443.019 250.716 444.278 252.31L451.662 261.708L459.13 252.226C460.389 250.548 461.144 248.534 461.144 246.436V246.268C461.06 243.919 459.969 241.569 458.207 239.807ZM456.277 249.373C455.69 250.296 454.767 251.051 453.76 251.471C452.753 251.89 451.578 251.974 450.571 251.806C449.564 251.639 448.473 251.051 447.718 250.296C446.963 249.541 446.376 248.534 446.208 247.443C445.956 246.352 446.124 245.261 446.544 244.171C446.963 243.164 447.718 242.241 448.641 241.653C449.564 241.066 450.655 240.73 451.746 240.73C453.256 240.73 454.683 241.318 455.69 242.409C456.697 243.499 457.368 244.842 457.368 246.352C457.2 247.443 456.864 248.45 456.277 249.373Z" fill="#E98135"/>
<path d="M447.97 277.063V275.553H452.669L453.004 277.063H447.97Z" fill="#4B5EAA"/>
<path d="M442.18 282.685V271.609H451.075C451.242 271.609 451.41 271.693 451.578 271.777C451.746 271.861 451.83 272.028 451.83 272.196L452.082 273.119H447.718C447.131 273.119 446.627 273.371 446.208 273.707C445.788 274.126 445.62 274.63 445.537 275.217V277.147C445.537 277.734 445.788 278.238 446.208 278.657C446.627 279.077 447.131 279.245 447.718 279.245H453.592L454.934 284.615H453.005C452.417 283.44 451.494 282.517 450.403 281.762C449.312 281.091 448.054 280.755 446.711 280.671C445.117 280.923 443.439 281.51 442.18 282.685Z" fill="#4B5EAA"/>
<path d="M423.636 290.992C424.223 290.992 424.895 290.824 425.398 290.489C425.902 290.153 426.321 289.65 426.573 289.062C426.825 288.475 426.908 287.887 426.741 287.3C426.657 286.713 426.321 286.125 425.902 285.706C425.482 285.286 424.895 284.951 424.307 284.867C423.72 284.783 423.049 284.783 422.545 285.035C421.958 285.286 421.454 285.706 421.119 286.209C420.783 286.713 420.615 287.3 420.615 287.971C420.615 288.81 420.951 289.566 421.538 290.153C422.042 290.656 422.797 290.992 423.636 290.992ZM422.965 287.887C422.965 287.72 423.049 287.552 423.216 287.384C423.384 287.216 423.552 287.132 423.72 287.132C423.888 287.132 424.056 287.216 424.223 287.384C424.391 287.552 424.391 287.72 424.391 287.887C424.391 288.055 424.223 288.223 424.139 288.391C423.972 288.559 423.804 288.643 423.636 288.643C423.468 288.643 423.216 288.559 423.133 288.391C423.049 288.307 423.049 288.223 422.965 288.139C422.965 288.055 422.881 287.971 422.965 287.887Z" fill="#2E2D6F"/>
<path d="M425.566 244.171C424.979 244.171 424.391 244.338 423.804 244.674C423.3 245.01 422.881 245.513 422.629 246.1C422.377 246.688 422.294 247.275 422.461 247.863C422.545 248.45 422.881 249.037 423.3 249.457C423.72 249.876 424.307 250.212 424.895 250.296C425.482 250.38 426.153 250.38 426.657 250.128C427.244 249.876 427.748 249.457 428.083 248.953C428.419 248.45 428.587 247.863 428.587 247.191C428.587 246.352 428.251 245.597 427.664 245.01C427.16 244.506 426.405 244.171 425.566 244.171ZM426.321 247.275C426.321 247.359 426.321 247.443 426.237 247.527C426.153 247.611 426.153 247.695 426.069 247.779C425.986 247.863 425.902 247.946 425.818 247.946C425.734 247.946 425.65 248.03 425.566 248.03C425.398 248.03 425.146 247.946 425.063 247.779C424.979 247.695 424.895 247.527 424.895 247.359C424.895 247.191 424.895 247.023 424.979 246.94C425.063 246.772 425.146 246.688 425.23 246.604C425.314 246.52 425.482 246.436 425.65 246.436C425.734 246.436 425.818 246.436 425.902 246.52C425.986 246.52 426.069 246.604 426.153 246.688C426.237 246.772 426.321 246.856 426.321 246.94C426.321 247.107 426.321 247.191 426.321 247.275Z" fill="#E98135"/>
<path d="M464.248 275.553C464.836 275.553 465.507 275.385 466.01 275.049C466.514 274.714 466.933 274.21 467.185 273.623C467.437 273.035 467.521 272.448 467.353 271.861C467.269 271.273 466.933 270.686 466.514 270.266C466.094 269.847 465.507 269.511 464.919 269.427C464.332 269.343 463.661 269.343 463.157 269.595C462.57 269.847 462.067 270.266 461.731 270.77C461.395 271.273 461.144 271.777 461.144 272.448C461.144 273.287 461.479 274.042 462.067 274.63C462.654 275.217 463.409 275.553 464.248 275.553ZM463.493 272.364C463.493 272.196 463.577 272.029 463.745 271.861C463.913 271.693 464.08 271.609 464.248 271.609C464.332 271.609 464.416 271.609 464.5 271.693C464.584 271.777 464.668 271.777 464.752 271.861C464.836 271.945 464.836 272.029 464.919 272.112C464.919 272.196 465.003 272.28 465.003 272.448C465.003 272.616 464.919 272.784 464.752 272.952C464.584 273.119 464.416 273.203 464.248 273.203C464.164 273.203 464.08 273.203 463.913 273.119C463.745 273.035 463.745 273.035 463.661 272.952C463.577 272.868 463.577 272.784 463.493 272.7C463.493 272.532 463.493 272.448 463.493 272.364Z" fill="#E98135"/>
<path d="M446.795 290.992C447.383 290.992 448.054 290.824 448.557 290.489C449.061 290.153 449.48 289.65 449.732 289.062C449.984 288.475 450.068 287.887 449.9 287.3C449.816 286.713 449.48 286.125 449.061 285.706C448.641 285.286 448.054 284.951 447.466 284.867C446.879 284.783 446.208 284.783 445.704 285.035C445.117 285.286 444.614 285.706 444.278 286.209C443.942 286.713 443.774 287.3 443.774 287.971C443.774 288.81 444.11 289.566 444.697 290.153C445.201 290.656 445.956 290.992 446.795 290.992ZM446.124 287.887C446.124 287.72 446.208 287.552 446.376 287.384C446.543 287.216 446.711 287.132 446.879 287.132C447.047 287.132 447.299 287.216 447.383 287.384C447.55 287.552 447.55 287.72 447.55 287.971C447.55 288.055 447.55 288.139 447.466 288.223C447.466 288.307 447.383 288.391 447.299 288.475C447.215 288.559 447.131 288.559 447.047 288.643C446.963 288.727 446.879 288.727 446.795 288.643C446.711 288.643 446.627 288.643 446.543 288.559C446.46 288.475 446.376 288.475 446.292 288.391C446.208 288.307 446.208 288.223 446.124 288.139C446.124 288.055 446.124 287.971 446.124 287.887Z" fill="#2E2D6F"/>
<path d="M465.339 265.567V265.4C465.339 265.148 465.339 264.896 465.339 264.644C465.339 260.281 464.164 256.002 461.899 252.226C462.906 250.464 463.409 248.534 463.409 246.52V246.352C463.409 243.751 462.57 241.234 460.976 239.136C459.382 237.038 457.2 235.612 454.683 234.94C452.165 234.269 449.564 234.437 447.131 235.36C444.697 236.367 442.684 238.045 441.425 240.311C437.733 240.227 434.041 241.066 430.601 242.576C429.678 241.569 428.419 240.814 427.076 240.478C425.734 240.143 424.307 240.227 422.965 240.73C421.622 241.234 420.531 242.157 419.692 243.331C418.937 244.506 418.434 245.849 418.434 247.275C418.434 248.786 418.937 250.212 419.86 251.471L420.196 251.89C418.014 255.414 416.755 259.442 416.588 263.554H414.826C414.238 263.554 413.735 263.805 413.315 264.225C412.896 264.644 412.728 265.148 412.728 265.735V284.867C412.224 284.951 411.721 285.202 411.385 285.538C410.966 285.957 410.798 286.461 410.798 286.964V288.894C410.798 289.482 411.05 289.985 411.385 290.405C411.805 290.824 412.308 290.992 412.896 290.992H417.259C417.846 292.167 418.685 293.174 419.86 293.845C420.951 294.516 422.21 294.852 423.552 294.852C424.895 294.852 426.153 294.516 427.244 293.845C428.335 293.174 429.258 292.167 429.845 290.992H440.586C441.173 292.167 442.012 293.174 443.187 293.845C444.278 294.516 445.536 294.852 446.879 294.852C448.138 294.852 449.48 294.516 450.571 293.845C451.662 293.174 452.585 292.167 453.172 290.992H455.69C456.277 290.992 456.78 290.74 457.2 290.405C457.619 289.985 457.787 289.482 457.787 288.894V286.209C457.787 285.957 457.787 285.706 457.703 285.454L456.948 283.188C458.291 282.014 459.465 280.755 460.556 279.329L464.248 284.111L469.786 276.644C470.542 275.721 470.961 274.546 471.129 273.371C471.297 272.196 471.129 270.938 470.709 269.847C470.29 268.756 469.535 267.749 468.612 266.994C467.689 266.155 466.598 265.735 465.339 265.567ZM416.672 288.643H413.231V287.132H416.672C416.672 287.636 416.672 288.139 416.672 288.643ZM453.76 287.132H455.27V288.643H453.676C453.76 288.139 453.76 287.636 453.76 287.132ZM439.915 288.643H430.517C430.601 288.139 430.601 287.636 430.517 287.132H439.831C439.831 287.636 439.831 288.139 439.915 288.643ZM423.636 283.272C424.559 283.272 425.482 283.524 426.237 284.028C426.992 284.531 427.58 285.286 427.915 286.125C428.251 286.964 428.335 287.887 428.167 288.81C427.999 289.733 427.58 290.573 426.909 291.16C426.237 291.831 425.398 292.251 424.559 292.419C423.636 292.586 422.713 292.502 421.874 292.167C421.035 291.831 420.28 291.244 419.776 290.489C419.273 289.733 419.021 288.81 419.021 287.887C419.021 286.629 419.524 285.454 420.364 284.615C421.203 283.776 422.377 283.272 423.636 283.272ZM427.496 270.854L432.53 273.371V265.903H439.831V284.783H429.845C429.258 283.608 428.419 282.601 427.244 281.93C426.153 281.259 424.895 280.923 423.552 280.923C422.293 280.923 420.951 281.259 419.86 281.93C418.769 282.601 417.846 283.608 417.259 284.783H415.161V265.819H422.461V273.287L427.496 270.854ZM430.181 269.511L427.496 268.169L424.811 269.511V265.819H430.181V269.511ZM464.164 267.749C465.423 267.749 466.598 268.253 467.437 269.092C468.276 269.931 468.779 271.105 468.779 272.364C468.779 273.371 468.444 274.378 467.856 275.133L464.164 280.084L460.472 275.133C459.885 274.294 459.549 273.371 459.549 272.364C459.549 271.777 459.633 271.189 459.885 270.602C460.137 270.015 460.472 269.511 460.892 269.092C461.311 268.672 461.815 268.336 462.402 268.085C462.99 267.833 463.661 267.749 464.164 267.749ZM446.795 283.272C447.718 283.272 448.641 283.524 449.396 284.028C450.151 284.531 450.739 285.286 451.074 286.125C451.41 286.964 451.494 287.887 451.326 288.81C451.158 289.733 450.739 290.573 450.068 291.16C449.396 291.831 448.557 292.251 447.718 292.419C446.795 292.586 445.872 292.502 445.033 292.167C444.194 291.831 443.439 291.244 442.935 290.489C442.432 289.733 442.18 288.81 442.18 287.887C442.18 286.629 442.684 285.454 443.523 284.615C444.446 283.776 445.62 283.272 446.795 283.272ZM447.97 277.063V275.553H452.669L453.088 277.063H447.97ZM442.18 282.685V271.609H451.074C451.242 271.609 451.41 271.693 451.578 271.777C451.746 271.861 451.83 272.028 451.83 272.196L452.081 273.119H447.718C447.131 273.119 446.627 273.371 446.208 273.707C445.788 274.126 445.62 274.63 445.536 275.217V277.147C445.536 277.734 445.788 278.238 446.208 278.657C446.627 279.077 447.131 279.245 447.718 279.245H453.592L454.934 284.615H453.004C452.417 283.44 451.494 282.517 450.403 281.762C449.312 281.091 448.054 280.755 446.711 280.671C445.117 280.923 443.439 281.51 442.18 282.685ZM454.095 271.693C453.927 271.022 453.508 270.434 453.004 270.015C452.417 269.595 451.746 269.343 451.074 269.343H442.18V265.735C442.18 265.148 441.928 264.644 441.593 264.225C441.173 263.805 440.67 263.554 440.082 263.554H419.105C419.273 260.197 420.196 256.925 421.874 253.988L425.65 259.022L431.188 251.555C432.111 250.38 432.53 248.869 432.614 247.359C432.614 246.436 432.447 245.513 432.027 244.674C434.712 243.499 437.565 242.828 440.502 242.744C440.082 243.919 439.915 245.177 439.915 246.352V246.52C439.915 249.121 440.754 251.722 442.432 253.82L451.746 265.651L460.556 254.407C462.234 257.596 463.074 261.12 463.157 264.728C463.157 264.98 463.157 265.232 463.157 265.484V265.567C461.983 265.735 460.892 266.239 459.969 266.994C459.046 267.749 458.291 268.756 457.871 269.847C457.452 270.938 457.284 272.196 457.452 273.371C457.619 274.546 458.039 275.637 458.794 276.644L459.298 277.231C458.459 278.406 457.536 279.496 456.529 280.503L454.095 271.693ZM461.06 246.52C461.06 248.618 460.305 250.715 459.046 252.31L451.578 261.792L444.194 252.394C442.935 250.715 442.18 248.702 442.18 246.604V246.436C442.264 244.003 443.271 241.653 445.033 239.891C446.795 238.213 449.145 237.206 451.578 237.206C454.011 237.206 456.361 238.129 458.123 239.891C459.885 241.569 460.892 243.919 460.976 246.436L461.06 246.52ZM429.258 250.044L425.566 254.995L421.874 250.044C421.454 249.457 421.119 248.786 421.035 248.03C420.951 247.275 420.951 246.604 421.203 245.849C421.454 245.177 421.79 244.506 422.293 244.003C422.797 243.499 423.468 243.08 424.139 242.828C424.811 242.576 425.566 242.492 426.321 242.66C427.076 242.744 427.748 243.08 428.335 243.499C428.922 243.919 429.426 244.506 429.761 245.177C430.097 245.849 430.265 246.52 430.265 247.275C430.181 248.282 429.845 249.205 429.258 250.044Z" fill="#2E2D6F"/>
<path d="M440.25 259.61H437.9V261.959H440.25V259.61Z" fill="#2E2D6F"/>
<path d="M451.662 238.381C450.068 238.381 448.558 238.884 447.215 239.723C445.872 240.562 444.865 241.821 444.278 243.247C443.691 244.674 443.523 246.268 443.859 247.863C444.194 249.373 444.949 250.799 446.04 251.89C447.131 252.981 448.558 253.736 450.068 254.072C451.578 254.407 453.173 254.24 454.683 253.652C456.109 253.065 457.368 252.058 458.207 250.715C459.046 249.373 459.55 247.863 459.55 246.268C459.55 244.171 458.711 242.157 457.2 240.646C455.69 239.136 453.76 238.381 451.662 238.381ZM457.2 246.268C457.2 247.359 456.865 248.45 456.277 249.373C455.69 250.296 454.767 251.051 453.76 251.471C452.753 251.89 451.578 251.974 450.571 251.806C449.481 251.555 448.474 251.051 447.718 250.296C446.963 249.541 446.376 248.534 446.208 247.443C445.956 246.352 446.124 245.261 446.544 244.171C446.963 243.164 447.718 242.241 448.641 241.653C449.564 241.066 450.655 240.73 451.746 240.73C453.256 240.73 454.683 241.318 455.69 242.408C456.613 243.415 457.2 244.842 457.2 246.268Z" fill="#2E2D6F"/>
<path d="M444.11 259.61H441.76V261.959H444.11V259.61Z" fill="#2E2D6F"/>
<path d="M436.39 259.61H434.041V261.959H436.39V259.61Z" fill="#2E2D6F"/>
<path d="M427.496 270.854L432.53 273.371V265.903H439.831V284.783H429.845C429.258 283.608 428.419 282.601 427.244 281.93C426.153 281.259 424.895 280.923 423.552 280.923C422.293 280.923 420.951 281.259 419.86 281.93C418.769 282.601 417.846 283.608 417.259 284.783H415.161V265.819H422.461V273.287L427.496 270.854Z" fill="#A7B0C1"/>
<path d="M430.181 269.511L427.496 268.169L424.811 269.511V265.819H430.181V269.511Z" fill="#A7B0C1"/>
<path d="M162.159 283.319C151.844 321.815 112.275 344.661 73.7786 334.346C35.2825 324.031 12.4372 284.461 22.7522 245.965C33.0672 207.469 72.6365 184.624 111.133 194.939C149.629 205.254 172.474 244.823 162.159 283.319Z" fill="#E4E7EC"/>
<path d="M18.5846 297.018C11.4148 280.733 9.83897 262.532 14.1032 245.256C18.3674 227.981 28.2316 212.604 42.1558 201.525C56.0801 190.446 73.2807 184.29 91.0725 184.017C108.864 183.744 126.246 189.369 140.504 200.015M162.514 225.06C171.865 241.68 175.017 261.08 171.407 279.807C167.798 298.533 157.661 315.371 142.801 327.325C127.942 339.279 109.323 345.573 90.2578 345.087C71.1929 344.601 52.9187 337.367 38.6872 324.672" stroke="#E98135"/>
<path d="M13.255 310.3C3.15479 292.85 -0.870504 272.527 1.80748 252.505C4.48546 232.483 13.716 213.887 28.0581 199.622C42.4001 185.357 61.0466 176.225 81.0864 173.652M166.443 211.06C179.133 228.698 185.168 250.248 183.475 271.874C181.782 293.5 172.471 313.8 157.198 329.161C141.925 344.522 121.682 353.948 100.07 355.761" stroke="#2E2D6F"/>
<path d="M75.7587 328.93C111.121 338.406 147.47 317.42 156.945 282.057C166.421 246.695 145.435 210.346 110.072 200.871C74.7095 191.395 38.361 212.381 28.8855 247.744C19.4101 283.107 40.3959 319.455 75.7587 328.93Z" fill="white"/>
<path d="M103.009 289.543L103.093 275.111H107.204C107.624 276.202 108.631 276.957 109.889 276.957C111.148 276.957 112.155 276.202 112.574 275.111H117.945C118.029 275.111 118.029 275.111 118.029 275.195V289.543H103.009Z" fill="#4B5EAA"/>
<path d="M108.547 236.848C113.833 236.848 118.281 240.708 119.288 245.743H97.8906C98.8975 240.708 103.345 236.848 108.547 236.848Z" fill="#4B5EAA"/>
<path d="M98.1426 251.449H119.875V269.573C119.623 269.573 119.456 269.489 119.204 269.489H112.575C112.155 268.398 111.065 267.559 109.89 267.559C108.715 267.559 107.624 268.314 107.205 269.405H103.093V268.566C103.093 268.482 103.093 268.398 103.093 268.314C102.254 265.21 100.492 262.441 98.1426 260.343V251.449Z" fill="#4B5EAA"/>
<path d="M74.8994 269.741H101.079L100.995 289.544H74.8994V269.741Z" fill="#A7B0C1"/>
<path d="M100.743 267.643H75.2349C76.4935 264.119 79.2625 261.266 82.7867 259.755H93.2754C96.7157 261.266 99.4009 264.119 100.743 267.643Z" fill="#A7B0C1"/>
<path d="M121.805 270.328V251.197C122.812 250.777 123.651 249.77 123.651 248.512C123.651 247.169 122.644 245.994 121.301 245.743C120.378 239.533 115.008 234.834 108.547 234.834C102.086 234.834 96.6318 239.701 95.7927 246.078C94.7858 246.582 94.1984 247.505 94.1984 248.596C94.1984 249.77 94.9536 250.861 96.0444 251.281V259C95.541 258.665 94.9536 258.329 94.4502 258.077V255.057C94.4502 254.469 93.9467 253.966 93.3593 253.966H90.6742V251.448C90.6742 248.176 88.073 245.575 84.8845 245.575H70.9555C67.683 245.575 65.1657 248.176 65.1657 251.448V254.134C64.0749 254.637 63.2358 255.644 63.2358 256.903C63.2358 258.077 63.991 259.168 65.0818 259.588V278.803C64.0749 279.223 63.2358 280.229 63.2358 281.488C63.2358 282.663 64.0749 283.67 65.0818 284.089V289.543H64.2427C63.6553 289.543 63.1519 290.047 63.1519 290.634V294.242C63.2358 294.746 63.7392 295.249 64.3266 295.249H122.644C123.231 295.249 123.735 294.746 123.735 294.158V274.02C123.651 272.426 122.896 271.167 121.805 270.328ZM103.009 289.543L103.093 275.111H107.204C107.624 276.202 108.631 276.957 109.89 276.957C111.148 276.957 112.155 276.202 112.575 275.111H117.945C118.029 275.111 118.029 275.111 118.029 275.195V289.543H103.009ZM70.7876 289.543V284.089C71.8785 283.67 72.6336 282.663 72.6336 281.404C72.6336 280.229 71.7946 279.139 70.7876 278.719V259.588C71.8785 259.168 72.6336 258.161 72.6336 256.903C72.6336 255.728 71.8785 254.637 70.7876 254.217V251.868C70.7876 251.532 71.0394 251.281 71.375 251.281H84.6327C84.9684 251.281 85.2201 251.532 85.2201 251.868V253.966H82.535C81.9476 253.966 81.4442 254.469 81.4442 255.057V258.077C77.2487 260.091 73.9762 263.951 72.8854 268.482C72.8854 268.566 72.8854 268.65 72.8854 268.734V289.627H70.7876V289.543ZM66.1726 282.243C65.6691 282.243 65.3335 281.908 65.3335 281.404C65.3335 280.901 65.6691 280.565 66.1726 280.565H69.7807C70.2842 280.565 70.6198 280.901 70.6198 281.404C70.6198 281.908 70.2842 282.243 69.7807 282.243H66.1726ZM66.1726 256.063H69.7807C70.2842 256.063 70.6198 256.399 70.6198 256.903C70.6198 257.406 70.2842 257.742 69.7807 257.742H66.1726C65.6691 257.742 65.3335 257.406 65.3335 256.903C65.3335 256.399 65.6691 256.063 66.1726 256.063ZM68.7738 259.756V278.551H67.0956V259.756H68.7738ZM74.8992 269.741H101.079L100.995 289.543H74.8992V269.741ZM103.093 271.503H106.953V273.097H103.009L103.093 271.503ZM109.05 274.188V270.58C109.05 270.076 109.386 269.741 109.89 269.741C110.393 269.741 110.729 270.076 110.729 270.58V274.188C110.729 274.691 110.393 275.027 109.89 275.027C109.386 274.943 109.05 274.608 109.05 274.188ZM117.861 273.097H112.742V271.503H119.12C120.462 271.503 121.637 272.678 121.637 274.02V289.627H120.043V275.195C120.043 274.104 119.036 273.097 117.861 273.097ZM120.798 249.435H97.0514C96.5479 249.435 96.2123 249.099 96.2123 248.596C96.2123 248.092 96.5479 247.756 97.0514 247.756H120.798C121.301 247.756 121.637 248.092 121.637 248.596C121.637 249.099 121.217 249.435 120.798 249.435ZM108.547 236.848C113.833 236.848 118.281 240.708 119.287 245.743H97.8905C98.8974 240.708 103.345 236.848 108.547 236.848ZM98.1422 251.448H119.875V269.573C119.623 269.573 119.455 269.489 119.204 269.489H112.575C112.155 268.398 111.064 267.559 109.89 267.559C108.715 267.559 107.624 268.314 107.204 269.405H103.093V268.566C103.093 268.482 103.093 268.398 103.093 268.314C102.254 265.21 100.492 262.441 98.1422 260.343V251.448ZM100.743 267.643H75.2348C76.4935 264.119 79.2625 261.266 82.7867 259.756H93.2754C96.7157 261.266 99.4008 264.119 100.743 267.643ZM92.4363 256.063V257.658H83.5419V256.063H92.4363ZM70.9555 247.756H84.9684C87.0661 247.756 88.7443 249.435 88.7443 251.532V254.05H87.15V251.952C87.15 250.525 85.9753 249.351 84.5488 249.351H71.375C69.9485 249.351 68.7738 250.525 68.7738 251.952V254.05H67.0956V251.532C67.0956 249.435 68.8577 247.756 70.9555 247.756ZM67.0956 284.341H68.6899V289.627H67.0956V284.341ZM65.3335 293.235V291.641H121.721V293.235H65.3335Z" fill="#2E2D6F"/>
<path d="M88.7445 273.265C88.4089 272.594 87.402 272.594 86.9824 273.265L83.7099 279.055C82.7869 280.565 82.7869 282.579 83.7939 284.173C84.7169 285.6 86.2272 286.439 87.9054 286.439C87.9893 286.439 88.0732 286.439 88.1572 286.439C89.8353 286.355 91.3457 285.348 92.1009 283.922C92.94 282.411 92.94 280.565 92.017 279.055L88.7445 273.265ZM90.3388 282.915C89.8353 283.838 89.0802 284.257 88.0732 284.341C86.9824 284.425 86.0594 283.922 85.472 283.082C84.8847 282.159 84.8847 280.985 85.3881 280.062L87.8215 275.866L90.2549 280.146C90.8423 280.985 90.8423 281.992 90.3388 282.915Z" fill="#2E2D6F"/>
<path d="M90.3389 282.915C89.8354 283.838 89.0802 284.257 88.0733 284.341C86.9825 284.425 86.0595 283.922 85.4721 283.083C84.8848 282.16 84.8848 280.985 85.3882 280.062L87.8216 275.866L90.255 280.146C90.8423 280.985 90.8423 281.992 90.3389 282.915Z" fill="#E98135"/>
</svg>
