<svg width="72" height="72" viewBox="0 0 72 72" fill="none" xmlns="http://www.w3.org/2000/svg">
<path d="M15.3036 67.3017C16.0372 67.3017 16.7543 67.0837 17.3641 66.6755C17.9739 66.2672 18.4489 65.6869 18.7292 65.0081C19.0095 64.3294 19.0824 63.5826 18.9385 62.8623C18.7947 62.1421 18.4407 61.4808 17.9212 60.9621C17.4018 60.4434 16.7403 60.0907 16.0206 59.9486C15.3009 59.8065 14.5553 59.8814 13.8781 60.1639C13.2009 60.4463 12.6226 60.9236 12.2165 61.5353C11.8104 62.1469 11.5946 62.8655 11.5965 63.6C11.5992 64.5826 11.9909 65.5242 12.6858 66.2181C13.3807 66.912 14.3222 67.3017 15.3036 67.3017ZM14.4511 63.5504C14.458 63.3286 14.5472 63.1174 14.7011 62.9578C14.855 62.7982 15.0627 62.7017 15.2838 62.687C15.5079 62.7105 15.7155 62.8163 15.8663 62.984C16.0172 63.1516 16.1007 63.3694 16.1007 63.5951C16.1007 63.8208 16.0172 64.0384 15.8663 64.2061C15.7155 64.3738 15.5079 64.4796 15.2838 64.5031C15.0467 64.4821 14.825 64.3765 14.6593 64.2054C14.5822 64.116 14.5239 64.0118 14.4881 63.8993C14.4523 63.7867 14.4397 63.668 14.4511 63.5504Z" fill="url(#paint0_linear_64_29)"/>
<path d="M17.603 11.4886C16.8718 11.4886 16.1571 11.7057 15.5491 12.1124C14.9411 12.5192 14.4673 13.0973 14.1875 13.7737C13.9076 14.4501 13.8344 15.1944 13.977 15.9124C14.1197 16.6305 14.4719 17.2901 14.9889 17.8078C15.5059 18.3255 16.1647 18.678 16.8818 18.8208C17.599 18.9637 18.3422 18.8903 19.0178 18.6102C19.6933 18.33 20.2708 17.8556 20.6771 17.2468C21.0833 16.6381 21.3 15.9224 21.3 15.1903C21.2974 14.2093 20.9072 13.2693 20.2144 12.5757C19.5216 11.8821 18.5827 11.4912 17.603 11.4886ZM18.505 15.1903C18.505 15.3089 18.4816 15.4263 18.4363 15.5359C18.391 15.6455 18.3245 15.745 18.2408 15.8288C18.157 15.9127 18.0577 15.9792 17.9482 16.0246C17.8388 16.07 17.7215 16.0933 17.603 16.0933C17.3631 16.0936 17.1323 16.0012 16.9588 15.8354C16.8348 15.7072 16.751 15.5455 16.7179 15.3702C16.6847 15.1949 16.7035 15.0137 16.7721 14.849C16.8406 14.6843 16.9558 14.5433 17.1035 14.4434C17.2511 14.3436 17.4249 14.2893 17.603 14.2872C17.7215 14.2872 17.8388 14.3105 17.9482 14.3559C18.0577 14.4013 18.157 14.4678 18.2408 14.5517C18.3245 14.6355 18.391 14.7351 18.4363 14.8447C18.4816 14.9542 18.505 15.0717 18.505 15.1903Z" fill="url(#paint1_linear_64_29)"/>
<path d="M63.692 48.8628C64.4256 48.8647 65.1433 48.6487 65.7542 48.2421C66.3651 47.8354 66.8417 47.2564 67.1238 46.5784C67.4059 45.9004 67.4807 45.1538 67.3388 44.4331C67.1969 43.7125 66.8446 43.0502 66.3266 42.5301C65.8086 42.0101 65.1481 41.6556 64.4287 41.5116C63.7094 41.3676 62.9635 41.4405 62.2856 41.7211C61.6077 42.0018 61.0282 42.4775 60.6204 43.0881C60.2126 43.6987 59.995 44.4166 59.995 45.1512C59.995 46.1338 60.3842 47.0764 61.0773 47.7722C61.7703 48.4679 62.7106 48.8601 63.692 48.8628ZM62.8396 45.1115C62.8489 44.8889 62.9401 44.6775 63.0956 44.5181C63.2512 44.3587 63.46 44.2625 63.6821 44.248C63.8007 44.2535 63.917 44.2827 64.0242 44.3339C64.1315 44.385 64.2275 44.4571 64.3065 44.5458C64.3885 44.6331 64.4518 44.7362 64.4927 44.8488C64.5336 44.9614 64.5512 45.0811 64.5444 45.2008C64.5349 45.425 64.4423 45.6377 64.2847 45.7973C64.1272 45.9569 63.9158 46.052 63.692 46.0642C63.567 46.0632 63.4436 46.0365 63.3294 45.9857C63.2152 45.9349 63.1125 45.8612 63.0279 45.7691C62.9433 45.6769 62.8786 45.5684 62.8377 45.4501C62.7968 45.3319 62.7805 45.2065 62.79 45.0817L62.8396 45.1115Z" fill="url(#paint2_linear_64_29)"/>
<path d="M42.9272 67.3017C43.6608 67.3017 44.3779 67.0837 44.9877 66.6755C45.5975 66.2672 46.0726 65.6869 46.3529 65.0081C46.6331 64.3294 46.706 63.5826 46.5622 62.8623C46.4183 62.1421 46.0643 61.4808 45.5449 60.9621C45.0255 60.4434 44.364 60.0907 43.6442 59.9486C42.9245 59.8065 42.1789 59.8814 41.5017 60.1639C40.8245 60.4463 40.2463 60.9236 39.8401 61.5353C39.434 62.1469 39.2183 62.8655 39.2203 63.6C39.2229 64.5826 39.6146 65.5242 40.3095 66.2181C41.0044 66.912 41.9458 67.3017 42.9272 67.3017ZM42.0747 63.5603C42.0794 63.3352 42.1689 63.1202 42.3251 62.9583C42.4813 62.7963 42.6928 62.6994 42.9173 62.687C43.1564 62.7003 43.3807 62.8072 43.5418 62.9847C43.7035 63.1635 43.7889 63.3986 43.7796 63.6397C43.7744 63.7518 43.7472 63.8617 43.6995 63.9633C43.6519 64.0648 43.5848 64.156 43.502 64.2316C43.4191 64.3071 43.3222 64.3656 43.2168 64.4037C43.1114 64.4418 42.9995 64.4587 42.8876 64.4535C42.7756 64.4483 42.6658 64.421 42.5644 64.3733C42.463 64.3256 42.3719 64.2583 42.2964 64.1754C42.2209 64.0925 42.1625 63.9955 42.1245 63.8899C42.0864 63.7844 42.0695 63.6724 42.0747 63.5603Z" fill="url(#paint3_linear_64_29)"/>
<path d="M65.0003 36.9638V36.7851C65.0003 36.5073 65.0003 36.2195 65.0003 35.9317C64.999 30.7081 63.5881 25.5819 60.9167 21.0951C62.0685 19.0208 62.682 16.6902 62.7008 14.317V14.0887C62.7066 10.9996 61.6963 7.99443 59.826 5.53761C57.9556 3.08079 55.3293 1.30895 52.3528 0.495852C49.3763 -0.317249 46.2153 -0.126343 43.358 1.039C40.5006 2.20434 38.106 4.27931 36.5441 6.94337C32.0993 6.86635 27.6946 7.79589 23.659 9.66256C22.5345 8.4166 21.0592 7.54116 19.4277 7.15173C17.7962 6.76231 16.0852 6.87718 14.5202 7.48118C12.9552 8.08518 11.6097 9.14999 10.6614 10.5351C9.71304 11.9202 9.20629 13.5606 9.20792 15.2399C9.22122 17.0276 9.8007 18.765 10.8631 20.2019L11.2397 20.6982C8.65637 24.8898 7.18277 29.6716 6.95797 34.5919H4.84679C4.1703 34.5945 3.52241 34.8655 3.04499 35.3453C2.56756 35.8252 2.29956 36.475 2.29956 37.1523V59.9778C1.67036 60.0416 1.08699 60.3366 0.662306 60.8058C0.237622 61.275 0.0016832 61.8851 0 62.5183V64.8307C0.00261039 65.5063 0.271793 66.1535 0.748936 66.6312C1.22608 67.109 1.87257 67.3785 2.54735 67.3811H7.79051C8.47676 68.768 9.53643 69.9354 10.8499 70.7515C12.1634 71.5676 13.6784 72 15.2242 72C16.77 72 18.2852 71.5676 19.5987 70.7515C20.9121 69.9354 21.9717 68.768 22.6579 67.3811H35.434C36.1203 68.768 37.1799 69.9354 38.4934 70.7515C39.8069 71.5676 41.3219 72 42.8677 72C44.4135 72 45.9287 71.5676 47.2421 70.7515C48.5556 69.9354 49.6152 68.768 50.3014 67.3811H53.2749C53.9497 67.3785 54.596 67.109 55.0732 66.6312C55.5503 66.1535 55.8196 65.5063 55.8222 64.8307V61.6549C55.8206 61.3507 55.7839 61.0477 55.7131 60.7518L55.0094 57.9532C56.6079 56.5731 58.0473 55.0187 59.3011 53.3187L63.692 58.9754L70.3327 50.1033C71.1909 48.9624 71.7404 47.6191 71.928 46.2033C72.1156 44.7876 71.935 43.3472 71.4037 42.0218C70.8725 40.6964 70.0084 39.5307 68.8952 38.6377C67.7821 37.7446 66.4576 37.1544 65.0499 36.9241L65.0003 36.9638ZM7.04714 64.5031H2.88431V62.687H7.04714C6.98108 63.2906 6.98108 63.8996 7.04714 64.5031ZM51.1736 62.687H53.037V64.5031H51.1736C51.2397 63.8996 51.2397 63.2906 51.1736 62.687ZM34.6807 64.5031H23.55C23.616 63.8996 23.616 63.2906 23.55 62.687H34.6807C34.6013 63.2898 34.6013 63.9004 34.6807 64.5031ZM15.3036 58.0822C16.3935 58.0822 17.4589 58.4059 18.3652 59.0122C19.2714 59.6185 19.9778 60.4802 20.3949 61.4885C20.812 62.4967 20.9211 63.6061 20.7085 64.6765C20.4959 65.7468 19.9711 66.73 19.2004 67.5017C18.4296 68.2734 17.4476 68.7989 16.3786 69.0118C15.3096 69.2247 14.2016 69.1154 13.1946 68.6978C12.1876 68.2802 11.3269 67.573 10.7214 66.6656C10.1159 65.7582 9.79267 64.6913 9.79267 63.6C9.79267 62.1366 10.3733 60.7332 11.4068 59.6984C12.4403 58.6636 13.842 58.0822 15.3036 58.0822ZM19.9025 43.2655L25.909 46.2428V37.3111H34.6213V59.8587H22.7274C22.0411 58.4718 20.9815 57.3044 19.668 56.4883C18.3545 55.6722 16.8395 55.2398 15.2937 55.2398C13.7478 55.2398 12.2327 55.6722 10.9192 56.4883C9.60575 57.3044 8.54621 58.4718 7.85996 59.8587H5.21352V37.3409H13.9259V46.2726L19.9025 43.2655ZM23.104 41.7373L19.9025 40.1296L16.701 41.7373V37.3409H23.104V41.7373ZM63.6424 39.6433C65.1014 39.6459 66.5002 40.2267 67.5329 41.2588C68.5655 42.2909 69.1481 43.6903 69.1533 45.1511C69.1448 46.3461 68.756 47.5072 68.0432 48.4658L63.6424 54.3409L59.2318 48.4658C58.5262 47.5041 58.1413 46.3443 58.1316 45.1511C58.1342 44.4236 58.2802 43.7036 58.5612 43.0326C58.8423 42.3617 59.253 41.7529 59.7696 41.2412C60.2862 40.7295 60.8987 40.3249 61.5718 40.0507C62.2449 39.7765 62.9653 39.6381 63.692 39.6433H63.6424ZM42.9272 58.0822C44.0172 58.0822 45.0825 58.4059 45.9888 59.0122C46.8951 59.6185 47.6014 60.4802 48.0185 61.4885C48.4356 62.4967 48.5448 63.6061 48.3322 64.6765C48.1195 65.7468 47.5947 66.73 46.824 67.5017C46.0533 68.2734 45.0712 68.7989 44.0022 69.0118C42.9332 69.2247 41.8252 69.1154 40.8182 68.6978C39.8113 68.2802 38.9506 67.573 38.3451 66.6656C37.7395 65.7582 37.4163 64.6913 37.4163 63.6C37.4163 62.1366 37.997 60.7332 39.0305 59.6984C40.0639 58.6636 41.4657 58.0822 42.9272 58.0822ZM44.3247 50.6689V48.8628H49.8851L50.3411 50.6689H44.3247ZM37.3866 57.3776V44.248H48.002C48.2027 44.2487 48.3975 44.3164 48.5555 44.4405C48.7135 44.5645 48.8257 44.7377 48.8742 44.9328L49.1616 46.0641H44.0472C43.3708 46.0641 42.7217 46.3326 42.2424 46.8106C41.7631 47.2886 41.4926 47.9373 41.49 48.6146V50.917C41.4926 51.5944 41.7631 52.2431 42.2424 52.7211C42.7217 53.1991 43.3708 53.4676 44.0472 53.4675H50.9854L52.591 59.8884H50.3014C49.6094 58.5093 48.5495 57.349 47.2391 56.5362C45.9287 55.7234 44.4191 55.2899 42.8776 55.2837C40.8625 55.2884 38.9192 56.0335 37.4163 57.3776H37.3866ZM51.59 44.258C51.394 43.4543 50.9333 42.7401 50.2824 42.2306C49.6315 41.7211 48.8282 41.4459 48.002 41.4495H37.3866V37.1424C37.3866 36.465 37.1186 35.8153 36.6411 35.3354C36.1637 34.8555 35.5158 34.5846 34.8393 34.582H9.81252C10.0258 30.5687 11.1548 26.6577 13.113 23.1494L17.5733 29.1039L24.2141 20.2317C25.2794 18.7957 25.8623 17.0584 25.8792 15.2697C25.8824 14.1709 25.6597 13.0831 25.225 12.0741C28.3878 10.6314 31.8106 9.84804 35.2853 9.77171C34.8277 11.1752 34.5936 12.6421 34.5915 14.1185V14.317C34.5855 17.4659 35.6323 20.5263 37.565 23.0105L48.6165 37.1027L59.1327 23.6952C61.1347 27.4804 62.1826 31.6981 62.1854 35.9813C62.1854 36.2691 62.1854 36.5569 62.1854 36.8546V37.0233C60.7876 37.2683 59.476 37.8683 58.3759 38.7658C57.2758 39.6633 56.4239 40.8283 55.9019 42.1495C55.3798 43.4707 55.205 44.9039 55.3941 46.3121C55.5831 47.7202 56.1298 49.0564 56.9818 50.1926L57.5369 50.9369C56.5653 52.3439 55.4599 53.6533 54.2363 54.847L51.59 44.258ZM59.9156 14.2674C59.9025 16.786 59.0555 19.2292 57.5072 21.2142L48.6461 32.4979L39.8249 21.2638C38.2766 19.2788 37.4295 16.8356 37.4163 14.317V14.0887C37.5032 11.1553 38.7282 8.37124 40.8312 6.32711C42.9342 4.28297 45.7499 3.13963 48.6809 3.13963C51.6118 3.13963 54.4275 4.28297 56.5305 6.32711C58.6336 8.37124 59.8585 11.1553 59.9454 14.0887L59.9156 14.2674ZM21.9741 18.495L17.5733 24.38L13.1626 18.495C12.6363 17.7958 12.2837 16.9812 12.134 16.1186C11.9842 15.256 12.0417 14.3701 12.3015 13.5341C12.5614 12.6981 13.0163 11.936 13.6285 11.3108C14.2407 10.6856 14.9926 10.2153 15.8223 9.93865C16.6519 9.66202 17.5354 9.58704 18.3998 9.71992C19.2641 9.8528 20.0844 10.1897 20.793 10.7028C21.5015 11.2159 22.0779 11.8905 22.4746 12.6708C22.8713 13.4511 23.0769 14.3147 23.0743 15.1903C23.0828 16.3786 22.7073 17.5379 22.0037 18.495H21.9741Z" fill="url(#paint4_linear_64_29)"/>
<path d="M35.1168 29.9176H32.3218V32.7162H35.1168V29.9176Z" fill="url(#paint5_linear_64_29)"/>
<path d="M48.6759 4.57148C46.8057 4.57148 44.9775 5.12675 43.4225 6.16707C41.8676 7.20738 40.6556 8.68603 39.9399 10.416C39.2243 12.146 39.037 14.0496 39.4019 15.8861C39.7667 17.7227 40.6674 19.4096 41.9898 20.7337C43.3122 22.0578 44.997 22.9595 46.8312 23.3248C48.6655 23.6901 50.5667 23.5026 52.2945 22.786C54.0223 22.0694 55.499 20.8559 56.538 19.299C57.577 17.7421 58.1316 15.9116 58.1316 14.0391C58.129 11.5289 57.1319 9.12232 55.3592 7.34737C53.5865 5.57242 51.1829 4.57411 48.6759 4.57148ZM55.3364 14.0391C55.3364 15.3581 54.9459 16.6475 54.214 17.7442C53.4821 18.8409 52.4419 19.6957 51.2248 20.2004C50.0077 20.7052 48.6684 20.8372 47.3764 20.5799C46.0844 20.3226 44.8977 19.6874 43.9662 18.7548C43.0347 17.8221 42.4003 16.6338 42.1433 15.3401C41.8863 14.0465 42.0181 12.7056 42.5222 11.487C43.0264 10.2684 43.8801 9.2268 44.9755 8.494C46.0708 7.7612 47.3585 7.37009 48.6759 7.37009C50.4416 7.37271 52.1343 8.0762 53.3828 9.32631C54.6313 10.5764 55.3338 12.2711 55.3364 14.0391Z" fill="url(#paint6_linear_64_29)"/>
<path d="M39.7158 29.9176H36.9207V32.7162H39.7158V29.9176Z" fill="url(#paint7_linear_64_29)"/>
<path d="M30.5079 29.9176H27.7129V32.7162H30.5079V29.9176Z" fill="url(#paint8_linear_64_29)"/>
<defs>
<linearGradient id="paint0_linear_64_29" x1="0" y1="0" x2="71.2923" y2="72.694" gradientUnits="userSpaceOnUse">
<stop stop-color="#E98135"/>
<stop offset="1" stop-color="#48389C"/>
</linearGradient>
<linearGradient id="paint1_linear_64_29" x1="0" y1="0" x2="71.2923" y2="72.694" gradientUnits="userSpaceOnUse">
<stop stop-color="#E98135"/>
<stop offset="1" stop-color="#48389C"/>
</linearGradient>
<linearGradient id="paint2_linear_64_29" x1="0" y1="0" x2="71.2923" y2="72.694" gradientUnits="userSpaceOnUse">
<stop stop-color="#E98135"/>
<stop offset="1" stop-color="#48389C"/>
</linearGradient>
<linearGradient id="paint3_linear_64_29" x1="0" y1="0" x2="71.2923" y2="72.694" gradientUnits="userSpaceOnUse">
<stop stop-color="#E98135"/>
<stop offset="1" stop-color="#48389C"/>
</linearGradient>
<linearGradient id="paint4_linear_64_29" x1="0" y1="0" x2="71.2923" y2="72.694" gradientUnits="userSpaceOnUse">
<stop stop-color="#E98135"/>
<stop offset="1" stop-color="#48389C"/>
</linearGradient>
<linearGradient id="paint5_linear_64_29" x1="0" y1="0" x2="71.2923" y2="72.694" gradientUnits="userSpaceOnUse">
<stop stop-color="#E98135"/>
<stop offset="1" stop-color="#48389C"/>
</linearGradient>
<linearGradient id="paint6_linear_64_29" x1="0" y1="0" x2="71.2923" y2="72.694" gradientUnits="userSpaceOnUse">
<stop stop-color="#E98135"/>
<stop offset="1" stop-color="#48389C"/>
</linearGradient>
<linearGradient id="paint7_linear_64_29" x1="0" y1="0" x2="71.2923" y2="72.694" gradientUnits="userSpaceOnUse">
<stop stop-color="#E98135"/>
<stop offset="1" stop-color="#48389C"/>
</linearGradient>
<linearGradient id="paint8_linear_64_29" x1="0" y1="0" x2="71.2923" y2="72.694" gradientUnits="userSpaceOnUse">
<stop stop-color="#E98135"/>
<stop offset="1" stop-color="#48389C"/>
</linearGradient>
</defs>
</svg>
