<svg width="72" height="72" viewBox="0 0 72 72" fill="none" xmlns="http://www.w3.org/2000/svg">
<path d="M71.6668 51.1175C71.4694 50.9196 71.0745 50.7216 70.7784 50.7216H68.508C68.2118 49.534 67.7183 48.4454 67.126 47.3567L68.7054 45.7732C68.8041 45.6742 68.9028 45.4763 69.0015 45.3773C69.1003 45.1794 69.1003 45.0804 69.1003 44.8825C69.1003 44.6845 69.1003 44.5856 69.0015 44.3876C68.9028 44.1897 68.8041 44.0907 68.7054 43.9918L65.5465 40.8247C65.4478 40.7258 65.2504 40.6268 65.1517 40.5278C64.8555 40.4289 64.4607 40.4289 64.1645 40.5278C63.9671 40.6268 63.8684 40.7258 63.7697 40.8247L62.1902 42.4082C62.0915 42.3093 61.9928 42.3093 61.8941 42.2103C61.6967 40.7258 61.4005 39.2412 61.0057 37.7567C58.1429 26.6722 50.838 14.1031 39.1897 0.445361C39.091 0.346392 38.8936 0.148454 38.6961 0.148454C38.3013 -0.0494845 37.9064 -0.0494845 37.6103 0.148454C37.4129 0.247423 37.3141 0.346392 37.1167 0.445361C33.4643 4.89897 30.108 9.35258 27.1465 13.6082C26.653 13.1134 25.8632 13.1134 25.3697 13.6082L23.7902 15.1918C22.7044 14.5979 21.6185 14.1031 20.4339 13.8062V11.5299C20.4339 11.233 20.3352 10.8371 20.0391 10.6392C19.8416 10.4412 19.4468 10.2433 19.1506 10.2433H14.6098C14.2149 10.2433 13.9188 10.3423 13.7213 10.6392C13.5239 10.8371 13.3265 11.233 13.3265 11.5299V13.8062C12.1419 14.1031 11.056 14.5979 9.97018 15.1918L8.39075 13.6082C7.89717 13.1134 7.00874 13.1134 6.51517 13.6082L3.3563 16.7753C3.15887 16.9732 2.96144 17.3691 2.96144 17.666C2.96144 18.0619 3.06015 18.3588 3.3563 18.5567L4.93573 20.2392C4.34344 21.3278 3.84987 22.4165 3.55373 23.6041H1.28329C0.888432 23.6041 0.592288 23.7031 0.394859 24C0.197429 24.1979 0 24.5938 0 24.8907V29.4433C0 29.8392 0.0987146 30.1361 0.394859 30.334C0.592288 30.532 0.987146 30.7299 1.28329 30.7299H3.55373C3.84987 31.9175 4.34344 33.0062 4.93573 34.0948L3.3563 35.6783C3.15887 35.8763 2.96144 36.2722 2.96144 36.5691C2.96144 36.965 3.06015 37.2619 3.3563 37.4598L6.51517 40.6268C6.61388 40.7258 6.81131 40.8247 6.91003 40.9237C7.20617 41.0227 7.60103 41.0227 7.89717 40.9237C8.0946 40.8247 8.19332 40.7258 8.29203 40.6268L9.87147 39.0433C10.9573 39.6371 12.0432 40.132 13.2278 40.4289V42.7052C13.2278 43.101 13.3265 43.3979 13.6226 43.5959C13.8201 43.7938 14.1162 43.8928 14.4123 43.9918C13.8201 49.4351 14.5111 54.3835 16.4853 58.6392C18.3609 62.7959 21.4211 66.1608 25.271 68.5361C29.1208 70.8124 33.563 72 38.2026 72C43.0396 72 47.7779 70.6144 51.6278 68.2392V69.9216C51.6278 70.3175 51.7265 70.6144 52.0226 70.8124C52.3188 71.0103 52.6149 71.2082 52.9111 71.2082H57.4519C57.8468 71.2082 58.1429 71.1093 58.3404 70.8124C58.5378 70.5155 58.7352 70.2186 58.7352 69.9216V67.6454C59.9198 67.3484 61.0057 66.8536 62.0915 66.2598L63.671 67.8433C63.7697 67.9423 63.9671 68.0412 64.0658 68.1402C64.362 68.2392 64.7568 68.2392 65.053 68.1402C65.2504 68.0412 65.3491 67.9423 65.4478 67.8433L68.6067 64.6763C68.7054 64.5773 68.8041 64.3794 68.9028 64.2804C69.0015 64.0825 69.0015 63.9835 69.0015 63.7856C69.0015 63.5876 69.0015 63.4887 68.9028 63.2907C68.8041 63.0928 68.7054 62.9938 68.6067 62.8948L67.0273 61.3113C67.6195 60.2227 68.1131 59.134 68.4093 57.9464H70.6797C70.9758 57.9464 71.3707 57.8474 71.5681 57.5505C71.7656 57.3526 71.963 56.9567 71.963 56.6598V52.1072C72.0617 51.7113 71.963 51.4144 71.6668 51.1175ZM66.6324 55.5711C66.435 55.7691 66.2375 56.066 66.1388 56.3629C65.8427 57.9464 65.2504 59.332 64.362 60.7175C64.1645 61.0144 64.0658 61.3113 64.1645 61.6082C64.1645 61.9052 64.362 62.2021 64.5594 62.4L66.0401 63.8845L64.6581 65.2701L63.1774 63.7856C62.9799 63.5876 62.6838 63.3897 62.3877 63.3897C62.0915 63.3897 61.7954 63.4887 61.4992 63.5876C60.2159 64.4783 58.7352 65.0722 57.1558 65.3691C56.8596 65.468 56.5635 65.567 56.3661 65.8639C56.1686 66.0619 56.0699 66.3588 56.0699 66.6557V68.734H54.1943V66.6557C54.1943 66.3588 54.0956 66.0619 53.8982 65.8639C53.7008 65.666 53.4046 65.468 53.1085 65.3691C51.529 65.0722 50.147 64.4783 48.765 63.5876C48.4689 63.3897 48.1728 63.2907 47.8766 63.3897C47.5805 63.3897 47.2843 63.5876 47.0869 63.7856L45.6062 65.2701L44.4216 63.7856L45.9023 62.301C46.0997 62.1031 46.2972 61.8062 46.2972 61.5093C46.2972 61.2124 46.1985 60.9155 46.0997 60.6186C45.2113 59.332 44.619 57.8474 44.3229 56.2639C44.2242 55.967 44.1255 55.6701 43.8293 55.4722C43.6319 55.2742 43.3357 55.1753 43.0396 55.1753H40.9666V53.2948H42.9409C43.237 53.2948 43.5332 53.1959 43.7306 52.9979C43.928 52.8 44.1255 52.5031 44.2242 52.2062C44.5203 50.6227 45.1126 49.2371 46.001 47.8515C46.1985 47.5546 46.2972 47.2577 46.1985 46.9608C46.1985 46.6639 46.001 46.367 45.8036 46.1691L44.3229 44.6845L45.7049 43.299L47.1856 44.7835C47.383 44.9814 47.6792 45.1794 47.9753 45.1794C48.2715 45.1794 48.5676 45.0804 48.8638 44.9814C50.147 44.0907 51.6278 43.4969 53.2072 43.2C53.5033 43.101 53.7995 43.0021 53.9969 42.7052C54.1943 42.5072 54.2931 42.2103 54.2931 41.9134V40.033H56.1686V42.0124C56.1686 42.3093 56.2674 42.6062 56.4648 42.8041C56.6622 43.0021 56.9584 43.2 57.2545 43.299C58.8339 43.5959 60.2159 44.1897 61.5979 45.0804C61.8941 45.2784 62.1902 45.3773 62.4864 45.2784C62.7825 45.2784 63.0787 45.0804 63.2761 44.8825L64.7568 43.3979L66.1388 44.7835L64.6581 46.268C64.4607 46.466 64.2632 46.7629 64.2632 47.0598C64.2632 47.3567 64.362 47.6536 64.4607 47.9505C65.3491 49.2371 65.9414 50.7217 66.2375 52.3052C66.3363 52.6021 66.435 52.899 66.7311 53.0969C66.9285 53.2948 67.2247 53.3938 67.5208 53.3938H69.5938V55.2742H67.5208C67.126 55.2742 66.8298 55.3732 66.6324 55.5711ZM17.0776 44.0907H19.1506C19.3481 44.0907 19.4468 44.0907 19.6442 43.9918C19.8416 43.8928 19.9404 43.7938 20.0391 43.6948C20.1378 43.5959 20.2365 43.3979 20.3352 43.299C20.4339 43.101 20.4339 43.0021 20.4339 42.8041V40.5278C21.6185 40.2309 22.7044 39.7361 23.7902 39.1423L25.3697 40.7258C25.4684 40.8247 25.6658 40.9237 25.7645 41.0227C26.0607 41.1217 26.4555 41.1217 26.7517 41.0227C26.9491 40.9237 27.0478 40.8247 27.1465 40.7258L30.3054 37.5588C30.5028 37.3608 30.7003 36.9649 30.7003 36.668C30.7003 36.2722 30.6015 35.9753 30.3054 35.7773L28.8247 34.0948C29.417 33.0062 29.9105 31.9175 30.2067 30.7299H32.4771C32.7733 30.7299 33.1681 30.6309 33.3656 30.334C33.563 30.1361 33.7604 29.7402 33.7604 29.4433V24.8907C33.7604 24.4948 33.6617 24.1979 33.3656 24C33.1681 23.8021 32.7733 23.6041 32.4771 23.6041H30.2067C29.9105 22.4165 29.417 21.3278 28.8247 20.2392L30.4041 18.6557C30.5028 18.5567 30.6015 18.3588 30.7003 18.2598C30.799 18.0619 30.799 17.9629 30.799 17.7649C30.799 17.567 30.799 17.468 30.7003 17.2701C30.6015 17.0722 30.5028 16.9732 30.4041 16.8742L29.1208 15.4887C31.7861 11.5299 34.8463 7.47217 38.3013 3.31546C48.765 15.8845 55.4776 27.4639 58.2416 37.7567C58.0442 37.5588 57.7481 37.4598 57.4519 37.4598H52.9111C52.6149 37.4598 52.2201 37.5588 52.0226 37.8557C51.8252 38.0536 51.6278 38.4495 51.6278 38.7464V41.0227C50.4432 41.3196 49.3573 41.8144 48.2715 42.4082L46.692 40.8247C46.1985 40.3299 45.31 40.3299 44.8165 40.8247L41.6576 43.9918C41.5589 44.0907 41.4602 44.2887 41.3614 44.3876C41.2627 44.5856 41.2627 44.6845 41.2627 44.8825C41.2627 45.0804 41.2627 45.1794 41.3614 45.3773C41.4602 45.5753 41.5589 45.6742 41.6576 45.7732L43.237 47.3567C42.6447 48.4454 42.1512 49.534 41.855 50.7216H39.5846C39.2884 50.7216 38.8936 50.8206 38.6961 51.1175C38.4987 51.4144 38.3013 51.7113 38.3013 52.0082V56.5608C38.3013 56.9567 38.4 57.2536 38.6961 57.4515C38.8936 57.6495 39.2884 57.8474 39.5846 57.8474H41.855C42.1512 59.0351 42.6447 60.1237 43.237 61.2124L41.6576 62.7959C41.5589 62.8948 41.4602 63.0928 41.3614 63.1918C41.2627 63.3897 41.2627 63.4887 41.2627 63.6866C41.2627 63.8845 41.2627 63.9835 41.3614 64.1814C41.4602 64.3794 41.5589 64.4783 41.6576 64.5773L44.8165 67.7443C44.9152 67.8433 45.1126 67.9423 45.2113 68.0412C45.31 68.1402 45.5075 68.1402 45.6062 68.1402C39.3871 70.2186 32.2797 69.6247 26.5542 66.2598C22.4082 63.7856 15.5969 57.4515 17.0776 44.0907ZM7.60103 35.1835C7.79846 34.9856 7.99589 34.6887 7.99589 34.3918C7.99589 34.0948 7.89717 33.7979 7.79846 33.501C6.91003 32.2144 6.31774 30.7299 6.02159 29.1464C5.92288 28.8495 5.82416 28.5526 5.52802 28.3546C5.23188 28.2557 4.93573 28.1567 4.63959 28.1567H2.56658V26.1773H4.63959C4.93573 26.1773 5.23188 26.0784 5.42931 25.8804C5.62674 25.6825 5.82416 25.3856 5.92288 25.0887C6.21902 23.5052 6.81131 22.1196 7.69974 20.734C7.89717 20.4371 7.99589 20.1402 7.89717 19.8433C7.89717 19.5464 7.69974 19.2495 7.50231 19.0515L6.02159 17.567L7.4036 16.1814L8.88432 17.666C9.08175 17.8639 9.37789 18.0619 9.67404 18.0619C9.97018 18.0619 10.2663 17.9629 10.5625 17.8639C11.8458 16.9732 13.3265 16.3794 14.9059 16.0825C15.2021 15.9835 15.4982 15.8845 15.6956 15.5876C15.8931 15.2907 15.9918 15.0928 15.9918 14.7959V12.7175H17.8674V14.7959C17.8674 15.0928 17.9661 15.3897 18.1635 15.5876C18.3609 15.7856 18.6571 15.9835 18.9532 16.0825C20.5326 16.3794 21.9147 16.9732 23.2967 17.8639C23.5928 18.0619 23.8889 18.1608 24.1851 18.0619C24.4812 18.0619 24.7774 17.8639 24.9748 17.666L26.4555 16.1814L27.8375 17.567L26.1594 19.1505C25.962 19.3485 25.7645 19.6454 25.7645 19.9423C25.7645 20.2392 25.8632 20.5361 25.962 20.833C26.8504 22.1196 27.4427 23.6041 27.7388 25.1876C27.8375 25.4845 27.9362 25.7814 28.2324 25.9794C28.5285 26.1773 28.8247 26.1773 29.1208 26.1773H31.1938V28.1567H29.1208C28.8247 28.1567 28.5285 28.2557 28.3311 28.4536C28.1337 28.6515 27.9362 28.9485 27.8375 29.2454C27.5414 30.8289 26.9491 32.2144 26.0607 33.6C25.8632 33.8969 25.7645 34.1938 25.8632 34.4907C25.8632 34.7876 26.0607 35.0845 26.2581 35.2825L27.7388 36.767L26.3568 38.1526L24.8761 36.668C24.6787 36.4701 24.3825 36.2722 24.0864 36.2722C23.7902 36.2722 23.4941 36.3711 23.1979 36.4701C21.9147 37.3608 20.4339 37.9546 18.8545 38.2515C18.5584 38.3505 18.2622 38.4495 18.0648 38.7464C17.8674 38.9443 17.7686 39.2412 17.7686 39.5381V41.6165H15.8931V39.5381C15.8931 39.2412 15.7943 38.9443 15.5969 38.7464C15.3995 38.5485 15.1033 38.3505 14.8072 38.2515C13.2278 37.9546 11.8458 37.3608 10.4638 36.4701C10.1676 36.2722 9.87147 36.1732 9.57532 36.2722C9.27918 36.2722 8.98303 36.4701 8.7856 36.668L7.30488 38.1526L5.92288 36.767L7.60103 35.1835ZM58.7352 41.0227V39.934C58.8339 40.3299 58.9327 40.7258 58.9327 41.0227C58.9327 41.0227 58.8339 41.0227 58.7352 41.0227ZM48.2715 66.2598C48.5676 66.4577 48.8638 66.5567 49.1599 66.7546C48.3702 67.1505 47.5805 67.5464 46.692 67.9423L48.2715 66.2598Z" fill="url(#paint0_linear_55_153)"/>
<path d="M55.1815 44.4866C49.7522 44.4866 45.4087 48.8412 45.4087 54.2845C45.4087 59.7278 49.7522 64.0825 55.1815 64.0825C60.6108 64.0825 64.9542 59.7278 64.9542 54.2845C64.9542 48.8412 60.6108 44.4866 55.1815 44.4866ZM62.3877 54.2845C62.3877 58.2433 59.1301 61.5093 55.1815 61.5093C51.2329 61.5093 47.9753 58.2433 47.9753 54.2845C47.9753 50.3258 51.2329 47.0598 55.1815 47.0598C59.1301 47.0598 62.3877 50.3258 62.3877 54.2845Z" fill="url(#paint1_linear_55_153)"/>
<path d="M16.8802 36.965C22.3095 36.965 26.653 32.6103 26.653 27.167C26.653 21.7237 22.3095 17.3691 16.8802 17.3691C11.4509 17.3691 7.10746 21.7237 7.10746 27.167C7.10746 32.6103 11.4509 36.965 16.8802 36.965ZM9.67404 27.167C9.67404 23.2082 12.9316 19.9423 16.8802 19.9423C20.8288 19.9423 24.0864 23.2082 24.0864 27.167C24.0864 31.1258 20.8288 34.3918 16.8802 34.3918C12.9316 34.3918 9.67404 31.1258 9.67404 27.167Z" fill="url(#paint2_linear_55_153)"/>
<path d="M38.1039 16.2804C38.1039 16.2804 40.1769 17.468 42.0524 20.0412C44.7177 23.6041 46.001 27.9588 45.8036 33.1052C45.8036 33.501 45.9023 33.7979 46.1985 33.9959C46.3959 34.2928 46.7907 34.3918 47.0869 34.3918H47.1856C47.4818 34.3918 47.8766 34.2928 48.074 33.9959C48.2715 33.7979 48.4689 33.4021 48.4689 33.1052C48.6663 25.8804 46.1985 21.0309 44.1255 18.2598C41.855 15.1918 39.4859 13.9052 39.3871 13.9052C39.091 13.7072 38.6961 13.7072 38.4 13.8062C38.1039 13.9052 37.8077 14.1031 37.6103 14.4C37.4129 14.6969 37.4129 15.0928 37.5116 15.3897C37.5116 15.8845 37.709 16.1814 38.1039 16.2804Z" fill="url(#paint3_linear_55_153)"/>
<path d="M33.7604 63.7856C33.9578 63.8845 34.0566 63.8845 34.254 63.8845C34.5501 63.8845 34.8463 63.7856 35.0437 63.5876C35.2411 63.3897 35.4386 63.0928 35.5373 62.7959C35.636 62.499 35.5373 62.2021 35.4386 61.9052C35.3398 61.6082 35.0437 61.4103 34.8463 61.3113C30.8977 59.6289 28.2324 56.8577 27.0478 53.0969C26.1594 50.3258 26.4555 48.0495 26.4555 47.9505C26.4555 47.6536 26.3568 47.2577 26.1594 46.9608C25.962 46.6639 25.6658 46.466 25.271 46.466C24.9748 46.466 24.58 46.466 24.2838 46.7629C23.9877 46.9608 23.7902 47.2577 23.7902 47.6536C23.7902 47.7526 23.3954 50.5237 24.4812 53.7897C25.3697 57.0557 27.8375 61.2124 33.7604 63.7856Z" fill="url(#paint4_linear_55_153)"/>
<defs>
<linearGradient id="paint0_linear_55_153" x1="0" y1="0" x2="71.2923" y2="72.694" gradientUnits="userSpaceOnUse">
<stop stop-color="#E98135"/>
<stop offset="1" stop-color="#48389C"/>
</linearGradient>
<linearGradient id="paint1_linear_55_153" x1="0" y1="0" x2="71.2923" y2="72.694" gradientUnits="userSpaceOnUse">
<stop stop-color="#E98135"/>
<stop offset="1" stop-color="#48389C"/>
</linearGradient>
<linearGradient id="paint2_linear_55_153" x1="0" y1="0" x2="71.2923" y2="72.694" gradientUnits="userSpaceOnUse">
<stop stop-color="#E98135"/>
<stop offset="1" stop-color="#48389C"/>
</linearGradient>
<linearGradient id="paint3_linear_55_153" x1="0" y1="0" x2="71.2923" y2="72.694" gradientUnits="userSpaceOnUse">
<stop stop-color="#E98135"/>
<stop offset="1" stop-color="#48389C"/>
</linearGradient>
<linearGradient id="paint4_linear_55_153" x1="0" y1="0" x2="71.2923" y2="72.694" gradientUnits="userSpaceOnUse">
<stop stop-color="#E98135"/>
<stop offset="1" stop-color="#48389C"/>
</linearGradient>
</defs>
</svg>
