<svg width="72" height="72" viewBox="0 0 72 72" fill="none" xmlns="http://www.w3.org/2000/svg">
<path d="M69.7802 42.3302V19.5221C71.0349 19.0389 72 17.7826 72 16.3329C72 14.6899 70.8418 13.3369 69.2011 13.047C68.1394 5.60537 61.6729 0 54.0483 0C46.3271 0 39.8606 5.79866 38.8954 13.4336C37.7373 14.0134 36.9651 15.1732 36.9651 16.4295C36.9651 17.8792 37.8338 19.1356 39.185 19.6188V28.8C38.6059 28.4134 37.9303 28.0268 37.2547 27.7369V24.1611C37.2547 23.4846 36.6756 22.9047 36 22.9047H32.815V19.9087C32.815 16.043 29.7265 12.9503 25.8659 12.9503H9.1689C5.30831 12.9503 2.21984 16.043 2.21984 19.9087V23.098C0.965147 23.5812 0 24.8376 0 26.2872C0 27.7369 0.868633 28.9933 2.21984 29.4765V52.3812C0.965147 52.8644 0 54.1208 0 55.5705C0 57.0201 0.965147 58.1799 2.21984 58.6631V65.1382H1.25469C0.579088 65.1382 0 65.7181 0 66.3946V70.7436C0 71.4201 0.579088 72 1.25469 72H70.7453C71.4209 72 72 71.4201 72 70.7436V46.6792C72 44.843 71.1314 43.2966 69.7802 42.3302ZM47.3887 65.2349L47.4853 48.0322H52.4075C52.8901 49.2886 54.1448 50.255 55.5925 50.255C57.0402 50.255 58.2949 49.3852 58.7775 48.0322H65.1474C65.244 48.0322 65.244 48.0322 65.244 48.1289V65.2349H47.3887ZM8.97587 65.2349V58.7597C10.2306 58.2765 11.1957 57.0201 11.1957 55.5705C11.1957 54.1208 10.2306 52.8644 8.97587 52.3812V29.4765C10.2306 28.9933 11.1957 27.7369 11.1957 26.2872C11.1957 24.8376 10.3271 23.5812 8.97587 23.098V20.2953C8.97587 19.9087 9.26542 19.6188 9.65147 19.6188H25.4799C25.8659 19.6188 26.1555 19.9087 26.1555 20.2953V22.8081H22.9705C22.2949 22.8081 21.7158 23.3879 21.7158 24.0644V27.6403C16.6971 30.0564 12.8365 34.5987 11.4853 40.0107C11.4853 40.1074 11.4853 40.204 11.4853 40.3007V65.2349H8.97587ZM3.47453 56.5369C2.89544 56.5369 2.50938 56.1503 2.50938 55.5705C2.50938 54.9906 2.89544 54.604 3.47453 54.604H7.81769C8.39678 54.604 8.78284 54.9906 8.78284 55.5705C8.78284 56.1503 8.39678 56.5369 7.81769 56.5369H3.47453ZM3.47453 25.3208H7.81769C8.39678 25.3208 8.78284 25.7074 8.78284 26.2872C8.78284 26.8671 8.39678 27.2537 7.81769 27.2537H3.47453C2.89544 27.2537 2.50938 26.8671 2.50938 26.2872C2.50938 25.7074 2.89544 25.3208 3.47453 25.3208ZM6.563 29.6698V52.0913H4.63271V29.6698H6.563ZM13.8981 41.557H45.0724L44.9759 65.2349H13.8981V41.557ZM47.4853 43.6832H52.118V45.6161H47.3887L47.4853 43.6832ZM54.6273 46.8725V42.5235C54.6273 41.9436 55.0134 41.557 55.5925 41.557C56.1716 41.557 56.5576 41.9436 56.5576 42.5235V46.8725C56.5576 47.4523 56.1716 47.8389 55.5925 47.8389C55.0134 47.8389 54.6273 47.3557 54.6273 46.8725ZM65.1474 45.6161H58.9705V43.6832H66.5952C68.2359 43.6832 69.5871 45.0362 69.5871 46.6792V65.2349H67.6568V48.1289C67.6568 46.7758 66.4987 45.6161 65.1474 45.6161ZM68.622 17.396H40.3432C39.7641 17.396 39.378 17.0094 39.378 16.4295C39.378 15.8497 39.7641 15.4631 40.3432 15.4631H68.622C69.2011 15.4631 69.5871 15.8497 69.5871 16.4295C69.5871 17.0094 69.1046 17.396 68.622 17.396ZM54.0483 2.41611C60.3217 2.41611 65.63 6.95839 66.7882 13.047H41.3083C42.4665 6.95839 47.7748 2.41611 54.0483 2.41611ZM41.5979 19.8121H67.4638V41.3638C67.1743 41.3638 66.9812 41.2671 66.6917 41.2671H58.7775C58.2949 40.0107 57.0402 39.0443 55.5925 39.0443C54.1448 39.0443 52.8901 39.9141 52.4075 41.2671H47.4853V40.3007C47.4853 40.204 47.4853 40.1074 47.4853 40.0107C46.5201 36.3383 44.3968 33.0523 41.5979 30.5396V19.8121ZM44.6863 39.1409H14.2842C15.8284 34.9852 19.1099 31.506 23.26 29.7664H35.807C39.8606 31.506 43.1421 34.8886 44.6863 39.1409ZM34.8418 25.3208V27.2537H24.2252V25.3208H34.8418ZM9.1689 15.3664H25.8659C28.3753 15.3664 30.4021 17.396 30.4021 19.9087V22.9047H28.4718V20.3919C28.4718 18.6523 27.1206 17.2993 25.3834 17.2993H9.65147C7.91421 17.2993 6.563 18.6523 6.563 20.3919V22.9047H4.63271V19.9087C4.63271 17.396 6.65952 15.3664 9.1689 15.3664ZM4.63271 58.953H6.563V65.2349H4.63271V58.953ZM2.50938 69.5839V67.651H69.6836V69.5839H2.50938Z" fill="url(#paint0_linear_55_118)"/>
<path d="M30.4021 45.8094C30.0161 45.0362 28.7614 45.0362 28.2788 45.8094L24.4182 52.6711C23.3566 54.5074 23.3566 56.8268 24.5147 58.7597C25.5764 60.4993 27.4102 61.4658 29.437 61.4658C29.5335 61.4658 29.63 61.4658 29.7265 61.4658C31.7533 61.3691 33.4906 60.2094 34.4558 58.4698C35.4209 56.6336 35.4209 54.5074 34.3592 52.6711L30.4021 45.8094ZM32.3324 57.3101C31.7533 58.3732 30.7882 58.953 29.63 59.0497C28.3753 59.1463 27.2172 58.5664 26.5416 57.5034C25.8659 56.4403 25.8659 54.9906 26.445 53.9275L29.3405 48.902L32.2359 54.0242C32.9115 54.9906 32.9115 56.247 32.3324 57.3101Z" fill="url(#paint1_linear_55_118)"/>
<defs>
<linearGradient id="paint0_linear_55_118" x1="0" y1="0" x2="71.2923" y2="72.694" gradientUnits="userSpaceOnUse">
<stop stop-color="#E98135"/>
<stop offset="1" stop-color="#48389C"/>
</linearGradient>
<linearGradient id="paint1_linear_55_118" x1="0" y1="0" x2="71.2923" y2="72.694" gradientUnits="userSpaceOnUse">
<stop stop-color="#E98135"/>
<stop offset="1" stop-color="#48389C"/>
</linearGradient>
</defs>
</svg>
