<svg width="72" height="72" viewBox="0 0 72 72" fill="none" xmlns="http://www.w3.org/2000/svg">
<rect width="72" height="72" fill="#F5F5F5"/>
<g id="Infrastructure" clip-path="url(#clip0_0_1)">
<rect width="1920" height="2615" transform="translate(-764 -1204)" fill="white"/>
<g id="section 02">
<g id="Group 65">
<g id="Group 62">
<g id="Vector">
<path d="M19.0132 19.6205C19.3107 19.6205 19.5961 19.5023 19.8065 19.2919C20.0169 19.0815 20.135 18.7962 20.135 18.4986V5.84676C21.9865 6.46638 23.9053 6.86308 25.8507 7.02848V18.4986C25.8507 18.7962 25.9689 19.0815 26.1793 19.2919C26.3897 19.5023 26.675 19.6205 26.9726 19.6205C27.2701 19.6205 27.5555 19.5023 27.7659 19.2919C27.9762 19.0815 28.0944 18.7962 28.0944 18.4986V13.0822H30.5402C30.8377 13.0822 31.1231 12.964 31.3334 12.7536C31.5438 12.5432 31.662 12.2578 31.662 11.9603C31.662 11.6627 31.5438 11.3774 31.3334 11.167C31.1231 10.9566 30.8377 10.8384 30.5402 10.8384H28.0944V7.24837C29.5444 7.35906 31.2058 7.43934 33.0786 7.4892V19.2914C33.0786 19.589 33.1968 19.8743 33.4072 20.0847C33.6176 20.2951 33.9029 20.4133 34.2005 20.4133C34.498 20.4133 34.7834 20.2951 34.9938 20.0847C35.2042 19.8743 35.3224 19.589 35.3224 19.2914V7.5236C35.8579 7.5236 36.3844 7.53557 36.9528 7.53557C46.4859 7.53557 51.3519 6.76521 53.7706 5.84676V30.7646C53.7706 31.0621 53.8888 31.3475 54.0992 31.5578C54.3096 31.7682 54.595 31.8864 54.8925 31.8864C55.1901 31.8864 55.4754 31.7682 55.6858 31.5578C55.8962 31.3475 56.0144 31.0621 56.0144 30.7646V3.8169C56.0144 2.43025 53.5373 0.099723 36.9528 0.099723C20.3684 0.099723 17.8913 2.43025 17.8913 3.8169V18.4986C17.8913 18.7962 18.0095 19.0815 18.2199 19.2919C18.4303 19.5023 18.7156 19.6205 19.0132 19.6205ZM52.9853 3.8169C50.9031 4.47657 45.545 5.2918 36.9528 5.2918C28.3607 5.2918 23.0026 4.47657 20.9189 3.8169C23.0041 3.15723 28.3712 2.34349 36.9528 2.34349C45.5345 2.34349 50.9001 3.15723 52.9853 3.8169ZM47.8172 30.615C42.1689 30.615 23.7341 30.9351 23.7341 35.0591V67.4561C23.7341 71.5802 42.1704 71.9003 47.8172 71.9003C53.464 71.9003 71.9003 71.5802 71.9003 67.4561V35.0576C71.9003 30.9336 53.4685 30.615 47.8172 30.615ZM69.2526 35.0576C67.139 36.0494 59.2529 37.258 47.8187 37.258C36.3844 37.258 28.5013 36.0494 26.3862 35.0576C28.5088 34.0644 36.3949 32.8587 47.8172 32.8587C59.2394 32.8587 67.1315 34.0644 69.2526 35.0576ZM47.8172 69.6565C35.4929 69.6565 27.2732 68.2519 25.9778 67.2273V37.2087C30.8812 39.2281 42.5249 39.4853 47.3131 39.5003V69.7164C47.3131 70.0139 47.4313 70.2993 47.6417 70.5097C47.8521 70.7201 48.1374 70.8382 48.435 70.8382C48.7325 70.8382 49.0178 70.7201 49.2282 70.5097C49.4386 70.2993 49.5568 70.0139 49.5568 69.7164V62.6261H54.0399C54.3374 62.6261 54.6228 62.5079 54.8332 62.2975C55.0436 62.0871 55.1618 61.8017 55.1618 61.5042C55.1618 61.2066 55.0436 60.9213 54.8332 60.7109C54.6228 60.5005 54.3374 60.3823 54.0399 60.3823H49.5613V54.4827H54.0399C54.3374 54.4827 54.6228 54.3645 54.8332 54.1541C55.0436 53.9437 55.1618 53.6583 55.1618 53.3608C55.1618 53.0632 55.0436 52.7779 54.8332 52.5675C54.6228 52.3571 54.3374 52.2389 54.0399 52.2389H49.5613V46.3393H54.0399C54.3374 46.3393 54.6228 46.2211 54.8332 46.0107C55.0436 45.8003 55.1618 45.515 55.1618 45.2174C55.1618 44.9199 55.0436 44.6345 54.8332 44.4241C54.6228 44.2137 54.3374 44.0955 54.0399 44.0955H49.5613V39.4913C51.4446 39.4704 53.9217 39.4135 56.5664 39.2654V69.7119C56.5664 70.0094 56.6846 70.2948 56.895 70.5052C57.1054 70.7156 57.3907 70.8338 57.6883 70.8338C57.9858 70.8338 58.2711 70.7156 58.4815 70.5052C58.6919 70.2948 58.8101 70.0094 58.8101 69.7119V39.1159C62.4953 38.9756 66.1442 38.3345 69.6565 37.2102V67.2273C68.3656 68.2519 60.1459 69.6565 47.8172 69.6565Z" fill="url(#paint0_linear_0_1)"/>
<path fill-rule="evenodd" clip-rule="evenodd" d="M21.1759 1.34231C23.8818 0.582553 28.6583 0 36.9528 0C45.2474 0 50.0239 0.582553 52.7297 1.34231C54.0824 1.72212 54.9257 2.14835 55.4324 2.5748C55.9421 3.00372 56.1141 3.43577 56.1141 3.8169V30.7256C58.0412 30.8267 60.0614 30.9748 61.9891 31.1907C64.6482 31.4885 67.1372 31.9158 68.9637 32.5291C69.8765 32.8356 70.6308 33.1907 71.1587 33.6042C71.6873 34.0181 72 34.5001 72 35.0576V67.4561C72 68.0137 71.6872 68.4957 71.1585 68.9097C70.6305 69.3232 69.8761 69.6784 68.9631 69.9849C67.1362 70.5983 64.6468 71.0259 61.9874 71.3238C56.6667 71.92 50.6414 72 47.8172 72C44.9929 72 38.9676 71.92 33.6469 71.3238C30.9876 71.0259 28.4981 70.5983 26.6712 69.9849C25.7583 69.6784 25.0038 69.3232 24.4758 68.9097C23.9471 68.4957 23.6343 68.0137 23.6343 67.4561V35.0591C23.6343 34.5016 23.9471 34.0196 24.4757 33.6056C25.0037 33.1921 25.7581 32.8369 26.671 32.5304C28.4978 31.917 30.9871 31.4894 33.6464 31.1914C38.9668 30.5953 44.9922 30.5152 47.8172 30.5152C49.1747 30.5152 51.2701 30.5336 53.6709 30.6187V5.99022C51.1902 6.8931 46.3139 7.63529 36.9528 7.63529C36.668 7.63529 36.3937 7.6323 36.1242 7.6293L36.1124 7.62917C35.8803 7.6266 35.6517 7.62406 35.4221 7.62346V19.2914C35.4221 19.6154 35.2934 19.9261 35.0643 20.1552C34.8352 20.3843 34.5245 20.513 34.2005 20.513C33.8765 20.513 33.5658 20.3843 33.3367 20.1552C33.1076 19.9261 32.9789 19.6154 32.9789 19.2914V7.58627C31.1903 7.53746 29.5953 7.46068 28.1942 7.35591V10.7387H30.5402C30.8641 10.7387 31.1749 10.8674 31.404 11.0965C31.6331 11.3256 31.7618 11.6363 31.7618 11.9603C31.7618 12.2843 31.6331 12.595 31.404 12.8241C31.1749 13.0532 30.8641 13.1819 30.5402 13.1819H28.1942V18.4986C28.1942 18.8226 28.0655 19.1333 27.8364 19.3624C27.6073 19.5915 27.2966 19.7202 26.9726 19.7202C26.6486 19.7202 26.3378 19.5915 26.1088 19.3624C25.8797 19.1333 25.751 18.8226 25.751 18.4986V7.11991C23.8749 6.95339 22.0241 6.57256 20.2348 5.98488V18.4986C20.2348 18.8226 20.1061 19.1333 19.877 19.3624C19.6479 19.5915 19.3372 19.7202 19.0132 19.7202C18.6892 19.7202 18.3785 19.5915 18.1494 19.3624C17.9203 19.1333 17.7916 18.8226 17.7916 18.4986V3.8169C17.7916 3.43577 17.9635 3.00372 18.4733 2.5748C18.98 2.14835 19.8232 1.72212 21.1759 1.34231ZM53.6721 30.8183C51.2716 30.7331 49.1754 30.7147 47.8172 30.7147C44.9939 30.7147 38.9776 30.7947 33.6686 31.3896C31.0131 31.6872 28.5408 32.1129 26.7345 32.7194C25.8309 33.0229 25.1009 33.3693 24.5987 33.7626C24.0971 34.1555 23.8338 34.5856 23.8338 35.0591V67.4561C23.8338 67.9296 24.0971 68.3598 24.5988 68.7526C25.101 69.146 25.831 69.4924 26.7347 69.7958C28.5411 70.4024 31.0136 70.8281 33.6692 71.1256C38.9784 71.7205 44.9946 71.8006 47.8172 71.8006C50.6397 71.8006 56.656 71.7205 61.9652 71.1256C64.6207 70.8281 67.0933 70.4024 68.8996 69.7958C69.8033 69.4924 70.5333 69.146 71.0356 68.7526C71.5372 68.3598 71.8006 67.9296 71.8006 67.4561V35.0576C71.8006 34.5841 71.5373 34.154 71.0358 33.7612C70.5336 33.3679 69.8038 33.0215 68.9003 32.7182C67.0942 32.1118 64.6221 31.6863 61.9669 31.3889C60.0435 31.1735 58.0273 31.0257 56.1036 30.9247C56.0686 31.1896 55.9473 31.4374 55.7563 31.6284C55.5272 31.8575 55.2165 31.9862 54.8925 31.9862C54.5685 31.9862 54.2578 31.8575 54.0287 31.6284C53.8123 31.412 53.6855 31.1228 53.6721 30.8183ZM55.9036 30.9144C55.8717 31.1301 55.7713 31.3313 55.6153 31.4873C55.4236 31.679 55.1636 31.7867 54.8925 31.7867C54.6214 31.7867 54.3614 31.679 54.1697 31.4873C53.9925 31.3101 53.8871 31.0744 53.8722 30.8256C54.5306 30.8498 55.2106 30.8791 55.9036 30.9144ZM55.9147 30.7153C55.2171 30.6797 54.5327 30.6503 53.8704 30.6259V5.70222L53.7352 5.75353C51.3348 6.66502 46.4848 7.43585 36.9528 7.43585C36.6693 7.43585 36.3961 7.43286 36.1264 7.42987L36.1141 7.42973C35.8488 7.42679 35.5867 7.42388 35.3224 7.42388H35.2226V19.2914C35.2226 19.5625 35.115 19.8225 34.9233 20.0142C34.7316 20.2059 34.4716 20.3136 34.2005 20.3136C33.9294 20.3136 33.6694 20.2059 33.4777 20.0142C33.286 19.8225 33.1783 19.5625 33.1783 19.2914V7.3921L33.0813 7.38951C31.2097 7.33968 29.55 7.25947 28.102 7.14893L27.9947 7.14074V10.9381H30.5402C30.8112 10.9381 31.0712 11.0458 31.2629 11.2375C31.4546 11.4292 31.5623 11.6892 31.5623 11.9603C31.5623 12.2314 31.4546 12.4914 31.2629 12.6831C31.0712 12.8748 30.8112 12.9824 30.5402 12.9824H27.9947V18.4986C27.9947 18.7697 27.887 19.0297 27.6953 19.2214C27.5036 19.4131 27.2437 19.5208 26.9726 19.5208C26.7015 19.5208 26.4415 19.4131 26.2498 19.2214C26.0581 19.0297 25.9504 18.7697 25.9504 18.4986V6.93687L25.8591 6.92911C23.9216 6.76439 22.0107 6.3693 20.1667 5.75219L20.0353 5.70823V18.4986C20.0353 18.7697 19.9276 19.0297 19.7359 19.2214C19.5442 19.4131 19.2843 19.5208 19.0132 19.5208C18.7421 19.5208 18.4821 19.4131 18.2904 19.2214C18.0987 19.0297 17.991 18.7697 17.991 18.4986V3.8169C17.991 3.50471 18.1287 3.12544 18.6017 2.7274C19.0776 2.32687 19.8902 1.91048 21.2299 1.53433C23.9087 0.782157 28.663 0.199446 36.9528 0.199446C45.2427 0.199446 49.997 0.782157 52.6758 1.53433C54.0155 1.91048 54.828 2.32687 55.304 2.7274C55.777 3.12544 55.9147 3.50471 55.9147 3.8169V30.7153ZM21.2688 3.81694C23.5374 4.45304 28.7751 5.19208 36.9528 5.19208C45.1305 5.19208 50.3681 4.45305 52.6355 3.81697C50.3651 3.18098 45.121 2.44321 36.9528 2.44321C28.7848 2.44321 23.5393 3.18096 21.2688 3.81694ZM20.8888 3.72182C22.9888 3.05747 28.3682 2.24377 36.9528 2.24377C45.5375 2.24377 50.9154 3.05747 53.0154 3.72182L53.3157 3.81683L53.0154 3.91196C50.9184 4.57633 45.548 5.39153 36.9528 5.39153C28.3577 5.39153 22.9873 4.57633 20.8888 3.91197L20.5884 3.81686L20.8888 3.72182ZM26.6361 35.0577C27.168 35.2739 27.9756 35.5008 29.0397 35.7222C30.2512 35.9742 31.7892 36.2179 33.6193 36.4307C37.2794 36.8563 42.1049 37.1583 47.8187 37.1583C53.5325 37.1583 58.3587 36.8563 62.0194 36.4307C63.8498 36.2179 65.3879 35.9742 66.5995 35.7222C67.6637 35.5008 68.4713 35.2739 69.0028 35.0577C68.4696 34.8411 67.6603 34.6141 66.5945 34.3927C65.3815 34.1407 63.8422 33.8973 62.0113 33.6848C58.3497 33.2597 53.525 32.9585 47.8172 32.9585C42.1094 32.9585 37.2861 33.2597 33.6258 33.6848C31.7956 33.8973 30.2569 34.1407 29.0443 34.3927C27.9787 34.6141 27.1696 34.8411 26.6361 35.0577ZM33.6028 33.4867C37.2717 33.0606 42.1027 32.759 47.8172 32.759C53.5316 32.759 58.3641 33.0606 62.0343 33.4867C63.8694 33.6997 65.4148 33.9439 66.635 34.1974C67.8533 34.4504 68.7537 34.7139 69.2949 34.9673L69.4876 35.0575L69.295 35.1479C68.7556 35.401 67.857 35.6644 66.6401 35.9175C65.4213 36.171 63.877 36.4155 62.0424 36.6288C58.3731 37.0554 53.5391 37.3577 47.8187 37.3577C42.0982 37.3577 37.265 37.0554 33.5962 36.6288C31.7619 36.4155 30.2179 36.171 28.9991 35.9175C27.7823 35.6643 26.8836 35.401 26.3439 35.1479L26.1511 35.0575L26.3439 34.9673C26.8855 34.7139 27.7858 34.4504 29.0037 34.1974C30.2236 33.9439 31.7684 33.6997 33.6028 33.4867ZM25.8781 37.0597L26.0158 37.1164C28.4511 38.1194 32.573 38.688 36.6963 39.0067C40.8152 39.3251 44.9204 39.3931 47.3134 39.4006L47.4128 39.4009V69.7164C47.4128 69.9875 47.5205 70.2475 47.7122 70.4391C47.9039 70.6308 48.1639 70.7385 48.435 70.7385C48.706 70.7385 48.966 70.6308 49.1577 70.4391C49.3494 70.2475 49.4571 69.9875 49.4571 69.7164V62.5263H54.0399C54.311 62.5263 54.571 62.4186 54.7627 62.227C54.9544 62.0353 55.062 61.7753 55.062 61.5042C55.062 61.2331 54.9544 60.9731 54.7627 60.7814C54.571 60.5897 54.311 60.482 54.0399 60.482H49.4616V54.383H54.0399C54.311 54.383 54.571 54.2753 54.7627 54.0836C54.9544 53.8919 55.062 53.6319 55.062 53.3608C55.062 53.0897 54.9544 52.8297 54.7627 52.638C54.571 52.4463 54.311 52.3386 54.0399 52.3386H49.4616V46.2396H54.0399C54.311 46.2396 54.571 46.1319 54.7627 45.9402C54.9544 45.7485 55.062 45.4885 55.062 45.2174C55.062 44.9463 54.9544 44.6863 54.7627 44.4946C54.571 44.3029 54.311 44.1952 54.0399 44.1952H49.4616V39.3927L49.5602 39.3916C51.4425 39.3707 53.9181 39.3139 56.5608 39.1659L56.6661 39.16V69.7119C56.6661 69.983 56.7738 70.243 56.9655 70.4347C57.1572 70.6264 57.4172 70.734 57.6883 70.734C57.9594 70.734 58.2193 70.6264 58.411 70.4347C58.6027 70.243 58.7104 69.983 58.7104 69.7119V39.0199L58.8063 39.0162C62.4825 38.8763 66.1225 38.2367 69.6261 37.1152L69.7562 37.0735V67.2754L69.7185 67.3054C69.5443 67.4436 69.2625 67.582 68.8875 67.7195C68.5103 67.8577 68.0312 67.9976 67.4566 68.1361C66.3072 68.413 64.7696 68.6852 62.8886 68.9251C59.1265 69.4049 53.9851 69.7563 47.8172 69.7563C41.6515 69.7563 36.5112 69.4049 32.7491 68.9251C30.8681 68.6852 29.3303 68.413 28.1803 68.1361C27.6054 67.9976 27.1259 67.8577 26.7484 67.7195C26.3729 67.5821 26.0907 67.4437 25.916 67.3055L25.8781 67.2755V37.0597ZM58.9099 39.2117V69.7119C58.9099 70.0359 58.7812 70.3466 58.5521 70.5757C58.323 70.8048 58.0122 70.9335 57.6883 70.9335C57.3643 70.9335 57.0535 70.8048 56.8244 70.5757C56.5953 70.3466 56.4666 70.0359 56.4666 69.7119V39.3709C53.9055 39.5122 51.5074 39.5684 49.6611 39.5899V43.9958H54.0399C54.3639 43.9958 54.6746 44.1245 54.9037 44.3536C55.1328 44.5827 55.2615 44.8934 55.2615 45.2174C55.2615 45.5414 55.1328 45.8521 54.9037 46.0812C54.6746 46.3103 54.3639 46.439 54.0399 46.439H49.6611V52.1392H54.0399C54.3639 52.1392 54.6746 52.2679 54.9037 52.497C55.1328 52.7261 55.2615 53.0368 55.2615 53.3608C55.2615 53.6848 55.1328 53.9955 54.9037 54.2246C54.6746 54.4537 54.3639 54.5824 54.0399 54.5824H49.6611V60.2826H54.0399C54.3639 60.2826 54.6746 60.4113 54.9037 60.6404C55.1328 60.8695 55.2615 61.1802 55.2615 61.5042C55.2615 61.8282 55.1328 62.1389 54.9037 62.368C54.6746 62.5971 54.3639 62.7258 54.0399 62.7258H49.6566V69.7164C49.6566 70.0404 49.5279 70.3511 49.2988 70.5802C49.0697 70.8093 48.7589 70.938 48.435 70.938C48.111 70.938 47.8002 70.8093 47.5711 70.5802C47.342 70.3511 47.2133 70.0404 47.2133 69.7164V39.5997C44.8049 39.5906 40.7503 39.5201 36.681 39.2056C32.6352 38.8929 28.5604 38.3382 26.0775 37.3564V67.1776C26.2308 67.2878 26.4764 67.4075 26.8169 67.5322C27.185 67.6669 27.6566 67.8048 28.227 67.9422C29.3676 68.2168 30.8978 68.4879 32.7743 68.7272C36.5268 69.2058 41.6586 69.5568 47.8172 69.5568C53.978 69.5568 59.1109 69.2058 62.8634 68.7272C64.7399 68.4879 66.2698 68.2168 67.4099 67.9422C67.98 67.8048 68.4512 67.6669 68.8188 67.5322C69.159 67.4075 69.4041 67.2878 69.5568 67.1777V37.3465C66.1064 38.4383 62.526 39.0656 58.9099 39.2117Z" fill="url(#paint1_linear_0_1)"/>
<path d="M24.4072 53.6869H24.1679C13.0223 53.6869 2.5928 52.9529 2.34648 51.8246V24.482C3.70081 24.9776 5.10373 25.3285 6.53186 25.5291V54.0155C6.53186 54.313 6.65006 54.5984 6.86045 54.8088C7.07085 55.0192 7.3562 55.1374 7.65374 55.1374C7.95129 55.1374 8.23664 55.0192 8.44704 54.8088C8.65743 54.5984 8.77563 54.313 8.77563 54.0155V46.073H11.5699C11.8674 46.073 12.1528 45.9548 12.3632 45.7444C12.5736 45.534 12.6918 45.2487 12.6918 44.9512C12.6918 44.6536 12.5736 44.3683 12.3632 44.1579C12.1528 43.9475 11.8674 43.8293 11.5699 43.8293H8.77563V39.1293H11.5699C11.8674 39.1293 12.1528 39.0111 12.3632 38.8007C12.5736 38.5903 12.6918 38.305 12.6918 38.0074C12.6918 37.7099 12.5736 37.4245 12.3632 37.2141C12.1528 37.0038 11.8674 36.8856 11.5699 36.8856H8.77563V32.1826H11.5699C11.8674 32.1826 12.1528 32.0644 12.3632 31.854C12.5736 31.6436 12.6918 31.3583 12.6918 31.0607C12.6918 30.7632 12.5736 30.4778 12.3632 30.2674C12.1528 30.057 11.8674 29.9388 11.5699 29.9388H8.77563V25.8193C10.3627 25.9958 12.2161 26.1364 14.418 26.2292V54.0155C14.418 54.313 14.5362 54.5984 14.7465 54.8088C14.9569 55.0192 15.2423 55.1374 15.5398 55.1374C15.8374 55.1374 16.1227 55.0192 16.3331 54.8088C16.5435 54.5984 16.6617 54.313 16.6617 54.0155V26.3024C17.9467 26.3339 19.3139 26.3533 20.7992 26.3533C31.4197 26.3533 36.6986 25.4917 39.2565 24.482V31.7618C39.2565 32.0593 39.3747 32.3447 39.5851 32.5551C39.7955 32.7655 40.0808 32.8837 40.3784 32.8837C40.6759 32.8837 40.9613 32.7655 41.1716 32.5551C41.382 32.3447 41.5002 32.0593 41.5002 31.7618V22.3878C41.5002 18.8187 27.0234 18.4328 20.7992 18.4328C14.575 18.4328 0.099723 18.8292 0.099723 22.3983V52.1118C0.099723 53.5882 2.09418 55.9306 24.1649 55.9306H24.4072C24.7048 55.9306 24.9901 55.8124 25.2005 55.6021C25.4109 55.3917 25.5291 55.1063 25.5291 54.8088C25.5291 54.5112 25.4109 54.2259 25.2005 54.0155C24.9901 53.8051 24.7048 53.6869 24.4072 53.6869ZM38.6267 22.3983C36.5639 23.1462 30.621 24.1095 20.7992 24.1095C10.9775 24.1095 5.03601 23.1357 2.97175 22.3983C5.03601 21.6504 10.979 20.687 20.7992 20.687C30.6195 20.687 36.5625 21.6564 38.6267 22.3983Z" fill="url(#paint2_linear_0_1)"/>
<path fill-rule="evenodd" clip-rule="evenodd" d="M8.10313 18.9782C12.5063 18.4322 17.6861 18.3331 20.7992 18.3331C23.9123 18.3331 29.0925 18.4295 33.496 18.9729C35.6968 19.2445 37.7101 19.6284 39.1756 20.1706C39.908 20.4416 40.5103 20.7544 40.9312 21.1177C41.3533 21.4819 41.6 21.9037 41.6 22.3878V31.7618C41.6 32.0858 41.4713 32.3965 41.2422 32.6256C41.0131 32.8547 40.7023 32.9834 40.3784 32.9834C40.0544 32.9834 39.7436 32.8547 39.5145 32.6256C39.2855 32.3965 39.1567 32.0858 39.1567 31.7618V24.6275C36.5311 25.6216 31.2365 26.453 20.7992 26.453C19.3523 26.453 18.0174 26.4346 16.7614 26.4046V53.4765C19.1176 53.5489 21.624 53.5872 24.1679 53.5872H24.4072C24.7312 53.5872 25.0419 53.7159 25.271 53.945C25.5001 54.1741 25.6288 54.4848 25.6288 54.8088C25.6288 55.1328 25.5001 55.4435 25.271 55.6726C25.0419 55.9017 24.7312 56.0304 24.4072 56.0304H24.1649C13.1285 56.0304 7.10234 55.4449 3.83285 54.6719C2.19892 54.2856 1.2428 53.8501 0.693759 53.4091C0.137998 52.9626 0 52.5106 0 52.1118V22.3983C0 21.9142 0.246652 21.4923 0.668676 21.1277C1.08949 20.7642 1.69176 20.4509 2.42408 20.1795C3.88942 19.6363 5.90253 19.2511 8.10313 18.9782ZM16.562 53.4702V26.2003L16.6642 26.2028C17.9484 26.2341 19.3147 26.2536 20.7992 26.2536C31.419 26.2536 36.6811 25.3914 39.2199 24.3892L39.3562 24.3354V31.7618C39.3562 32.0329 39.4639 32.2929 39.6556 32.4846C39.8473 32.6763 40.1073 32.7839 40.3784 32.7839C40.6494 32.7839 40.9094 32.6763 41.1011 32.4846C41.2928 32.2929 41.4005 32.0329 41.4005 31.7618V22.3878C41.4005 21.9797 41.1948 21.6086 40.8009 21.2687C40.4057 20.9276 39.8284 20.6248 39.1064 20.3577C37.663 19.8237 35.6681 19.4419 33.4716 19.1709C29.0807 18.629 23.9104 18.5325 20.7992 18.5325C17.6881 18.5325 12.5182 18.6316 8.12767 19.1761C5.93141 19.4485 3.93669 19.8315 2.4934 20.3665C1.77141 20.6341 1.19418 20.9373 0.799054 21.2786C0.405147 21.6189 0.199446 21.9901 0.199446 22.3983V52.1118C0.199446 52.4511 0.310756 52.8456 0.818665 53.2536C1.3333 53.667 2.25521 54.094 3.87874 54.4778C4.71328 54.6751 5.73039 54.8604 6.96861 55.0269C6.90496 54.9838 6.84508 54.9344 6.78994 54.8793C6.56084 54.6502 6.43214 54.3395 6.43214 54.0155V53.0115C5.60136 52.9124 4.87551 52.8049 4.27387 52.6895C3.67854 52.5754 3.20052 52.4528 2.86167 52.3215C2.6925 52.256 2.55351 52.1866 2.45104 52.1121C2.35036 52.0389 2.27209 51.9514 2.24905 51.8458L2.24676 51.8353V24.3393L2.38075 24.3884C3.72848 24.8815 5.12456 25.2308 6.54573 25.4303L6.63158 25.4424V52.8342C7.2577 52.9067 7.94172 52.9746 8.6759 53.0377V45.9733H11.5699C11.841 45.9733 12.101 45.8656 12.2926 45.6739C12.4843 45.4822 12.592 45.2223 12.592 44.9512C12.592 44.6801 12.4843 44.4201 12.2926 44.2284C12.101 44.0367 11.841 43.929 11.5699 43.929H8.6759V39.0296H11.5699C11.841 39.0296 12.101 38.9219 12.2926 38.7302C12.4843 38.5385 12.592 38.2785 12.592 38.0074C12.592 37.7363 12.4843 37.4764 12.2926 37.2847C12.101 37.093 11.841 36.9853 11.5699 36.9853H8.6759V32.0829H11.5699C11.841 32.0829 12.101 31.9752 12.2926 31.7835C12.4843 31.5918 12.592 31.3318 12.592 31.0607C12.592 30.7896 12.4843 30.5296 12.2926 30.338C12.101 30.1463 11.841 30.0386 11.5699 30.0386H8.6759V25.7079L8.78665 25.7202C10.3711 25.8964 12.2221 26.0369 14.4222 26.1295L14.5177 26.1335V53.3952C15.1837 53.4232 15.8661 53.4482 16.562 53.4702ZM14.5177 53.5949C15.1838 53.6228 15.8662 53.6478 16.562 53.6698V54.0155C16.562 54.2866 16.4543 54.5466 16.2626 54.7383C16.0709 54.9299 15.8109 55.0376 15.5398 55.0376C15.2687 55.0376 15.0088 54.9299 14.8171 54.7383C14.6254 54.5466 14.5177 54.2866 14.5177 54.0155V53.5949ZM14.3182 53.5864V54.0155C14.3182 54.3395 14.4469 54.6502 14.676 54.8793C14.9051 55.1084 15.2159 55.2371 15.5398 55.2371C15.8638 55.2371 16.1746 55.1084 16.4036 54.8793C16.6327 54.6502 16.7614 54.3395 16.7614 54.0155V53.676C19.1183 53.7484 21.6245 53.7866 24.1679 53.7866H24.4072C24.6783 53.7866 24.9383 53.8943 25.13 54.086C25.3217 54.2777 25.4294 54.5377 25.4294 54.8088C25.4294 55.0799 25.3217 55.3398 25.13 55.5315C24.9383 55.7232 24.6783 55.8309 24.4072 55.8309H24.1649C16.7696 55.8309 11.6328 55.5678 8.07195 55.1633C8.23786 55.1028 8.3903 55.0065 8.51755 54.8793C8.74665 54.6502 8.87535 54.3395 8.87535 54.0155V53.2548C8.97011 53.2627 9.06565 53.2705 9.16197 53.2783C10.7039 53.4024 12.4446 53.5059 14.3182 53.5864ZM14.3182 53.3868V26.3247C12.2071 26.2341 10.4172 26.0992 8.87535 25.9306V29.8391H11.5699C11.8939 29.8391 12.2046 29.9678 12.4337 30.1969C12.6628 30.426 12.7915 30.7367 12.7915 31.0607C12.7915 31.3847 12.6628 31.6954 12.4337 31.9245C12.2046 32.1536 11.8939 32.2823 11.5699 32.2823H8.87535V36.7858H11.5699C11.8939 36.7858 12.2046 36.9145 12.4337 37.1436C12.6628 37.3727 12.7915 37.6834 12.7915 38.0074C12.7915 38.3314 12.6628 38.6422 12.4337 38.8713C12.2046 39.1003 11.8939 39.229 11.5699 39.229H8.87535V43.7295H11.5699C11.8939 43.7295 12.2046 43.8582 12.4337 44.0873C12.6628 44.3164 12.7915 44.6272 12.7915 44.9512C12.7915 45.2751 12.6628 45.5859 12.4337 45.815C12.2046 46.0441 11.8939 46.1728 11.5699 46.1728H8.87535V53.0546C8.97534 53.063 9.07621 53.0713 9.17797 53.0795C10.7149 53.2032 12.4502 53.3064 14.3182 53.3868ZM8.6759 53.2379C7.94299 53.1751 7.25894 53.1073 6.63158 53.0349V54.0155C6.63158 54.2866 6.73927 54.5466 6.93097 54.7383C7.12266 54.9299 7.38265 55.0376 7.65374 55.0376C7.92484 55.0376 8.18483 54.9299 8.37652 54.7383C8.56821 54.5466 8.6759 54.2866 8.6759 54.0155V53.2379ZM6.43214 52.8107V25.6156C5.07369 25.419 3.73838 25.0868 2.44621 24.6242V51.8119C2.45703 51.8468 2.49039 51.8941 2.56834 51.9508C2.65115 52.011 2.77238 52.0731 2.93373 52.1356C3.25592 52.2604 3.7202 52.3803 4.31142 52.4936C4.90202 52.6069 5.61501 52.7128 6.43214 52.8107ZM3.28364 22.3977C5.55707 23.1158 11.3918 24.0098 20.7992 24.0098C30.2085 24.0098 36.0447 23.1251 38.3157 22.3987C36.0431 21.6769 30.2068 20.7868 20.7992 20.7868C11.3924 20.7868 5.55657 21.6713 3.28364 22.3977ZM2.93778 22.3045C5.01939 21.5503 10.9772 20.5873 20.7992 20.5873C30.6214 20.5873 36.579 21.5563 38.6604 22.3044L38.9204 22.3979L38.6607 22.492C36.5806 23.2463 30.6227 24.2093 20.7992 24.2093C10.9754 24.2093 5.01945 23.2357 2.9382 22.4922L2.67718 22.399L2.93778 22.3045Z" fill="url(#paint3_linear_0_1)"/>
</g>
</g>
</g>
</g>
</g>
<defs>
<linearGradient id="paint0_linear_0_1" x1="0" y1="0" x2="71.2923" y2="72.694" gradientUnits="userSpaceOnUse">
<stop stop-color="#E98135"/>
<stop offset="1" stop-color="#48389C"/>
</linearGradient>
<linearGradient id="paint1_linear_0_1" x1="0" y1="0" x2="71.2923" y2="72.694" gradientUnits="userSpaceOnUse">
<stop stop-color="#E98135"/>
<stop offset="1" stop-color="#48389C"/>
</linearGradient>
<linearGradient id="paint2_linear_0_1" x1="0" y1="0" x2="71.2923" y2="72.694" gradientUnits="userSpaceOnUse">
<stop stop-color="#E98135"/>
<stop offset="1" stop-color="#48389C"/>
</linearGradient>
<linearGradient id="paint3_linear_0_1" x1="0" y1="0" x2="71.2923" y2="72.694" gradientUnits="userSpaceOnUse">
<stop stop-color="#E98135"/>
<stop offset="1" stop-color="#48389C"/>
</linearGradient>
<clipPath id="clip0_0_1">
<rect width="1920" height="2615" fill="white" transform="translate(-764 -1204)"/>
</clipPath>
</defs>
</svg>
