<svg width="72" height="72" viewBox="0 0 72 72" fill="none" xmlns="http://www.w3.org/2000/svg">
<path d="M68.6532 51.9198V32.6451H53.9234V40.3078H38.1275V51.9198L34.7609 54.4347L39.7466 72H67.0045L72 54.5428L68.6532 51.9198ZM57.8724 51.6152L67.8436 59.2288L64.9806 69.2591H54.7527V47.5382H52.0476V69.2886H41.8395L38.9864 59.2485L48.9477 51.6447L47.2991 49.4933L38.1868 56.4486L37.9103 55.4662L53.5186 43.815L68.9099 55.6038L68.6433 56.5174L59.5311 49.562L57.8724 51.6152ZM40.8523 49.8665V42.9897H50.0436L40.8523 49.8665ZM65.9185 43.9721H62.3842V46.6737H65.9185V49.8665L56.9148 42.9897H65.9185V43.9721ZM65.9185 38.2841V40.2489H56.6483V35.3369H65.9284V35.5923H62.394V38.2841H65.9185Z" fill="url(#paint0_linear_62_6)"/>
<path d="M40.7042 25.729L37.9991 28.4208H35.0374V38.3528H49.0661V28.4208H46.1044L43.3994 25.729V15.3549H51.7713V8.96931H41.8395L14.5915 0L4.23533 8.96931H0V15.3549H6.19006V63.7577H2.24107V71.9803H25.3229V63.7577H21.3739V27.9984H24.0691C25.4149 27.9984 26.7056 27.4663 27.6573 26.5194C28.6089 25.5724 29.1436 24.288 29.1436 22.9488V15.3549H40.6943L40.7042 25.729ZM26.4385 22.546V22.9488C26.4385 23.2572 26.3774 23.5625 26.2588 23.8473C26.1402 24.1322 25.9665 24.3911 25.7474 24.6091C25.5283 24.8271 25.2681 25 24.9819 25.118C24.6956 25.236 24.3888 25.2968 24.079 25.2968H21.3048V15.3549H21.7689V22.546H26.4385ZM26.4385 15.3647V19.8444H24.464V15.3647H26.4385ZM8.87534 57.323V50.1809L16.6845 53.7568L8.87534 57.323ZM18.5799 55.8592V63.0013L10.7709 59.4351L18.5799 55.8592ZM8.87534 45.9664V38.8244L16.6845 42.3905L8.87534 45.9664ZM18.5799 44.5027V51.6447L10.7709 48.0786L18.5799 44.5027ZM8.87534 34.6099V27.4678L16.6845 31.0438L8.87534 34.6099ZM18.5799 33.1461V40.2881L10.7709 36.7221L18.5799 33.1461ZM8.87534 23.2534V16.1113L16.6845 19.6774L8.87534 23.2534ZM18.5799 21.7896V28.9316L10.7709 25.3557L18.5799 21.7896ZM13.7228 15.3549H18.5799V17.5358L13.7228 15.3549ZM8.87534 63.7577V61.5374L13.7326 63.7577H8.87534ZM4.92635 69.2886V66.4593H22.5685V69.2886H4.92635ZM8.35207 8.96931L13.5252 4.48951V8.96931H8.35207ZM33.1912 8.96931H16.2501V3.38923L33.1912 8.96931ZM46.3611 31.2894H42.8268V33.9811H46.3611V35.6807H37.7721V31.1518H46.3611V31.2894ZM41.8395 28.4502L42.0666 28.2243L42.2936 28.4502H41.8395ZM49.076 11.7003V12.6827H2.6754V11.7003H49.076Z" fill="url(#paint1_linear_62_6)"/>
<defs>
<linearGradient id="paint0_linear_62_6" x1="0" y1="0" x2="71.2923" y2="72.694" gradientUnits="userSpaceOnUse">
<stop stop-color="#E98135"/>
<stop offset="1" stop-color="#48389C"/>
</linearGradient>
<linearGradient id="paint1_linear_62_6" x1="0" y1="0" x2="71.2923" y2="72.694" gradientUnits="userSpaceOnUse">
<stop stop-color="#E98135"/>
<stop offset="1" stop-color="#48389C"/>
</linearGradient>
</defs>
</svg>
