<svg width="72" height="73" viewBox="0 0 72 73" fill="none" xmlns="http://www.w3.org/2000/svg">
<path d="M68.84 38.82C66.9035 36.4178 64.2576 34.6889 61.28 33.88L59.41 29.19L62.06 25.48C63.7785 23.0704 64.8005 20.2342 65.0139 17.2822C65.2272 14.3303 64.6238 11.3766 63.2697 8.74488C61.9157 6.11316 59.8632 3.90502 57.3373 2.3625C54.8114 0.819972 51.9096 0.00260753 48.95 0C44.8742 0.00903662 40.8332 0.750841 37.02 2.19L35.14 2.9C34.5318 2.54744 33.8429 2.35798 33.14 2.35001H29.39C27.7748 2.35001 26.2258 2.99162 25.0837 4.13372C23.9416 5.27582 23.3 6.82483 23.3 8.44C23.2952 8.77511 23.322 9.10993 23.38 9.44H23.3C22.4093 10.0343 21.723 10.8882 21.334 11.8857C20.9451 12.8833 20.8723 13.9764 21.1255 15.0167C21.3788 16.0571 21.9459 16.9944 22.7499 17.7016C23.5539 18.4087 24.5558 18.8516 25.62 18.97L30.57 19.52C30.62 19.68 30.68 19.83 30.74 19.98L31.14 20.98C30.743 21.3376 30.4644 21.8075 30.3411 22.3274C30.2179 22.8472 30.2558 23.3923 30.45 23.89L32.35 28.64C32.5291 29.0928 32.8405 29.481 33.2437 29.754C33.6469 30.0269 34.1231 30.1719 34.61 30.17H34.78L35.28 31.44C35.9449 33.1332 37.1074 34.5852 38.614 35.6045C40.1207 36.6239 41.9009 37.1627 43.72 37.15H44.36C46.2691 37.1541 48.1308 36.5557 49.68 35.44L51.82 39.01C49.8775 41.5517 48.8234 44.661 48.82 47.86V58.09H39.41C39.4856 57.7045 39.5257 57.3128 39.53 56.92C39.5213 51.6598 37.6492 46.5728 34.246 42.5618C30.8428 38.5508 26.1286 35.8753 20.94 35.01V34.86C20.94 34.62 20.94 34.39 20.94 34.16L28.59 31.6C29.0752 31.4428 29.4977 31.135 29.7961 30.7215C30.0946 30.3079 30.2536 29.81 30.25 29.3C30.2537 28.9884 30.1959 28.6792 30.08 28.39L28.17 23.61C27.9909 23.1572 27.6794 22.769 27.2762 22.496C26.873 22.2231 26.3969 22.0781 25.91 22.08C25.5655 22.0777 25.2245 22.1493 24.91 22.29L15.6 26.43C14.3604 25.8563 13.0095 25.563 11.6436 25.5711C10.2777 25.5791 8.93033 25.8882 7.69754 26.4764C6.46475 27.0647 5.37683 27.9175 4.51129 28.9742C3.64576 30.0309 3.0239 31.2655 2.69 32.59C2.32982 32.6653 1.99143 32.8215 1.70041 33.0467C1.40938 33.2719 1.17333 33.5602 1.01001 33.89L0.339996 35.23C0.169595 35.5681 0.0805511 35.9414 0.0799866 36.32C0.0805532 36.681 0.160609 37.0375 0.314423 37.3642C0.468236 37.6908 0.69205 37.9796 0.970001 38.21L0.26001 40.01C0.140153 40.2949 0.0789112 40.601 0.0799866 40.91V41.04C0.0802196 41.4828 0.201457 41.9171 0.430573 42.2961C0.659688 42.675 0.98799 42.9841 1.38 43.19L2.73001 43.86C3.05016 44.0489 3.40937 44.1618 3.78 44.19C4.0999 44.1926 4.41675 44.1279 4.70999 44C4.79546 44.3393 4.95318 44.6561 5.17236 44.9288C5.39155 45.2014 5.66706 45.4236 5.98001 45.58L7.32999 46.25C7.6681 46.4204 8.04139 46.5094 8.42001 46.51C8.74275 46.5087 9.06207 46.4441 9.35999 46.32C9.4423 46.6606 9.59882 46.9788 9.81836 47.252C10.0379 47.5251 10.3151 47.7464 10.63 47.9L11.98 48.58C12.2821 48.7282 12.6114 48.8126 12.9475 48.8279C13.2836 48.8432 13.6193 48.7892 13.9336 48.6691C14.2479 48.549 14.5341 48.3655 14.7743 48.1299C15.0146 47.8944 15.2037 47.6119 15.33 47.3L16.71 43.84C17.0044 43.6672 17.2571 43.4317 17.45 43.15L18.22 43.23C20.5135 43.465 22.6972 44.3302 24.5293 45.7299C26.3614 47.1295 27.7703 49.009 28.6 51.16H2.35001C1.7347 51.16 1.14459 51.4044 0.709503 51.8395C0.274419 52.2746 0.0299988 52.8647 0.0299988 53.48V55.8C0.0299988 56.4153 0.274419 57.0054 0.709503 57.4405C1.14459 57.8756 1.7347 58.12 2.35001 58.12H28.02C28.3043 59.5148 29.0907 60.7567 30.23 61.61C29.0934 62.4615 28.3074 63.6992 28.02 65.09H18.61V62.77C18.61 62.1547 18.3656 61.5646 17.9305 61.1295C17.4954 60.6944 16.9053 60.45 16.29 60.45H9.29001C8.67471 60.45 8.08459 60.6944 7.64951 61.1295C7.21442 61.5646 6.97 62.1547 6.97 62.77V65.09H2.32001C1.7047 65.09 1.11459 65.3344 0.679504 65.7695C0.24442 66.2046 0 66.7947 0 67.41V69.74C0 70.3553 0.24442 70.9454 0.679504 71.3805C1.11459 71.8156 1.7047 72.06 2.32001 72.06H72V47.9C72.0067 44.6026 70.8925 41.4008 68.84 38.82ZM23.26 13.82C23.2608 13.4187 23.3437 13.0218 23.5036 12.6538C23.6635 12.2858 23.8971 11.9544 24.19 11.68C24.4365 12.0644 24.7213 12.4229 25.04 12.75L25.92 13.62L27.56 11.98L26.68 11.1C26.3296 10.7516 26.0519 10.337 25.8631 9.88039C25.6742 9.42375 25.578 8.93414 25.58 8.44C25.58 7.44014 25.9772 6.48122 26.6842 5.77421C27.3912 5.0672 28.3501 4.67001 29.35 4.67001H33.1C33.5704 4.67265 34.0205 4.86135 34.3522 5.19488C34.6839 5.52841 34.87 5.97965 34.87 6.45C34.8674 6.90272 34.6864 7.33614 34.3662 7.65626C34.0461 7.97638 33.6127 8.15738 33.16 8.16C32.8359 8.15756 32.5194 8.06199 32.2481 7.88469C31.9769 7.70739 31.7623 7.45584 31.63 7.16L31.26 6.43L29.19 7.43L29.55 8.16C30.0141 9.12407 30.8422 9.86427 31.8521 10.2178C32.862 10.5713 33.9709 10.5091 34.935 10.045C35.8991 9.58088 36.6393 8.75278 36.9928 7.7429C37.3463 6.73301 37.2841 5.62407 36.82 4.66L37.82 4.28C41.376 2.94923 45.1432 2.27169 48.94 2.28C51.4918 2.26439 53.998 2.95718 56.1795 4.28127C58.361 5.60535 60.1323 7.50879 61.2963 9.77975C62.4603 12.0507 62.9713 14.6001 62.7724 17.1443C62.5736 19.6884 61.6727 22.1275 60.17 24.19L57.59 27.81C56.3527 27.5612 55.1779 27.0666 54.1352 26.3555C53.0925 25.6444 52.2032 24.7312 51.52 23.67C52.1251 23.1787 52.6126 22.5582 52.9466 21.8539C53.2806 21.1496 53.4526 20.3795 53.45 19.6C53.4487 18.7881 53.2605 17.9875 52.9 17.26L52.85 17.16C53.2392 16.7063 53.4521 16.1277 53.45 15.53C53.4511 15.1372 53.3586 14.7498 53.18 14.4L52.54 13.12C52.3329 12.7 52.0124 12.3463 51.6148 12.0989C51.2172 11.8515 50.7583 11.7202 50.29 11.72C49.8972 11.7189 49.5098 11.8114 49.16 11.99L47.58 12.78C46.9941 12.0855 46.2638 11.527 45.44 11.1436C44.6162 10.7602 43.7187 10.5611 42.81 10.56C42.0584 10.558 41.3128 10.6936 40.61 10.96L32.68 13.96C32.486 14.0368 32.2786 14.0742 32.07 14.07C31.7417 14.0696 31.4203 13.9752 31.1438 13.798C30.8674 13.6208 30.6475 13.3682 30.51 13.07L30.15 12.35L28.07 13.35L28.43 14.07C28.8514 14.9243 29.5592 15.6038 30.43 15.99C30.3221 16.3885 30.2584 16.7976 30.24 17.21L25.84 16.73C25.1319 16.6492 24.4781 16.3113 24.0025 15.7805C23.527 15.2496 23.2628 14.5627 23.26 13.85V13.82ZM33.16 19.91L32.85 19.15C32.6515 18.6469 32.5497 18.1108 32.55 17.57C32.5472 17.1002 32.625 16.6335 32.78 16.19C33.0107 16.1419 33.2378 16.0785 33.46 16L41.39 13C41.832 12.8372 42.299 12.7527 42.77 12.75C43.7285 12.761 44.6511 13.1159 45.37 13.75L33.12 19.88L33.16 19.91ZM32.57 23.08C32.5606 23.0473 32.5606 23.0127 32.57 22.98C32.5704 22.93 32.5845 22.8811 32.611 22.8388C32.6375 22.7964 32.6752 22.7622 32.72 22.74L50.22 13.99C50.2669 13.9675 50.3205 13.9633 50.3704 13.978C50.4203 13.9928 50.4629 14.0256 50.49 14.07L51.13 15.36C51.1347 15.3898 51.1347 15.4202 51.13 15.45C51.1305 15.4848 51.1214 15.519 51.1038 15.549C51.0862 15.579 51.0606 15.6035 51.03 15.62L43.03 20.21V20.88C43.0304 21.7104 42.7996 22.5244 42.3633 23.2309C41.927 23.9375 41.3026 24.5085 40.56 24.88L34.65 27.88C34.6363 27.8865 34.6214 27.8901 34.6062 27.8906C34.5911 27.8911 34.576 27.8884 34.5619 27.8828C34.5478 27.8772 34.535 27.8687 34.5244 27.8579C34.5137 27.8471 34.5054 27.8342 34.5 27.82L32.6 23.07L32.57 23.08ZM49.15 32.89C48.5224 33.5221 47.7762 34.0241 46.9543 34.3673C46.1323 34.7105 45.2507 34.8881 44.36 34.89H43.72C42.3662 34.894 41.0427 34.4895 39.9223 33.7295C38.802 32.9695 37.9369 31.8893 37.44 30.63L36.93 29.35L41.56 27.03C42.5859 26.5218 43.4662 25.7617 44.1185 24.8208C44.7709 23.8799 45.1739 22.789 45.29 21.65L50.89 18.44C51.1858 19.123 51.2087 19.8935 50.9539 20.5929C50.6991 21.2923 50.1859 21.8674 49.52 22.2L48.41 22.76L48.93 23.76C49.7259 25.3687 50.8812 26.7727 52.3066 27.8634C53.732 28.9541 55.3892 29.7023 57.15 30.05H57.25L58.86 34.05C56.8507 34.7076 55.0059 35.7886 53.45 37.22L50.2 31.79L49.15 32.85V32.89ZM41.84 60.42V69.71H39.52V60.42H41.84ZM25.84 24.42H25.91C25.9324 24.417 25.9552 24.4225 25.9737 24.4355C25.9922 24.4484 26.0052 24.4679 26.01 24.49L27.92 29.27C27.9265 29.283 27.93 29.2972 27.9304 29.3117C27.9308 29.3262 27.928 29.3406 27.9223 29.3539C27.9166 29.3672 27.9081 29.3791 27.8973 29.3888C27.8866 29.3985 27.8738 29.4057 27.86 29.41L25.86 30.09L23.86 25.34L25.84 24.42ZM21.66 26.27L23.61 30.82L20.47 31.82C19.9513 30.3186 19.0602 28.9733 17.88 27.91L21.66 26.27ZM11.66 27.89C13.5165 27.89 15.297 28.6275 16.6097 29.9403C17.9225 31.253 18.66 33.0335 18.66 34.89H9.37L4.97 33.05C5.3717 31.5837 6.23986 30.288 7.44324 29.3589C8.64661 28.4298 10.1198 27.9176 11.64 27.9L11.66 27.89ZM2.38998 36.27L3.06 34.93C3.06847 34.9081 3.08373 34.8895 3.10352 34.8769C3.12331 34.8644 3.14661 34.8584 3.17001 34.86H3.32999L16.23 40.24C16.2464 40.244 16.2616 40.2518 16.2746 40.2627C16.2875 40.2735 16.2977 40.2872 16.3045 40.3027C16.3113 40.3182 16.3144 40.335 16.3136 40.3519C16.3128 40.3688 16.3082 40.3852 16.3 40.4L15.63 41.74C15.6178 41.7611 15.6003 41.7787 15.5793 41.7909C15.5582 41.8032 15.5344 41.8098 15.51 41.81H15.36L2.45001 36.43C2.42194 36.4152 2.39971 36.3913 2.38699 36.3623C2.37428 36.3332 2.37181 36.3007 2.38 36.27H2.38998ZM3.79001 41.81L2.44 41.14C2.42046 41.1311 2.40364 41.1172 2.39133 41.0996C2.37901 41.082 2.37165 41.0614 2.37 41.04V40.87L3.04001 39.2L4.67999 39.89L3.92999 41.76C3.91542 41.7855 3.89268 41.8052 3.86545 41.8161C3.83822 41.827 3.8081 41.8284 3.78 41.82L3.79001 41.81ZM8.42999 44.14L7.07999 43.46C7.06162 43.4506 7.04625 43.4363 7.03564 43.4186C7.02504 43.4009 7.01961 43.3806 7.01999 43.36V43.23L7.82001 41.23L9.45001 41.92L8.57001 44.12C8.55892 44.1461 8.53815 44.167 8.51205 44.1781C8.48596 44.1893 8.45656 44.19 8.42999 44.18V44.14ZM13.08 46.46L11.73 45.78C11.7106 45.7739 11.6934 45.762 11.6809 45.746C11.6684 45.7299 11.6611 45.7104 11.66 45.69V45.55L12.59 43.23L14.23 43.91L13.23 46.44C13.2246 46.4542 13.2163 46.4671 13.2056 46.4779C13.195 46.4887 13.1822 46.4972 13.1681 46.5028C13.154 46.5084 13.1389 46.5111 13.1238 46.5106C13.1086 46.5101 13.0937 46.5065 13.08 46.5V46.46ZM18.57 40.89C18.6947 40.3299 18.6188 39.7439 18.3557 39.234C18.0925 38.7242 17.6587 38.3228 17.13 38.1L14.92 37.18H19.78C23.7163 37.6756 27.4148 39.336 30.401 41.948C33.3872 44.5601 35.5249 48.0047 36.54 51.84C35.6777 51.3599 34.7069 51.1086 33.72 51.11H31.11C30.238 48.37 28.5867 45.9434 26.358 44.1266C24.1292 42.3099 21.4195 41.1817 18.56 40.88L18.57 40.89ZM29.09 53.44C28.571 54.1251 28.2122 54.9179 28.04 55.76H2.35001V53.44H29.09ZM30.25 56.92C30.252 56.2321 30.4578 55.5603 30.8413 54.9893C31.2249 54.4184 31.7691 53.9739 32.4052 53.712C33.0412 53.4502 33.7406 53.3827 34.415 53.5181C35.0894 53.6535 35.7086 53.9857 36.1942 54.4728C36.6799 54.9599 37.0104 55.58 37.1439 56.2548C37.2773 56.9295 37.2078 57.6287 36.9441 58.264C36.6804 58.8993 36.2344 59.4423 35.6624 59.8242C35.0903 60.2062 34.4179 60.41 33.73 60.41C33.2713 60.4126 32.8166 60.3246 32.3921 60.1509C31.9676 59.9772 31.5816 59.7212 31.2563 59.3978C30.931 59.0744 30.6729 58.6899 30.4968 58.2664C30.3207 57.8428 30.23 57.3887 30.23 56.93L30.25 56.92ZM9.34 62.73H16.34V65.05H9.34V62.73ZM2.34 67.37H28.01C28.1801 68.2158 28.539 69.0123 29.06 69.7H2.35001V67.37H2.34ZM30.23 66.19C30.23 65.2671 30.5966 64.3819 31.2493 63.7293C31.9019 63.0766 32.787 62.71 33.71 62.71H37.19V69.71H33.71C32.7861 69.7074 31.901 69.3385 31.2487 68.6843C30.5963 68.0301 30.23 67.1439 30.23 66.22V66.19ZM69.71 69.68H63.49C64.7074 68.7034 65.6899 67.4659 66.365 66.0587C67.04 64.6515 67.3903 63.1107 67.39 61.55V45.8C67.39 45.1282 67.2565 44.4632 66.9973 43.8435C66.7381 43.2237 66.3583 42.6617 65.88 42.19L64.24 43.83C64.5056 44.09 64.7154 44.4015 64.8564 44.7454C64.9974 45.0893 65.0667 45.4584 65.06 45.83V61.61C65.0574 63.7654 64.1999 65.8318 62.6758 67.3559C61.1517 68.8799 59.0854 69.7374 56.93 69.74H44.16V60.45H56.45C56.8214 60.4451 57.1899 60.5152 57.5336 60.6561C57.8773 60.797 58.189 61.0058 58.45 61.27L60.09 59.63C59.6146 59.1511 59.0491 58.7711 58.426 58.5119C57.803 58.2528 57.1348 58.1195 56.46 58.12H55.78V49.8C55.7857 47.9355 56.2718 46.1039 57.1914 44.4819C58.111 42.86 59.433 41.5023 61.03 40.54L59.83 38.54C57.8919 39.7108 56.2878 41.3607 55.1721 43.3311C54.0565 45.3014 53.4669 47.5258 53.46 49.79V58.11H51.14V47.9C51.1276 45.1683 52.0384 42.5125 53.7247 40.3634C55.4109 38.2143 57.7738 36.6978 60.43 36.06C63.0862 36.6978 65.449 38.2143 67.1353 40.3634C68.8216 42.5125 69.7324 45.1683 69.72 47.9V69.71L69.71 69.68Z" fill="url(#paint0_linear_83_577)"/>
<path d="M33.7098 58.1C34.3505 58.1 34.8698 57.5806 34.8698 56.94C34.8698 56.2993 34.3505 55.78 33.7098 55.78C33.0692 55.78 32.5498 56.2993 32.5498 56.94C32.5498 57.5806 33.0692 58.1 33.7098 58.1Z" fill="url(#paint1_linear_83_577)"/>
<defs>
<linearGradient id="paint0_linear_83_577" x1="-0.459963" y1="-0.190001" x2="70.8331" y2="72.5033" gradientUnits="userSpaceOnUse">
<stop stop-color="#E98135"/>
<stop offset="1" stop-color="#48389C"/>
</linearGradient>
<linearGradient id="paint1_linear_83_577" x1="-0.459963" y1="-0.190001" x2="70.8331" y2="72.5033" gradientUnits="userSpaceOnUse">
<stop stop-color="#E98135"/>
<stop offset="1" stop-color="#48389C"/>
</linearGradient>
</defs>
</svg>
