<svg width="73" height="71" viewBox="0 0 73 71" fill="none" xmlns="http://www.w3.org/2000/svg">
<path d="M19.38 34.14C20.1554 34.14 20.8992 33.8327 21.4483 33.2854C21.9975 32.7381 22.3074 31.9954 22.31 31.22C22.3091 30.836 22.2344 30.4558 22.09 30.1C22.4825 29.8302 22.8032 29.4688 23.0245 29.0472C23.2458 28.6255 23.361 28.1562 23.3601 27.68C23.3598 27.3386 23.2989 27 23.1801 26.68C23.5793 26.4399 23.9156 26.1081 24.1609 25.712C24.4063 25.3159 24.5536 24.8671 24.5908 24.4027C24.628 23.9383 24.5539 23.4717 24.3746 23.0416C24.1953 22.6116 23.9161 22.2305 23.56 21.93C23.7791 21.4834 23.8808 20.9883 23.8555 20.4915C23.8303 19.9947 23.679 19.5125 23.4159 19.0903C23.1528 18.6681 22.7865 18.3199 22.3516 18.0784C21.9167 17.8369 21.4275 17.7101 20.9301 17.71H16.2901C16.3491 17.5245 16.3893 17.3336 16.41 17.14C16.415 17.0868 16.415 17.0332 16.41 16.98V14.11C16.41 12.6239 15.8204 11.1985 14.7705 10.1467C13.7205 9.09488 12.2962 8.50266 10.81 8.50001C10.5024 8.50001 10.2074 8.62222 9.98982 8.83977C9.77228 9.05731 9.65004 9.35236 9.65004 9.66001V13.38C9.65004 15.38 8.06005 16.5 6.23005 17.8L5.49006 18.32H1.16005C0.852396 18.32 0.557338 18.4422 0.339795 18.6598C0.122253 18.8773 4.30998e-05 19.1724 4.30998e-05 19.48V31.69C-0.0012774 31.8432 0.0277578 31.9951 0.0854618 32.137C0.143166 32.2789 0.228408 32.408 0.336255 32.5167C0.444103 32.6255 0.572425 32.7118 0.713819 32.7708C0.855212 32.8297 1.00687 32.86 1.16005 32.86H5.42006C6.84379 34.1475 8.71155 34.8322 10.63 34.77C12.3107 34.705 13.9831 34.5009 15.63 34.16L15.9601 34.11C16.1551 34.142 16.3524 34.1587 16.5501 34.16L19.38 34.14ZM19.38 31.82H16.53C16.3708 31.8175 16.2185 31.7538 16.105 31.6421C15.9914 31.5304 15.9252 31.3792 15.9201 31.22C15.9239 31.0591 15.9881 30.9056 16.1 30.79C16.1561 30.7328 16.223 30.6875 16.2969 30.6565C16.3707 30.6256 16.45 30.6098 16.53 30.61H19.38C19.466 30.5989 19.5534 30.6063 19.6363 30.6316C19.7192 30.657 19.7957 30.6997 19.8608 30.7569C19.9259 30.8142 19.9781 30.8847 20.0138 30.9636C20.0495 31.0426 20.068 31.1283 20.068 31.215C20.068 31.3017 20.0495 31.3874 20.0138 31.4664C19.9781 31.5454 19.9259 31.6158 19.8608 31.6731C19.7957 31.7303 19.7192 31.773 19.6363 31.7984C19.5534 31.8237 19.466 31.8311 19.38 31.82ZM20.4301 28.29H16.53C16.3691 28.2874 16.2154 28.2223 16.1016 28.1085C15.9877 27.9947 15.9226 27.841 15.9201 27.68C15.9227 27.52 15.9881 27.3674 16.1022 27.2551C16.2163 27.1429 16.37 27.08 16.53 27.08H20.4301C20.5901 27.08 20.7438 27.1429 20.8579 27.2551C20.972 27.3674 21.0374 27.52 21.0401 27.68C21.0375 27.841 20.9724 27.9947 20.8585 28.1085C20.7447 28.2223 20.591 28.2874 20.4301 28.29ZM22.28 24.15C22.2775 24.311 22.2124 24.4647 22.0985 24.5785C21.9847 24.6923 21.831 24.7574 21.6701 24.76H15.78C15.6183 24.76 15.4631 24.6957 15.3487 24.5813C15.2343 24.4669 15.1701 24.3118 15.1701 24.15C15.1701 23.9882 15.2343 23.8331 15.3487 23.7187C15.4631 23.6043 15.6183 23.54 15.78 23.54H21.6701C21.8328 23.54 21.989 23.6039 22.105 23.7181C22.221 23.8322 22.2874 23.9873 22.2901 24.15H22.28ZM20.9301 20.01C21.016 19.9989 21.1034 20.0063 21.1863 20.0316C21.2692 20.057 21.3457 20.0997 21.4108 20.1569C21.4759 20.2142 21.5281 20.2847 21.5638 20.3636C21.5995 20.4426 21.618 20.5283 21.618 20.615C21.618 20.7017 21.5995 20.7874 21.5638 20.8664C21.5281 20.9454 21.4759 21.0158 21.4108 21.0731C21.3457 21.1303 21.2692 21.173 21.1863 21.1984C21.1034 21.2237 21.016 21.2311 20.9301 21.22H16.53C16.4441 21.2311 16.3567 21.2237 16.2738 21.1984C16.1909 21.173 16.1144 21.1303 16.0493 21.0731C15.9842 21.0158 15.932 20.9454 15.8963 20.8664C15.8606 20.7874 15.8421 20.7017 15.8421 20.615C15.8421 20.5283 15.8606 20.4426 15.8963 20.3636C15.932 20.2847 15.9842 20.2142 16.0493 20.1569C16.1144 20.0997 16.1909 20.057 16.2738 20.0316C16.3567 20.0063 16.4441 19.9989 16.53 20.01H20.9301ZM2.31004 20.62H4.69005C4.69005 26.27 4.69005 29.14 4.69005 30.51H2.29005L2.31004 20.62ZM7.02006 31.16C7.02006 31.09 7.02006 23.83 7.02006 20.05L7.55006 19.67C9.55006 18.29 11.9601 16.57 11.9601 13.36V11.02C12.5843 11.2575 13.1215 11.6794 13.5001 12.2296C13.8788 12.7797 14.0811 13.4321 14.0801 14.1V16.88C13.9331 17.4635 13.6247 17.9938 13.19 18.41C12.9988 18.6023 12.8803 18.855 12.8548 19.1249C12.8292 19.3949 12.8983 19.6653 13.0501 19.89C13.2594 20.1513 13.4112 20.4538 13.4956 20.7777C13.5801 21.1017 13.5952 21.4398 13.5401 21.77C13.2701 22.97 11.8501 23.89 11.2601 24.24C11.1273 24.3148 11.0107 24.4151 10.9171 24.5353C10.8235 24.6555 10.7546 24.7931 10.7146 24.9401C10.6746 25.0871 10.6642 25.2406 10.684 25.3916C10.7038 25.5427 10.7535 25.6883 10.8301 25.82C10.9048 25.9528 11.0052 26.0693 11.1253 26.163C11.2455 26.2566 11.3831 26.3254 11.5301 26.3654C11.6771 26.4054 11.8306 26.4158 11.9817 26.396C12.1327 26.3762 12.2783 26.3266 12.41 26.25C12.72 26.07 13.0101 25.88 13.3001 25.68C13.4616 25.9496 13.6679 26.1897 13.91 26.39C13.7122 26.7912 13.6096 27.2327 13.6101 27.68C13.6062 28.3206 13.8175 28.9438 14.2101 29.45C13.8209 29.958 13.61 30.5801 13.6101 31.22C13.6101 31.5189 13.6574 31.8159 13.75 32.1C10.49 32.63 8.75004 32.64 7.03004 31.16H7.02006ZM48.22 21.82C48.4184 19.9312 49.0656 18.1172 50.1076 16.5294C51.1496 14.9416 52.5563 13.626 54.2102 12.6924C55.864 11.7587 57.7172 11.2342 59.6151 11.1625C61.5129 11.0907 63.4004 11.4739 65.12 12.28C65.0464 11.9964 65.0828 11.6955 65.2219 11.4377C65.3611 11.1798 65.5926 10.9842 65.87 10.89C66.0138 10.8397 66.1661 10.8185 66.3181 10.8276C66.4701 10.8366 66.6188 10.8758 66.7555 10.9428C66.8923 11.0098 67.0144 11.1032 67.1147 11.2178C67.2151 11.3323 67.2916 11.4656 67.34 11.61L68.3901 14.68C68.4887 14.9731 68.4672 15.2933 68.3304 15.5706C68.1936 15.848 67.9526 16.0599 67.66 16.16C67.5706 16.1742 67.4795 16.1742 67.3901 16.16L64.15 16.44C63.9981 16.4537 63.845 16.437 63.6996 16.391C63.5542 16.3449 63.4194 16.2704 63.3031 16.1717C63.1868 16.0731 63.0912 15.9523 63.022 15.8164C62.9529 15.6804 62.9114 15.5321 62.9 15.38C62.8764 15.1093 62.9485 14.8389 63.1039 14.6159C63.2592 14.3929 63.4879 14.2316 63.75 14.16C62.893 13.8087 61.9909 13.5798 61.07 13.48C58.5403 13.2169 56.0095 13.9684 54.0334 15.5696C52.0572 17.1708 50.7972 19.4907 50.53 22.02C50.3073 24.0429 50.7421 26.0836 51.7701 27.84C51.8561 27.9716 51.9146 28.1193 51.9418 28.2741C51.9691 28.429 51.9646 28.5877 51.9286 28.7408C51.8926 28.8938 51.8258 29.038 51.7324 29.1644C51.639 29.2909 51.5208 29.397 51.3851 29.4764C51.2494 29.5558 51.099 29.6068 50.943 29.6262C50.787 29.6457 50.6286 29.6332 50.4776 29.5896C50.3265 29.546 50.1859 29.4721 50.0643 29.3725C49.9426 29.2729 49.8426 29.1495 49.7701 29.01C48.4907 26.8252 47.9473 24.2871 48.22 21.77V21.82ZM71.9201 24.32C71.6074 27.2429 70.2275 29.9477 68.0447 31.9164C65.8619 33.8852 63.0295 34.9796 60.09 34.99C59.6657 34.9916 59.2416 34.9683 58.82 34.92C57.4993 34.7843 56.2111 34.4259 55.0101 33.86C55.0882 34.1512 55.05 34.4613 54.9034 34.7248C54.7569 34.9882 54.5135 35.1842 54.2249 35.2714C53.9363 35.3585 53.6251 35.3298 53.3573 35.1914C53.0895 35.053 52.886 34.8158 52.7901 34.53L51.7901 31.46C51.7398 31.3163 51.7186 31.164 51.7276 31.012C51.7367 30.86 51.7758 30.7113 51.8428 30.5745C51.9098 30.4378 52.0033 30.3157 52.1178 30.2153C52.2323 30.115 52.3657 30.0384 52.5101 29.99C52.6008 29.9595 52.6948 29.9394 52.7901 29.93L56.0201 29.65C56.3274 29.625 56.6321 29.7224 56.8681 29.9209C57.104 30.1193 57.2521 30.403 57.28 30.71C57.3052 30.9824 57.2325 31.2549 57.0749 31.4785C56.9172 31.7021 56.6851 31.8622 56.4201 31.93C57.2744 32.2894 58.1777 32.5186 59.1 32.61C60.8623 32.7969 62.6419 32.4918 64.2413 31.7286C65.8408 30.9654 67.1974 29.774 68.1608 28.2865C69.1241 26.7991 69.6564 25.0737 69.6987 23.3021C69.7409 21.5304 69.2914 19.7817 68.4 18.25C68.2753 17.987 68.2541 17.6868 68.3404 17.4088C68.4268 17.1309 68.6144 16.8956 68.8662 16.7495C69.118 16.6035 69.4154 16.5575 69.6995 16.6205C69.9837 16.6836 70.2337 16.8512 70.4 17.09C71.6753 19.2727 72.2185 21.8063 71.9501 24.32H71.9201ZM35.9801 19.86C37.3238 19.862 38.638 19.4652 39.7561 18.7199C40.8743 17.9745 41.7461 16.9142 42.2613 15.6731C42.7764 14.4319 42.9117 13.0659 42.6501 11.7478C42.3884 10.4297 41.7415 9.21897 40.7913 8.26877C39.8411 7.31857 38.6303 6.67168 37.3123 6.41C35.9942 6.14833 34.6281 6.28363 33.387 6.79879C32.1459 7.31395 31.0855 8.18579 30.3402 9.30393C29.5949 10.4221 29.1981 11.7362 29.2001 13.08C29.2027 14.8774 29.9179 16.6004 31.1888 17.8713C32.4597 19.1422 34.1827 19.8574 35.9801 19.86ZM35.9801 8.61001C36.8646 8.60804 37.7298 8.86851 38.4662 9.35847C39.2026 9.84844 39.7771 10.5459 40.1169 11.3625C40.4568 12.1791 40.5467 13.0782 40.3754 13.9459C40.204 14.8137 39.7791 15.6111 39.1544 16.2372C38.5296 16.8634 37.7332 17.2901 36.8658 17.4634C35.9984 17.6367 35.0991 17.5487 34.2818 17.2107C33.4644 16.8727 32.7657 16.2997 32.2741 15.5644C31.7825 14.8291 31.5201 13.9645 31.5201 13.08C31.5201 11.8962 31.9896 10.7608 32.8258 9.92277C33.6619 9.08477 34.7963 8.61266 35.9801 8.61001ZM23.65 15.77L25.0701 16.32C25.2928 17.0762 25.5944 17.8069 25.97 18.5L25.35 19.89C25.2565 20.1044 25.2294 20.3419 25.2722 20.5718C25.315 20.8018 25.4257 21.0136 25.59 21.18L27.87 23.47C28.038 23.6352 28.2516 23.7464 28.4833 23.7892C28.715 23.8319 28.9542 23.8044 29.1701 23.71L30.56 23.09C31.2551 23.4614 31.9854 23.7629 32.7401 23.99L33.2901 25.38C33.373 25.5996 33.5207 25.7889 33.7135 25.9228C33.9063 26.0567 34.1353 26.129 34.37 26.13H37.6C37.8348 26.129 38.0637 26.0567 38.2566 25.9228C38.4494 25.7889 38.5971 25.5996 38.6801 25.38L39.2301 23.96C39.9834 23.7293 40.7133 23.428 41.41 23.06L42.8001 23.68C43.0144 23.7735 43.2519 23.8006 43.4819 23.7579C43.7118 23.7151 43.9236 23.6044 44.09 23.44L46.37 21.15C46.5368 20.9851 46.6492 20.7732 46.6921 20.5426C46.735 20.312 46.7064 20.0739 46.6101 19.86L45.9901 18.47C46.3671 17.7764 46.672 17.0459 46.9 16.29L48.32 15.74C48.5386 15.6566 48.7265 15.5086 48.8587 15.3156C48.991 15.1226 49.0612 14.8939 49.06 14.66V11.43C49.0528 11.1977 48.9754 10.973 48.838 10.7855C48.7005 10.5981 48.5095 10.4567 48.2901 10.38L46.87 9.83001C46.6402 9.0748 46.3354 8.34449 45.9601 7.65001L46.5801 6.26001C46.6764 6.04617 46.705 5.80799 46.6621 5.57742C46.6192 5.34685 46.5068 5.1349 46.34 4.97001L44.06 2.69001C43.8951 2.52324 43.6832 2.41087 43.4526 2.36797C43.2221 2.32507 42.9839 2.3537 42.7701 2.45001L41.37 3.07001C40.6798 2.69303 39.9527 2.38808 39.2001 2.16001L38.65 0.740011C38.5666 0.521463 38.4186 0.333541 38.2256 0.201323C38.0327 0.0691047 37.804 -0.00111845 37.57 1.34715e-05H34.34C34.1061 -0.00111845 33.8774 0.0691047 33.6845 0.201323C33.4915 0.333541 33.3434 0.521463 33.2601 0.740011L32.7101 2.16001C31.9536 2.38621 31.2229 2.69122 30.53 3.07001L29.1401 2.45001C28.9247 2.35288 28.6848 2.32382 28.4525 2.36671C28.2202 2.40959 28.0065 2.52239 27.84 2.69001L25.56 4.97001C25.3957 5.13641 25.285 5.34826 25.2422 5.5782C25.1994 5.80814 25.2265 6.04563 25.3201 6.26001L25.94 7.65001C25.5679 8.34474 25.2664 9.07506 25.0401 9.83001L23.62 10.38C23.4004 10.463 23.2112 10.6106 23.0773 10.8035C22.9433 10.9963 22.8711 11.2252 22.87 11.46V14.69C22.8711 14.9248 22.9433 15.1537 23.0773 15.3465C23.2112 15.5394 23.4004 15.687 23.62 15.77H23.65ZM25.2301 12.26L26.4601 11.79C26.6349 11.7194 26.7905 11.6082 26.9139 11.4656C27.0374 11.323 27.1252 11.1532 27.1701 10.97C27.4065 10.0537 27.7843 9.17986 28.2901 8.38001C28.3886 8.21945 28.4473 8.03762 28.4613 7.84973C28.4752 7.66184 28.4439 7.47334 28.37 7.30001L27.8301 6.10001L28.9801 4.94001L30.19 5.48001C30.3676 5.55434 30.5607 5.58409 30.7525 5.56666C30.9442 5.54923 31.1288 5.48515 31.2901 5.38001C32.1046 4.87264 32.9962 4.50112 33.9301 4.28001C34.1131 4.2376 34.2829 4.15058 34.4242 4.02671C34.5655 3.90284 34.674 3.74595 34.7401 3.57001L35.22 2.34001H36.85L37.32 3.57001C37.3893 3.74576 37.5 3.90214 37.6428 4.02578C37.7856 4.14942 37.9562 4.23665 38.1401 4.28001C39.0739 4.50112 39.9655 4.87264 40.78 5.38001C40.9414 5.47699 41.1237 5.53396 41.3116 5.54613C41.4994 5.55831 41.6875 5.52535 41.8601 5.45001L43.06 4.91001L44.22 6.07001L43.6801 7.27001C43.6047 7.44256 43.5718 7.63063 43.5839 7.81851C43.5961 8.00639 43.6531 8.18863 43.75 8.35001C44.2574 9.16455 44.6289 10.0562 44.85 10.99C44.8934 11.1739 44.9806 11.3445 45.1043 11.4873C45.2279 11.6301 45.3843 11.7408 45.56 11.81L46.7901 12.28V13.91L45.56 14.39C45.3841 14.456 45.2272 14.5646 45.1033 14.7059C44.9795 14.8472 44.8925 15.0169 44.85 15.2C44.6289 16.1338 44.2574 17.0255 43.75 17.84C43.6531 18.0014 43.5961 18.1836 43.5839 18.3715C43.5718 18.5594 43.6047 18.7475 43.6801 18.92L44.22 20.13L43.06 21.28L41.8601 20.74C41.6867 20.6662 41.4982 20.6349 41.3103 20.6488C41.1225 20.6627 40.9406 20.7214 40.78 20.82C39.9629 21.32 39.0719 21.6879 38.1401 21.91C37.9569 21.9549 37.787 22.0427 37.6445 22.1662C37.5019 22.2896 37.3907 22.4452 37.32 22.62L36.85 23.85H35.22L34.7401 22.62C34.6725 22.445 34.5635 22.289 34.4225 22.1653C34.2814 22.0416 34.1124 21.954 33.9301 21.91C32.9982 21.6879 32.1072 21.32 31.2901 20.82C31.1295 20.7214 30.9477 20.6627 30.7598 20.6488C30.5719 20.6349 30.3834 20.6662 30.2101 20.74L29 21.28L27.85 20.13L28.38 18.92C28.4579 18.7481 28.4923 18.5596 28.4801 18.3713C28.4678 18.1829 28.4094 18.0005 28.31 17.84C27.81 17.0229 27.4422 16.1319 27.22 15.2C27.176 15.0176 27.0884 14.8487 26.9648 14.7076C26.8411 14.5665 26.6851 14.4576 26.5101 14.39L25.2701 13.91V12.28L25.2301 12.26ZM35.9801 27.59C36.2877 27.59 36.5828 27.7122 36.8003 27.9298C37.0178 28.1473 37.1401 28.4424 37.1401 28.75V34.75C37.1401 35.0577 37.0178 35.3527 36.8003 35.5703C36.5828 35.7878 36.2877 35.91 35.9801 35.91C35.6724 35.91 35.3773 35.7878 35.1598 35.5703C34.9423 35.3527 34.82 35.0577 34.82 34.75V28.75C34.82 28.5977 34.85 28.4468 34.9083 28.3061C34.9666 28.1654 35.0521 28.0375 35.1598 27.9298C35.2675 27.8221 35.3954 27.7366 35.5361 27.6783C35.6769 27.62 35.8277 27.59 35.9801 27.59ZM65.5201 19.38C65.7247 19.6091 65.831 19.9096 65.8161 20.2164C65.8011 20.5232 65.666 20.8119 65.44 21.02L58.9301 26.92C58.7185 27.1169 58.439 27.2244 58.15 27.22C57.8427 27.2188 57.5481 27.0967 57.3301 26.88L54.66 24.21C54.5509 24.1021 54.4642 23.9737 54.4051 23.832C54.346 23.6904 54.3155 23.5385 54.3155 23.385C54.3155 23.2315 54.346 23.0796 54.4051 22.938C54.4642 22.7964 54.5509 22.6679 54.66 22.56C54.8784 22.348 55.1707 22.2295 55.475 22.2295C55.7794 22.2295 56.0717 22.348 56.2901 22.56L58.1801 24.46L63.87 19.3C64.0992 19.0954 64.3996 18.989 64.7064 19.004C65.0133 19.019 65.3019 19.154 65.5101 19.38H65.5201ZM47.4 46.16C47.0001 45.8311 46.6379 45.4588 46.32 45.05C46.1233 44.5711 45.9823 44.0712 45.9 43.56C45.84 43.32 45.7901 43.08 45.7301 42.84C45.5526 42.0632 45.1265 41.3656 44.5165 40.853C43.9064 40.3404 43.1458 40.041 42.35 40H41.6C41.0854 40.0093 40.5716 39.9556 40.07 39.84C39.6074 39.6016 39.1745 39.3096 38.78 38.97L38.19 38.53C37.5556 38.049 36.7812 37.7887 35.9851 37.7887C35.1889 37.7887 34.4145 38.049 33.78 38.53L33.1801 38.97C32.8287 39.356 32.3874 39.6492 31.8955 39.8237C31.4035 39.9981 30.8761 40.0484 30.3601 39.97H29.62C28.8233 40.0077 28.061 40.306 27.4504 40.8191C26.8397 41.3322 26.4145 42.0317 26.2401 42.81C26.1801 43.05 26.1201 43.29 26.0701 43.53C25.991 44.043 25.8465 44.5438 25.6401 45.02C25.3296 45.4319 24.9703 45.8046 24.5701 46.13L24.03 46.64C23.4425 47.1803 23.0488 47.8988 22.9097 48.6849C22.7706 49.4709 22.8937 50.2808 23.2601 50.99C23.3701 51.21 23.48 51.43 23.6 51.65C23.8626 52.0947 24.074 52.5677 24.2301 53.06C24.2534 53.5759 24.2165 54.0927 24.12 54.6C24.12 54.82 24.06 55.07 24.03 55.34C23.9296 56.1309 24.0901 56.933 24.4872 57.6243C24.8843 58.3156 25.4963 58.8583 26.2301 59.17L26.7401 59.38L23.66 66C23.5304 66.2785 23.5166 66.5971 23.6216 66.8858C23.7266 67.1745 23.9418 67.4098 24.22 67.54C24.4333 67.6466 24.6753 67.6816 24.91 67.64L28.2401 67.05L29.94 69.98C30.0946 70.2444 30.3475 70.437 30.6435 70.5157C30.9395 70.5943 31.2546 70.5528 31.5201 70.4C31.7279 70.2809 31.8925 70.0988 31.9901 69.88L35.15 63.1C35.4186 63.0092 35.6974 62.9521 35.9801 62.93C36.4931 62.9927 36.9967 63.1169 37.4801 63.3L37.63 63.35L39.88 68.56C40.0011 68.8421 40.2291 69.0648 40.514 69.1791C40.7989 69.2934 41.1175 69.2902 41.4 69.17C41.6203 69.0806 41.8061 68.9229 41.9301 68.72L43.7101 65.85L47.0201 66.52C47.2272 66.5624 47.4421 66.5473 47.6413 66.4764C47.8405 66.4055 48.0165 66.2815 48.1504 66.1178C48.2843 65.954 48.3708 65.7569 48.4007 65.5475C48.4306 65.3382 48.4027 65.1246 48.32 64.93L45.82 59.12C46.5309 58.7991 47.1203 58.259 47.5018 57.5787C47.8833 56.8985 48.0369 56.1139 47.94 55.34C47.94 55.07 47.88 54.82 47.85 54.6C47.7536 54.0927 47.7167 53.5759 47.7401 53.06C47.8962 52.5677 48.1075 52.0947 48.37 51.65C48.47 51.45 48.5801 51.23 48.7101 50.99C49.0715 50.2797 49.1918 49.471 49.0529 48.6862C48.914 47.9014 48.5233 47.1831 47.94 46.64L47.4 46.13V46.16ZM30.8301 66.91L29.8301 65.22C29.7132 65.0133 29.5348 64.8483 29.3197 64.7479C29.1046 64.6475 28.8635 64.6168 28.63 64.66L26.69 65L28.69 60.66C28.83 60.86 28.99 61.1 29.19 61.41L29.59 62.04C29.8895 62.5003 30.2885 62.8874 30.7575 63.173C31.2265 63.4586 31.7537 63.6352 32.3001 63.69L30.8301 66.91ZM43.3901 63.38C43.1579 63.3301 42.916 63.3533 42.6976 63.4464C42.4791 63.5395 42.2948 63.698 42.1701 63.9L41.1701 65.57L40.2901 63.52C41.1519 63.2802 41.8956 62.7321 42.38 61.98C42.54 61.75 42.6701 61.54 42.7901 61.35C43.0446 60.8999 43.3499 60.4805 43.7001 60.1H43.75L45.35 63.81L43.3901 63.38ZM46.6401 49.91L46.3001 50.56C45.874 51.1811 45.5858 51.8861 45.4547 52.6278C45.3236 53.3694 45.3527 54.1305 45.5401 54.86C45.5401 55.08 45.6 55.32 45.63 55.59C45.6718 55.8817 45.6147 56.179 45.4679 56.4345C45.3211 56.6901 45.0931 56.8891 44.82 57L44.15 57.28C43.4228 57.4807 42.7472 57.8356 42.1692 58.3204C41.5912 58.8053 41.1243 59.4088 40.8001 60.09L40.4 60.71C40.2406 60.9567 40.0045 61.1442 39.728 61.2436C39.4516 61.3429 39.1501 61.3487 38.87 61.26L38.1701 61.05C37.4851 60.7336 36.7396 60.5697 35.9851 60.5697C35.2305 60.5697 34.485 60.7336 33.8001 61.05L33.1 61.26C32.82 61.3487 32.5186 61.3429 32.2421 61.2436C31.9657 61.1442 31.7295 60.9567 31.5701 60.71L31.1701 60.09C30.8458 59.4088 30.3789 58.8053 29.8009 58.3204C29.2228 57.8356 28.5473 57.4807 27.8201 57.28L27.15 57C26.8773 56.888 26.6491 56.6891 26.5008 56.4342C26.3526 56.1792 26.2925 55.8825 26.3301 55.59C26.3301 55.32 26.4001 55.08 26.4201 54.86C26.612 54.131 26.6435 53.3689 26.5123 52.6265C26.3811 51.8842 26.0903 51.1791 25.66 50.56L25.3301 49.91C25.1921 49.6477 25.1457 49.3468 25.1983 49.0552C25.2508 48.7635 25.3992 48.4977 25.62 48.3C25.81 48.11 25.99 47.95 26.15 47.8C26.7637 47.3636 27.276 46.8 27.6522 46.1477C28.0284 45.4954 28.2596 44.7697 28.3301 44.02L28.5 43.31C28.5701 43.0294 28.7303 42.7796 28.9562 42.5989C29.182 42.4182 29.4609 42.3167 29.75 42.31H30.4801C31.2312 42.3708 31.9867 42.2682 32.6944 42.0092C33.4022 41.7503 34.0454 41.3412 34.5801 40.81L35.1701 40.37C35.4059 40.1955 35.6916 40.1012 35.9851 40.1012C36.2785 40.1012 36.5642 40.1955 36.8001 40.37L37.38 40.81C37.9162 41.342 38.5612 41.7515 39.2707 42.0104C39.9802 42.2694 40.7373 42.3716 41.4901 42.31H42.22C42.5092 42.3167 42.7881 42.4182 43.0139 42.5989C43.2398 42.7796 43.4 43.0294 43.47 43.31C43.53 43.57 43.58 43.81 43.63 44.02C43.7029 44.7702 43.9362 45.496 44.3141 46.1481C44.6919 46.8003 45.2055 47.3636 45.82 47.8L46.35 48.3C46.5665 48.5006 46.7119 48.7661 46.7642 49.0565C46.8165 49.347 46.7729 49.6465 46.6401 49.91ZM35.9801 42.44C34.3523 42.44 32.7611 42.9227 31.4077 43.827C30.0543 44.7313 28.9994 46.0167 28.3765 47.5205C27.7536 49.0244 27.5906 50.6791 27.9082 52.2756C28.2257 53.8721 29.0096 55.3385 30.1606 56.4895C31.3116 57.6405 32.778 58.4243 34.3745 58.7419C35.9709 59.0594 37.6257 58.8964 39.1295 58.2735C40.6334 57.6506 41.9187 56.5958 42.823 55.2424C43.7274 53.8889 44.2101 52.2977 44.2101 50.67C44.2101 49.5892 43.9972 48.519 43.5836 47.5205C43.17 46.522 42.5638 45.6147 41.7995 44.8505C41.0353 44.0863 40.128 43.4801 39.1295 43.0665C38.131 42.6529 37.0608 42.44 35.9801 42.44ZM35.9801 56.57C34.8131 56.57 33.6724 56.224 32.7022 55.5757C31.7319 54.9274 30.9757 54.0059 30.5292 52.9278C30.0826 51.8498 29.9658 50.6635 30.1934 49.519C30.4211 48.3745 30.983 47.3232 31.8081 46.4981C32.6332 45.673 33.6845 45.111 34.829 44.8834C35.9735 44.6557 37.1598 44.7726 38.2379 45.2191C39.316 45.6657 40.2374 46.4219 40.8857 47.3921C41.534 48.3624 41.88 49.5031 41.88 50.67C41.8774 52.234 41.255 53.7331 40.1491 54.839C39.0432 55.9449 37.544 56.5674 35.9801 56.57ZM23.62 41.79L19.37 37.54C19.1526 37.3225 19.0305 37.0275 19.0305 36.72C19.0305 36.4125 19.1526 36.1175 19.37 35.9C19.4769 35.7927 19.6039 35.7075 19.7438 35.6494C19.8836 35.5913 20.0336 35.5614 20.185 35.5614C20.3365 35.5614 20.4865 35.5913 20.6263 35.6494C20.7662 35.7075 20.8932 35.7927 21 35.9L25.2601 40.15C25.3677 40.2584 25.453 40.3868 25.5111 40.5281C25.5691 40.6694 25.5987 40.8208 25.5982 40.9735C25.5978 41.1263 25.5672 41.2775 25.5083 41.4184C25.4495 41.5594 25.3634 41.6873 25.255 41.795C25.1467 41.9027 25.0182 41.988 24.8769 42.046C24.7356 42.104 24.5843 42.1337 24.4315 42.1332C24.2788 42.1327 24.1276 42.1022 23.9866 42.0433C23.8457 41.9844 23.7177 41.8984 23.6101 41.79H23.62ZM52.62 35.9C52.7289 36.007 52.8154 36.1347 52.8744 36.2755C52.9334 36.4162 52.9638 36.5674 52.9638 36.72C52.9638 36.8727 52.9334 37.0238 52.8744 37.1646C52.8154 37.3054 52.7289 37.433 52.62 37.54L48.37 41.79C48.2634 41.8991 48.1358 41.9855 47.9948 42.0439C47.8539 42.1023 47.7026 42.1316 47.5501 42.13C47.3976 42.1311 47.2465 42.1015 47.1056 42.0431C46.9648 41.9847 46.8371 41.8986 46.7301 41.79C46.5127 41.5725 46.3905 41.2775 46.3905 40.97C46.3905 40.6625 46.5127 40.3675 46.7301 40.15L50.9801 35.9C51.0871 35.7912 51.2147 35.7047 51.3555 35.6457C51.4963 35.5867 51.6474 35.5563 51.8001 35.5563C51.9527 35.5563 52.1038 35.5867 52.2446 35.6457C52.3854 35.7047 52.513 35.7912 52.62 35.9ZM40.2901 47.67C40.4947 47.8991 40.601 48.1996 40.586 48.5064C40.5711 48.8132 40.436 49.1019 40.2101 49.31L35.2901 53.79C35.0758 53.9826 34.7981 54.0895 34.5101 54.09C34.2029 54.0877 33.9087 53.9658 33.69 53.75L31.69 51.75C31.4774 51.5336 31.3581 51.2424 31.3576 50.939C31.3571 50.6356 31.4755 50.3441 31.6874 50.1269C31.8993 49.9098 32.1879 49.7843 32.4912 49.7774C32.7945 49.7705 33.0885 49.8827 33.31 50.09L34.56 51.34L38.6801 47.61C38.7929 47.5075 38.9249 47.4282 39.0685 47.3767C39.212 47.3252 39.3643 47.3025 39.5166 47.3099C39.669 47.3174 39.8183 47.3548 39.9562 47.42C40.094 47.4852 40.2177 47.577 40.32 47.69L40.2901 47.67Z" fill="url(#paint0_linear_83_576)"/>
<defs>
<linearGradient id="paint0_linear_83_576" x1="0.0498031" y1="1.5173e-06" x2="69.8379" y2="73.1114" gradientUnits="userSpaceOnUse">
<stop stop-color="#E98135"/>
<stop offset="1" stop-color="#48389C"/>
</linearGradient>
</defs>
</svg>
